<svg width="32" height="29" viewBox="0 0 32 29" fill="none" xmlns="http://www.w3.org/2000/svg">
<path d="M18.3059 0.919888C17.6835 0.32926 16.8581 0 16 0C15.1419 0 14.3166 0.32926 13.6941 0.919888L0.772725 13.831C0.346011 14.2574 0.345873 14.949 0.772418 15.3755V15.3755C1.19884 15.8019 1.89021 15.8019 2.31664 15.3755L4.03535 13.6568V24.9797C4.03535 25.8451 4.37914 26.6751 4.99109 27.2871C5.60303 27.899 6.43301 28.2428 7.29844 28.2428H24.7016C25.567 28.2428 26.397 27.899 27.0089 27.2871C27.6209 26.6751 27.9646 25.8451 27.9646 24.9797V13.6568L29.6834 15.3755C30.1098 15.8019 30.8012 15.8019 31.2276 15.3755V15.3755C31.6541 14.949 31.654 14.2574 31.2273 13.831L18.3059 0.919888ZM13.8246 26.0674V20.6289C13.8246 19.4275 14.7986 18.4535 16 18.4535V18.4535C17.2014 18.4535 18.1754 19.4275 18.1754 20.6289V26.0674H13.8246ZM25.7893 24.9797C25.7893 25.2682 25.6747 25.5448 25.4707 25.7488C25.2667 25.9528 24.99 26.0674 24.7016 26.0674H20.3508V20.6289C20.3508 18.2261 18.4029 16.2781 16 16.2781V16.2781C13.5971 16.2781 11.6492 18.2261 11.6492 20.6289V26.0674H7.29844C7.00996 26.0674 6.7333 25.9528 6.52932 25.7488C6.32534 25.5448 6.21074 25.2682 6.21074 24.9797V11.4814L15.2277 2.45354C15.3289 2.35159 15.4492 2.27067 15.5817 2.21545C15.7142 2.16023 15.8564 2.1318 16 2.1318C16.1436 2.1318 16.2858 2.16023 16.4183 2.21545C16.5508 2.27067 16.6711 2.35159 16.7723 2.45354L25.7893 11.4814V24.9797Z" fill="#6F6F6F"/>
</svg>
