<svg id="Experience" xmlns="http://www.w3.org/2000/svg" width="60.139" height="98.351" viewBox="0 0 60.139 98.351">
  <path id="Path_65" data-name="Path 65" d="M30.072,0A30.112,30.112,0,0,0,0,30.082a29.68,29.68,0,0,0,5.83,17.78l1.393,2.065C11.557,56.283,17.492,65,17.159,71.1l-.12,2.209H19.78L40.9,73.293,43,73.254l-.019-2.108c0-.067.053-7,10.217-21.685l.927-1.352a28.65,28.65,0,0,0,2.411-3.753,25.171,25.171,0,0,0,1.213-2.524,29.8,29.8,0,0,0,2.387-11.751A30.111,30.111,0,0,0,30.072,0ZM53.894,40.214a21.143,21.143,0,0,1-1.025,2.139,28.174,28.174,0,0,1-2.125,3.3l-.987,1.431C41.773,58.626,39.59,65.767,39.009,69.11l-17.732.012c-.737-7.088-6.37-15.353-10.6-21.555L9.268,45.483a25.885,25.885,0,1,1,46.688-15.4A25.711,25.711,0,0,1,53.894,40.214Z" fill="#46ae13"/>
  <rect id="Rectangle_40" data-name="Rectangle 40" width="12.39" height="4.183" transform="translate(23.875 94.168)" fill="#46ae13"/>
  <rect id="Rectangle_41" data-name="Rectangle 41" width="25.104" height="4.188" transform="translate(17.519 85.908)" fill="#46ae13"/>
  <path id="Path_66" data-name="Path 66" d="M365.889,154.2a2.028,2.028,0,0,0-2.552,1.184,1.986,1.986,0,0,0,1.184,2.552c2.512.912,3.65,3.383,4.168,5.287,1.013,3.753.317,8.3-.989,9.869a1.989,1.989,0,0,0,1.537,3.258,2.321,2.321,0,0,0,.427-.043,2.007,2.007,0,0,0,1.1-.67c2.288-2.754,3.059-8.661,1.767-13.456C371.46,158.2,369.1,155.369,365.889,154.2Z" transform="translate(-327.845 -139.08)" fill="#46ae13"/>
  <rect id="Rectangle_42" data-name="Rectangle 42" width="25.104" height="4.188" transform="translate(17.519 77.648)" fill="#46ae13"/>
</svg>
