<svg id="Fill" xmlns="http://www.w3.org/2000/svg" width="88.13" height="82.781" viewBox="0 0 88.13 82.781">
  <path id="Path_64" data-name="Path 64" d="M71,28.471,66.443,10.227A9.552,9.552,0,0,0,57.178,3H35.272a9.552,9.552,0,0,0-9.265,7.228L21.454,28.471H2.16L14.673,78.554a9.552,9.552,0,0,0,9.265,7.227H68.512a9.552,9.552,0,0,0,9.265-7.228L90.29,28.471ZM43.041,60.31v19.1H36.132l-3.6-19.1ZM31.356,53.942l-3.6-19.1H43.041v19.1ZM49.409,60.31H59.916l-3.6,19.1H49.409Zm0-6.368v-19.1H64.692l-3.6,19.1Zm21.746-19.1H82.139l-4.776,19.1H67.557ZM32.184,11.788a3.184,3.184,0,0,1,3.184-2.42H57.273a3.184,3.184,0,0,1,3.184,2.42l3.98,16.684H28.013ZM21.3,34.839l3.6,19.1H15.087l-4.776-19.1Zm-.541,42.155L16.679,60.31H26.23l3.566,19.1H23.938A3.184,3.184,0,0,1,20.754,76.994Zm50.751,0a3.184,3.184,0,0,1-2.993,2.42h-5.7l3.566-19.1h9.552Z" transform="translate(-2.16 -3)" fill="#46ae13"/>
</svg>
