<svg id="Foundation" xmlns="http://www.w3.org/2000/svg" width="83.292" height="73.575" viewBox="0 0 83.292 73.575">
  <path id="Path_61" data-name="Path 61" d="M20.217,45.722,59.3,64.288a2.554,2.554,0,0,0,2.2,0l39.084-18.567a2.562,2.562,0,0,0,0-4.631L61.5,22.523a2.557,2.557,0,0,0-2.2,0L20.217,41.091a2.562,2.562,0,0,0,0,4.631ZM60.4,27.677,93.5,43.406,60.4,59.134l-33.1-15.728Z" transform="translate(-18.752 -22.274)" fill="#46ae13"/>
  <path id="Path_62" data-name="Path 62" d="M101.8,46.427a2.567,2.567,0,0,0-3.418-1.216L60.4,63.254,22.418,45.211a2.565,2.565,0,1,0-2.2,4.634L59.3,68.411a2.568,2.568,0,0,0,2.2,0l39.084-18.568A2.565,2.565,0,0,0,101.8,46.427Z" transform="translate(-18.752 -10.74)" fill="#46ae13"/>
  <path id="Path_63" data-name="Path 63" d="M101.8,56.805a2.567,2.567,0,0,0-3.418-1.216L60.4,73.633,22.418,55.59a2.565,2.565,0,1,0-2.2,4.634L59.3,78.79a2.568,2.568,0,0,0,2.2,0l39.084-18.568A2.566,2.566,0,0,0,101.8,56.805Z" transform="translate(-18.752 -5.463)" fill="#46ae13"/>
</svg>
