<svg id="Quality" xmlns="http://www.w3.org/2000/svg" width="94.896" height="93.875" viewBox="0 0 94.896 93.875">
  <path id="Path_72" data-name="Path 72" d="M98.641,334.239a102.422,102.422,0,0,1-12.626.768c-24.117,0-44.492-8.391-44.492-18.323,0-4.794,4.92-9.544,13.5-13.033a1.478,1.478,0,1,0-1.114-2.739c-9.893,4.023-15.342,9.624-15.342,15.771,0,11.933,20.842,21.28,47.448,21.28a105.392,105.392,0,0,0,12.992-.79,1.478,1.478,0,1,0-.366-2.934Z" transform="translate(-38.566 -244.088)" fill="#46ae13"/>
  <path id="Path_73" data-name="Path 73" d="M369.268,411.167c-4.054,3.139-10.107,5.724-17.507,7.478a1.478,1.478,0,0,0,.34,2.917,1.5,1.5,0,0,0,.342-.04c7.806-1.85,14.25-4.622,18.635-8.017a1.478,1.478,0,0,0-1.81-2.338Z" transform="translate(-282.526 -330.127)" fill="#46ae13"/>
  <path id="Path_74" data-name="Path 74" d="M458.952,351.719a1.478,1.478,0,1,0-2.733,1.128,7.642,7.642,0,0,1,.6,2.926,7.739,7.739,0,0,1-.723,3.21,1.478,1.478,0,1,0,2.692,1.222,10.415,10.415,0,0,0,.163-8.487Z" transform="translate(-364.88 -283.178)" fill="#46ae13"/>
  <path id="Path_75" data-name="Path 75" d="M423.7,315.006a31.309,31.309,0,0,0-3.552-2.36,1.478,1.478,0,1,0-1.474,2.563,28.383,28.383,0,0,1,3.217,2.135,1.478,1.478,0,1,0,1.81-2.338Z" transform="translate(-335.145 -253.192)" fill="#46ae13"/>
  <path id="Path_76" data-name="Path 76" d="M148.592,202.466l22.127,12.153c.026.014.052.024.078.036s.052.026.079.037.08.029.121.041c.019.006.038.014.058.019a1.487,1.487,0,0,0,.153.031l.033.006a1.484,1.484,0,0,0,.189.013h0a1.446,1.446,0,0,0,.189-.013l.033-.006a1.487,1.487,0,0,0,.153-.031c.02-.005.039-.013.058-.019.041-.012.081-.025.121-.041s.053-.025.079-.037.052-.022.078-.036l22.127-12.153a1.479,1.479,0,0,0,.767-1.3V173.929c0-.007,0-.013,0-.019s0-.013,0-.02c0-.024-.005-.047-.007-.07s-.005-.073-.011-.109-.011-.059-.017-.089-.015-.07-.025-.1-.019-.057-.029-.086-.024-.066-.038-.1-.026-.054-.039-.081-.033-.062-.051-.092-.032-.05-.049-.074-.041-.057-.063-.085-.039-.046-.059-.068-.048-.051-.074-.075-.045-.041-.069-.061-.054-.043-.083-.064-.051-.036-.078-.053c-.012-.007-.022-.016-.034-.023s-.039-.019-.059-.03-.034-.021-.051-.029l-22.127-10.676a1.477,1.477,0,0,0-1.285,0L148.661,172.6c-.018.009-.034.02-.051.029s-.04.019-.059.03-.022.016-.034.023c-.027.017-.053.035-.078.053s-.056.041-.083.064-.046.04-.069.061-.05.049-.074.075-.04.045-.059.068-.043.056-.063.085-.034.049-.049.074-.035.061-.051.092-.027.053-.039.081-.026.065-.038.1-.02.057-.029.086-.017.069-.025.1-.013.058-.018.089-.008.073-.01.109-.006.047-.007.07c0,.007,0,.013,0,.02s0,.013,0,.019V201.17A1.479,1.479,0,0,0,148.592,202.466Zm2.19-26.039,19.171,10.529V205.4a1.478,1.478,0,1,0,2.956,0V186.082c0-.031,0-.06-.006-.09s0-.047,0-.071-.01-.068-.016-.1-.009-.046-.014-.069-.01-.049-.017-.072-.009-.023-.012-.035c-.012-.04-.026-.08-.041-.119,0-.007,0-.014-.007-.021s-.021-.041-.032-.062-.021-.042-.032-.063-.036-.063-.056-.094-.026-.038-.039-.057-.024-.038-.038-.056l-.017-.02c-.027-.033-.055-.064-.085-.094-.008-.008-.015-.018-.023-.026s-.037-.033-.056-.05l-.054-.046c-.027-.022-.054-.043-.083-.063s-.038-.024-.057-.037-.05-.035-.077-.05l-19.613-10.772,18.9-9.119,18.9,9.119L177.063,181.3a1.478,1.478,0,0,0,1.423,2.592l13.593-7.466V200.3l-20.649,11.341L150.782,200.3Z" transform="translate(-123.983 -135.398)" fill="#46ae13"/>
  <path id="Path_77" data-name="Path 77" d="M58.037,160.541a9.936,9.936,0,0,1,2.425,2.373,1.478,1.478,0,0,0,2.359-1.782A14.69,14.69,0,0,0,61,159.115a31.123,31.123,0,0,0,3.339-4.678,14.49,14.49,0,0,0,2.764,4.628,25.272,25.272,0,0,0-3.938,8.118,1.478,1.478,0,1,0,2.879.673c.926-3.962,4.161-8.013,4.193-8.053a1.478,1.478,0,0,0-.258-2.107c-2.994-2.268-3.905-7.954-3.914-8.01a1.478,1.478,0,0,0-2.907-.087c-.858,4-5.33,8.623-5.375,8.668a1.478,1.478,0,0,0,.25,2.273Z" transform="translate(-53.263 -124.967)" fill="#46ae13"/>
  <path id="Path_78" data-name="Path 78" d="M221.148,53.015a10.206,10.206,0,0,1,2.578,2.579,1.478,1.478,0,0,0,2.389-1.742,14.969,14.969,0,0,0-2-2.263,31.139,31.139,0,0,0,3.339-4.678,14.486,14.486,0,0,0,2.764,4.628,25.274,25.274,0,0,0-3.938,8.118,1.478,1.478,0,1,0,2.879.673c.926-3.962,4.161-8.013,4.194-8.053a1.479,1.479,0,0,0-.258-2.107c-2.994-2.268-3.905-7.954-3.914-8.01a1.478,1.478,0,0,0-2.907-.087c-.858,4-5.33,8.623-5.375,8.668a1.478,1.478,0,0,0,.251,2.273Z" transform="translate(-180.78 -40.905)" fill="#46ae13"/>
  <path id="Path_79" data-name="Path 79" d="M383.38,142.107a9.126,9.126,0,0,1,1.936,1.762,1.478,1.478,0,1,0,2.254-1.912,13.692,13.692,0,0,0-1.225-1.275A31.141,31.141,0,0,0,389.684,136a14.489,14.489,0,0,0,2.764,4.628,25.275,25.275,0,0,0-3.938,8.118,1.478,1.478,0,1,0,2.879.673c.926-3.962,4.161-8.013,4.193-8.053a1.479,1.479,0,0,0-.258-2.107c-2.994-2.268-3.905-7.954-3.914-8.01a1.478,1.478,0,0,0-2.907-.087c-.858,4-5.33,8.623-5.375,8.668a1.478,1.478,0,0,0,.251,2.273Z" transform="translate(-307.609 -110.556)" fill="#46ae13"/>
</svg>
