<svg id="Success" xmlns="http://www.w3.org/2000/svg" width="104.668" height="118.32" viewBox="0 0 104.668 118.32">
  <path id="Path_70" data-name="Path 70" d="M122.8,144.971a2.336,2.336,0,0,0-2.678,1.913l-3.586,22.329a27.243,27.243,0,0,1-53.455.143l-3.634-22.424a2.327,2.327,0,1,0-4.59.765l3.634,22.52a31.9,31.9,0,0,0,62.635-.048l3.634-22.424A2.429,2.429,0,0,0,122.8,144.971Z" transform="translate(-37.405 -77.716)" fill="#46ae13"/>
  <path id="Path_71" data-name="Path 71" d="M119.047,15.508A10.987,10.987,0,0,0,103.7,31.1c-4.064,4.973-7.746,7.315-11.236,7.029-4.542-.335-9.419-5.116-14.487-14.153a11.253,11.253,0,0,0,3.682-5.5,11.81,11.81,0,0,0-1.434-9.467A10.269,10.269,0,0,0,70.8,4.368a10.047,10.047,0,0,0-9.371,4.638A11.975,11.975,0,0,0,60,18.473a11.275,11.275,0,0,0,3.634,5.5c-5.068,9.037-9.945,13.818-14.487,14.153-3.443.287-7.172-2.056-11.236-7.029a11.186,11.186,0,0,0,2.343-9.085,10.945,10.945,0,0,0-8.415-8.7,11.01,11.01,0,1,0-3.395,21.707l4.734,29.453a2.236,2.236,0,0,0,1.148,1.626,2.284,2.284,0,0,0,2.008.143,97.373,97.373,0,0,1,34.426-6.12,97.373,97.373,0,0,1,34.426,6.12,2.429,2.429,0,0,0,.813.143,2.006,2.006,0,0,0,1.148-.335,2.371,2.371,0,0,0,1.148-1.626l4.734-29.453a10.984,10.984,0,0,0,10.041-10.949A10.619,10.619,0,0,0,119.047,15.508Zm-6.933,14.918a3.619,3.619,0,0,1-.717-.048,2.416,2.416,0,0,0-2.63,1.96l-4.59,28.688a102.468,102.468,0,0,0-33.422-5.451,102.468,102.468,0,0,0-33.421,5.451l-4.59-28.688a2.359,2.359,0,0,0-2.63-1.96,3.619,3.619,0,0,1-.717.048,6.355,6.355,0,0,1-4.016-11.284,6.255,6.255,0,0,1,5.4-1.243,6.361,6.361,0,0,1,4.829,4.973,6.288,6.288,0,0,1-2.343,6.216,2.337,2.337,0,0,0-.43,3.251c5.594,7.459,11,10.9,16.543,10.471,6.6-.526,12.91-6.55,19.269-18.5a2.4,2.4,0,0,0,.143-1.817A2.293,2.293,0,0,0,67.6,21.1a6.379,6.379,0,0,1-3.3-3.921,7.162,7.162,0,0,1,.956-5.738,5.4,5.4,0,0,1,4.925-2.391,2.89,2.89,0,0,0,.908,0,5.347,5.347,0,0,1,4.925,2.391,7.19,7.19,0,0,1,.956,5.738,6.533,6.533,0,0,1-3.3,3.921,2.293,2.293,0,0,0-1.2,1.387,2.4,2.4,0,0,0,.143,1.817c6.359,11.953,12.671,17.978,19.269,18.5,5.546.43,10.949-3.012,16.543-10.471a2.349,2.349,0,0,0-.43-3.251,6.442,6.442,0,0,1-2.343-6.168,6.339,6.339,0,0,1,12.575,1.148A6.041,6.041,0,0,1,112.114,30.426Z" transform="translate(-18.4 -4.338)" fill="#46ae13"/>
</svg>
