<svg id="Team" xmlns="http://www.w3.org/2000/svg" width="124.942" height="118.213" viewBox="0 0 124.942 118.213">
  <path id="Path_82" data-name="Path 82" d="M183.107,30.14h0a10.465,10.465,0,0,0,20.561,0l1.266-6.432A10.919,10.919,0,0,0,194.147,11.3h-1.469a10.95,10.95,0,0,0-10.787,12.56Zm5.166-11.749a5.953,5.953,0,0,1,4.457-2.026H194.2a5.9,5.9,0,0,1,5.875,6.533l-1.215,6.28a5.473,5.473,0,0,1-10.737,0l-1.215-6.128A5.778,5.778,0,0,1,188.273,18.39Z" transform="translate(-92.09 -11.3)" fill="#46ae13"/>
  <path id="Path_83" data-name="Path 83" d="M205.438,94.115l-2.887-13.674a4.917,4.917,0,0,0-3.14-3.6L189.435,73.3l-7.5,7.5-7.5-7.5-9.977,3.545a4.917,4.917,0,0,0-3.14,3.6l-2.887,13.674a2.513,2.513,0,0,0,4.912,1.064l2.836-13.573,6.989-2.482,8.812,8.812,8.812-8.812,6.888,2.38,2.887,13.674a2.544,2.544,0,0,0,2.482,1.975,1.723,1.723,0,0,0,.506-.051A2.558,2.558,0,0,0,205.438,94.115Z" transform="translate(-80.54 -41.901)" fill="#46ae13"/>
  <path id="Path_84" data-name="Path 84" d="M29.607,30.14h0a10.465,10.465,0,0,0,20.561,0l1.266-6.432A10.919,10.919,0,0,0,40.647,11.3H39.179A10.95,10.95,0,0,0,28.392,23.86ZM34.773,18.39a5.953,5.953,0,0,1,4.457-2.026H40.7A5.9,5.9,0,0,1,46.573,22.9l-1.215,6.28a5.473,5.473,0,0,1-10.736,0l-1.215-6.128A5.606,5.606,0,0,1,34.773,18.39Z" transform="translate(-16.328 -11.3)" fill="#46ae13"/>
  <path id="Path_85" data-name="Path 85" d="M37.1,79.124,43.99,81.5l2.887,13.674a2.544,2.544,0,0,0,2.482,1.975,1.723,1.723,0,0,0,.506-.051,2.5,2.5,0,0,0,1.924-2.988L48.9,80.441a4.917,4.917,0,0,0-3.14-3.6L35.785,73.3l-7.546,7.546-7.5-7.546-9.977,3.545a4.917,4.917,0,0,0-3.14,3.6L4.741,94.115a2.513,2.513,0,0,0,4.912,1.064l2.785-13.573,6.989-2.482,8.812,8.812Z" transform="translate(-4.68 -41.901)" fill="#46ae13"/>
  <path id="Path_86" data-name="Path 86" d="M116.688,162.848a10.516,10.516,0,0,0,10.281-8.508l1.266-6.432A10.919,10.919,0,0,0,117.447,135.5h-1.469a10.95,10.95,0,0,0-10.787,12.56l1.215,6.28h0A10.516,10.516,0,0,0,116.688,162.848Zm-5.166-20.258a5.953,5.953,0,0,1,4.457-2.026h1.469a5.9,5.9,0,0,1,5.875,6.533l-1.215,6.28a5.473,5.473,0,0,1-10.736,0l-1.215-6.128A5.778,5.778,0,0,1,111.522,142.59Z" transform="translate(-54.234 -72.6)" fill="#46ae13"/>
  <path id="Path_87" data-name="Path 87" d="M125.7,204.741a4.917,4.917,0,0,0-3.14-3.6l-9.977-3.545-7.546,7.5-7.5-7.5-9.977,3.545a4.917,4.917,0,0,0-3.14,3.6l-2.887,13.674a2.513,2.513,0,1,0,4.912,1.064l2.785-13.573,6.989-2.482,8.812,8.812,8.812-8.812,6.888,2.38,2.887,13.674a2.544,2.544,0,0,0,2.482,1.975,1.723,1.723,0,0,0,.506-.051,2.5,2.5,0,0,0,1.924-2.988Z" transform="translate(-42.585 -103.251)" fill="#46ae13"/>
  <path id="Path_88" data-name="Path 88" d="M196.2,133.485a2.446,2.446,0,0,0-2.735,2.279,40.264,40.264,0,0,1-14.028,26.841,2.548,2.548,0,0,0-.3,3.545,2.443,2.443,0,0,0,1.924.861,2.483,2.483,0,0,0,1.621-.608,45.344,45.344,0,0,0,15.8-30.184A2.573,2.573,0,0,0,196.2,133.485Z" transform="translate(-90.5 -71.599)" fill="#46ae13"/>
  <path id="Path_89" data-name="Path 89" d="M43.207,135.772a2.517,2.517,0,0,0-5.014.456,45.233,45.233,0,0,0,15.8,30.184,2.516,2.516,0,0,0,3.241-3.849A40.039,40.039,0,0,1,43.207,135.772Z" transform="translate(-21.217 -71.606)" fill="#46ae13"/>
  <path id="Path_90" data-name="Path 90" d="M98.5,47.03a40.853,40.853,0,0,1,26.689,0,2.366,2.366,0,0,0,.861.152,2.562,2.562,0,0,0,2.38-1.671,2.482,2.482,0,0,0-1.519-3.191,45.573,45.573,0,0,0-30.032,0A2.5,2.5,0,0,0,95.36,45.51,2.39,2.39,0,0,0,98.5,47.03Z" transform="translate(-49.365 -25.354)" fill="#46ae13"/>
</svg>
