<svg width="1410" height="1016" viewBox="0 0 1410 1016" fill="none" xmlns="http://www.w3.org/2000/svg">
<path fill-rule="evenodd" clip-rule="evenodd" d="M1278.09 163.52C1284.84 167.42 1285.22 173.527 1279.24 177.618L1331.93 208.042L891.752 454.556L1116.32 584.049L1066.63 611.844L1235.33 709.244L1355.72 641.82C1345.01 634.863 1345.5 624.315 1357.15 617.791C1369.23 611.022 1388.76 611.149 1400.76 618.077C1412.76 625.004 1412.68 636.108 1400.6 642.877C1388.95 649.401 1370.39 649.519 1358.32 643.32L1235.31 712.209L1064.01 613.309L955.478 674.014L1063.34 736.286L1010.73 765.749L1100.67 817.679L1153.28 788.216L1280.83 861.858C1281.01 861.759 1281.18 861.661 1281.35 861.563C1301.96 850.023 1335.24 850.241 1355.7 862.049C1376.15 873.858 1376.03 892.785 1355.42 904.325C1334.82 915.864 1301.53 915.646 1281.08 903.838C1261.68 892.636 1260.79 875.027 1278.34 863.397L1153.26 791.182L1100.65 820.645L1005.51 765.715L1058.12 736.252L952.859 675.479L805.863 757.698L1073.43 912.176L939.176 987.528C939.583 987.737 939.982 987.954 940.372 988.18C951.216 994.44 951.15 1004.48 940.225 1010.59C929.3 1016.71 911.652 1016.6 900.807 1010.34C889.963 1004.08 890.029 994.04 900.954 987.922C910.584 982.529 925.437 981.979 936.25 986.212L1068.21 912.143L803.244 759.163L724.869 803L682.884 778.79L532.238 863.156L622.858 915.475L578.428 940.357L665.324 990.527C675.305 985.362 690.827 985.597 700.455 991.155C710.321 996.852 710.262 1005.98 700.322 1011.55C690.381 1017.12 674.325 1017.01 664.459 1011.31C655.229 1005.99 654.686 997.652 662.791 992.041L575.81 941.823L485.433 992.437C493.262 998.148 492.546 1006.38 483.322 1011.55C473.382 1017.12 457.326 1017.01 447.459 1011.31C437.593 1005.62 437.652 996.487 447.593 990.921C457.365 985.448 473.049 985.457 482.951 990.872L617.642 915.441L527.023 863.122L680.284 777.291L336.32 578.951L423.058 530.435L270.892 442.583L242.635 458.407L177.467 420.783C169.622 424.454 157.958 424.149 150.636 419.922C142.891 415.45 142.938 408.283 150.741 403.913C158.544 399.543 171.148 399.625 178.893 404.097C186.186 408.307 186.57 414.908 180.077 419.312L242.655 455.442L270.912 439.617L425.677 528.971L651.177 402.842L352.8 230.574L391.564 208.865C385.485 205.197 385.608 199.444 391.905 195.917C398.29 192.341 408.602 192.409 414.939 196.068C421.276 199.726 421.238 205.591 414.853 209.166C409.277 212.289 400.703 212.633 394.4 210.231L358.015 230.608L653.796 401.377L727.772 360L889.152 453.057L1326.72 208.008L1276.62 179.084C1269.34 182.422 1258.6 182.117 1251.85 178.217C1244.65 174.064 1244.7 167.407 1251.94 163.349C1259.19 159.29 1270.9 159.367 1278.09 163.52ZM342.395 578.99L727.75 363.45L1110.25 584.01L724.892 799.55L342.395 578.99Z" fill="#69D866"/>
<path d="M223.248 271.629C231.043 266.423 230.627 258.57 221.965 253.569C212.812 248.284 197.916 248.187 188.694 253.351C179.473 258.516 179.417 266.986 188.57 272.271C197.341 277.335 211.384 277.636 220.656 273.109L522.011 447.097L524.629 445.631L223.248 271.629Z" fill="#69D866"/>
<path d="M523.701 687.611L521.102 686.111L148.984 894.507C128.806 883.409 96.7554 883.37 76.7987 894.547C56.5362 905.894 56.4143 924.507 76.5266 936.118C96.6389 947.73 129.369 947.944 149.632 936.597C169.324 925.569 169.993 907.679 151.555 896.022L523.701 687.611Z" fill="#69D866"/>
<path d="M55.7982 689.495C67.9206 696.493 68.2798 707.562 56.928 714.701L172.844 781.626L433.604 635.593L436.202 637.093L172.825 784.592L54.3136 716.169C41.5879 722.547 22.0868 722.184 9.94485 715.174C-2.62326 707.917 -2.54709 696.287 10.1149 689.196C22.777 682.104 43.2301 682.238 55.7982 689.495Z" fill="#69D866"/>
<path d="M1324.03 397.15C1323.57 397.43 1323.11 397.705 1322.63 397.975C1306.82 406.828 1281.28 406.661 1265.59 397.602C1249.9 388.542 1250 374.021 1265.8 365.168C1281.61 356.315 1307.15 356.482 1322.84 365.542C1337.16 373.812 1338.33 386.635 1326.4 395.541L1406.28 441.662L1248.63 529.949L1179.19 489.857L1063.6 552.769L1061.04 551.248L1179.25 486.912L1248.65 526.983L1401.07 441.628L1324.03 397.15Z" fill="#69D866"/>
<g filter="url(#filter0_d)">
<path d="M1024.12 99.5302C1023.94 33.5302 977.209 6.88025 919.759 40.0503C896.759 53.3503 875.459 74.2602 858.259 98.7802C819.259 35.2602 741.069 21.6403 651.079 73.5903C551.879 130.87 467.379 251.12 434.169 370.93C347.319 434.84 280.629 559.14 280.919 662.76C281.017 697.287 288.538 725.531 301.741 746.5" stroke="#B9B9B9" stroke-opacity="0.01" stroke-width="2"/>
</g>
<path d="M1027.87 103.02L1028.82 102.72L1030.68 102.14H1030.8L1031.57 101.92L1033.57 101.34L1034.67 101.05L1036.43 100.59L1036.82 100.48L1037.55 100.31L1039.36 99.88L1040.5 99.63L1042.28 99.26L1042.97 99.12L1043.38 99.04C1044.11 98.9 1044.83 98.77 1045.56 98.65L1046.33 98.52C1047.33 98.36 1048.33 98.2101 1049.25 98.0801H1049.35L1049.79 98.02L1052.26 97.73L1053.26 97.64L1055.36 97.4501H1055.94H1056.27C1057.27 97.3801 1058.34 97.32 1059.37 97.29H1059.69C1060.61 97.29 1061.54 97.29 1062.45 97.29H1063.26C1064.4 97.29 1065.54 97.29 1066.66 97.38H1066.72C1067.8 97.38 1068.87 97.51 1069.94 97.6H1070.36H1070.84L1071.84 97.7001C1072.27 97.7001 1072.69 97.79 1073.12 97.85L1074.12 97.9701L1075.38 98.16L1076.38 98.3101L1077.64 98.53L1078.57 98.7001L1078.9 98.76L1079.53 98.9C1080.04 99 1080.53 99.11 1081.07 99.23L1082.07 99.4601L1083.55 99.8301L1084.49 100.08L1086 100.52L1086.85 100.78C1087.43 100.96 1088.01 101.15 1088.58 101.35L1089.09 101.52H1089.16C1090.1 101.85 1091.03 102.21 1091.95 102.52L1092.63 102.8C1093.5 103.15 1094.37 103.53 1095.23 103.92L1095.4 103.99C1096.3 104.41 1097.19 104.85 1098.07 105.3L1098.72 105.64C1099.6 106.1 1100.48 106.58 1101.34 107.08L1166.34 144.88C1165.48 144.38 1164.61 143.88 1163.72 143.44L1163.08 143.1C1162.2 142.65 1161.31 142.21 1160.4 141.79L1160.24 141.72C1159.38 141.33 1158.51 140.96 1157.63 140.6L1156.96 140.32C1156.03 139.96 1155.1 139.6 1154.16 139.27L1153.6 139.08C1153.02 138.89 1152.44 138.69 1151.85 138.51L1151 138.25L1149.49 137.81L1148.56 137.56L1147.08 137.19L1146.08 136.96L1144.55 136.63L1143.55 136.43L1142.63 136.26L1141.36 136.04C1141.05 135.98 1140.73 135.94 1140.36 135.89L1139.1 135.7L1138.1 135.58C1137.68 135.52 1137.25 135.48 1136.83 135.43L1135.83 135.33L1134.92 135.25C1133.86 135.16 1132.78 135.08 1131.7 135.03H1131.55C1130.43 135.03 1129.29 134.95 1128.15 134.94H1127.34C1126.42 134.94 1125.5 134.94 1124.58 134.94H1124.25C1123.25 134.94 1122.19 135.03 1121.15 135.1L1120.24 135.17L1118.14 135.35L1117.14 135.44L1114.68 135.73L1114.13 135.8C1113.13 135.93 1112.2 136.08 1111.22 136.24L1110.44 136.37L1108.26 136.76L1107.17 136.98L1105.39 137.35L1104.24 137.61C1103.64 137.737 1103.04 137.877 1102.44 138.03L1101.31 138.31L1099.56 138.77C1099.19 138.87 1098.82 138.96 1098.45 139.07L1096.45 139.64L1095.54 139.9L1093.69 140.48L1092.69 140.78L1089.87 141.78L1024.87 103.97L1027.87 103.02Z" fill="url(#paint0_linear)"/>
<path d="M978.919 83.29C978.129 83.8 977.349 84.2901 976.579 84.8301C975.809 85.3701 975.289 85.72 974.649 86.17C973.829 86.74 973.009 87.32 972.199 87.91L970.329 89.3C969.479 89.94 968.629 90.58 967.779 91.24L965.959 92.6801L963.319 94.8401L961.579 96.29C960.629 97.1 959.689 97.93 958.749 98.76C958.239 99.21 957.749 99.66 957.229 100.12C956.069 101.167 954.919 102.233 953.779 103.32L952.949 104.1C951.549 105.44 950.169 106.81 948.789 108.21L947.589 109.46C946.649 110.46 945.709 111.46 944.779 112.46C944.259 113.01 943.779 113.58 943.239 114.14C942.449 115 941.659 115.87 940.879 116.75L939.289 118.59C938.539 119.44 937.809 120.3 937.069 121.18L935.509 123.06L933.229 125.87L931.799 127.68C930.739 129.04 929.699 130.41 928.659 131.79L927.779 132.96C926.599 134.57 925.419 136.19 924.269 137.83L859.269 100.03C860.423 98.39 861.589 96.77 862.769 95.17L862.969 94.89C863.199 94.58 863.439 94.29 863.659 93.99C864.693 92.61 865.739 91.24 866.799 89.88L867.369 89.13L868.229 88.0701C868.979 87.1301 869.739 86.19 870.509 85.26C870.789 84.91 871.069 84.5501 871.359 84.2001C871.649 83.8501 871.839 83.65 872.069 83.37C872.799 82.5 873.539 81.64 874.279 80.79C874.629 80.38 874.969 79.9701 875.279 79.5601C875.459 79.3601 875.649 79.1601 875.829 78.9501C876.609 78.0701 877.399 77.2001 878.189 76.3401C878.569 75.9101 878.949 75.4801 879.339 75.0601L879.719 74.66C880.649 73.66 881.589 72.66 882.539 71.66C882.879 71.3 883.219 70.9301 883.539 70.5701L883.709 70.41C885.083 69.01 886.466 67.64 887.859 66.3L887.959 66.2001L888.689 65.52C889.839 64.44 890.979 63.3601 892.139 62.3201L892.529 61.9501C892.909 61.6101 893.289 61.3001 893.659 60.9501C894.599 60.1201 895.549 59.29 896.499 58.48L897.179 57.89C897.529 57.59 897.889 57.32 898.239 57.03C899.113 56.2967 899.993 55.5767 900.879 54.87C901.189 54.62 901.489 54.36 901.809 54.11L902.699 53.4301C903.539 52.7701 904.389 52.13 905.239 51.49L906.379 50.62L907.109 50.1C907.929 49.5066 908.749 48.9267 909.569 48.36L910.879 47.42L911.489 47.02L913.829 45.48C914.319 45.16 914.829 44.82 915.299 44.48L915.839 44.15C916.586 43.6767 917.336 43.2167 918.089 42.77L919.669 41.77L920.669 41.1801C921.669 40.5901 922.669 40.03 923.669 39.48L923.929 39.3301L925.839 38.3301L926.039 38.23C926.759 37.85 927.479 37.49 928.189 37.13L928.469 37L929.199 36.65L930.919 35.8301L931.749 35.4501L932.409 35.15C932.749 34.99 933.099 34.8501 933.409 34.7001L934.159 34.37C934.949 34.03 935.749 33.7 936.539 33.37C937.339 33.05 938.129 32.7501 938.919 32.4501L939.669 32.1801L940.739 31.79L941.299 31.6L942.149 31.3101L943.719 30.8L944.519 30.55L944.899 30.4301L946.179 30.0601L946.899 29.85L949.199 29.24L949.509 29.16C950.189 29 950.859 28.8401 951.509 28.7001L952.299 28.53L953.419 28.3L953.789 28.23L954.859 28.04L956.149 27.8201L957.209 27.66L957.979 27.55C958.139 27.55 958.309 27.55 958.469 27.49L959.609 27.35L960.819 27.23L961.939 27.13L962.599 27.0701H963.099L964.409 27H965.479H966.789H967.789L969.679 27.05H970.299C971.129 27.05 971.949 27.1501 972.769 27.2201H972.859H973.189C973.969 27.2901 974.739 27.39 975.509 27.49L976.279 27.6C977.039 27.72 977.789 27.85 978.539 27.99L978.859 28.05H978.969L979.619 28.2001L980.949 28.49L981.699 28.6901L982.889 29L983.679 29.24C984.059 29.35 984.429 29.4601 984.799 29.5901L985.589 29.85L986.129 30.03L986.569 30.2001C986.979 30.3501 987.389 30.5 987.799 30.67L988.639 31L989.879 31.54L990.659 31.89L991.989 32.54L992.629 32.87C993.269 33.2 993.909 33.55 994.539 33.87L1059.54 71.67C1058.91 71.31 1058.27 70.96 1057.62 70.62L1056.97 70.29L1055.65 69.64L1054.87 69.29L1053.63 68.75L1052.79 68.42C1052.38 68.25 1051.97 68.1001 1051.55 67.9501L1050.55 67.6L1049.76 67.3401C1049.38 67.2101 1049.01 67.1 1048.63 66.99L1047.84 66.75L1046.66 66.4401L1045.9 66.24L1044.57 65.9401L1043.93 65.8L1043.49 65.7201C1042.75 65.5801 1041.99 65.4501 1041.23 65.3301L1040.47 65.2201C1039.7 65.1201 1038.92 65.0201 1038.14 64.9501L1037.72 64.9C1036.91 64.83 1036.09 64.77 1035.26 64.73H1034.63H1032.74H1031.74H1030.44H1029.36L1028.05 64.8L1026.9 64.88L1025.77 64.98L1024.56 65.1L1023.43 65.24L1022.17 65.41L1021.11 65.5701L1019.81 65.79L1018.75 65.98L1017.26 66.28L1016.47 66.4501C1015.8 66.5901 1015.12 66.75 1014.47 66.92L1014.18 66.99C1013.4 67.18 1012.63 67.39 1011.84 67.6L1011.13 67.8101L1009.47 68.3L1008.67 68.55L1007.09 69.0601L1006.25 69.35L1004.61 69.9301L1003.87 70.2101C1003.08 70.5001 1002.3 70.8 1001.51 71.11C1000.72 71.42 999.929 71.75 999.129 72.11L998.389 72.4401C997.829 72.6801 997.259 72.9301 996.699 73.1901L995.869 73.5701L994.149 74.39L993.419 74.74C992.609 75.14 991.799 75.5401 990.979 75.9701L990.779 76.0701L988.609 77.23C987.609 77.78 986.609 78.3401 985.609 78.9301C984.739 79.4301 983.879 79.93 983.009 80.49L980.759 81.87C980.249 82.41 979.579 82.85 978.919 83.29Z" fill="url(#paint1_linear)"/>
<path d="M435.119 372.13C435.113 372.087 435.113 372.043 435.119 372C435.199 371.7 435.289 371.4 435.369 371.1C435.829 369.46 436.299 367.81 436.779 366.17C436.979 365.47 437.189 364.76 437.399 364.06C437.779 362.8 438.149 361.53 438.539 360.27C438.539 360.08 438.649 359.89 438.709 359.7C438.899 359.08 439.099 358.46 439.289 357.83C439.649 356.7 439.999 355.56 440.359 354.43C440.629 353.58 440.899 352.74 441.179 351.9L442.259 348.59C442.369 348.27 442.469 347.95 442.579 347.59C442.759 347.05 442.959 346.5 443.139 345.95L444.219 342.79C444.529 341.91 444.829 341.03 445.139 340.16C445.509 339.1 445.889 338.05 446.259 337C446.419 336.58 446.559 336.15 446.719 335.73L447.239 334.32C447.589 333.32 447.949 332.38 448.309 331.41L449.309 328.67L450.419 325.77C450.609 325.29 450.789 324.77 450.969 324.33C451.149 323.89 451.319 323.46 451.489 323.03L452.609 320.18C452.979 319.26 453.339 318.35 453.709 317.44L454.879 314.59C455.089 314.09 455.289 313.59 455.499 313.08C455.709 312.57 455.849 312.26 456.019 311.84L457.189 309.06C457.579 308.15 457.969 307.23 458.369 306.31C458.769 305.39 459.169 304.46 459.579 303.54L460.239 302.01C460.419 301.61 460.599 301.22 460.769 300.82L462.089 297.89C462.489 297 462.889 296.12 463.299 295.24C463.709 294.36 464.199 293.24 464.649 292.31L465.399 290.68C465.549 290.35 465.709 290.03 465.859 289.68C466.389 288.56 466.919 287.45 467.459 286.33C467.839 285.53 468.219 284.74 468.609 283.94C469.179 282.77 469.749 281.61 470.329 280.44C470.609 279.86 470.889 279.28 471.179 278.7C471.249 278.55 471.329 278.41 471.399 278.26C472.419 276.22 473.452 274.187 474.499 272.16L474.899 271.38C475.809 269.61 476.739 267.85 477.669 266.09L477.999 265.46L479.099 263.46L480.449 260.96C480.949 260.03 481.449 259.11 481.969 258.19L483.339 255.7L484.899 252.92C485.369 252.11 485.819 251.29 486.289 250.48C486.759 249.67 487.359 248.61 487.899 247.68C488.439 246.75 488.819 246.08 489.289 245.28L489.559 244.82L490.079 243.95C491.269 241.95 492.469 239.95 493.689 237.95L494.639 236.38C496.039 234.094 497.452 231.814 498.879 229.54L499.689 228.26C500.929 226.26 502.186 224.3 503.459 222.38C503.789 221.89 504.109 221.38 504.459 220.89C505.929 218.66 507.409 216.43 508.899 214.22L509.189 213.78L509.639 213.14C511.599 210.247 513.583 207.38 515.589 204.54L516.079 203.85C518.166 200.897 520.279 197.974 522.419 195.08V195.03L522.679 194.69C524.046 192.844 525.426 191.004 526.819 189.17L528.129 187.45C529.299 185.94 530.459 184.45 531.639 182.93C531.899 182.59 532.159 182.25 532.429 181.93L532.799 181.46C533.999 179.94 535.209 178.46 536.419 176.92C536.589 176.71 536.759 176.49 536.939 176.28C538.319 174.57 539.719 172.86 541.119 171.17L541.399 170.84C541.759 170.4 542.129 169.97 542.499 169.53L545.259 166.26L546.879 164.37C547.739 163.37 548.609 162.37 549.479 161.37L550.249 160.47L551.169 159.47L553.779 156.54C554.349 155.91 554.909 155.27 555.479 154.65L558.209 151.65C558.589 151.23 558.969 150.8 559.359 150.39L559.809 149.91C560.909 148.73 562.012 147.557 563.119 146.39C563.479 146.01 563.839 145.62 564.209 145.24C565.669 143.7 567.146 142.174 568.639 140.66L568.789 140.5C569.079 140.2 569.379 139.92 569.659 139.62C570.839 138.427 572.022 137.24 573.209 136.06L574.829 134.47C575.829 133.47 576.829 132.47 577.829 131.47L578.669 130.66C578.959 130.37 579.259 130.09 579.559 129.81C580.586 128.83 581.619 127.854 582.659 126.88L584.319 125.33C585.519 124.217 586.722 123.117 587.929 122.03L588.929 121.16L589.119 120.99C590.699 119.56 592.289 118.16 593.889 116.76L595.039 115.76C596.259 114.707 597.482 113.66 598.709 112.62L599.279 112.13C599.659 111.8 600.049 111.49 600.439 111.13C601.439 110.26 602.509 109.4 603.549 108.54L605.389 107.04C606.389 106.19 607.479 105.36 608.519 104.53C608.909 104.22 609.289 103.9 609.679 103.6L610.319 103.1C611.319 102.27 612.429 101.46 613.489 100.64L615.119 99.3903C616.552 98.3036 617.982 97.2303 619.409 96.1703L619.899 95.8003H619.949C621.529 94.6403 623.116 93.4902 624.709 92.3502L626.179 91.3502L629.509 89.0203L629.949 88.7103L631.429 87.7103C632.369 87.0703 633.319 86.4203 634.269 85.7903L636.269 84.4603L639.039 82.6603L639.869 82.1302L641.179 81.3103L643.779 79.6903L645.949 78.3602L648.559 76.8003L649.669 76.1302L651.949 74.8003C653.762 73.7603 655.566 72.7603 657.359 71.8003L658.449 71.2003L659.359 70.6903L663.549 68.4703L664.059 68.2003C665.679 67.3703 667.289 66.5503 668.889 65.7603L669.509 65.4603L671.119 64.6803C672.409 64.0603 673.699 63.4402 674.979 62.8502L676.839 62.0002L678.279 61.3303C679.059 60.9803 679.839 60.6603 680.609 60.3303C681.169 60.0803 681.729 59.8302 682.289 59.6002C684.056 58.8402 685.826 58.1036 687.599 57.3903C689.379 56.6769 691.149 55.9937 692.909 55.3403L694.579 54.7402L696.949 53.8702L698.229 53.4403L700.159 52.7803C701.319 52.3903 702.479 52.0203 703.639 51.6503L705.469 51.0803L706.309 50.8103C707.309 50.5103 708.309 50.2403 709.309 49.9603L710.789 49.5303C712.489 49.0603 714.169 48.6103 715.849 48.1903H715.979L717.149 47.9103C718.509 47.5803 719.869 47.2603 721.219 46.9103L723.099 46.5203C723.929 46.3503 724.759 46.1602 725.589 46.0002L726.389 45.8602L728.659 45.4503C729.659 45.2803 730.659 45.1003 731.659 44.9503L733.939 44.6002L735.629 44.3502L736.779 44.2103L739.359 43.9103C740.259 43.8103 741.149 43.7102 742.039 43.6302L744.589 43.4103L746.039 43.2803L748.119 43.1603H748.549C750.099 43.0803 751.649 43.0302 753.179 42.9902H753.799H757.039H758.189H759.079C760.539 42.9902 761.999 43.0603 763.439 43.1403H764.119C765.509 43.2203 766.899 43.3203 768.279 43.4403H768.719H768.929C770.309 43.5603 771.679 43.7202 773.039 43.8802L774.139 44.0203C775.312 44.1803 776.472 44.3503 777.619 44.5303L778.529 44.6703C779.769 44.8803 781.009 45.1003 782.229 45.3403L782.619 45.4303L784.249 45.7803C785.179 45.9803 786.119 46.1903 787.039 46.4103L788.799 46.8502C789.659 47.0802 790.529 47.3003 791.389 47.5503C791.989 47.7103 792.579 47.8903 793.169 48.0703C794.009 48.3203 794.839 48.5703 795.669 48.8403L797.439 49.4303L798.439 49.7603L800.969 50.6803H801.039C802.372 51.1803 803.662 51.7002 804.909 52.2402L805.459 52.4703C806.699 53.0003 807.919 53.5502 809.129 54.1202L809.809 54.4403C811.009 55.0203 812.199 55.6102 813.379 56.2302L813.929 56.5303C815.159 57.1803 816.389 57.8503 817.599 58.5303L882.599 96.3303C881.389 95.6203 880.169 94.9503 878.939 94.3303L878.389 94.0303C877.209 93.4103 876.019 92.8202 874.809 92.2402L874.129 91.9203C872.916 91.3536 871.696 90.8036 870.469 90.2703L869.919 90.0403C868.639 89.5003 867.349 88.9802 866.039 88.4802H865.969C864.809 88.0302 863.619 87.6203 862.439 87.2203L860.669 86.6302L858.169 85.8602L856.379 85.3403L853.789 84.6403L852.029 84.2003C851.109 83.9803 850.179 83.7703 849.249 83.5703L847.619 83.2203C846.269 82.9503 844.899 82.6903 843.529 82.4603L842.619 82.3203C841.459 82.1403 840.299 81.9703 839.139 81.8203L838.029 81.6703C836.599 81.5003 835.169 81.3403 833.719 81.2103H833.279C831.899 81.0903 830.509 80.9903 829.119 80.9203H828.439C826.989 80.8403 825.539 80.8003 824.079 80.7703H823.179C821.729 80.7703 820.269 80.7703 818.799 80.7703H818.179C816.639 80.7703 815.099 80.8603 813.539 80.9403H813.109C811.939 81.0003 810.759 81.1003 809.589 81.1903L807.039 81.4103C806.149 81.4903 805.249 81.5903 804.349 81.6903C803.449 81.7903 802.639 81.8802 801.779 82.0002L798.939 82.3802L796.659 82.7302C795.659 82.8802 794.659 83.0602 793.659 83.2302L791.389 83.6403L788.089 84.3003L786.219 84.6903C784.869 84.9903 783.509 85.3103 782.149 85.6903L780.979 85.9703C779.259 86.397 777.529 86.8537 775.789 87.3403L774.309 87.7703C773.049 88.1303 771.789 88.5003 770.519 88.8903C769.909 89.0703 769.299 89.2703 768.689 89.4603L765.199 90.6002L763.269 91.2502C762.059 91.6702 760.839 92.1003 759.619 92.5503L757.959 93.1503C756.199 93.8169 754.429 94.4836 752.649 95.1503C750.889 95.8636 749.119 96.6002 747.339 97.3602L745.669 98.0903C744.409 98.6303 743.159 99.1903 741.889 99.7703L740.039 100.62L736.179 102.45L734.569 103.23C732.762 104.124 730.946 105.037 729.119 105.97L728.619 106.24C726.919 107.134 725.212 108.044 723.499 108.97L722.419 109.56C720.619 110.56 718.809 111.56 716.999 112.56L713.619 114.56C712.739 115.07 711.869 115.56 710.999 116.12L708.829 117.45L706.229 119.08L704.099 120.43L701.329 122.22L699.329 123.55L696.479 125.47C695.839 125.9 695.199 126.33 694.569 126.77C693.449 127.54 692.339 128.32 691.229 129.1L689.769 130.1L684.999 133.55L684.469 133.95C683.029 135.01 681.599 136.084 680.179 137.17C679.629 137.58 679.099 138 678.549 138.42C677.489 139.23 676.429 140.06 675.369 140.89L673.579 142.3C672.579 143.14 671.489 143.97 670.449 144.82L668.609 146.32L665.489 148.91L663.759 150.36L660.099 153.5L658.939 154.5C657.349 155.9 655.759 157.3 654.179 158.73L653.029 159.73C651.829 160.82 650.619 161.92 649.419 163.03L647.769 164.58C646.729 165.554 645.696 166.53 644.669 167.51L642.929 169.17L639.929 172.17L638.309 173.76C637.119 174.94 635.929 176.14 634.749 177.34L633.749 178.34C632.269 179.847 630.793 181.374 629.319 182.92L628.239 184.06C627.129 185.23 626.029 186.41 624.919 187.59L623.319 189.33C622.409 190.33 621.499 191.33 620.599 192.33L618.899 194.21L616.289 197.15L614.589 199.08C613.719 200.08 612.859 201.08 611.999 202.08L610.379 203.97C609.449 205.05 608.539 206.15 607.619 207.24C607.159 207.79 606.699 208.33 606.239 208.89C604.839 210.57 603.443 212.27 602.049 213.99L601.519 214.65C600.309 216.15 599.109 217.65 597.919 219.17C597.529 219.66 597.139 220.17 596.759 220.65C595.579 222.15 594.409 223.66 593.249 225.18L591.939 226.89C590.549 228.72 589.159 230.56 587.789 232.41L587.499 232.8C585.359 235.7 583.246 238.624 581.159 241.57L580.669 242.26C578.669 245.1 576.686 247.964 574.719 250.85L573.979 251.94C572.479 254.15 570.979 256.38 569.539 258.61C569.209 259.11 568.889 259.61 568.539 260.11C567.269 262.11 566.009 264.01 564.769 265.98L563.949 267.26C562.522 269.527 561.112 271.807 559.719 274.1L558.719 275.67C557.509 277.67 556.309 279.67 555.119 281.67C554.849 282.11 554.589 282.55 554.329 283L552.929 285.41L551.329 288.19C550.859 289.01 550.399 289.83 549.939 290.65C549.479 291.47 548.889 292.5 548.379 293.42L547.009 295.9L545.479 298.68L544.139 301.18C543.659 302.07 543.139 302.96 542.709 303.85C541.776 305.61 540.856 307.37 539.949 309.13L539.529 309.93C538.489 311.93 537.459 313.96 536.439 316.02C536.079 316.76 535.719 317.49 535.349 318.23C534.779 319.39 534.209 320.54 533.649 321.71C533.259 322.5 532.879 323.31 532.489 324.11C531.959 325.22 531.419 326.34 530.899 327.45C530.489 328.32 530.089 329.18 529.689 330.05C529.289 330.92 528.779 332.05 528.329 332.97C527.879 333.89 527.529 334.75 527.119 335.63L525.809 338.56L524.609 341.28L523.409 344.05C523.009 344.97 522.619 345.89 522.229 346.81C521.839 347.73 521.439 348.66 521.059 349.58C520.679 350.5 520.289 351.42 519.909 352.34C519.529 353.26 519.139 354.23 518.749 355.17C518.359 356.11 518.009 357.01 517.649 357.93C517.289 358.85 516.889 359.82 516.519 360.76C516.149 361.7 515.809 362.59 515.459 363.51C515.109 364.43 514.709 365.44 514.349 366.41C513.989 367.38 513.659 368.24 513.349 369.15C513.039 370.06 512.629 371.08 512.279 372.05C511.929 373.02 511.619 373.85 511.279 374.75C510.939 375.65 510.529 376.84 510.159 377.89C509.849 378.77 509.539 379.65 509.239 380.53C508.869 381.53 508.509 382.63 508.159 383.69C507.859 384.56 507.569 385.43 507.279 386.3C506.913 387.4 506.552 388.5 506.199 389.6C505.919 390.45 505.639 391.3 505.379 392.14C505.009 393.27 504.659 394.4 504.309 395.54C504.059 396.35 503.799 397.16 503.549 397.98C503.169 399.24 502.789 400.51 502.419 401.77L501.789 403.88C501.319 405.51 500.859 407.13 500.399 408.76L500.099 409.84L435.119 372.13Z" fill="url(#paint2_linear)"/>
<path d="M350.669 740.98L361.169 773.45L377.719 798.77L399.589 816.54L426.059 826.32L456.409 827.73L489.929 820.34L525.889 803.75L1062.32 494.04L1092.03 473.44L1119.68 447.59L1144.69 417.5L1166.46 384.21L1184.39 348.73L1197.91 312.1L1206.41 275.33L1209.31 239.45L1206.9 210.65L1200.11 186.14L1189.35 166.13L1175.02 150.86L1157.53 140.56L1137.27 135.46L1114.67 135.79L1090.11 141.77V141.36L1090.12 140.96L1090.13 140.55V140.14L1090.14 139.74V139.33V138.93V138.53L1087.96 115.66L1081.83 96.7198L1072.18 81.9498L1059.43 71.5898L1043.99 65.8898L1026.29 65.0698L1006.75 69.3698L985.779 79.0498L977.219 84.3898L968.869 90.3898L960.729 97.0098L952.839 104.21L945.219 111.93L937.899 120.13L930.909 128.76L924.279 137.78L907.879 116.33L888.119 99.7398L865.319 88.1898L839.819 81.8798L811.919 80.9798L781.949 85.6698L750.239 96.1498L717.099 112.59L680.649 136.9L646.019 166.36L613.619 200.25L583.879 237.81L557.239 278.3L534.119 320.97L514.959 365.1L500.169 409.92L468.639 436.56L439.549 467.92L413.439 503.03L390.869 540.95L372.389 580.73L358.529 621.43L349.859 662.09L346.929 701.76L350.669 740.98Z" fill="#54BCE8"/>
<path d="M281.879 664.47V663.96C281.879 662.47 281.879 660.96 281.879 659.46V658.03C281.879 657.32 281.879 656.62 281.929 655.91V654.96C281.929 654.33 281.929 653.71 282.009 653.08C282.009 652.15 282.089 651.21 282.139 650.27C282.139 649.64 282.199 649.01 282.239 648.38L282.299 647.29C282.299 646.7 282.389 646.1 282.429 645.51C282.469 644.92 282.509 644.3 282.559 643.69C282.639 642.69 282.729 641.63 282.819 640.59C282.819 640.06 282.909 639.53 282.959 639V638.61C283.079 637.37 283.209 636.13 283.349 634.89L283.409 634.29C283.569 632.81 283.749 631.29 283.939 629.84V629.56L284.149 628.06C284.289 626.97 284.439 625.89 284.599 624.8C284.679 624.19 284.779 623.57 284.869 622.96C284.959 622.35 285.069 621.61 285.179 620.96C285.179 620.65 285.279 620.34 285.329 620.04C285.429 619.37 285.549 618.7 285.659 618.04C285.819 617.1 285.979 616.15 286.149 615.21L286.509 613.21C286.589 612.79 286.659 612.36 286.739 611.94L287.039 610.41C287.179 609.71 287.309 609.02 287.449 608.32C287.639 607.32 287.839 606.43 288.029 605.48C288.169 604.8 288.319 604.12 288.459 603.48C288.519 603.24 288.559 602.99 288.619 602.74C288.769 602.03 288.939 601.31 289.099 600.59C289.259 599.87 289.399 599.24 289.559 598.59C289.799 597.59 290.039 596.54 290.289 595.52C290.439 594.91 290.579 594.29 290.729 593.68C290.729 593.58 290.779 593.48 290.809 593.37C291.079 592.29 291.359 591.2 291.639 590.12C291.759 589.66 291.869 589.21 291.989 588.76C292.409 587.15 292.839 585.53 293.289 583.92C293.293 583.894 293.293 583.867 293.289 583.84C293.389 583.48 293.499 583.13 293.599 582.77C293.959 581.49 294.319 580.21 294.699 578.93C294.869 578.33 295.049 577.73 295.229 577.14L296.009 574.53C296.069 574.36 296.119 574.19 296.169 574.02C296.369 573.36 296.579 572.71 296.789 572.02C297.089 571.04 297.399 570.06 297.719 569.08C297.939 568.4 298.169 567.71 298.399 567.02L298.989 565.2C299.109 564.86 299.229 564.52 299.339 564.2C299.569 563.54 299.799 562.87 300.019 562.2C300.349 561.2 300.689 560.29 301.019 559.33C301.259 558.67 301.489 558.01 301.729 557.33C301.859 556.96 301.989 556.59 302.129 556.21C302.349 555.6 302.579 554.99 302.799 554.39C303.019 553.79 303.249 553.16 303.479 552.55C303.879 551.48 304.279 550.42 304.689 549.35C304.889 548.82 305.089 548.3 305.299 547.77C305.299 547.65 305.389 547.53 305.439 547.4C305.999 545.96 306.569 544.51 307.149 543.07L307.299 542.7C307.819 541.41 308.349 540.12 308.879 538.84L309.079 538.37L309.739 536.8L311.079 533.66L311.859 531.87C312.089 531.33 312.319 530.8 312.559 530.26C312.799 529.72 312.949 529.38 313.149 528.94C313.419 528.33 313.699 527.71 313.979 527.1C314.419 526.1 314.869 525.1 315.329 524.1C315.589 523.52 315.859 522.93 316.129 522.35L316.459 521.65C316.779 520.97 317.099 520.29 317.459 519.65L318.459 517.49C318.899 516.57 319.349 515.66 319.799 514.74L320.799 512.67C320.869 512.54 320.929 512.4 320.999 512.27C321.309 511.64 321.629 511.02 321.949 510.39C322.409 509.48 322.869 508.57 323.339 507.66C323.809 506.75 324.129 506.14 324.519 505.38L325.929 502.7L326.199 502.18C326.349 501.89 326.509 501.61 326.659 501.33C327.693 499.41 328.733 497.5 329.779 495.6L330.499 494.29C331.713 492.137 332.936 489.993 334.169 487.86C334.269 487.69 334.359 487.52 334.459 487.36C334.689 486.96 334.929 486.56 335.169 486.16C335.889 484.93 336.619 483.7 337.359 482.48L338.499 480.58C339.259 479.333 340.023 478.09 340.789 476.85C341.139 476.3 341.479 475.75 341.789 475.19C342.899 473.43 344.019 471.66 345.159 469.91C346.279 468.17 347.429 466.44 348.579 464.72L348.889 464.25C349.039 464.02 349.199 463.8 349.349 463.58C350.976 461.153 352.642 458.747 354.349 456.36V456.29C356.029 453.903 357.736 451.534 359.469 449.18C359.629 448.96 359.789 448.73 359.959 448.51L360.339 448C361.206 446.82 362.086 445.644 362.979 444.47L363.919 443.22C365.119 441.65 366.339 440.08 367.559 438.53C367.59 438.479 367.627 438.432 367.669 438.39C368.089 437.84 368.529 437.31 368.949 436.77C369.629 435.92 370.309 435.06 370.999 434.21C371.489 433.6 371.999 432.99 372.499 432.38C373.159 431.56 373.829 430.75 374.499 429.94L374.719 429.67C375.299 428.97 375.889 428.28 376.469 427.59L377.909 425.89C378.619 425.05 379.339 424.22 380.069 423.39C380.499 422.89 380.929 422.39 381.369 421.88L381.479 421.76C382.209 420.93 382.949 420.11 383.679 419.29C384.089 418.83 384.489 418.37 384.899 417.92C385.989 416.71 387.079 415.52 388.179 414.33L388.469 414.02C389.669 412.687 390.879 411.4 392.099 410.16L393.249 408.97L395.709 406.43L395.769 406.37C396.489 405.63 397.219 404.91 397.949 404.18L399.519 402.6L401.969 400.22L403.299 398.92C404.579 397.7 405.859 396.48 407.149 395.28L407.709 394.77L411.039 391.77C411.499 391.35 411.969 390.94 412.439 390.53C413.259 389.79 414.089 389.05 414.929 388.32L416.579 386.9C417.349 386.24 418.109 385.57 418.889 384.9L418.989 384.81L420.989 383.15C421.599 382.64 422.219 382.15 422.839 381.62C423.459 381.09 424.259 380.48 424.969 379.91L426.819 378.42L426.899 378.35L429.499 376.35L430.799 375.35C432.139 374.35 433.479 373.35 434.799 372.35L499.799 410.15C498.449 411.15 497.119 412.15 495.799 413.15L494.419 414.23C493.549 414.9 492.679 415.57 491.819 416.23L489.959 417.72C489.249 418.29 488.539 418.85 487.829 419.43L485.969 420.98C485.269 421.55 484.579 422.13 483.889 422.71C483.199 423.29 482.299 424.07 481.509 424.71C480.979 425.16 480.449 425.61 479.929 426.07C479.059 426.82 478.199 427.59 477.349 428.36L475.999 429.55C474.829 430.61 473.669 431.67 472.509 432.75L472.109 433.11C470.819 434.31 469.539 435.53 468.259 436.75L466.899 438.07L464.459 440.45C463.939 440.96 463.459 441.45 462.919 442L460.699 444.22L458.209 446.79L457.029 448.01C455.819 449.29 454.609 450.57 453.409 451.87L453.019 452.29C451.946 453.437 450.883 454.597 449.829 455.77L448.629 457.12L446.309 459.73C445.859 460.24 445.419 460.73 444.979 461.27C444.259 462.09 443.549 462.91 442.849 463.74L441.399 465.45L439.399 467.79L437.399 470.21C436.889 470.83 436.399 471.44 435.879 472.06L433.879 474.61L432.469 476.38C431.249 477.933 430.039 479.5 428.839 481.08C428.519 481.49 428.219 481.9 427.909 482.31L425.249 485.85L424.389 487.03C422.656 489.377 420.946 491.747 419.259 494.14V494.21C417.586 496.604 415.919 499.01 414.259 501.43L413.479 502.57C412.329 504.3 411.179 506.04 410.049 507.79C408.916 509.543 407.796 511.303 406.689 513.07L405.689 514.75L403.409 518.45L402.259 520.37C401.519 521.59 400.799 522.81 400.079 524.04L399.079 525.74C397.839 527.87 396.619 530.02 395.409 532.17C395.169 532.61 394.929 533.05 394.679 533.49C393.626 535.39 392.589 537.297 391.569 539.21L390.829 540.58L389.429 543.26C389.029 544.02 388.629 544.78 388.239 545.54L386.859 548.26C386.479 549.03 386.089 549.79 385.709 550.55C385.329 551.31 385.029 551.92 384.709 552.61C384.249 553.53 383.799 554.45 383.359 555.38C383.009 556.09 382.679 556.8 382.359 557.51C381.919 558.43 381.489 559.34 381.059 560.26L380.249 562.01L378.899 564.96C378.629 565.57 378.349 566.18 378.079 566.8C377.639 567.8 377.209 568.8 376.779 569.74C376.519 570.33 376.259 570.93 376.009 571.52C375.549 572.57 375.109 573.62 374.669 574.67C374.449 575.19 374.219 575.67 374.009 576.23C373.399 577.68 372.809 579.13 372.219 580.58C372.219 580.7 372.129 580.81 372.079 580.93C371.446 582.497 370.826 584.067 370.219 585.64L369.619 587.21C369.209 588.28 368.799 589.34 368.399 590.41L367.729 592.24C367.369 593.24 367.009 594.24 366.659 595.24C366.419 595.9 366.179 596.56 365.949 597.24C365.609 598.24 365.279 599.16 364.949 600.12C364.719 600.78 364.489 601.44 364.269 602.12C363.949 603.12 363.629 604.03 363.269 604.98C363.039 605.66 362.819 606.35 362.599 607.03C362.279 608.03 361.969 609.03 361.659 609.98C361.459 610.63 361.249 611.28 361.049 611.92C360.729 612.97 360.419 614.01 360.109 615.06L359.569 616.84C359.199 618.12 358.829 619.4 358.469 620.68L358.169 621.75C357.709 623.39 357.266 625.03 356.839 626.67L356.509 627.98C356.199 629.18 355.889 630.39 355.589 631.59C355.439 632.2 355.299 632.8 355.149 633.41C354.899 634.41 354.649 635.47 354.409 636.51L353.959 638.51C353.739 639.51 353.529 640.45 353.319 641.42C353.169 642.09 353.029 642.77 352.889 643.42C352.689 644.37 352.499 645.32 352.309 646.27C352.169 646.97 352.029 647.66 351.899 648.35C351.719 649.29 351.539 650.23 351.369 651.17C351.239 651.85 351.119 652.52 350.999 653.17C350.829 654.17 350.669 655.07 350.509 656.02L350.179 658.02C350.019 659 349.869 659.98 349.729 660.96C349.639 661.57 349.539 662.18 349.449 662.8C349.289 663.89 349.149 664.98 348.999 666.07C348.939 666.56 348.859 667.07 348.799 667.56C348.599 669.14 348.409 670.72 348.229 672.29C348.229 672.48 348.229 672.67 348.229 672.85C348.069 674.24 347.929 675.62 347.799 677C347.799 677.53 347.709 678.06 347.659 678.58C347.569 679.58 347.479 680.66 347.399 681.7C347.399 682.3 347.319 682.9 347.269 683.51C347.209 684.51 347.139 685.43 347.089 686.39C347.089 687.02 347.009 687.64 346.979 688.27C346.929 689.21 346.889 690.15 346.849 691.09C346.849 691.71 346.799 692.33 346.779 692.96C346.779 693.96 346.719 695.01 346.699 696.03C346.699 696.51 346.699 697.03 346.699 697.46C346.699 698.97 346.699 700.46 346.699 701.96C346.699 703.66 346.699 705.35 346.769 707.02C346.769 707.37 346.769 707.72 346.769 708.07C346.769 709.31 346.849 710.55 346.899 711.77L346.989 713.44C346.989 714.44 347.099 715.44 347.169 716.49C347.169 717.08 347.249 717.66 347.299 718.24C347.369 719.24 347.449 720.14 347.529 721.09L347.709 722.98C347.799 723.98 347.909 724.87 348.009 725.81C348.079 726.39 348.139 726.97 348.209 727.55C348.329 728.55 348.459 729.47 348.589 730.42C348.669 730.97 348.739 731.54 348.829 732.09C348.989 733.21 349.169 734.32 349.359 735.42C349.419 735.79 349.469 736.16 349.529 736.52C349.709 737.52 349.909 738.57 350.099 739.58C350.189 740.05 350.269 740.58 350.369 740.99C350.659 742.46 350.969 743.92 351.299 745.36C351.629 746.8 352.009 748.36 352.389 749.82C352.519 750.31 352.659 750.82 352.789 751.26C353.049 752.26 353.319 753.26 353.599 754.18C353.729 754.64 353.879 755.1 354.019 755.56C354.329 756.56 354.649 757.64 355.019 758.67C355.199 759.22 355.389 759.76 355.569 760.3C355.889 761.22 356.209 762.13 356.569 763.04C356.749 763.553 356.939 764.063 357.139 764.57C357.609 765.82 358.139 767.06 358.609 768.28C358.739 768.6 358.869 768.94 359.009 769.28C359.676 770.78 360.343 772.257 361.009 773.71C361.349 774.45 361.709 775.18 362.069 775.9C362.259 776.27 362.429 776.64 362.619 777.01C363.746 779.23 364.933 781.384 366.179 783.47L366.809 784.47C367.239 785.17 367.669 785.88 368.109 786.57C368.289 786.84 368.469 787.11 368.639 787.38C369.099 788.07 369.559 788.76 370.029 789.44L370.649 790.32C371.169 791.05 371.699 791.78 372.229 792.5L372.629 793.03C373.299 793.91 373.979 794.77 374.629 795.62C374.799 795.84 374.989 796.06 375.169 796.27C375.689 796.91 376.229 797.54 376.769 798.16L377.459 798.94C378.009 799.56 378.569 800.16 379.129 800.76C379.319 800.96 379.499 801.16 379.689 801.35C380.429 802.12 381.179 802.88 381.949 803.63L382.439 804.1C383.049 804.68 383.669 805.26 384.299 805.82L385.059 806.5C385.649 807.02 386.239 807.5 386.839 808.03L387.519 808.6C388.339 809.26 389.159 809.92 389.989 810.6L390.339 810.86C391.069 811.41 391.809 811.94 392.549 812.46L393.359 813.02L395.259 814.29L396.049 814.8C396.939 815.36 397.829 815.91 398.729 816.43L333.729 778.63C332.829 778.11 331.939 777.56 331.059 777L330.259 776.49L328.359 775.22L327.549 774.66C326.809 774.14 326.079 773.61 325.349 773.06L324.999 772.8C324.159 772.17 323.339 771.51 322.519 770.85L321.839 770.28C321.239 769.78 320.649 769.28 320.059 768.75L319.299 768.07C318.679 767.51 318.059 766.93 317.439 766.34L316.949 765.88C316.189 765.13 315.429 764.38 314.689 763.6L314.139 763.01C313.569 762.41 313.019 761.81 312.469 761.19L311.769 760.41C311.229 759.79 310.699 759.16 310.169 758.52L309.629 757.87C308.939 757.02 308.259 756.16 307.629 755.28L307.239 754.75C306.699 754.03 306.169 753.3 305.649 752.57C305.439 752.28 305.239 751.98 305.039 751.69C304.569 751.01 304.109 750.32 303.649 749.63C303.469 749.36 303.289 749.09 303.119 748.82C302.949 748.55 302.949 748.57 302.869 748.45C302.509 747.88 302.169 747.3 301.819 746.73C301.609 746.39 301.389 746.05 301.189 745.73C300.569 744.73 299.959 743.64 299.359 742.56C298.769 741.48 298.189 740.39 297.619 739.28L297.079 738.17C296.759 737.54 296.449 736.92 296.139 736.28C296.139 736.18 296.059 736.08 296.009 735.98C295.329 734.53 294.659 733.05 294.009 731.55C293.869 731.22 293.739 730.88 293.599 730.55C293.099 729.33 292.599 728.1 292.129 726.84C292.039 726.6 291.939 726.37 291.849 726.12C291.759 725.87 291.659 725.58 291.559 725.31C291.229 724.4 290.909 723.49 290.559 722.57C290.369 722.03 290.179 721.49 289.999 720.94C289.669 719.94 289.349 718.87 288.999 717.83C288.889 717.46 288.769 717.1 288.659 716.73C288.659 716.64 288.609 716.54 288.579 716.45C288.299 715.45 288.039 714.51 287.769 713.53C287.639 713.05 287.499 712.58 287.379 712.09C286.999 710.62 286.629 709.14 286.289 707.63C285.959 706.2 285.649 704.74 285.349 703.27C285.249 702.79 285.169 702.27 285.079 701.8C284.889 700.8 284.699 699.88 284.529 698.91C284.529 698.91 284.529 698.84 284.529 698.81C284.459 698.43 284.409 698.06 284.349 697.68C284.159 696.59 283.979 695.49 283.819 694.37C283.739 693.82 283.669 693.26 283.589 692.7C283.479 691.93 283.369 691.16 283.269 690.38L283.209 689.83C283.139 689.25 283.069 688.67 283.009 688.09C282.899 687.15 282.799 686.21 282.699 685.26C282.639 684.63 282.579 684 282.529 683.37L282.379 681.79L282.289 680.52C282.289 679.94 282.199 679.36 282.159 678.77L281.979 675.77C281.979 675.22 281.919 674.66 281.899 674.1C281.899 673.87 281.899 673.65 281.899 673.43C281.899 672.43 281.829 671.43 281.799 670.43V669.43C281.909 667.52 281.889 666 281.879 664.47Z" fill="url(#paint3_linear)"/>
<path d="M500.169 409.93C413.319 473.84 346.629 598.14 346.919 701.76C347.239 814.97 427.369 860.63 525.919 803.76L1062.32 494.04C1143.76 447.04 1209.57 333.04 1209.32 239.45C1209.09 157.17 1157.85 118.06 1090.12 141.78C1090.12 140.69 1090.12 139.6 1090.12 138.53C1089.94 72.5302 1043.21 45.8803 985.759 79.0503C962.759 92.3503 941.459 113.26 924.259 137.78C885.259 74.2602 807.069 60.6403 717.079 112.59C617.879 169.87 533.379 290.12 500.169 409.93Z" fill="url(#paint4_radial)"/>
<path d="M349.719 660.39C351.772 646.318 354.711 632.391 358.519 618.69C366.236 591.262 376.803 564.717 390.049 539.49C403.255 514.195 418.96 490.285 436.929 468.12C445.906 457.019 455.519 446.448 465.719 436.46C475.691 426.694 486.279 417.578 497.419 409.17C504.137 384.837 512.647 361.036 522.879 337.96C525.419 332.08 528.189 326.32 530.879 320.53C533.569 314.74 536.529 309.05 539.549 303.41C545.549 292.1 551.789 280.94 558.549 270.07C565.309 259.2 572.279 248.47 579.729 238.07C587.179 227.67 595.009 217.52 603.149 207.64C619.473 187.863 637.35 169.421 656.609 152.49C666.279 144.06 676.299 136.01 686.739 128.49C697.209 121.018 708.082 114.127 719.309 107.85C730.579 101.556 742.274 96.0557 754.309 91.3897C757.309 90.1597 760.379 89.1897 763.419 88.0997C764.939 87.5397 766.489 87.0997 768.039 86.6097L772.679 85.1798C775.809 84.3398 778.929 83.4698 782.079 82.7198C785.229 81.9698 788.389 81.2398 791.609 80.7198L796.399 79.8697L801.229 79.2198C804.449 78.7298 807.709 78.5498 810.939 78.2198C817.452 77.7948 823.986 77.7948 830.499 78.2198L832.949 78.3597C833.759 78.3597 834.569 78.5297 835.389 78.6097L840.259 79.1498L845.109 79.9498C845.919 80.0898 846.729 80.1897 847.529 80.3697L849.929 80.9098C856.345 82.2856 862.632 84.2094 868.719 86.6598C874.839 89.0528 880.732 91.9879 886.329 95.4298C891.937 98.8423 897.237 102.737 902.169 107.07C907.102 111.379 911.677 116.081 915.849 121.13L918.919 124.96C919.919 126.25 920.839 127.6 921.799 128.96L923.229 130.96C923.639 131.55 924.019 132.16 924.409 132.76C935.545 117.463 948.625 103.68 963.319 91.7597C967.319 88.5297 971.549 85.5097 975.859 82.6297C980.169 79.7497 984.669 77.1897 989.259 74.7597C993.888 72.3702 998.664 70.2792 1003.56 68.4997C1005.99 67.4997 1008.56 66.8698 1011.02 66.0898C1013.57 65.4798 1016.1 64.7797 1018.7 64.3697C1029.15 62.2738 1039.95 62.7718 1050.16 65.8198C1055.27 67.4117 1060.11 69.772 1064.51 72.8198C1068.87 75.8979 1072.75 79.6047 1076.03 83.8198C1079.27 87.9859 1082.01 92.5207 1084.19 97.3298C1086.31 102.105 1087.98 107.066 1089.19 112.15L1090.04 115.96C1090.3 117.23 1090.48 118.51 1090.7 119.79L1091.02 121.71L1091.25 123.64L1091.68 127.49C1092 131.67 1092.18 135.86 1092.16 140.04C1106.33 135.56 1121.37 133.28 1136.27 134.87C1152.26 136.424 1167.3 143.147 1179.13 154.02C1184.92 159.437 1189.87 165.686 1193.82 172.56C1197.75 179.389 1200.89 186.642 1203.18 194.18C1207.84 209.18 1209.32 224.99 1209.25 240.58C1208.89 224.99 1206.95 209.32 1201.95 194.58C1199.53 187.21 1196.27 180.141 1192.24 173.51C1188.25 166.898 1183.29 160.921 1177.53 155.78C1165.95 145.548 1151.35 139.361 1135.95 138.15C1128.3 137.511 1120.6 137.82 1113.03 139.07C1105.44 140.321 1097.98 142.262 1090.74 144.87L1087.94 145.87V142.87C1087.98 137.862 1087.76 132.855 1087.29 127.87L1086.81 124.17L1086.57 122.32L1086.23 120.49C1086 119.27 1085.81 118.05 1085.55 116.84L1084.69 113.22C1083.48 108.445 1081.83 103.792 1079.76 99.3198C1077.67 94.9089 1075.08 90.7573 1072.03 86.9498C1069.01 83.1792 1065.44 79.8767 1061.45 77.1498C1057.45 74.4611 1053.07 72.3912 1048.45 71.0097C1039.09 68.3278 1029.21 67.9844 1019.69 70.0097C1017.28 70.4097 1014.92 71.0898 1012.54 71.6898C1010.2 72.4498 1007.83 73.0998 1005.54 74.0298C1000.91 75.7633 996.402 77.7977 992.039 80.1197C987.679 82.4797 983.399 84.9998 979.279 87.7898C975.159 90.5798 971.159 93.5498 967.279 96.7098C951.898 109.515 938.339 124.362 926.979 140.84L923.979 145.07L921.099 140.66L918.549 136.77C918.129 136.13 917.719 135.47 917.279 134.84L915.909 132.96C914.989 131.72 914.109 130.45 913.149 129.23L910.229 125.64C906.261 120.91 901.913 116.512 897.229 112.49C892.584 108.454 887.591 104.837 882.309 101.68C877.055 98.4901 871.526 95.776 865.789 93.5698C860.059 91.3245 854.147 89.5715 848.119 88.3298C845.119 87.5998 842.059 87.2597 839.019 86.7297L834.419 86.2297C833.659 86.1597 832.889 86.0497 832.119 85.9997L829.809 85.8697C823.631 85.4914 817.434 85.5182 811.259 85.9498C808.179 86.2498 805.079 86.4198 802.009 86.9498L797.399 87.5798L792.809 88.3998C789.739 88.8898 786.719 89.6798 783.679 90.3298C780.639 90.9798 777.679 91.8998 774.679 92.7198L770.209 94.0997C768.719 94.5697 767.209 94.9998 765.759 95.5498C762.819 96.6098 759.849 97.5497 756.949 98.7497C745.281 103.315 733.944 108.685 723.019 114.82C712.069 120.978 701.46 127.724 691.239 135.03C680.999 142.33 671.169 150.2 661.659 158.46C642.678 175.074 625.053 193.174 608.949 212.59C592.851 232.05 578.068 252.562 564.699 273.99C557.979 284.68 551.699 295.65 545.749 306.79C542.749 312.33 539.929 317.99 537.079 323.63C534.229 329.27 531.589 335.01 529.079 340.79C518.685 363.822 509.965 387.573 502.989 411.86L502.689 412.91L501.839 413.52C479.149 430.06 458.839 449.88 440.759 471.44C422.66 493.106 406.765 516.522 393.309 541.34C379.706 566.141 368.697 592.279 360.459 619.34C356.348 632.877 353.098 646.661 350.729 660.61C348.307 674.579 346.969 688.714 346.729 702.89C346.628 688.667 347.627 674.458 349.719 660.39Z" fill="#F2F2F2"/>
<defs>
<filter id="filter0_d" x="255.918" y="0.784668" width="793.201" height="770.248" filterUnits="userSpaceOnUse" color-interpolation-filters="sRGB">
<feFlood flood-opacity="0" result="BackgroundImageFix"/>
<feColorMatrix in="SourceAlpha" type="matrix" values="0 0 0 0 0 0 0 0 0 0 0 0 0 0 0 0 0 0 127 0"/>
<feOffset/>
<feGaussianBlur stdDeviation="12"/>
<feColorMatrix type="matrix" values="0 0 0 0 0 0 0 0 0 0 0 0 0 0 0 0 0 0 0.03 0"/>
<feBlend mode="normal" in2="BackgroundImageFix" result="effect1_dropShadow"/>
<feBlend mode="normal" in="SourceGraphic" in2="effect1_dropShadow" result="shape"/>
</filter>
<linearGradient id="paint0_linear" x1="1166.29" y1="121" x2="1025.06" y2="121" gradientUnits="userSpaceOnUse">
<stop stop-color="#EFF9DE"/>
<stop offset="0.97" stop-color="#C4EFA3"/>
</linearGradient>
<linearGradient id="paint1_linear" x1="1059.79" y1="82.38" x2="859.229" y2="82.38" gradientUnits="userSpaceOnUse">
<stop offset="0.14" stop-color="#DFF9DE"/>
<stop offset="0.34" stop-color="#E0F8D7"/>
<stop offset="0.63" stop-color="#CAF5C3"/>
<stop offset="1" stop-color="#A0EFB1"/>
</linearGradient>
<linearGradient id="paint2_linear" x1="773.779" y1="34.4702" x2="525.939" y2="418.16" gradientUnits="userSpaceOnUse">
<stop stop-color="#D0FAC9"/>
<stop offset="0.13" stop-color="#C7F5C6"/>
<stop offset="0.37" stop-color="#DBF8D8"/>
<stop offset="0.54" stop-color="#DEF9E6"/>
<stop offset="1" stop-color="#94F998"/>
</linearGradient>
<linearGradient id="paint3_linear" x1="482.939" y1="419.28" x2="307.779" y2="768.41" gradientUnits="userSpaceOnUse">
<stop stop-color="#A4FFA7"/>
<stop offset="0.104044" stop-color="#C7F4BC"/>
<stop offset="0.33" stop-color="#BCF8B7"/>
<stop offset="0.54" stop-color="#BFF3AC"/>
<stop offset="1" stop-color="#A1F48D"/>
</linearGradient>
<radialGradient id="paint4_radial" cx="0" cy="0" r="1" gradientUnits="userSpaceOnUse" gradientTransform="translate(813.309 -31.1398) rotate(180) scale(793.73)">
<stop stop-color="white"/>
<stop offset="0.35" stop-color="#FDFFFC"/>
<stop offset="0.651042" stop-color="#EFEFEF"/>
<stop offset="1" stop-color="#E8E8E8"/>
</radialGradient>
</defs>
</svg>
