<svg width="1666" height="1145" viewBox="0 0 1666 1145" fill="none" xmlns="http://www.w3.org/2000/svg">
<path d="M42 45.0946L125.136 0L208.273 45.0946L125.136 90.1893L42 45.0946Z" fill="black" fill-opacity="0.08"/>
<path d="M42 324.118L125.136 279.023L208.273 324.118L125.136 369.212L42 324.118Z" fill="black" fill-opacity="0.08"/>
<path d="M538 46.5038L621.136 1.40921L704.273 46.5038L621.136 91.5985L538 46.5038Z" fill="black" fill-opacity="0.08"/>
<path d="M42 136.693L125.136 91.5985L208.273 136.693L125.136 181.788L42 136.693Z" fill="black" fill-opacity="0.08"/>
<path d="M42 415.716L125.136 370.621L208.273 415.716L125.136 460.811L42 415.716Z" fill="black" fill-opacity="0.08"/>
<path d="M538 138.102L621.136 93.0077L704.273 138.102L621.136 183.197L538 138.102Z" fill="black" fill-opacity="0.08"/>
<path d="M206.864 45.0946L290 0L373.136 45.0946L290 90.1893L206.864 45.0946Z" fill="black" fill-opacity="0.08"/>
<path d="M206.864 136.693L290 91.5985L373.136 136.693L290 181.788L206.864 136.693Z" fill="black" fill-opacity="0.08"/>
<path d="M206.864 226.882L290 181.788L373.136 226.882L290 271.977L206.864 226.882Z" fill="black" fill-opacity="0.08"/>
<path d="M371.727 226.882L454.864 181.788L538 226.882L454.864 271.977L371.727 226.882Z" fill="black" fill-opacity="0.08"/>
<g filter="url(#filter0_d)">
<path d="M919.763 232.997C953.098 214.334 1007.14 214.334 1040.48 232.997L1551 518.823C1567.95 528.311 1576.28 540.795 1575.99 553.23C1575.72 565.255 1567.39 577.232 1551 586.408L746.237 1036.97C729.377 1046.41 707.218 1051.07 685.121 1050.97C663.53 1050.86 641.997 1046.19 625.522 1036.97L115.001 751.145C98.0544 741.657 89.7232 729.172 90.007 716.738C90.2815 704.713 98.6127 692.735 115.001 683.56L919.763 232.997Z" fill="black" fill-opacity="0.01"/>
</g>
<path d="M539 137.095L622.136 92L705.273 137.095L622.136 182.189L539 137.095Z" fill="#93D383"/>
<path d="M206.864 226.882L290 181.788L373.137 226.882L290 271.977L206.864 226.882Z" fill="#93D383"/>
<path d="M290 125.095L373.136 80L456.273 125.095L373.136 170.189L290 125.095Z" fill="#93D383"/>
<path d="M290 125.095L373.136 80L456.273 125.095L373.136 170.189L290 125.095Z" fill="#93D383"/>
<path d="M705 47.0946L788.136 2L871.273 47.0946L788.136 92.1892L705 47.0946Z" fill="#93D383"/>
<path d="M746.236 904.734L1551 454.171C1567.39 444.995 1575.72 433.016 1575.99 420.99V369.298C1575.72 381.323 1567.39 393.301 1551 402.476L746.236 853.039C729.377 862.478 707.218 867.143 685.121 867.034V918.729C707.218 918.838 729.377 914.173 746.236 904.734Z" fill="#53515A"/>
<path d="M625.522 904.735L115.001 618.909C98.6007 609.727 90.2692 597.738 90.0065 585.705L90.007 534.805C89.9977 534.396 89.9977 533.986 90.007 533.577L90.007 534.805C90.2812 546.83 98.6125 558.808 115.001 567.983L625.522 853.809C641.997 863.033 663.53 867.698 685.121 867.805V918.73C663.53 918.624 641.997 913.958 625.522 904.735Z" fill="#53515A"/>
<path d="M981.272 87L1503.53 378.372L868.26 732.617L352 444.364L981.272 87Z" fill="url(#paint0_linear)"/>
<path d="M1504 371.076L981.984 80L353 437" stroke="#4B4754" stroke-width="20" stroke-linecap="round"/>
<path fill-rule="evenodd" clip-rule="evenodd" d="M1040.48 50.266C1007.14 31.6031 953.098 31.6031 919.763 50.266L115.001 500.829C98.6127 510.004 90.2815 521.982 90.007 534.007C89.7232 546.441 98.0544 558.926 115.001 568.413L625.522 854.239C641.997 863.463 663.53 868.128 685.121 868.235C707.218 868.344 729.377 863.679 746.237 854.239L1551 403.676C1567.39 394.501 1575.72 382.523 1575.99 370.499C1576.28 358.064 1567.95 345.58 1551 336.092L1040.48 50.266ZM1504.34 370.923L982.08 79.5503L352.808 436.914L869.068 725.167L1504.34 370.923Z" fill="url(#paint1_linear)"/>
<path d="M359.307 517.198L299.328 550.838L227.058 509.579L286.349 476.298L359.307 517.198Z" fill="#9E9E9E"/>
<path d="M299.328 559.541L227.058 518.281V509.579L299.328 550.838V559.541Z" fill="#818181"/>
<path d="M359.307 525.9L299.328 559.54V550.838L359.307 517.198V525.9Z" fill="#989898"/>
<path d="M464.249 579.9L404.27 613.54L332 572.281L391.291 539L464.249 579.9Z" fill="#9E9E9E"/>
<path d="M404.27 622.243L332 580.983V572.281L404.27 613.541V622.243Z" fill="#818181"/>
<path d="M464.249 588.602L404.27 622.242V613.54L464.249 579.9V588.602Z" fill="#989898"/>
<path d="M569.191 642.602L509.212 676.242L436.942 634.983L496.233 601.702L569.191 642.602Z" fill="#9E9E9E"/>
<path d="M509.212 684.945L436.942 643.685V634.983L509.212 676.243V684.945Z" fill="#818181"/>
<path d="M569.191 651.304L509.212 684.944V676.242L569.191 642.602V651.304Z" fill="#989898"/>
<path d="M614.704 780.477C576.432 759.779 576.432 726.221 614.704 705.523C652.975 684.826 715.025 684.826 753.296 705.523C791.568 726.221 791.568 759.779 753.296 780.477C715.025 801.174 652.975 801.174 614.704 780.477Z" fill="#424145"/>
<path d="M617.609 778.906C580.987 759.187 580.987 727.215 617.609 707.495C654.231 687.776 713.607 687.776 750.229 707.495C786.851 727.215 786.851 759.187 750.229 778.906C713.607 798.626 654.231 798.626 617.609 778.906Z" fill="#37343F"/>
<path d="M750.229 778.906C786.851 759.187 786.851 727.215 750.229 707.495L684 743L750.229 778.906Z" fill="#71B96F"/>
<path d="M653.314 760.203C636.412 750.813 636.412 735.589 653.314 726.198C670.217 716.808 697.621 716.808 714.524 726.198C731.426 735.589 731.426 750.813 714.524 760.203C697.621 769.594 670.217 769.594 653.314 760.203Z" fill="#4F4D53"/>
<path d="M653.314 755.048C636.412 745.658 636.412 730.433 653.314 721.043C670.217 711.652 697.621 711.652 714.524 721.043C731.426 730.433 731.426 745.658 714.524 755.048C697.621 764.438 670.217 764.438 653.314 755.048Z" fill="#5D5A65"/>
<path d="M1532.97 635.493L1133.03 871.06L1041.77 877.978C1035.74 878.435 1031.86 871.697 1035.27 866.69L1086.87 790.871L1490.1 561.297C1503.01 553.943 1519.44 558.41 1526.86 571.291L1542.67 598.76C1550.05 611.592 1545.73 627.979 1532.97 635.493Z" fill="url(#paint2_linear)"/>
<path d="M1041.77 877.978L1133.03 871.06C1133.03 871.06 1130.79 841.3 1122.5 825C1113.09 806.509 1086.87 790.871 1086.87 790.871L1035.27 866.69C1031.86 871.697 1035.74 878.435 1041.77 877.978Z" fill="#5F5C68"/>
<path d="M782.822 403.796L883.774 354.83L805.637 364.626L782.822 403.796Z" fill="#A7E7A6"/>
<path d="M949.726 324.332L940.073 508.326L785.898 408.637L949.726 324.332Z" fill="#60C85E"/>
<path d="M922.83 384.345L915.445 523.363L799.086 448.126L922.83 384.345Z" fill="#68B870"/>
<path d="M1033.81 466.134L965.123 452.98L1010.15 400.325L1033.81 466.134Z" fill="white"/>
<path d="M838.669 514.506L842.565 444.682L900.744 482.3L838.669 514.506Z" fill="#93D383"/>
<path d="M862.924 384.908L866.82 315.084L925 352.702L862.924 384.908Z" fill="#8FF08D"/>
<path d="M1061.09 309.178L1014.66 411.317L949.944 324.5L1061.09 309.178Z" fill="#A7E7A6"/>
<path d="M1038.28 305.271L969.867 314.752L1013.2 293.032L1038.28 305.271Z" fill="#BEEABD"/>
<path d="M1086 370.5L1059.67 431.783L1042.4 389.714L1086 370.5Z" fill="#BEEABD"/>
<path d="M948.996 323.62L1014.6 410.934L940.092 507.652L948.996 323.62Z" fill="#69D866"/>
<path d="M887.857 217.595L916.143 202.238L918.529 206.632L935 197.689L951.471 206.632L953.857 202.238L982.143 217.595L979.757 221.989L1017.47 242.466L1019.86 238.071L1048.14 253.429L1045.76 257.823L1083.47 278.299L1085.86 273.905L1114.14 289.262L1111.76 293.656L1149.47 314.132L1151.86 309.738L1180.14 325.095L1177.76 329.489L1215.47 349.966L1217.86 345.571L1246.14 360.929L1243.76 365.323L1281.47 385.799L1283.86 381.405L1312.14 396.762L1309.76 401.156L1320.52 407L1309.76 412.844L1312.14 417.238L1283.86 432.595L1281.47 428.201L1243.76 448.677L1246.14 453.071L1217.86 468.429L1215.47 464.034L1177.76 484.511L1180.14 488.905L1151.86 504.262L1149.47 499.868L1111.76 520.344L1114.14 524.738L1085.86 540.095L1083.47 535.701L1045.76 556.177L1048.14 560.571L1019.86 575.929L1017.47 571.534L979.757 592.011L982.143 596.405L953.857 611.762L951.471 607.368L935 616.311L918.529 607.368L916.143 611.762L887.857 596.405L890.243 592.011L852.529 571.534L850.143 575.929L821.857 560.571L824.243 556.177L786.529 535.701L784.143 540.095L755.857 524.738L758.243 520.344L720.529 499.868L718.143 504.262L689.857 488.905L692.243 484.511L654.529 464.034L652.143 468.429L623.857 453.071L626.243 448.677L588.529 428.201L586.143 432.595L557.857 417.238L560.243 412.844L549.479 407L560.243 401.156L557.857 396.762L586.143 381.405L588.529 385.799L626.243 365.323L623.857 360.929L652.143 345.571L654.529 349.966L692.243 329.489L689.857 325.095L718.143 309.738L720.529 314.132L758.243 293.656L755.857 289.262L784.143 273.905L786.529 278.299L824.243 257.823L821.857 253.429L850.143 238.071L852.529 242.466L890.243 221.989L887.857 217.595Z" stroke="#646464" stroke-width="10" stroke-dasharray="40 30"/>
<defs>
<filter id="filter0_d" x="0" y="133" width="1666" height="1011.97" filterUnits="userSpaceOnUse" color-interpolation-filters="sRGB">
<feFlood flood-opacity="0" result="BackgroundImageFix"/>
<feColorMatrix in="SourceAlpha" type="matrix" values="0 0 0 0 0 0 0 0 0 0 0 0 0 0 0 0 0 0 127 0"/>
<feOffset dy="4"/>
<feGaussianBlur stdDeviation="45"/>
<feColorMatrix type="matrix" values="0 0 0 0 0.566667 0 0 0 0 0.554861 0 0 0 0 0.554861 0 0 0 0.32 0"/>
<feBlend mode="normal" in2="BackgroundImageFix" result="effect1_dropShadow"/>
<feBlend mode="normal" in="SourceGraphic" in2="effect1_dropShadow" result="shape"/>
</filter>
<linearGradient id="paint0_linear" x1="927.764" y1="87" x2="927.764" y2="732.617" gradientUnits="userSpaceOnUse">
<stop stop-color="#37343F"/>
<stop offset="1" stop-color="#44404F"/>
</linearGradient>
<linearGradient id="paint1_linear" x1="833" y1="36.2688" x2="833" y2="868.236" gradientUnits="userSpaceOnUse">
<stop stop-color="#666270"/>
<stop offset="1" stop-color="#5C5864"/>
</linearGradient>
<linearGradient id="paint2_linear" x1="1258.44" y1="650.532" x2="1324.87" y2="808.261" gradientUnits="userSpaceOnUse">
<stop stop-color="#44404F"/>
<stop offset="1" stop-color="#4D4A54"/>
</linearGradient>
</defs>
</svg>
