<svg width="1242" height="1053" viewBox="0 0 1242 1053" fill="none" xmlns="http://www.w3.org/2000/svg">
<rect width="407.118" height="580.342" transform="matrix(-0.868781 0.495196 -0.8657 -0.500564 991.657 811.498)" stroke="#9B9B9B" stroke-width="7" stroke-miterlimit="10" stroke-dasharray="30 40"/>
<g filter="url(#filter0_d)">
<rect width="407.118" height="580.342" transform="matrix(-0.868781 0.495196 -0.8657 -0.500564 991.657 792.498)" fill="white" fill-opacity="0.01"/>
</g>
<g filter="url(#filter1_d)">
<rect width="266.858" height="165.076" transform="matrix(-0.868781 0.495196 -0.8657 -0.500564 428.748 422.631)" fill="white" fill-opacity="0.01"/>
</g>
<path d="M153.709 647.429L153.71 647.429L620.218 914.287C625.096 917.084 631.463 918.48 637.808 918.5C644.153 918.519 650.529 917.162 655.423 914.395L971.287 735.976L971.041 735.541L971.287 735.976C976.251 733.17 978.47 729.307 978.993 725.672C979.421 722.692 982.836 706.534 983.761 702.177C983.947 701.3 983.329 700.479 982.453 700.383L146.991 609.767C145.421 609.597 144.083 610.899 144.229 612.477C144.8 618.621 146.244 634.39 146.302 637.285C146.377 641.039 148.92 644.682 153.709 647.429Z" fill="url(#paint0_linear)" stroke="#696969"/>
<path d="M1078.55 269.978L625.998 5.20124C620.176 1.7952 613.439 -0.326845 606.959 1.54393C594.587 5.11562 581.406 14.6364 574 27.5L965.6 676.211C968.459 680.947 972.822 684.681 978.343 685.033C989.108 685.72 1006.56 683.154 1016.82 667.53C1018.15 665.501 1018.95 663.172 1019.46 660.798L1095.33 308.482C1098.36 294.416 1090.85 277.177 1078.55 269.978Z" fill="#414141"/>
<rect x="-6.52654" y="-14.7697" width="563.85" height="396.366" rx="28" transform="matrix(0.866025 0.5 -0.213371 0.976971 587.399 32.9685)" fill="#56A3BB" stroke="#565656" stroke-width="20"/>
<path d="M606.558 38.8272C602.028 36.221 597.206 35.7941 593.121 37.593C589.034 39.3926 586.101 43.237 584.983 48.3354L511.991 381.412C510.881 386.477 511.719 391.979 513.85 396.787C515.982 401.595 519.499 405.914 524 408.504L964.868 662.173C969.397 664.779 974.22 665.206 978.305 663.407C982.391 661.608 984.883 657.098 986 652C985.165 655.812 978.677 657.78 976.29 658.831C973.901 659.883 970.757 659.793 967.362 657.839L526.494 404.17C523.07 402.2 520.203 398.779 518.421 394.76C516.639 390.74 516.032 386.327 516.875 382.482L589.867 49.4057C590.703 45.594 593.121 43.5 595.136 42.169C596 41.5 598.5 39.375 603.5 40C608.5 40.625 613 42.5 613 42.5L606.558 38.8272Z" fill="#0C2041"/>
<g filter="url(#filter2_d)">
<rect width="430.32" height="297.799" transform="matrix(0.866025 0.5 -0.213371 0.976971 814.821 174.523)" fill="white" fill-opacity="0.01"/>
</g>
<mask id="mask0" mask-type="alpha" maskUnits="userSpaceOnUse" x="516" y="39" width="541" height="622">
<rect width="538.849" height="372.905" rx="17" transform="matrix(0.866025 0.5 -0.213371 0.976971 593.222 32.9863)" fill="#3A8CA6"/>
</mask>
<g mask="url(#mask0)">
<path d="M741.729 549.021L928.684 652.784L1200.07 490.05L1198.42 394.468C1198.17 379.554 1187.38 361.592 1174.34 354.349L1118.27 323.233L741.729 549.021Z" fill="url(#paint1_linear)" fill-opacity="0.1"/>
<path d="M1009.97 263.122L1089.91 307.49L713.363 533.277L633.424 488.91L1009.97 263.122Z" fill="url(#paint2_linear)" fill-opacity="0.1"/>
<path d="M923.581 215.177L957.104 233.783L580.56 459.57L547.037 440.964L923.581 215.177Z" fill="url(#paint3_linear)" fill-opacity="0.1"/>
<path d="M739.204 112.845L861.692 180.828L486.265 405.945C476.713 397.172 469.672 383.177 469.467 371.161L467.815 275.579L739.204 112.845Z" fill="url(#paint4_linear)" fill-opacity="0.1"/>
<path d="M536.777 0.49454L676.027 77.7802L466.566 203.379L463.814 44.2454L536.777 0.49454Z" fill="url(#paint5_linear)" fill-opacity="0.1"/>
<path d="M1200.66 523.94L958.339 669.243L991.862 687.849L1201.32 562.25L1200.66 523.94Z" fill="url(#paint6_linear)" fill-opacity="0.1"/>
<path d="M1202.34 621.188L1043.44 716.473L1120.8 759.409L1203.87 709.596L1202.34 621.188Z" fill="url(#paint7_linear)" fill-opacity="0.1"/>
</g>
<rect x="-2.28429" y="-5.1694" width="400.925" height="279.612" rx="21.5" transform="matrix(0.866025 0.5 -0.213371 0.976971 776.759 203.023)" fill="white" stroke="white" stroke-width="7"/>
<path d="M1078.96 399.597C1079.79 398.089 1082.03 399.421 1082.23 401.542L1083.87 419.354C1083.96 420.302 1084.52 421.244 1085.27 421.687L1099.25 430.006C1100.92 430.996 1101.18 433.85 1099.64 434.17L1086.67 436.86C1085.98 437.003 1085.57 437.742 1085.66 438.691L1087.31 456.502C1087.5 458.623 1085.43 459.054 1084.28 457.131L1074.62 440.982C1074.1 440.122 1073.29 439.636 1072.6 439.78L1059.63 442.469C1058.09 442.789 1056.54 440.202 1057.37 438.693L1064.37 426.023C1064.74 425.348 1064.64 424.309 1064.13 423.449L1054.47 407.3C1053.32 405.377 1054.44 403.347 1056.11 404.337L1070.09 412.656C1070.83 413.099 1071.59 412.942 1071.96 412.267L1078.96 399.597Z" fill="#66D355"/>
<rect x="1.95796" y="4.43091" width="234.369" height="160.345" rx="17" transform="matrix(0.866025 0.5 -0.213371 0.976971 459.701 119.763)" fill="#68E154" fill-opacity="0.9" stroke="url(#paint8_linear)" stroke-width="6"/>
<path d="M159 601C149.352 606.054 147.303 611.952 151.59 616.728C152.381 617.61 153.389 618.264 154.415 618.858L620.647 888.442C630.209 893.971 645.74 894.019 655.337 888.549L974.282 706.753C983 702 978.5 695 969 690.5" stroke="white" stroke-width="11"/>
<rect x="-6.93792" y="-0.0214694" width="399.118" height="572.342" rx="16" transform="matrix(-0.868781 0.495196 -0.8657 -0.500564 978.673 700.253)" fill="#DCDCDC" stroke="#CDCDCD" stroke-width="8"/>
<path d="M343.004 689.392C339.485 687.385 340.799 679.543 345.393 676.929L427.745 630.086C437.395 624.596 453.013 624.645 462.629 630.193L594.421 706.242C599.109 708.947 603.459 714.48 595.916 720" stroke="#888888" stroke-width="5"/>
<rect width="134.262" height="191.388" rx="20" transform="matrix(-0.868781 0.495196 -0.8657 -0.500564 611.328 715.802)" fill="#F5F5F5"/>
<path d="M486.366 437.809C485.235 437.157 483.344 437.19 482.142 437.884L472.891 443.225C472.037 443.718 471.76 444.413 472.079 445.008C471.78 445.589 472.003 446.225 472.762 446.663L498.867 461.735C499.998 462.388 501.889 462.355 503.091 461.66L512.342 456.32C513.196 455.826 513.473 455.131 513.154 454.537C513.453 453.956 513.23 453.319 512.471 452.881L486.366 437.809Z" fill="#434343"/>
<path d="M463.24 451.161C462.109 450.508 460.218 450.542 459.016 451.236L436.162 464.431C435.307 464.924 435.031 465.619 435.349 466.214C435.05 466.795 435.273 467.431 436.033 467.869L457.531 480.281C458.661 480.934 460.553 480.901 461.755 480.207L484.609 467.012C485.464 466.518 485.74 465.824 485.421 465.229C485.72 464.648 485.497 464.012 484.738 463.573L463.24 451.161Z" fill="#434343"/>
<path d="M493.439 468.597C492.309 467.944 490.417 467.978 489.215 468.672L466.361 481.866C465.507 482.36 465.23 483.055 465.549 483.649C465.25 484.23 465.473 484.867 466.232 485.305L487.73 497.717C488.861 498.37 490.752 498.336 491.954 497.642L514.808 484.448C515.663 483.954 515.939 483.259 515.621 482.664C515.92 482.084 515.697 481.447 514.938 481.009L493.439 468.597Z" fill="#434343"/>
<path d="M519.415 486.107C520.617 485.413 522.508 485.38 523.639 486.033L545.137 498.445C545.896 498.883 546.12 499.519 545.821 500.1C546.139 500.695 545.863 501.39 545.008 501.883L522.154 515.078C520.952 515.772 519.061 515.805 517.93 515.153L496.432 502.741C495.673 502.302 495.449 501.666 495.748 501.085C495.43 500.49 495.706 499.796 496.561 499.302L519.415 486.107Z" fill="#434343"/>
<path d="M553.839 503.468C552.708 502.816 550.817 502.849 549.615 503.543L526.761 516.738C525.906 517.231 525.63 517.926 525.948 518.521C525.649 519.102 525.872 519.738 526.631 520.177L548.129 532.588C549.26 533.241 551.151 533.208 552.353 532.514L575.207 519.319C576.062 518.826 576.338 518.131 576.02 517.536C576.319 516.955 576.096 516.319 575.337 515.88L553.839 503.468Z" fill="#434343"/>
<path d="M579.814 520.979C581.016 520.285 582.907 520.251 584.038 520.904L605.536 533.316C606.295 533.754 606.519 534.391 606.22 534.972C606.538 535.567 606.262 536.261 605.407 536.755L582.553 549.95C581.351 550.644 579.46 550.677 578.329 550.024L556.831 537.612C556.072 537.174 555.848 536.538 556.147 535.957C555.829 535.362 556.105 534.667 556.96 534.173L579.814 520.979Z" fill="#434343"/>
<path d="M614.238 538.34C613.107 537.687 611.216 537.72 610.014 538.414L587.16 551.609C586.305 552.103 586.029 552.797 586.347 553.392C586.048 553.973 586.271 554.61 587.031 555.048L608.529 567.46C609.659 568.113 611.551 568.079 612.753 567.385L635.607 554.191C636.461 553.697 636.738 553.002 636.419 552.407C636.718 551.826 636.495 551.19 635.736 550.752L614.238 538.34Z" fill="#434343"/>
<path d="M640.213 555.85C641.415 555.156 643.307 555.123 644.437 555.776L665.935 568.188C666.695 568.626 666.918 569.262 666.619 569.843C666.937 570.438 666.661 571.133 665.806 571.626L642.952 584.821C641.75 585.515 639.859 585.548 638.728 584.896L617.23 572.484C616.471 572.045 616.248 571.409 616.547 570.828C616.228 570.233 616.505 569.538 617.359 569.045L640.213 555.85Z" fill="#434343"/>
<path d="M674.637 573.211C673.506 572.559 671.615 572.592 670.413 573.286L647.559 586.481C646.704 586.974 646.428 587.669 646.746 588.264C646.447 588.845 646.67 589.481 647.43 589.919L668.928 602.331C670.058 602.984 671.95 602.951 673.152 602.257L696.006 589.062C696.86 588.568 697.137 587.874 696.818 587.279C697.117 586.698 696.894 586.062 696.135 585.623L674.637 573.211Z" fill="#434343"/>
<path d="M700.612 590.722C701.814 590.028 703.706 589.994 704.836 590.647L726.334 603.059C727.094 603.497 727.317 604.134 727.018 604.715C727.336 605.31 727.06 606.004 726.205 606.498L703.351 619.692C702.149 620.386 700.258 620.42 699.127 619.767L677.629 607.355C676.87 606.917 676.647 606.28 676.946 605.699C676.627 605.105 676.904 604.41 677.758 603.916L700.612 590.722Z" fill="#434343"/>
<path d="M735.036 608.083C733.905 607.43 732.014 607.463 730.812 608.157L707.958 621.352C707.103 621.846 706.827 622.54 707.145 623.135C706.846 623.716 707.069 624.352 707.829 624.791L729.327 637.203C730.458 637.856 732.349 637.822 733.551 637.128L756.405 623.933C757.26 623.44 757.536 622.745 757.217 622.15C757.516 621.569 757.293 620.933 756.534 620.495L735.036 608.083Z" fill="#434343"/>
<path d="M761.011 625.593C762.214 624.899 764.105 624.866 765.235 625.519L786.734 637.93C787.493 638.369 787.716 639.005 787.417 639.586C787.735 640.181 787.459 640.876 786.604 641.369L763.75 654.564C762.548 655.258 760.657 655.291 759.526 654.638L738.028 642.227C737.269 641.788 737.046 641.152 737.345 640.571C737.026 639.976 737.303 639.281 738.157 638.788L761.011 625.593Z" fill="#434343"/>
<path d="M795.435 642.954C794.304 642.301 792.413 642.335 791.211 643.029L768.357 656.224C767.502 656.717 767.226 657.412 767.544 658.007C767.245 658.588 767.469 659.224 768.228 659.662L789.726 672.074C790.857 672.727 792.748 672.694 793.95 672L816.804 658.805C817.659 658.311 817.935 657.617 817.617 657.022C817.916 656.441 817.692 655.805 816.933 655.366L795.435 642.954Z" fill="#434343"/>
<path d="M821.411 660.465C822.613 659.771 824.504 659.737 825.635 660.39L847.133 672.802C847.892 673.24 848.115 673.877 847.816 674.457C848.135 675.052 847.858 675.747 847.003 676.241L824.149 689.435C822.948 690.129 821.056 690.163 819.926 689.51L798.427 677.098C797.668 676.66 797.445 676.023 797.744 675.442C797.426 674.848 797.702 674.153 798.557 673.659L821.411 660.465Z" fill="#434343"/>
<path d="M855.834 677.826C854.703 677.173 852.812 677.206 851.61 677.9L828.756 691.095C827.901 691.589 827.625 692.283 827.944 692.878C827.645 693.459 827.868 694.095 828.627 694.534L890.05 729.996C891.181 730.649 893.072 730.616 894.274 729.922L917.128 716.727C917.983 716.233 918.259 715.539 917.94 714.944C918.24 714.363 918.016 713.727 917.257 713.288L855.834 677.826Z" fill="#434343"/>
<path d="M469.714 498.253C470.916 497.559 472.807 497.526 473.938 498.179L495.436 510.59C496.195 511.029 496.418 511.665 496.119 512.246C496.438 512.841 496.161 513.536 495.307 514.029L472.453 527.224C471.25 527.918 469.359 527.951 468.229 527.299L446.731 514.887C445.971 514.448 445.748 513.812 446.047 513.231C445.729 512.636 446.005 511.941 446.86 511.448L469.714 498.253Z" fill="#434343"/>
<path d="M504.137 515.614C503.007 514.962 501.115 514.995 499.913 515.689L477.059 528.884C476.204 529.377 475.928 530.072 476.247 530.667C475.948 531.248 476.171 531.884 476.93 532.322L498.428 544.734C499.559 545.387 501.45 545.354 502.652 544.66L525.506 531.465C526.361 530.971 526.637 530.277 526.319 529.682C526.618 529.101 526.395 528.465 525.635 528.026L504.137 515.614Z" fill="#434343"/>
<path d="M530.113 533.125C531.315 532.431 533.206 532.397 534.337 533.05L555.835 545.462C556.594 545.9 556.818 546.537 556.518 547.118C556.837 547.712 556.561 548.407 555.706 548.901L532.852 562.095C531.65 562.789 529.758 562.823 528.628 562.17L507.13 549.758C506.37 549.32 506.147 548.683 506.446 548.102C506.128 547.508 506.404 546.813 507.259 546.319L530.113 533.125Z" fill="#434343"/>
<path d="M564.536 550.486C563.406 549.833 561.515 549.866 560.312 550.56L537.458 563.755C536.604 564.249 536.327 564.943 536.646 565.538C536.347 566.119 536.57 566.755 537.329 567.194L558.827 579.606C559.958 580.259 561.849 580.225 563.051 579.531L585.905 566.336C586.76 565.843 587.036 565.148 586.718 564.553C587.017 563.972 586.794 563.336 586.034 562.898L564.536 550.486Z" fill="#434343"/>
<path d="M590.512 567.996C591.714 567.302 593.605 567.269 594.736 567.922L616.234 580.333C616.993 580.772 617.217 581.408 616.917 581.989C617.236 582.584 616.96 583.279 616.105 583.772L593.251 596.967C592.049 597.661 590.158 597.694 589.027 597.041L567.529 584.63C566.77 584.191 566.546 583.555 566.845 582.974C566.527 582.379 566.803 581.684 567.658 581.191L590.512 567.996Z" fill="#434343"/>
<path d="M624.936 585.357C623.805 584.704 621.914 584.738 620.712 585.432L597.858 598.627C597.003 599.12 596.727 599.815 597.045 600.41C596.746 600.991 596.969 601.627 597.728 602.065L619.226 614.477C620.357 615.13 622.248 615.097 623.45 614.403L646.304 601.208C647.159 600.714 647.435 600.02 647.117 599.425C647.416 598.844 647.193 598.207 646.434 597.769L624.936 585.357Z" fill="#434343"/>
<path d="M650.911 602.868C652.113 602.173 654.004 602.14 655.135 602.793L676.633 615.205C677.392 615.643 677.616 616.279 677.317 616.86C677.635 617.455 677.359 618.15 676.504 618.644L653.65 631.838C652.448 632.532 650.557 632.566 649.426 631.913L627.928 619.501C627.169 619.063 626.945 618.426 627.245 617.845C626.926 617.251 627.202 616.556 628.057 616.062L650.911 602.868Z" fill="#434343"/>
<path d="M685.335 620.229C684.204 619.576 682.313 619.609 681.111 620.303L658.257 633.498C657.402 633.992 657.126 634.686 657.444 635.281C657.145 635.862 657.368 636.498 658.128 636.937L679.625 649.349C680.756 650.001 682.647 649.968 683.849 649.274L706.703 636.079C707.558 635.586 707.834 634.891 707.516 634.296C707.815 633.715 707.592 633.079 706.833 632.641L685.335 620.229Z" fill="#434343"/>
<path d="M711.31 637.739C712.512 637.045 714.403 637.012 715.534 637.664L737.032 650.076C737.792 650.515 738.015 651.151 737.716 651.732C738.034 652.327 737.758 653.021 736.903 653.515L714.049 666.71C712.847 667.404 710.956 667.437 709.825 666.784L688.327 654.372C687.568 653.934 687.344 653.298 687.644 652.717C687.325 652.122 687.601 651.427 688.456 650.934L711.31 637.739Z" fill="#434343"/>
<path d="M745.734 655.1C744.603 654.447 742.712 654.481 741.51 655.175L718.656 668.369C717.801 668.863 717.525 669.558 717.843 670.153C717.544 670.733 717.767 671.37 718.527 671.808L740.025 684.22C741.155 684.873 743.047 684.84 744.249 684.146L767.103 670.951C767.957 670.457 768.234 669.763 767.915 669.168C768.214 668.587 767.991 667.95 767.232 667.512L745.734 655.1Z" fill="#434343"/>
<path d="M771.709 672.61C772.911 671.916 774.803 671.883 775.933 672.536L797.431 684.948C798.191 685.386 798.414 686.022 798.115 686.603C798.433 687.198 798.157 687.893 797.302 688.386L774.448 701.581C773.246 702.275 771.355 702.309 770.224 701.656L748.726 689.244C747.967 688.806 747.744 688.169 748.043 687.588C747.724 686.993 748.001 686.299 748.855 685.805L771.709 672.61Z" fill="#434343"/>
<path d="M806.133 689.972C805.002 689.319 803.111 689.352 801.909 690.046L779.055 703.241C778.2 703.735 777.924 704.429 778.242 705.024C777.943 705.605 778.167 706.241 778.926 706.68L800.424 719.092C801.555 719.744 803.446 719.711 804.648 719.017L827.502 705.822C828.356 705.329 828.633 704.634 828.314 704.039C828.614 703.458 828.39 702.822 827.631 702.383L806.133 689.972Z" fill="#434343"/>
<path d="M832.108 707.482C833.311 706.788 835.202 706.755 836.333 707.407L881.888 733.709C882.647 734.147 882.87 734.783 882.571 735.364C882.89 735.959 882.613 736.654 881.759 737.147L858.905 750.342C857.703 751.036 855.811 751.07 854.681 750.417L809.125 724.115C808.366 723.677 808.143 723.041 808.442 722.46C808.124 721.865 808.4 721.17 809.255 720.677L832.108 707.482Z" fill="#434343"/>
<path d="M427.871 471.582C426.74 470.929 424.849 470.962 423.647 471.656L400.793 484.851C399.938 485.345 399.662 486.039 399.98 486.634C399.681 487.215 399.904 487.851 400.663 488.29L438.029 509.863C439.16 510.516 441.051 510.482 442.253 509.788L465.107 496.593C465.962 496.1 466.238 495.405 465.92 494.81C466.219 494.23 465.995 493.593 465.236 493.155L427.871 471.582Z" fill="#434343"/>
<path d="M486.554 548.817C487.756 548.123 489.647 548.089 490.778 548.742L512.276 561.154C513.035 561.592 513.258 562.229 512.959 562.81C513.278 563.405 513.001 564.099 512.147 564.593L489.293 577.788C488.091 578.482 486.199 578.515 485.069 577.862L463.571 565.45C462.811 565.012 462.588 564.376 462.887 563.795C462.569 563.2 462.845 562.505 463.7 562.011L486.554 548.817Z" fill="#434343"/>
<path d="M520.977 566.178C519.847 565.525 517.956 565.558 516.753 566.252L493.899 579.447C493.045 579.941 492.768 580.635 493.087 581.23C492.788 581.811 493.011 582.448 493.77 582.886L515.268 595.298C516.399 595.951 518.29 595.917 519.492 595.223L542.346 582.029C543.201 581.535 543.477 580.84 543.159 580.245C543.458 579.665 543.235 579.028 542.475 578.59L520.977 566.178Z" fill="#434343"/>
<path d="M546.953 583.688C548.155 582.994 550.046 582.961 551.177 583.614L572.675 596.026C573.434 596.464 573.658 597.1 573.359 597.681C573.677 598.276 573.401 598.971 572.546 599.464L549.692 612.659C548.49 613.353 546.599 613.386 545.468 612.734L523.97 600.322C523.211 599.883 522.987 599.247 523.286 598.666C522.968 598.071 523.244 597.376 524.099 596.883L546.953 583.688Z" fill="#434343"/>
<path d="M581.377 601.049C580.246 600.397 578.355 600.43 577.153 601.124L554.299 614.319C553.444 614.812 553.168 615.507 553.486 616.102C553.187 616.683 553.41 617.319 554.169 617.757L575.667 630.169C576.798 630.822 578.689 630.789 579.891 630.095L602.745 616.9C603.6 616.406 603.876 615.712 603.558 615.117C603.857 614.536 603.634 613.9 602.875 613.461L581.377 601.049Z" fill="#434343"/>
<path d="M607.352 618.56C608.554 617.866 610.445 617.832 611.576 618.485L633.074 630.897C633.833 631.335 634.057 631.972 633.758 632.553C634.076 633.148 633.8 633.842 632.945 634.336L610.091 647.53C608.889 648.225 606.998 648.258 605.867 647.605L584.369 635.193C583.61 634.755 583.386 634.118 583.686 633.537C583.367 632.943 583.643 632.248 584.498 631.754L607.352 618.56Z" fill="#434343"/>
<path d="M641.776 635.921C640.645 635.268 638.754 635.301 637.552 635.995L614.698 649.19C613.843 649.684 613.567 650.378 613.885 650.973C613.586 651.554 613.809 652.191 614.569 652.629L636.067 665.041C637.197 665.694 639.089 665.66 640.291 664.966L663.145 651.771C663.999 651.278 664.276 650.583 663.957 649.988C664.256 649.407 664.033 648.771 663.274 648.333L641.776 635.921Z" fill="#434343"/>
<path d="M667.751 653.431C668.953 652.737 670.844 652.704 671.975 653.357L693.473 665.768C694.233 666.207 694.456 666.843 694.157 667.424C694.475 668.019 694.199 668.714 693.344 669.207L670.49 682.402C669.288 683.096 667.397 683.129 666.266 682.476L644.768 670.065C644.009 669.626 643.786 668.99 644.085 668.409C643.766 667.814 644.042 667.119 644.897 666.626L667.751 653.431Z" fill="#434343"/>
<path d="M702.175 670.792C701.044 670.139 699.153 670.173 697.951 670.867L675.097 684.062C674.242 684.555 673.966 685.25 674.284 685.845C673.985 686.426 674.208 687.062 674.968 687.5L696.466 699.912C697.596 700.565 699.488 700.532 700.69 699.838L723.544 686.643C724.398 686.149 724.675 685.455 724.356 684.86C724.655 684.279 724.432 683.643 723.673 683.204L702.175 670.792Z" fill="#434343"/>
<path d="M728.15 688.303C729.352 687.609 731.244 687.575 732.374 688.228L753.872 700.64C754.632 701.078 754.855 701.715 754.556 702.295C754.874 702.89 754.598 703.585 753.743 704.079L730.889 717.273C729.687 717.967 727.796 718.001 726.665 717.348L705.167 704.936C704.408 704.498 704.185 703.861 704.484 703.28C704.165 702.685 704.442 701.991 705.296 701.497L728.15 688.303Z" fill="#434343"/>
<path d="M762.574 705.664C761.443 705.011 759.552 705.044 758.35 705.738L735.496 718.933C734.641 719.427 734.365 720.121 734.683 720.716C734.384 721.297 734.608 721.933 735.367 722.372L756.865 734.784C757.996 735.437 759.887 735.403 761.089 734.709L783.943 721.514C784.798 721.021 785.074 720.326 784.755 719.731C785.055 719.15 784.831 718.514 784.072 718.076L762.574 705.664Z" fill="#434343"/>
<path d="M788.55 723.174C789.752 722.48 791.643 722.447 792.773 723.099L846.519 754.129C847.278 754.568 847.501 755.204 847.202 755.785C847.52 756.38 847.244 757.074 846.389 757.568L823.535 770.763C822.333 771.457 820.442 771.49 819.311 770.837L765.566 739.808C764.807 739.369 764.584 738.733 764.883 738.152C764.565 737.557 764.841 736.862 765.696 736.369L788.55 723.174Z" fill="#434343"/>
<path d="M460.578 531.306C459.448 530.654 457.556 530.687 456.354 531.381L433.5 544.576C432.646 545.069 432.369 545.764 432.688 546.359C432.389 546.94 432.612 547.576 433.371 548.015L454.869 560.426C456 561.079 457.891 561.046 459.093 560.352L481.947 547.157C482.802 546.664 483.078 545.969 482.76 545.374C483.059 544.793 482.836 544.157 482.076 543.718L460.578 531.306Z" fill="#434343"/>
<path d="M388.277 492.077C389.479 491.383 391.371 491.349 392.501 492.002L451.877 526.283C452.636 526.721 452.859 527.357 452.56 527.938C452.879 528.533 452.602 529.228 451.748 529.721L428.894 542.916C427.692 543.61 425.8 543.644 424.67 542.991L365.294 508.71C364.535 508.272 364.312 507.636 364.611 507.055C364.292 506.46 364.569 505.765 365.423 505.271L388.277 492.077Z" fill="#434343"/>
<path d="M357.132 512.423C356.001 511.77 354.11 511.803 352.908 512.497L330.054 525.692C329.199 526.186 328.923 526.88 329.241 527.475C328.942 528.056 329.166 528.692 329.925 529.131L351.423 541.543C352.554 542.195 354.445 542.162 355.647 541.468L378.501 528.273C379.356 527.78 379.632 527.085 379.314 526.49C379.613 525.909 379.389 525.273 378.63 524.835L357.132 512.423Z" fill="#434343"/>
<path d="M384.643 530.82C385.845 530.126 387.736 530.092 388.867 530.745L410.365 543.157C411.125 543.595 411.348 544.232 411.049 544.812C411.367 545.407 411.091 546.102 410.236 546.596L387.382 559.79C386.18 560.484 384.289 560.518 383.158 559.865L361.66 547.453C360.901 547.015 360.677 546.378 360.977 545.797C360.658 545.203 360.934 544.508 361.789 544.014L384.643 530.82Z" fill="#434343"/>
<path d="M420.602 549.067C419.472 548.414 417.58 548.448 416.378 549.142L393.524 562.337C392.67 562.83 392.393 563.525 392.712 564.12C392.413 564.701 392.636 565.337 393.395 565.775L414.893 578.187C416.024 578.84 417.915 578.807 419.117 578.113L441.971 564.918C442.826 564.424 443.102 563.73 442.784 563.135C443.083 562.554 442.86 561.917 442.1 561.479L420.602 549.067Z" fill="#434343"/>
<path d="M448.114 567.464C449.316 566.77 451.207 566.737 452.337 567.39L473.835 579.801C474.595 580.24 474.818 580.876 474.519 581.457C474.837 582.052 474.561 582.747 473.706 583.24L450.852 596.435C449.65 597.129 447.759 597.162 446.628 596.509L425.13 584.098C424.371 583.659 424.148 583.023 424.447 582.442C424.128 581.847 424.405 581.152 425.26 580.659L448.114 567.464Z" fill="#434343"/>
<path d="M650.682 681.904C649.551 681.251 647.66 681.284 646.458 681.978L623.604 695.173C622.749 695.667 622.473 696.361 622.791 696.956C622.492 697.537 622.716 698.173 623.475 698.612L644.973 711.024C646.104 711.677 647.995 711.643 649.197 710.949L672.051 697.754C672.906 697.261 673.182 696.566 672.864 695.971C673.163 695.39 672.939 694.754 672.18 694.316L650.682 681.904Z" fill="#434343"/>
<path d="M678.193 700.301C679.395 699.607 681.286 699.573 682.417 700.226L703.915 712.638C704.674 713.076 704.898 713.713 704.599 714.294C704.917 714.889 704.641 715.583 703.786 716.077L680.932 729.272C679.73 729.965 677.839 729.999 676.708 729.346L655.21 716.934C654.451 716.496 654.227 715.859 654.526 715.278C654.208 714.684 654.484 713.989 655.339 713.495L678.193 700.301Z" fill="#434343"/>
<path d="M714.152 718.548C713.022 717.896 711.13 717.929 709.928 718.623L687.074 731.818C686.219 732.311 685.943 733.006 686.262 733.601C685.963 734.182 686.186 734.818 686.945 735.257L708.443 747.668C709.574 748.321 711.465 748.288 712.667 747.594L735.521 734.399C736.376 733.906 736.652 733.211 736.334 732.616C736.633 732.035 736.41 731.399 735.65 730.96L714.152 718.548Z" fill="#434343"/>
<path d="M479.849 585.786C481.051 585.092 482.942 585.059 484.073 585.712L640.445 675.993C641.204 676.432 641.427 677.068 641.128 677.649C641.447 678.244 641.171 678.939 640.316 679.432L617.462 692.627C616.26 693.321 614.369 693.354 613.238 692.701L456.865 602.42C456.106 601.982 455.883 601.345 456.182 600.764C455.864 600.169 456.14 599.475 456.995 598.981L479.849 585.786Z" fill="#434343"/>
<path d="M730.107 745.981C728.977 745.329 727.085 745.362 725.883 746.056L719.082 749.983C718.227 750.476 717.951 751.171 718.269 751.766C717.97 752.347 718.193 752.983 718.952 753.422L735.332 762.878C736.463 763.531 738.354 763.498 739.556 762.804L746.358 758.877C747.212 758.383 747.489 757.689 747.17 757.094C747.469 756.513 747.246 755.876 746.487 755.438L730.107 745.981Z" fill="#434343"/>
<path d="M750.452 760.241C751.655 759.547 753.546 759.514 754.677 760.166L770.8 769.475C771.559 769.914 771.782 770.55 771.483 771.131C771.802 771.726 771.526 772.42 770.671 772.914L763.869 776.841C762.667 777.535 760.776 777.568 759.645 776.916L743.521 767.607C742.762 767.168 742.539 766.532 742.838 765.951C742.52 765.356 742.796 764.662 743.651 764.168L750.452 760.241Z" fill="#434343"/>
<path d="M770.457 751.056C769.326 750.403 767.435 750.436 766.233 751.13L759.431 755.057C758.576 755.551 758.3 756.245 758.618 756.84C758.319 757.421 758.542 758.058 759.302 758.496L775.425 767.805C776.556 768.458 778.447 768.424 779.649 767.73L786.451 763.803C787.306 763.31 787.582 762.615 787.264 762.02C787.563 761.439 787.339 760.803 786.58 760.365L770.457 751.056Z" fill="#434343"/>
<path d="M774.766 774.278C775.968 773.584 777.859 773.551 778.99 774.204L795.369 783.66C796.128 784.099 796.352 784.735 796.053 785.316C796.371 785.911 796.095 786.605 795.24 787.099L788.438 791.026C787.236 791.72 785.345 791.753 784.214 791.101L767.835 781.644C767.075 781.206 766.852 780.569 767.151 779.988C766.833 779.393 767.109 778.699 767.964 778.205L774.766 774.278Z" fill="#434343"/>
<path d="M519.763 459.605C520.966 458.911 522.857 458.877 523.987 459.53L545.485 471.942C546.245 472.38 546.468 473.017 546.169 473.598C546.487 474.193 546.211 474.887 545.356 475.381L536.106 480.722C534.904 481.416 533.013 481.449 531.882 480.796L510.384 468.384C509.625 467.946 509.401 467.31 509.7 466.729C509.382 466.134 509.658 465.439 510.513 464.946L519.763 459.605Z" fill="#434343"/>
<path d="M554.187 476.966C553.056 476.313 551.165 476.346 549.963 477.04L540.713 482.381C539.858 482.875 539.582 483.569 539.9 484.164C539.601 484.745 539.824 485.382 540.583 485.82L562.081 498.232C563.212 498.885 565.103 498.851 566.305 498.157L575.556 492.817C576.411 492.323 576.687 491.628 576.369 491.033C576.668 490.453 576.444 489.816 575.685 489.378L554.187 476.966Z" fill="#434343"/>
<path d="M580.163 494.476C581.365 493.782 583.256 493.749 584.387 494.402L605.885 506.814C606.644 507.252 606.867 507.888 606.568 508.469C606.886 509.064 606.61 509.759 605.755 510.252L596.505 515.593C595.303 516.287 593.412 516.32 592.281 515.668L570.783 503.256C570.024 502.817 569.8 502.181 570.099 501.6C569.781 501.005 570.057 500.311 570.912 499.817L580.163 494.476Z" fill="#434343"/>
<path d="M614.586 511.837C613.455 511.185 611.564 511.218 610.362 511.912L601.112 517.253C600.257 517.746 599.981 518.441 600.299 519.036C600 519.617 600.223 520.253 600.983 520.691L622.481 533.103C623.611 533.756 625.502 533.723 626.705 533.029L635.955 527.688C636.81 527.194 637.086 526.5 636.768 525.905C637.067 525.324 636.843 524.688 636.084 524.249L614.586 511.837Z" fill="#434343"/>
<path d="M640.562 529.348C641.764 528.654 643.655 528.62 644.786 529.273L666.284 541.685C667.043 542.123 667.266 542.76 666.967 543.341C667.286 543.936 667.009 544.63 666.155 545.124L656.904 550.464C655.702 551.158 653.811 551.192 652.68 550.539L631.182 538.127C630.423 537.689 630.199 537.052 630.499 536.472C630.18 535.877 630.456 535.182 631.311 534.688L640.562 529.348Z" fill="#434343"/>
<path d="M674.985 546.709C673.854 546.056 671.963 546.089 670.761 546.783L661.511 552.124C660.656 552.618 660.38 553.312 660.698 553.907C660.399 554.488 660.622 555.125 661.382 555.563L683.136 568.123C684.266 568.775 686.157 568.742 687.36 568.048L696.61 562.707C697.465 562.214 697.741 561.519 697.423 560.924C697.722 560.343 697.498 559.707 696.739 559.269L674.985 546.709Z" fill="#434343"/>
<path d="M701.217 564.367C702.419 563.673 704.31 563.639 705.441 564.292L727.195 576.852C727.954 577.29 728.177 577.927 727.878 578.508C728.197 579.103 727.92 579.797 727.065 580.291L717.815 585.631C716.613 586.325 714.722 586.359 713.591 585.706L691.837 573.146C691.078 572.708 690.855 572.072 691.154 571.491C690.835 570.896 691.112 570.201 691.966 569.708L701.217 564.367Z" fill="#434343"/>
<path d="M735.896 581.876C734.766 581.223 732.874 581.256 731.672 581.95L722.422 587.291C721.567 587.785 721.291 588.479 721.609 589.074C721.31 589.655 721.533 590.291 722.293 590.73L744.047 603.289C745.177 603.942 747.068 603.909 748.271 603.215L757.521 597.874C758.376 597.381 758.652 596.686 758.334 596.091C758.633 595.51 758.409 594.874 757.65 594.435L735.896 581.876Z" fill="#434343"/>
<path d="M762.128 599.534C763.33 598.84 765.221 598.806 766.352 599.459L788.106 612.019C788.865 612.457 789.088 613.094 788.789 613.675C789.108 614.269 788.831 614.964 787.977 615.458L778.726 620.798C777.524 621.492 775.633 621.526 774.502 620.873L752.748 608.313C751.989 607.875 751.766 607.239 752.065 606.658C751.746 606.063 752.022 605.368 752.877 604.875L762.128 599.534Z" fill="#434343"/>
<path d="M796.807 617.043C795.676 616.39 793.785 616.423 792.583 617.117L783.333 622.458C782.478 622.952 782.202 623.646 782.52 624.241C782.221 624.822 782.444 625.458 783.204 625.897L804.958 638.456C806.088 639.109 807.979 639.076 809.182 638.382L818.432 633.041C819.287 632.548 819.563 631.853 819.245 631.258C819.544 630.677 819.32 630.041 818.561 629.602L796.807 617.043Z" fill="#434343"/>
<path d="M823.039 634.701C824.241 634.007 826.132 633.973 827.263 634.626L849.017 647.186C849.776 647.624 849.999 648.261 849.7 648.842C850.019 649.436 849.742 650.131 848.887 650.625L839.637 655.965C838.435 656.659 836.544 656.693 835.413 656.04L813.659 643.48C812.9 643.042 812.676 642.406 812.976 641.825C812.657 641.23 812.933 640.535 813.788 640.042L823.039 634.701Z" fill="#434343"/>
<path d="M857.718 652.21C856.587 651.557 854.696 651.59 853.494 652.284L844.244 657.625C843.389 658.119 843.113 658.813 843.431 659.408C843.132 659.989 843.355 660.625 844.115 661.064L865.869 673.623C866.999 674.276 868.89 674.243 870.093 673.549L879.343 668.208C880.198 667.715 880.474 667.02 880.156 666.425C880.455 665.844 880.231 665.208 879.472 664.769L857.718 652.21Z" fill="#434343"/>
<path d="M883.95 669.868C885.152 669.174 887.043 669.14 888.174 669.793L909.928 682.353C910.687 682.791 910.91 683.428 910.611 684.008C910.929 684.603 910.653 685.298 909.798 685.792L900.548 691.132C899.346 691.826 897.455 691.86 896.324 691.207L874.57 678.647C873.811 678.209 873.588 677.573 873.887 676.992C873.568 676.397 873.844 675.702 874.699 675.209L883.95 669.868Z" fill="#434343"/>
<path d="M918.629 687.377C917.498 686.724 915.607 686.757 914.405 687.451L905.155 692.792C904.3 693.286 904.024 693.98 904.342 694.575C904.043 695.156 904.266 695.792 905.026 696.231L926.78 708.79C927.91 709.443 929.802 709.41 931.003 708.716L940.254 703.375C941.109 702.882 941.385 702.187 941.067 701.592C941.366 701.011 941.142 700.375 940.383 699.936L918.629 687.377Z" fill="#434343"/>
<path d="M459.015 450.236C460.217 449.542 462.109 449.509 463.239 450.161L484.737 462.573C485.868 463.226 485.81 464.318 484.608 465.012L461.754 478.207C460.552 478.901 458.661 478.934 457.53 478.281L436.032 465.869C434.901 465.217 434.959 464.125 436.161 463.431L459.015 450.236Z" fill="#707070"/>
<path d="M489.215 467.672C490.417 466.978 492.308 466.944 493.439 467.597L514.937 480.009C516.068 480.662 516.01 481.754 514.808 482.448L491.954 495.642C490.752 496.336 488.861 496.37 487.73 495.717L466.232 483.305C465.101 482.652 465.159 481.56 466.361 480.866L489.215 467.672Z" fill="#707070"/>
<path d="M519.414 485.107C520.617 484.413 522.508 484.38 523.638 485.033L545.136 497.445C546.267 498.098 546.209 499.189 545.007 499.883L522.153 513.078C520.951 513.772 519.06 513.806 517.929 513.153L496.431 500.741C495.301 500.088 495.358 498.996 496.56 498.302L519.414 485.107Z" fill="#707070"/>
<path d="M549.614 502.543C550.816 501.849 552.707 501.816 553.838 502.469L575.336 514.88C576.467 515.533 576.409 516.625 575.207 517.319L552.353 530.514C551.151 531.208 549.26 531.241 548.129 530.588L526.631 518.177C525.5 517.524 525.558 516.432 526.76 515.738L549.614 502.543Z" fill="#707070"/>
<path d="M579.814 519.979C581.016 519.285 582.907 519.251 584.038 519.904L605.536 532.316C606.666 532.969 606.609 534.061 605.406 534.755L582.552 547.95C581.35 548.644 579.459 548.677 578.328 548.024L556.83 535.612C555.7 534.959 555.758 533.868 556.96 533.174L579.814 519.979Z" fill="#707070"/>
<path d="M610.013 537.415C611.215 536.721 613.106 536.687 614.237 537.34L635.735 549.752C636.866 550.405 636.808 551.497 635.606 552.191L612.752 565.385C611.55 566.079 609.659 566.113 608.528 565.46L587.03 553.048C585.899 552.395 585.957 551.303 587.159 550.609L610.013 537.415Z" fill="#707070"/>
<path d="M640.213 554.85C641.415 554.156 643.306 554.123 644.437 554.776L665.935 567.188C667.065 567.84 667.008 568.932 665.806 569.626L642.952 582.821C641.749 583.515 639.858 583.548 638.728 582.896L617.23 570.484C616.099 569.831 616.157 568.739 617.359 568.045L640.213 554.85Z" fill="#707070"/>
<path d="M670.412 572.286C671.614 571.592 673.506 571.559 674.636 572.211L696.134 584.623C697.265 585.276 697.207 586.368 696.005 587.062L673.151 600.257C671.949 600.951 670.058 600.984 668.927 600.331L647.429 587.919C646.298 587.267 646.356 586.175 647.558 585.481L670.412 572.286Z" fill="#707070"/>
<path d="M700.612 589.722C701.814 589.028 703.705 588.994 704.836 589.647L726.334 602.059C727.465 602.712 727.407 603.804 726.205 604.498L703.351 617.693C702.149 618.387 700.257 618.42 699.127 617.767L677.629 605.355C676.498 604.702 676.556 603.611 677.758 602.916L700.612 589.722Z" fill="#707070"/>
<path d="M730.811 607.157C732.013 606.463 733.905 606.43 735.035 607.083L756.533 619.495C757.664 620.148 757.606 621.239 756.404 621.933L733.55 635.128C732.348 635.822 730.457 635.856 729.326 635.203L707.828 622.791C706.698 622.138 706.755 621.046 707.957 620.352L730.811 607.157Z" fill="#707070"/>
<path d="M761.011 624.593C762.213 623.899 764.104 623.866 765.235 624.519L786.733 636.931C787.864 637.583 787.806 638.675 786.604 639.369L763.75 652.564C762.548 653.258 760.657 653.291 759.526 652.639L738.028 640.227C736.897 639.574 736.955 638.482 738.157 637.788L761.011 624.593Z" fill="#707070"/>
<path d="M791.211 642.029C792.413 641.335 794.304 641.302 795.435 641.954L816.933 654.366C818.063 655.019 818.005 656.111 816.803 656.805L793.949 670C792.747 670.694 790.856 670.727 789.725 670.074L768.227 657.662C767.097 657.01 767.154 655.918 768.357 655.224L791.211 642.029Z" fill="#707070"/>
<path d="M821.41 659.465C822.612 658.771 824.503 658.737 825.634 659.39L847.132 671.802C848.263 672.455 848.205 673.547 847.003 674.241L824.149 687.435C822.947 688.129 821.056 688.163 819.925 687.51L798.427 675.098C797.296 674.445 797.354 673.353 798.556 672.659L821.41 659.465Z" fill="#707070"/>
<path d="M851.61 676.9C852.812 676.206 854.703 676.173 855.834 676.826L917.256 712.288C918.387 712.941 918.329 714.033 917.127 714.727L894.273 727.922C893.071 728.616 891.18 728.649 890.049 727.996L828.627 692.534C827.496 691.881 827.554 690.789 828.756 690.095L851.61 676.9Z" fill="#707070"/>
<path d="M469.713 497.253C470.915 496.559 472.806 496.526 473.937 497.179L495.435 509.591C496.566 510.243 496.508 511.335 495.306 512.029L472.452 525.224C471.25 525.918 469.359 525.951 468.228 525.299L446.73 512.887C445.599 512.234 445.657 511.142 446.859 510.448L469.713 497.253Z" fill="#707070"/>
<path d="M499.913 514.689C501.115 513.995 503.006 513.962 504.137 514.614L525.635 527.026C526.766 527.679 526.708 528.771 525.506 529.465L502.652 542.66C501.45 543.354 499.558 543.387 498.428 542.734L476.93 530.322C475.799 529.67 475.857 528.578 477.059 527.884L499.913 514.689Z" fill="#707070"/>
<path d="M530.112 532.125C531.314 531.431 533.206 531.397 534.336 532.05L555.834 544.462C556.965 545.115 556.907 546.207 555.705 546.901L532.851 560.096C531.649 560.79 529.758 560.823 528.627 560.17L507.129 547.758C505.998 547.105 506.056 546.013 507.258 545.319L530.112 532.125Z" fill="#707070"/>
<path d="M560.312 549.56C561.514 548.866 563.405 548.833 564.536 549.486L586.034 561.898C587.165 562.551 587.107 563.642 585.905 564.336L563.051 577.531C561.849 578.225 559.958 578.259 558.827 577.606L537.329 565.194C536.198 564.541 536.256 563.449 537.458 562.755L560.312 549.56Z" fill="#707070"/>
<path d="M590.511 566.996C591.714 566.302 593.605 566.269 594.735 566.922L616.233 579.333C617.364 579.986 617.306 581.078 616.104 581.772L593.25 594.967C592.048 595.661 590.157 595.694 589.026 595.042L567.528 582.63C566.398 581.977 566.455 580.885 567.657 580.191L590.511 566.996Z" fill="#707070"/>
<path d="M620.711 584.432C621.913 583.738 623.804 583.704 624.935 584.357L646.433 596.769C647.564 597.422 647.506 598.514 646.304 599.208L623.45 612.403C622.248 613.097 620.357 613.13 619.226 612.477L597.728 600.065C596.597 599.413 596.655 598.321 597.857 597.627L620.711 584.432Z" fill="#707070"/>
<path d="M650.911 601.868C652.113 601.174 654.004 601.14 655.135 601.793L676.633 614.205C677.763 614.858 677.706 615.95 676.503 616.644L653.649 629.838C652.447 630.532 650.556 630.566 649.425 629.913L627.927 617.501C626.797 616.848 626.854 615.756 628.057 615.062L650.911 601.868Z" fill="#707070"/>
<path d="M681.11 619.303C682.312 618.609 684.203 618.576 685.334 619.229L706.832 631.641C707.963 632.293 707.905 633.385 706.703 634.079L683.849 647.274C682.647 647.968 680.756 648.002 679.625 647.349L658.127 634.937C656.996 634.284 657.054 633.192 658.256 632.498L681.11 619.303Z" fill="#707070"/>
<path d="M711.31 636.739C712.512 636.045 714.403 636.012 715.534 636.665L737.032 649.076C738.162 649.729 738.105 650.821 736.903 651.515L714.049 664.71C712.846 665.404 710.955 665.437 709.825 664.784L688.327 652.373C687.196 651.72 687.254 650.628 688.456 649.934L711.31 636.739Z" fill="#707070"/>
<path d="M741.509 654.175C742.711 653.481 744.602 653.447 745.733 654.1L767.231 666.512C768.362 667.165 768.304 668.257 767.102 668.951L744.248 682.146C743.046 682.84 741.155 682.873 740.024 682.22L718.526 669.808C717.395 669.155 717.453 668.064 718.655 667.37L741.509 654.175Z" fill="#707070"/>
<path d="M771.709 671.611C772.911 670.916 774.802 670.883 775.933 671.536L797.431 683.948C798.562 684.601 798.504 685.693 797.302 686.387L774.448 699.581C773.246 700.275 771.354 700.309 770.224 699.656L748.726 687.244C747.595 686.591 747.653 685.499 748.855 684.805L771.709 671.611Z" fill="#707070"/>
<path d="M801.908 689.046C803.11 688.352 805.002 688.319 806.132 688.972L827.63 701.384C828.761 702.036 828.703 703.128 827.501 703.822L804.647 717.017C803.445 717.711 801.554 717.744 800.423 717.092L778.925 704.68C777.794 704.027 777.852 702.935 779.054 702.241L801.908 689.046Z" fill="#707070"/>
<path d="M832.108 706.482C833.31 705.788 835.201 705.755 836.332 706.407L881.887 732.709C883.018 733.362 882.96 734.453 881.758 735.147L858.904 748.342C857.702 749.036 855.811 749.07 854.68 748.417L809.125 722.115C807.994 721.463 808.052 720.371 809.254 719.677L832.108 706.482Z" fill="#707070"/>
<path d="M423.646 470.656C424.848 469.962 426.739 469.929 427.87 470.582L465.236 492.155C466.366 492.808 466.309 493.9 465.106 494.594L442.253 507.788C441.05 508.482 439.159 508.516 438.029 507.863L400.663 486.29C399.532 485.637 399.59 484.545 400.792 483.851L423.646 470.656Z" fill="#707070"/>
<path d="M486.553 547.817C487.755 547.123 489.647 547.089 490.777 547.742L512.275 560.154C513.406 560.807 513.348 561.899 512.146 562.593L489.292 575.788C488.09 576.482 486.199 576.515 485.068 575.862L463.57 563.45C462.439 562.797 462.497 561.706 463.699 561.012L486.553 547.817Z" fill="#707070"/>
<path d="M516.753 565.253C517.955 564.559 519.846 564.525 520.977 565.178L542.475 577.59C543.606 578.243 543.548 579.335 542.346 580.029L519.492 593.223C518.29 593.917 516.399 593.951 515.268 593.298L493.77 580.886C492.639 580.233 492.697 579.141 493.899 578.447L516.753 565.253Z" fill="#707070"/>
<path d="M546.952 582.688C548.155 581.994 550.046 581.961 551.176 582.614L572.674 595.026C573.805 595.678 573.747 596.77 572.545 597.464L549.691 610.659C548.489 611.353 546.598 611.387 545.467 610.734L523.969 598.322C522.839 597.669 522.896 596.577 524.098 595.883L546.952 582.688Z" fill="#707070"/>
<path d="M577.152 600.124C578.354 599.43 580.245 599.397 581.376 600.049L602.874 612.461C604.005 613.114 603.947 614.206 602.745 614.9L579.891 628.095C578.689 628.789 576.798 628.822 575.667 628.169L554.169 615.758C553.038 615.105 553.096 614.013 554.298 613.319L577.152 600.124Z" fill="#707070"/>
<path d="M607.352 617.56C608.554 616.866 610.445 616.832 611.576 617.485L633.074 629.897C634.204 630.55 634.147 631.642 632.944 632.336L610.09 645.531C608.888 646.225 606.997 646.258 605.866 645.605L584.368 633.193C583.238 632.54 583.296 631.449 584.498 630.755L607.352 617.56Z" fill="#707070"/>
<path d="M637.551 634.995C638.753 634.301 640.644 634.268 641.775 634.921L663.273 647.333C664.404 647.986 664.346 649.077 663.144 649.772L640.29 662.966C639.088 663.66 637.197 663.694 636.066 663.041L614.568 650.629C613.437 649.976 613.495 648.884 614.697 648.19L637.551 634.995Z" fill="#707070"/>
<path d="M667.751 652.431C668.953 651.737 670.844 651.704 671.975 652.357L693.473 664.769C694.603 665.421 694.546 666.513 693.344 667.207L670.49 680.402C669.287 681.096 667.396 681.129 666.266 680.477L644.768 668.065C643.637 667.412 643.695 666.32 644.897 665.626L667.751 652.431Z" fill="#707070"/>
<path d="M697.95 669.867C699.152 669.173 701.044 669.14 702.174 669.792L723.672 682.204C724.803 682.857 724.745 683.949 723.543 684.643L700.689 697.838C699.487 698.532 697.596 698.565 696.465 697.912L674.967 685.5C673.836 684.848 673.894 683.756 675.096 683.062L697.95 669.867Z" fill="#707070"/>
<path d="M728.15 687.303C729.352 686.609 731.243 686.575 732.374 687.228L753.872 699.64C755.003 700.293 754.945 701.385 753.743 702.079L730.889 715.273C729.687 715.967 727.795 716.001 726.665 715.348L705.167 702.936C704.036 702.283 704.094 701.191 705.296 700.497L728.15 687.303Z" fill="#707070"/>
<path d="M758.349 704.738C759.551 704.044 761.443 704.011 762.573 704.664L784.071 717.076C785.202 717.729 785.144 718.82 783.942 719.514L761.088 732.709C759.886 733.403 757.995 733.437 756.864 732.784L735.366 720.372C734.236 719.719 734.293 718.627 735.495 717.933L758.349 704.738Z" fill="#707070"/>
<path d="M788.549 722.174C789.751 721.48 791.642 721.447 792.773 722.1L846.518 753.129C847.649 753.782 847.591 754.874 846.389 755.568L823.535 768.763C822.333 769.457 820.442 769.49 819.311 768.837L765.566 737.808C764.435 737.155 764.493 736.063 765.695 735.369L788.549 722.174Z" fill="#707070"/>
<path d="M456.354 530.381C457.556 529.687 459.447 529.654 460.578 530.307L482.076 542.718C483.207 543.371 483.149 544.463 481.947 545.157L459.093 558.352C457.891 559.046 455.999 559.079 454.869 558.426L433.371 546.015C432.24 545.362 432.298 544.27 433.5 543.576L456.354 530.381Z" fill="#707070"/>
<path d="M388.277 491.077C389.479 490.383 391.37 490.349 392.501 491.002L451.876 525.283C453.007 525.936 452.949 527.027 451.747 527.721L428.893 540.916C427.691 541.61 425.8 541.644 424.669 540.991L365.294 506.71C364.163 506.057 364.221 504.966 365.423 504.272L388.277 491.077Z" fill="#707070"/>
<path d="M352.908 511.497C354.11 510.803 356.001 510.77 357.132 511.423L378.63 523.835C379.76 524.487 379.702 525.579 378.5 526.273L355.646 539.468C354.444 540.162 352.553 540.196 351.422 539.543L329.924 527.131C328.794 526.478 328.851 525.386 330.054 524.692L352.908 511.497Z" fill="#707070"/>
<path d="M384.643 529.82C385.845 529.126 387.736 529.092 388.867 529.745L410.365 542.157C411.495 542.81 411.438 543.902 410.236 544.596L387.382 557.79C386.179 558.484 384.288 558.518 383.158 557.865L361.66 545.453C360.529 544.8 360.587 543.708 361.789 543.014L384.643 529.82Z" fill="#707070"/>
<path d="M416.378 548.142C417.58 547.448 419.471 547.414 420.602 548.067L442.1 560.479C443.231 561.132 443.173 562.224 441.971 562.918L419.117 576.113C417.915 576.807 416.023 576.84 414.893 576.187L393.395 563.775C392.264 563.123 392.322 562.031 393.524 561.337L416.378 548.142Z" fill="#707070"/>
<path d="M448.113 566.464C449.315 565.77 451.206 565.737 452.337 566.39L473.835 578.801C474.966 579.454 474.908 580.546 473.706 581.24L450.852 594.435C449.65 595.129 447.759 595.162 446.628 594.51L425.13 582.098C423.999 581.445 424.057 580.353 425.259 579.659L448.113 566.464Z" fill="#707070"/>
<path d="M646.458 680.978C647.66 680.284 649.551 680.251 650.682 680.904L672.179 693.316C673.31 693.969 673.252 695.06 672.05 695.755L649.196 708.949C647.994 709.643 646.103 709.677 644.972 709.024L623.474 696.612C622.344 695.959 622.401 694.867 623.604 694.173L646.458 680.978Z" fill="#707070"/>
<path d="M678.193 699.301C679.395 698.607 681.286 698.573 682.417 699.226L703.915 711.638C705.045 712.291 704.988 713.383 703.785 714.077L680.932 727.272C679.729 727.966 677.838 727.999 676.708 727.346L655.209 714.934C654.079 714.281 654.137 713.19 655.339 712.496L678.193 699.301Z" fill="#707070"/>
<path d="M709.928 717.623C711.13 716.929 713.021 716.896 714.152 717.549L735.65 729.96C736.781 730.613 736.723 731.705 735.521 732.399L712.667 745.594C711.465 746.288 709.573 746.321 708.443 745.668L686.945 733.257C685.814 732.604 685.872 731.512 687.074 730.818L709.928 717.623Z" fill="#707070"/>
<path d="M479.848 584.786C481.05 584.092 482.941 584.059 484.072 584.712L640.444 674.994C641.575 675.646 641.517 676.738 640.315 677.432L617.461 690.627C616.259 691.321 614.368 691.354 613.237 690.702L456.865 600.42C455.734 599.767 455.792 598.675 456.994 597.981L479.848 584.786Z" fill="#707070"/>
<path d="M725.883 745.056C727.085 744.362 728.976 744.329 730.107 744.981L746.486 754.438C747.617 755.091 747.559 756.183 746.357 756.877L739.555 760.804C738.353 761.498 736.462 761.531 735.331 760.878L718.952 751.422C717.821 750.769 717.879 749.677 719.081 748.983L725.883 745.056Z" fill="#707070"/>
<path d="M750.452 759.241C751.654 758.547 753.545 758.514 754.676 759.166L770.799 768.475C771.93 769.128 771.872 770.22 770.67 770.914L763.868 774.841C762.666 775.535 760.775 775.569 759.644 774.916L743.521 765.607C742.39 764.954 742.448 763.862 743.65 763.168L750.452 759.241Z" fill="#707070"/>
<path d="M766.232 750.13C767.434 749.436 769.325 749.403 770.456 750.056L786.58 759.365C787.71 760.018 787.652 761.109 786.45 761.803L779.649 765.73C778.447 766.424 776.555 766.458 775.425 765.805L759.301 756.496C758.17 755.843 758.228 754.751 759.43 754.057L766.232 750.13Z" fill="#707070"/>
<path d="M774.765 773.278C775.967 772.584 777.858 772.551 778.989 773.204L795.369 782.66C796.499 783.313 796.441 784.405 795.239 785.099L788.438 789.026C787.236 789.72 785.344 789.753 784.214 789.101L767.834 779.644C766.703 778.991 766.761 777.899 767.963 777.205L774.765 773.278Z" fill="#707070"/>
<path d="M482.141 436.884C483.344 436.19 485.235 436.157 486.365 436.81L512.47 451.881C513.601 452.534 513.543 453.626 512.341 454.32L503.091 459.661C501.888 460.355 499.997 460.388 498.867 459.735L472.762 444.664C471.631 444.011 471.689 442.919 472.891 442.225L482.141 436.884Z" fill="#707070"/>
<path d="M519.763 458.605C520.965 457.911 522.856 457.877 523.987 458.53L545.485 470.942C546.616 471.595 546.558 472.687 545.356 473.381L536.105 478.722C534.903 479.416 533.012 479.449 531.881 478.796L510.383 466.384C509.253 465.731 509.31 464.64 510.512 463.946L519.763 458.605Z" fill="#707070"/>
<path d="M549.962 476.041C551.165 475.347 553.056 475.313 554.186 475.966L575.684 488.378C576.815 489.031 576.757 490.123 575.555 490.817L566.305 496.157C565.103 496.851 563.212 496.885 562.081 496.232L540.583 483.82C539.452 483.167 539.51 482.075 540.712 481.381L549.962 476.041Z" fill="#707070"/>
<path d="M580.162 493.476C581.364 492.782 583.255 492.749 584.386 493.402L605.884 505.814C607.015 506.466 606.957 507.558 605.755 508.252L596.504 513.593C595.302 514.287 593.411 514.321 592.28 513.668L570.782 501.256C569.652 500.603 569.71 499.511 570.912 498.817L580.162 493.476Z" fill="#707070"/>
<path d="M610.362 510.912C611.564 510.218 613.455 510.185 614.586 510.837L636.084 523.249C637.214 523.902 637.157 524.994 635.954 525.688L626.704 531.029C625.502 531.723 623.611 531.756 622.48 531.103L600.982 518.692C599.851 518.039 599.909 516.947 601.111 516.253L610.362 510.912Z" fill="#707070"/>
<path d="M640.561 528.348C641.763 527.654 643.654 527.62 644.785 528.273L666.283 540.685C667.414 541.338 667.356 542.43 666.154 543.124L656.904 548.465C655.701 549.159 653.81 549.192 652.68 548.539L631.182 536.127C630.051 535.474 630.109 534.383 631.311 533.689L640.561 528.348Z" fill="#707070"/>
<path d="M670.761 545.783C671.963 545.089 673.854 545.056 674.985 545.709L696.739 558.269C697.869 558.921 697.812 560.013 696.609 560.707L687.359 566.048C686.157 566.742 684.266 566.775 683.135 566.123L661.381 553.563C660.25 552.91 660.308 551.818 661.51 551.124L670.761 545.783Z" fill="#707070"/>
<path d="M701.216 563.367C702.418 562.673 704.309 562.64 705.44 563.292L727.194 575.852C728.325 576.505 728.267 577.597 727.065 578.291L717.815 583.632C716.612 584.326 714.721 584.359 713.591 583.706L691.837 571.146C690.706 570.494 690.764 569.402 691.966 568.708L701.216 563.367Z" fill="#707070"/>
<path d="M731.672 580.95C732.874 580.256 734.765 580.223 735.896 580.876L757.65 593.436C758.78 594.088 758.723 595.18 757.52 595.874L748.27 601.215C747.068 601.909 745.177 601.942 744.046 601.29L722.292 588.73C721.161 588.077 721.219 586.985 722.421 586.291L731.672 580.95Z" fill="#707070"/>
<path d="M762.127 598.534C763.329 597.84 765.22 597.807 766.351 598.459L788.105 611.019C789.236 611.672 789.178 612.764 787.976 613.458L778.726 618.798C777.523 619.493 775.632 619.526 774.502 618.873L752.748 606.313C751.617 605.661 751.675 604.569 752.877 603.875L762.127 598.534Z" fill="#707070"/>
<path d="M792.583 616.117C793.785 615.423 795.676 615.39 796.807 616.043L818.561 628.603C819.691 629.255 819.634 630.347 818.431 631.041L809.181 636.382C807.979 637.076 806.088 637.109 804.957 636.457L783.203 623.897C782.072 623.244 782.13 622.152 783.332 621.458L792.583 616.117Z" fill="#707070"/>
<path d="M823.038 633.701C824.24 633.007 826.131 632.974 827.262 633.626L849.016 646.186C850.147 646.839 850.089 647.931 848.887 648.625L839.637 653.965C838.434 654.659 836.543 654.693 835.413 654.04L813.659 641.48C812.528 640.828 812.586 639.736 813.788 639.042L823.038 633.701Z" fill="#707070"/>
<path d="M853.494 651.284C854.696 650.59 856.587 650.557 857.718 651.21L879.472 663.769C880.602 664.422 880.545 665.514 879.342 666.208L870.092 671.549C868.89 672.243 866.999 672.276 865.868 671.624L844.114 659.064C842.983 658.411 843.041 657.319 844.243 656.625L853.494 651.284Z" fill="#707070"/>
<path d="M883.949 668.868C885.151 668.174 887.042 668.14 888.173 668.793L909.927 681.353C911.058 682.006 911 683.098 909.798 683.792L900.547 689.132C899.345 689.826 897.454 689.86 896.323 689.207L874.57 676.647C873.439 675.995 873.497 674.903 874.699 674.209L883.949 668.868Z" fill="#707070"/>
<path d="M914.405 686.451C915.607 685.757 917.498 685.724 918.629 686.377L940.383 698.936C941.513 699.589 941.455 700.681 940.253 701.375L931.003 706.716C929.801 707.41 927.91 707.443 926.779 706.79L905.025 694.231C903.894 693.578 903.952 692.486 905.154 691.792L914.405 686.451Z" fill="#707070"/>
<path d="M403.668 384.513L218.752 491.924L78 410.69L262.915 303.206L403.668 384.513Z" fill="#6FB963"/>
<path d="M403.667 384.513V394.749L218.752 502.233V491.923L403.667 384.513Z" fill="#4BA24F"/>
<path d="M218.752 491.923V502.233L78 420.925V410.689L218.752 491.923Z" fill="#288331"/>
<path d="M78 358.484V420.927L86.7742 425.972V363.529L78 358.484Z" fill="#288331"/>
<path d="M96.3525 410.689L218.752 481.468V450.027L96.3525 379.322V410.689Z" fill="#D1D3D4"/>
<path d="M393.943 348.173L218.752 450.027V481.467L393.943 378.81V348.173Z" fill="#F2F2F2"/>
<path d="M86.7734 415.735L96.3519 410.69V379.322L86.7734 373.838V415.735Z" fill="#245F2D"/>
<path d="M403.668 332.307L218.752 439.791L78 358.483L262.915 251L403.668 332.307Z" fill="#73C871"/>
<path d="M403.668 332.307L218.752 439.791L78 358.483L262.915 251L403.668 332.307Z" fill="#73C871"/>
<path d="M403.667 332.307V342.544L218.752 450.027V439.791L403.667 332.307Z" fill="#55B464"/>
<path d="M218.752 439.79V450.027L78 368.719V358.483L218.752 439.79Z" fill="#28833C"/>
<g filter="url(#filter3_d)">
<path d="M230.836 377.86L226.5 396.192H199.282L106 342.332L137.554 324L230.836 377.86Z" fill="white"/>
</g>
<path d="M534.947 288.347C540.711 291.675 546.341 289.086 547.594 282.575L552.156 259.061C553.409 252.55 549.767 244.607 544.002 241.279C538.237 237.951 532.573 240.52 531.32 247.031L526.793 270.565C525.54 277.076 529.182 285.019 534.947 288.347ZM537.647 250.248C538.145 247.659 540.427 246.624 542.719 247.947C545.011 249.27 546.479 252.471 545.981 255.06L541.268 279.358C540.77 281.947 538.522 283.002 536.23 281.679C533.938 280.356 532.47 277.155 532.968 274.566L537.647 250.248ZM555.616 287.206C553.352 298.973 542.947 302.118 533.362 296.584C523.777 291.05 516.542 277.721 518.805 265.954L512.902 262.545C510.329 275.92 517.646 292.435 528.667 300.933L526.192 313.798L533.137 317.808L535.612 304.943C547.365 309.637 558.939 304.029 561.519 290.615L555.616 287.206Z" fill="white"/>
<path d="M561.623 273.491C563.217 270.281 564.079 266.449 564.143 262.292C564.207 258.135 563.472 253.764 561.993 249.518C560.514 245.272 558.332 241.264 555.615 237.804C552.899 234.344 549.72 231.526 546.326 229.566C542.932 227.606 539.413 226.558 536.041 226.503C532.67 226.448 529.536 227.387 526.882 229.247C524.229 231.107 522.126 233.84 520.738 237.232C519.35 240.624 518.712 244.586 518.876 248.811" stroke="white" stroke-width="4" stroke-linecap="round" stroke-dasharray="164 800"/>
<path d="M570.171 281.493C572.442 276.919 573.671 271.459 573.762 265.536C573.853 259.613 572.805 253.386 570.698 247.336C568.591 241.286 565.482 235.575 561.611 230.645C557.74 225.716 553.212 221.7 548.376 218.908C543.54 216.116 538.526 214.623 533.722 214.544C528.918 214.465 524.453 215.803 520.672 218.453C516.891 221.104 513.896 224.997 511.917 229.83C509.939 234.664 509.031 240.309 509.264 246.328" stroke="white" stroke-width="4" stroke-linecap="round" stroke-dasharray="164 800"/>
<path d="M578.485 289.273C581.414 283.373 582.998 276.33 583.116 268.69C583.234 261.05 581.881 253.017 579.164 245.212C576.446 237.408 572.435 230.042 567.442 223.683C562.449 217.324 556.608 212.144 550.369 208.542C544.131 204.94 537.664 203.014 531.467 202.913C525.27 202.811 519.51 204.536 514.633 207.956C509.756 211.375 505.892 216.396 503.34 222.631C500.789 228.866 499.618 236.148 499.918 243.912" stroke="white" stroke-width="4" stroke-linecap="round" stroke-dasharray="164 800"/>
<g filter="url(#filter4_d)">
<path d="M907.143 508.606C919.111 515.516 924.164 521.715 925.047 523.732C920.268 534.171 908.19 533.247 902.896 531.698L907.143 508.606Z" fill="#C4C4C4"/>
<path d="M870.815 489.913C860.009 483.674 854.457 483.458 853.206 484.108C853.54 496.321 862.622 507.073 866.948 510.944L870.815 489.913Z" fill="#C4C4C4"/>
<path d="M865.133 473.325C866.394 482.649 860.962 497.282 858.087 503.433C863.401 522.657 879.917 535.283 887.511 539.192C899.14 541.03 921.502 541.806 917.922 530.212C914.343 518.617 917.6 501.157 919.726 493.063C896.226 513.673 874.623 489.16 865.133 473.325Z" fill="url(#paint9_linear)"/>
<path d="M857.816 333.912C853.861 339.763 849.19 352.423 851.56 367.932C852.66 375.13 853.904 381.007 854.821 385.407C854.609 384.938 854.391 384.283 854.024 384.005C849.553 380.625 847.556 393.615 849.144 401.489C851.78 406.752 850.518 417.451 849.557 422.142C849.275 424.565 849.992 428.94 855.369 423.559C852.308 469.602 875.785 493.436 887.905 499.597C894.183 504.514 911 509.282 928.047 489.014C930.943 484.983 935.742 478.06 937.088 470.739C937.34 469.365 938.022 468.618 938.301 470.112C939.619 477.144 943.011 474.085 943.801 469.789C945.413 461.025 947.08 453.789 950.783 448.993C951.532 447.003 952.406 443.232 950.986 441.684C952.694 439.522 954.331 437.583 954.875 436.248C955.236 434.289 957.739 428.322 959.978 421.062C963.419 409.902 965.742 401.262 960.737 385.807C949.01 355.659 936.891 339.653 919.406 327.164C897.927 311.821 882.076 320.664 878.925 328.88C868.524 325.155 860.597 330.804 857.816 333.912Z" fill="url(#paint10_linear)"/>
<path d="M851.254 364.265C853.44 378.35 856.176 387.388 855.897 390.19L858.916 391.933C857.758 386.858 857.081 372.529 863.637 355.805C870.194 339.081 888.345 352.41 897.527 361.357C899.555 362.984 905.06 365.228 911.88 364.744C926.644 363.697 932.468 380.998 938.628 389.872C940.269 392.87 945.126 400.756 949.976 405.197C948.025 415.807 952.839 414.94 946.041 438.702C944.932 442.801 945.293 447.007 945.959 448.227C947.036 442.918 954.496 440.025 955.707 433.442C956.067 431.485 959.258 425.563 961.501 418.313C964.951 407.169 966.271 398.105 961.21 382.628C949.359 352.429 937.134 336.369 919.51 323.802C897.861 308.364 881.913 317.135 878.752 325.337C868.274 321.566 860.3 327.179 857.505 330.274C853.531 336.108 848.846 348.746 851.254 364.265Z" fill="url(#paint11_linear)"/>
<path fill-rule="evenodd" clip-rule="evenodd" d="M896.821 412.559C896.455 411.576 895.85 410.705 895.287 410.012C894.696 409.285 893.991 408.559 893.241 407.859C891.742 406.457 889.894 404.995 888.035 403.635C884.336 400.928 880.355 398.45 878.451 397.419C876.03 396.022 873.159 394.471 870.782 393.238C869.589 392.619 868.51 392.074 867.668 391.666C866.912 391.3 866.15 390.945 865.736 390.83C864.528 390.493 863.359 390.441 862.421 390.63C861.955 390.724 861.486 390.89 861.09 391.165C860.794 391.371 860.412 391.726 860.193 392.324L856.249 390.047C855.489 392.117 854.408 397.126 856.174 400.609C856.811 397.145 857.695 396.849 858.057 397.135L859.368 397.891C859.366 398.036 859.365 398.182 859.365 398.329C859.368 400.64 859.628 403.279 860.191 405.913C861.279 411.005 863.716 416.943 868.314 419.598L887.057 430.419L887.122 430.451C890.035 431.878 893.815 430.038 895.506 422.062C896.6 421.187 898.281 420.814 900.796 422.266C902.676 423.352 903.786 424.744 904.43 426.123L904.366 426.467C902.769 435.155 905.282 440.9 908.206 442.852L908.269 442.894L927.013 453.716C931.61 456.37 935.554 454.116 938.126 451.137C939.457 449.596 940.545 447.735 941.315 445.871C941.389 445.691 941.461 445.51 941.531 445.328L943.185 446.283C943.572 446.431 944.189 447.592 943.552 451.056C946.136 450.085 946.929 444.91 947.002 442.443L942.643 439.926C942.624 439.298 942.456 438.707 942.303 438.282C942.074 437.646 941.751 437.023 941.406 436.46C940.711 435.328 939.748 434.15 938.661 433.161C938.288 432.823 937.554 432.314 936.822 431.82C936.005 431.271 934.952 430.584 933.782 429.839C931.452 428.354 928.617 426.611 926.196 425.212C924.314 424.058 920.274 421.905 916.385 420.231C914.43 419.389 912.452 418.642 910.773 418.209C909.935 417.993 909.124 417.843 908.404 417.813C907.719 417.786 906.941 417.858 906.318 418.27L905.812 418.606L905.628 419.607C904.68 419.475 903.36 419.056 901.574 418.04C899.425 416.817 897.933 415.417 896.951 414.267L897.118 413.358L896.821 412.559ZM877.772 401.599C879.459 402.51 883.281 404.88 886.847 407.49C888.629 408.794 890.289 410.116 891.563 411.306C892.2 411.903 892.698 412.426 893.053 412.863C893.091 412.91 893.126 412.954 893.158 412.995L892.032 419.118C890.638 426.701 887.909 426.253 887.645 426.185L869.074 415.463C866.583 414.025 864.751 410.455 863.776 405.889C863.307 403.695 863.087 401.468 863.084 399.535C863.082 397.641 863.288 396.18 863.583 395.317C863.654 395.286 863.762 395.248 863.915 395.217C864.4 395.119 865.109 395.136 865.881 395.351C865.869 395.347 865.871 395.348 865.89 395.356C865.927 395.37 866.025 395.409 866.21 395.491C866.456 395.601 866.784 395.754 867.183 395.947C867.98 396.333 869.022 396.859 870.194 397.467C872.539 398.683 875.363 400.209 877.717 401.568L877.744 401.584L877.772 401.599ZM863.479 395.377C863.479 395.377 863.483 395.373 863.493 395.366C863.485 395.374 863.479 395.377 863.479 395.377ZM916.063 424.586C919.812 426.2 923.689 428.274 925.355 429.299L925.382 429.316L925.409 429.331C927.764 430.691 930.553 432.405 932.852 433.87C934.001 434.602 935.018 435.265 935.79 435.785C936.177 436.046 936.492 436.264 936.728 436.433C936.904 436.559 936.997 436.63 937.031 436.657C937.05 436.671 937.051 436.673 937.04 436.662C937.735 437.294 938.314 438.021 938.674 438.607C938.787 438.792 938.862 438.935 938.908 439.034C938.86 440.039 938.54 441.435 937.909 442.963C937.264 444.523 936.346 446.092 935.238 447.376C932.931 450.047 930.264 451.019 927.773 449.581L909.203 438.859C908.966 438.638 906.613 436.152 908.007 428.569L909.133 422.446C909.173 422.446 909.216 422.447 909.262 422.449C909.694 422.467 910.27 422.563 910.984 422.747C912.409 423.115 914.189 423.779 916.063 424.586ZM938.972 439.191C938.972 439.191 938.971 439.184 938.965 439.168C938.967 439.176 938.969 439.182 938.97 439.186C938.971 439.189 938.972 439.191 938.972 439.191Z" fill="url(#paint12_linear)"/>
<g filter="url(#filter5_d)">
<path d="M814.669 501.45C804.346 499.048 792.144 504.904 787.332 508.133L969.366 613.229C966.551 605.599 958.638 588.129 949.498 579.294C946.416 576.315 943.029 573.968 939.696 571.66C933.146 567.123 926.809 562.733 923.427 553.978C888.603 540.043 871.262 530.005 844.153 508.209C838.51 511.754 831.929 508.685 825.128 505.514C821.668 503.9 818.15 502.26 814.669 501.45Z" fill="url(#paint13_linear)"/>
</g>
<g filter="url(#filter6_d)">
<path d="M843.528 507.929L853.172 484.289C853.044 492.636 859.482 506.067 881.742 527.685C909.31 534.835 922.238 530.532 925.038 523.728L925.113 555.032C900.733 557.866 889.39 552.839 881.164 549.194C880.142 548.741 878.986 548.204 878.041 547.812C877.231 547.191 876.206 546.469 875.321 545.82C868.199 540.605 860.308 534.526 843.528 507.929Z" fill="#F9F7F8"/>
</g>
<path d="M881.922 527.8C876.031 529.936 864.619 535.354 866.181 539.984C867.743 544.615 870.434 548.216 871.584 549.437C870.398 550.784 871.584 549.437 865.28 553.088L886.961 565.605C883.081 556.075 883.592 558.402 883.081 556.075C884.416 556.288 887.788 556.187 890.59 554.077C893.392 551.966 885.972 535.676 881.922 527.8Z" fill="url(#paint14_linear)"/>
</g>
<defs>
<filter id="filter0_d" x="81.5586" y="452" width="964.099" height="600.102" filterUnits="userSpaceOnUse" color-interpolation-filters="sRGB">
<feFlood flood-opacity="0" result="BackgroundImageFix"/>
<feColorMatrix in="SourceAlpha" type="matrix" values="0 0 0 0 0 0 0 0 0 0 0 0 0 0 0 0 0 0 127 0"/>
<feOffset dy="4"/>
<feGaussianBlur stdDeviation="27"/>
<feColorMatrix type="matrix" values="0 0 0 0 0 0 0 0 0 0 0 0 0 0 0 0 0 0 0.17 0"/>
<feBlend mode="normal" in2="BackgroundImageFix" result="effect1_dropShadow"/>
<feBlend mode="normal" in="SourceGraphic" in2="effect1_dropShadow" result="shape"/>
</filter>
<filter id="filter1_d" x="0" y="290" width="482.748" height="322.779" filterUnits="userSpaceOnUse" color-interpolation-filters="sRGB">
<feFlood flood-opacity="0" result="BackgroundImageFix"/>
<feColorMatrix in="SourceAlpha" type="matrix" values="0 0 0 0 0 0 0 0 0 0 0 0 0 0 0 0 0 0 127 0"/>
<feOffset dy="4"/>
<feGaussianBlur stdDeviation="27"/>
<feColorMatrix type="matrix" values="0 0 0 0 0 0 0 0 0 0 0 0 0 0 0 0 0 0 0.2 0"/>
<feBlend mode="normal" in2="BackgroundImageFix" result="effect1_dropShadow"/>
<feBlend mode="normal" in="SourceGraphic" in2="effect1_dropShadow" result="shape"/>
</filter>
<filter id="filter2_d" x="697.279" y="124.523" width="544.21" height="614.101" filterUnits="userSpaceOnUse" color-interpolation-filters="sRGB">
<feFlood flood-opacity="0" result="BackgroundImageFix"/>
<feColorMatrix in="SourceAlpha" type="matrix" values="0 0 0 0 0 0 0 0 0 0 0 0 0 0 0 0 0 0 127 0"/>
<feOffset dy="4"/>
<feGaussianBlur stdDeviation="27"/>
<feColorMatrix type="matrix" values="0 0 0 0 0 0 0 0 0 0 0 0 0 0 0 0 0 0 0.17 0"/>
<feBlend mode="normal" in2="BackgroundImageFix" result="effect1_dropShadow"/>
<feBlend mode="normal" in="SourceGraphic" in2="effect1_dropShadow" result="shape"/>
</filter>
<filter id="filter3_d" x="106" y="324" width="124.836" height="73.1925" filterUnits="userSpaceOnUse" color-interpolation-filters="sRGB">
<feFlood flood-opacity="0" result="BackgroundImageFix"/>
<feColorMatrix in="SourceAlpha" type="matrix" values="0 0 0 0 0 0 0 0 0 0 0 0 0 0 0 0 0 0 127 0"/>
<feOffset dy="1"/>
<feColorMatrix type="matrix" values="0 0 0 0 0 0 0 0 0 0 0 0 0 0 0 0 0 0 0.25 0"/>
<feBlend mode="normal" in2="BackgroundImageFix" result="effect1_dropShadow"/>
<feBlend mode="normal" in="SourceGraphic" in2="effect1_dropShadow" result="shape"/>
</filter>
<filter id="filter4_d" x="776.332" y="296.311" width="204.033" height="319.919" filterUnits="userSpaceOnUse" color-interpolation-filters="sRGB">
<feFlood flood-opacity="0" result="BackgroundImageFix"/>
<feColorMatrix in="SourceAlpha" type="matrix" values="0 0 0 0 0 0 0 0 0 0 0 0 0 0 0 0 0 0 127 0"/>
<feOffset dy="-8"/>
<feGaussianBlur stdDeviation="5.5"/>
<feColorMatrix type="matrix" values="0 0 0 0 0 0 0 0 0 0 0 0 0 0 0 0 0 0 0.11 0"/>
<feBlend mode="normal" in2="BackgroundImageFix" result="effect1_dropShadow"/>
<feBlend mode="normal" in="SourceGraphic" in2="effect1_dropShadow" result="shape"/>
</filter>
<filter id="filter5_d" x="771.332" y="480.887" width="214.033" height="144.343" filterUnits="userSpaceOnUse" color-interpolation-filters="sRGB">
<feFlood flood-opacity="0" result="BackgroundImageFix"/>
<feColorMatrix in="SourceAlpha" type="matrix" values="0 0 0 0 0 0 0 0 0 0 0 0 0 0 0 0 0 0 127 0"/>
<feOffset dy="-4"/>
<feGaussianBlur stdDeviation="8"/>
<feColorMatrix type="matrix" values="0 0 0 0 0 0 0 0 0 0 0 0 0 0 0 0 0 0 0.06 0"/>
<feBlend mode="normal" in2="BackgroundImageFix" result="effect1_dropShadow"/>
<feBlend mode="normal" in="SourceGraphic" in2="effect1_dropShadow" result="shape"/>
</filter>
<filter id="filter6_d" x="830.527" y="475.289" width="107.585" height="97.575" filterUnits="userSpaceOnUse" color-interpolation-filters="sRGB">
<feFlood flood-opacity="0" result="BackgroundImageFix"/>
<feColorMatrix in="SourceAlpha" type="matrix" values="0 0 0 0 0 0 0 0 0 0 0 0 0 0 0 0 0 0 127 0"/>
<feOffset dy="4"/>
<feGaussianBlur stdDeviation="6.5"/>
<feColorMatrix type="matrix" values="0 0 0 0 0 0 0 0 0 0 0 0 0 0 0 0 0 0 0.12 0"/>
<feBlend mode="normal" in2="BackgroundImageFix" result="effect1_dropShadow"/>
<feBlend mode="normal" in="SourceGraphic" in2="effect1_dropShadow" result="shape"/>
</filter>
<linearGradient id="paint0_linear" x1="191.528" y1="691.363" x2="983.453" y2="739.28" gradientUnits="userSpaceOnUse">
<stop stop-color="#888888"/>
<stop offset="0.544224" stop-color="#8C8C8C"/>
<stop offset="1" stop-color="#7D7D7D"/>
</linearGradient>
<linearGradient id="paint1_linear" x1="452.141" y1="504.566" x2="1204.78" y2="334.632" gradientUnits="userSpaceOnUse">
<stop stop-color="white"/>
<stop offset="1" stop-color="white" stop-opacity="0"/>
</linearGradient>
<linearGradient id="paint2_linear" x1="452.141" y1="504.566" x2="1204.78" y2="334.632" gradientUnits="userSpaceOnUse">
<stop stop-color="white"/>
<stop offset="1" stop-color="white" stop-opacity="0"/>
</linearGradient>
<linearGradient id="paint3_linear" x1="452.141" y1="504.566" x2="1204.78" y2="334.632" gradientUnits="userSpaceOnUse">
<stop stop-color="white"/>
<stop offset="1" stop-color="white" stop-opacity="0"/>
</linearGradient>
<linearGradient id="paint4_linear" x1="452.141" y1="504.566" x2="1204.78" y2="334.632" gradientUnits="userSpaceOnUse">
<stop stop-color="white"/>
<stop offset="1" stop-color="white" stop-opacity="0"/>
</linearGradient>
<linearGradient id="paint5_linear" x1="452.141" y1="504.566" x2="1204.78" y2="334.632" gradientUnits="userSpaceOnUse">
<stop stop-color="white"/>
<stop offset="1" stop-color="white" stop-opacity="0"/>
</linearGradient>
<linearGradient id="paint6_linear" x1="452.141" y1="504.566" x2="1204.78" y2="334.632" gradientUnits="userSpaceOnUse">
<stop stop-color="white"/>
<stop offset="1" stop-color="white" stop-opacity="0"/>
</linearGradient>
<linearGradient id="paint7_linear" x1="452.141" y1="504.566" x2="1204.78" y2="334.632" gradientUnits="userSpaceOnUse">
<stop stop-color="white"/>
<stop offset="1" stop-color="white" stop-opacity="0"/>
</linearGradient>
<linearGradient id="paint8_linear" x1="140.185" y1="-75.4701" x2="-44.762" y2="118.3" gradientUnits="userSpaceOnUse">
<stop stop-color="white"/>
<stop offset="1" stop-color="white"/>
</linearGradient>
<linearGradient id="paint9_linear" x1="895.412" y1="479.026" x2="867.364" y2="527.605" gradientUnits="userSpaceOnUse">
<stop stop-color="#CCCCCC"/>
<stop offset="1" stop-color="#EBEBEB"/>
</linearGradient>
<linearGradient id="paint10_linear" x1="934.094" y1="329.279" x2="833.051" y2="456.009" gradientUnits="userSpaceOnUse">
<stop offset="0.16309" stop-color="#E8E8E8"/>
<stop offset="1" stop-color="#F1F1F1"/>
</linearGradient>
<linearGradient id="paint11_linear" x1="948.182" y1="340.035" x2="850.829" y2="374.912" gradientUnits="userSpaceOnUse">
<stop stop-color="#A7A7A7"/>
<stop offset="1" stop-color="#B5B5B5"/>
</linearGradient>
<linearGradient id="paint12_linear" x1="902.914" y1="409.242" x2="888.691" y2="433.877" gradientUnits="userSpaceOnUse">
<stop stop-color="#A7A7A7"/>
<stop offset="1" stop-color="#838383"/>
</linearGradient>
<linearGradient id="paint13_linear" x1="883.79" y1="531.094" x2="869.618" y2="555.64" gradientUnits="userSpaceOnUse">
<stop stop-color="#EBEBEB"/>
<stop offset="1" stop-color="#F8F8F8"/>
</linearGradient>
<linearGradient id="paint14_linear" x1="881.922" y1="527.8" x2="866.812" y2="553.972" gradientUnits="userSpaceOnUse">
<stop stop-color="#C6C6C6"/>
<stop offset="1" stop-color="#A9A9A9"/>
</linearGradient>
</defs>
</svg>
