<svg width="1132" height="722" viewBox="0 0 1132 722" fill="none" xmlns="http://www.w3.org/2000/svg">
<path d="M57.7461 496.059L718.456 114.089C730.406 107.179 749.796 107.169 761.756 114.069L1070.45 292.089C1082.41 298.989 1082.42 310.179 1070.46 317.089L409.746 699.059C397.796 705.969 378.406 705.979 366.446 699.079L57.7561 521.059C45.8061 514.159 45.7961 502.969 57.7461 496.059Z" stroke="#9B9B9B" stroke-width="7" stroke-miterlimit="10" stroke-dasharray="30 40"/>
<path d="M484.273 35.9648C492.782 31.292 504.063 28.8999 515.454 28.8999C526.844 28.8999 538.125 31.292 546.634 35.9648L684.177 111.501C692.713 116.188 696.454 122.028 696.454 127.4C696.454 132.771 692.713 138.611 684.177 143.299L546.634 218.835C538.125 223.508 526.844 225.9 515.454 225.9C504.063 225.9 492.782 223.508 484.273 218.835L346.73 143.299C338.195 138.611 334.454 132.771 334.454 127.4C334.454 122.028 338.195 116.188 346.73 111.501L484.273 35.9648Z" stroke="#93D383" stroke-width="4"/>
<g filter="url(#filter0_d)">
<path d="M50.9536 393.4L718.466 37.1785C730.416 30.2685 749.806 30.2585 761.766 37.1585L1073.95 185.4C1097.45 208.9 1080.61 234.169 1065.61 243.169L409.746 622.159C397.796 629.068 378.406 629.079 366.446 622.179L57.756 444.158C45.806 437.258 41.9539 401.9 50.9536 393.4Z" fill="#C2C2C2"/>
<path d="M50.9536 393.4L718.466 37.1785C730.416 30.2685 749.806 30.2585 761.766 37.1585L1073.95 185.4C1097.45 208.9 1080.61 234.169 1065.61 243.169L409.746 622.159C397.796 629.068 378.406 629.079 366.446 622.179L57.756 444.158C45.806 437.258 41.9539 401.9 50.9536 393.4Z" fill="url(#paint0_linear)"/>
<path d="M718.701 37.6196L718.709 37.6156L718.716 37.6114C724.597 34.2107 732.341 32.4935 740.113 32.4898C747.884 32.486 755.63 34.1958 761.516 37.5916L761.534 37.6016L761.552 37.6102L1073.66 185.814C1085.23 197.418 1086.83 209.395 1083.74 219.577C1080.63 229.816 1072.76 238.289 1065.35 242.737C1065.35 242.738 1065.35 242.739 1065.35 242.74L409.496 621.726C403.615 625.126 395.871 626.844 388.1 626.847C380.328 626.851 372.582 625.141 366.696 621.745L58.006 443.725C55.1563 442.08 52.73 438.694 50.8454 434.314C48.967 429.949 47.6563 424.664 46.9949 419.318C46.3334 413.971 46.3241 408.587 47.0333 404.023C47.7405 399.473 49.1486 395.827 51.2491 393.809L718.701 37.6196Z" stroke="#A9A9A9"/>
</g>
<path d="M57.7461 387.159L718.456 5.18877C730.406 -1.72123 749.796 -1.73125 761.756 5.16875L1070.45 183.189C1082.41 190.089 1082.42 201.279 1070.46 208.189L409.746 590.159C397.796 597.069 378.406 597.079 366.446 590.179L57.7561 412.159C45.8061 405.259 45.7961 394.069 57.7461 387.159Z" fill="#565656"/>
<path d="M1078.71 191.9C1080.86 197.584 1078.11 203.764 1070.46 208.189L409.746 590.159C397.796 597.069 378.406 597.079 366.446 590.179L57.7562 412.159C53.2192 409.539 50.4033 406.301 49.3096 402.914" stroke="#DDDDDD" stroke-width="4" stroke-miterlimit="10" stroke-linecap="round"/>
<path d="M183.039 344.795L716.935 36.2909C727.055 30.4444 743.464 30.4346 753.585 36.2714L1014.86 186.86C1024.98 192.697 1024.99 202.168 1014.87 208.005L480.972 516.509C470.852 522.355 454.443 522.365 444.323 516.528L183.049 365.94C172.928 360.103 172.919 350.642 183.039 344.795Z" fill="url(#paint1_linear)"/>
<path d="M586.152 265.208L431.265 178.558C428.899 177.234 427.405 175.607 426.785 173.9L542.954 107.956C546.534 108.177 550.009 109.056 552.755 110.592L707.642 197.242C714.058 200.831 714.058 206.65 707.642 210.239L609.385 265.208C602.97 268.797 592.568 268.797 586.152 265.208Z" fill="#1C1C1C" fill-opacity="0.19"/>
<path d="M1022.33 198.9C1023.06 194.6 1020.57 190.152 1014.86 186.86L753.585 36.2714C743.464 30.4346 727.055 30.4444 716.935 36.2909L183.039 344.795C177.966 347.726 175.439 351.565 175.454 355.4" stroke="#404040" stroke-width="3"/>
<path d="M552.755 63.5918C546.339 60.0026 535.937 60.0026 529.522 63.5918L431.265 118.56C424.85 122.15 424.85 127.969 431.265 131.558L586.152 218.208C592.568 221.797 602.97 221.797 609.385 218.208L707.642 163.239C714.058 159.65 714.058 153.831 707.642 150.242L552.755 63.5918Z" fill="white"/>
<path d="M520.454 148.514L375.454 232.3V480.14L440.323 517.528C450.443 523.365 466.852 523.355 476.972 517.509L520.454 492.384V148.514Z" fill="url(#paint2_linear)" fill-opacity="0.1"/>
<path d="M604.454 443.845L542.454 479.671V135.801L604.454 99.9755V443.845Z" fill="url(#paint3_linear)" fill-opacity="0.1"/>
<path d="M671.454 405.13L645.454 420.154V76.2842L671.454 61.2605V405.13Z" fill="url(#paint4_linear)" fill-opacity="0.1"/>
<path d="M814.454 322.5L719.454 377.394V34.5443C729.194 31.6613 741.431 32.5686 749.585 37.2714L814.454 74.6594V322.5Z" fill="url(#paint5_linear)" fill-opacity="0.1"/>
<path d="M971.454 231.78L863.454 294.186V102.901L971.454 165.148V231.78Z" fill="url(#paint6_linear)" fill-opacity="0.1"/>
<path d="M352.454 466.884V245.59L326.454 260.614V451.899L352.454 466.884Z" fill="url(#paint7_linear)" fill-opacity="0.1"/>
<path d="M286.454 428.844V283.727L226.454 318.397V394.262L286.454 428.844Z" fill="url(#paint8_linear)" fill-opacity="0.1"/>
<path d="M730.902 100.713C747.499 91.6287 774.408 91.6287 791.006 100.713L899.193 159.931C915.79 169.016 915.79 183.745 899.193 192.829C882.596 201.914 855.686 201.914 839.089 192.829L730.902 133.612C714.304 124.527 714.304 109.798 730.902 100.713Z" fill="white"/>
<g filter="url(#filter1_d)">
<path d="M765.111 131.618L762.157 130.001L781.74 119.283L773.64 117.231L776.308 115.771L787.886 118.648L788.347 118.9L765.111 131.618Z" fill="#7CE679"/>
<path d="M788.871 144.624L773.719 136.33L775.831 135.174L792.73 134.687C795.261 134.6 797.167 134.45 798.448 134.235C799.75 134.021 800.851 133.667 801.751 133.175C802.958 132.514 803.583 131.772 803.625 130.949C803.668 130.126 803.08 129.381 801.862 128.715C800.401 127.915 798.845 127.521 797.193 127.533C795.562 127.544 794.006 127.956 792.524 128.767L789.585 127.159C791.714 125.994 794.117 125.426 796.796 125.455C799.485 125.49 801.979 126.136 804.277 127.393C806.426 128.57 807.559 129.81 807.675 131.114C807.802 132.412 806.929 133.574 805.055 134.6C802.778 135.846 798.617 136.536 792.571 136.669L779.659 136.956L791.269 143.311L788.871 144.624Z" fill="#7CE679"/>
<path d="M801.799 150.014C802.307 149.735 802.879 149.585 803.514 149.561C804.16 149.544 804.785 149.701 805.388 150.031C805.992 150.361 806.278 150.703 806.246 151.057C806.225 151.416 805.96 151.735 805.452 152.013C804.965 152.28 804.398 152.416 803.752 152.422C803.117 152.433 802.498 152.274 801.894 151.943C801.291 151.613 801 151.274 801.021 150.926C801.052 150.584 801.312 150.28 801.799 150.014ZM815.839 142.346C816.347 142.068 816.919 141.917 817.554 141.894C818.2 141.877 818.825 142.033 819.428 142.363C820.032 142.694 820.318 143.036 820.286 143.389C820.265 143.749 820 144.067 819.492 144.345C819.005 144.612 818.438 144.748 817.792 144.754C817.157 144.766 816.538 144.606 815.934 144.276C815.331 143.946 815.039 143.607 815.061 143.259C815.092 142.917 815.352 142.613 815.839 142.346Z" fill="#7CE679"/>
<path d="M833.262 154.699L835.469 155.908C836.878 156.655 838.333 157.052 839.837 157.099C841.34 157.145 842.696 156.838 843.903 156.177C846.613 154.693 846.619 153.213 843.919 151.735C842.648 151.039 841.266 150.683 839.773 150.666C838.302 150.648 836.968 150.967 835.771 151.622L832.833 150.014C834.665 149.011 836.851 148.544 839.392 148.614C841.955 148.683 844.268 149.283 846.333 150.413C848.514 151.607 849.647 152.859 849.732 154.169C849.816 155.479 848.832 156.696 846.778 157.82C845.772 158.371 844.469 158.724 842.87 158.881C841.282 159.043 839.694 158.944 838.106 158.585C838.974 159.501 839.286 160.402 839.043 161.289C838.81 162.181 838.021 162.996 836.676 163.732C834.601 164.868 832.277 165.398 829.704 165.322C827.131 165.247 824.759 164.615 822.589 163.427C820.418 162.239 819.238 160.95 819.047 159.559C818.867 158.174 819.741 156.954 821.668 155.899L824.622 157.516C823.404 158.182 822.827 158.933 822.891 159.767C822.954 160.602 823.653 161.384 824.987 162.115C826.406 162.891 827.862 163.282 829.355 163.288C830.848 163.294 832.288 162.917 833.675 162.158C835.019 161.422 835.639 160.631 835.533 159.785C835.427 158.939 834.606 158.084 833.071 157.22L830.863 156.012L833.262 154.699Z" fill="#7CE679"/>
<path d="M858.626 172.008C855.185 173.891 852.04 174.969 849.192 175.242C846.343 175.514 843.67 174.966 841.171 173.599C838.704 172.248 837.693 170.802 838.138 169.261C838.593 167.713 840.425 166.038 843.633 164.236L847.556 162.089C850.955 160.228 854.067 159.168 856.895 158.907C859.722 158.646 862.39 159.202 864.899 160.576C867.387 161.938 868.42 163.378 867.996 164.896C867.583 166.409 865.73 168.084 862.437 169.921L858.626 172.008ZM859.706 168.2C862.194 166.838 863.655 165.656 864.089 164.653C864.534 163.645 863.999 162.726 862.485 161.897C860.982 161.074 859.319 160.785 857.498 161.028C855.677 161.271 853.58 162.031 851.209 163.306L846.508 165.879C844.009 167.247 842.521 168.455 842.045 169.504C841.589 170.553 842.098 171.48 843.569 172.286C845.02 173.08 846.656 173.361 848.477 173.129C850.309 172.903 852.448 172.138 854.893 170.834L859.706 168.2Z" fill="#7CE679"/>
</g>
<path d="M271.454 26.8999H484.454V364.4L271.454 296.4V26.8999Z" fill="url(#paint9_linear)"/>
<path d="M285.178 278.374C303.478 268.408 333.147 268.408 351.446 278.374L470.729 343.336C489.029 353.302 489.029 369.46 470.729 379.425C452.43 389.391 422.76 389.391 404.461 379.425L285.178 314.464C266.879 304.498 266.879 288.34 285.178 278.374Z" fill="#E7E7E7"/>
<path d="M285.178 278.374C303.478 268.408 333.147 268.408 351.446 278.374L470.729 343.336C489.029 353.302 489.029 369.46 470.729 379.425C452.43 389.391 422.76 389.391 404.461 379.425L285.178 314.464C266.879 304.498 266.879 288.34 285.178 278.374Z" fill="url(#paint10_linear)" fill-opacity="0.32"/>
<path d="M285.178 357.374C303.478 347.408 333.147 347.408 351.446 357.374L470.729 422.336C489.029 432.302 489.029 448.46 470.729 458.425C452.43 468.391 422.76 468.391 404.461 458.425L285.178 393.464C266.879 383.498 266.879 367.34 285.178 357.374Z" fill="#1C1C1C" fill-opacity="0.19"/>
<path d="M335.768 307.66C332.329 309.159 328.809 309.842 325.21 309.709C321.637 309.577 318.264 308.637 315.091 306.889C311.652 304.994 310.126 302.795 310.512 300.29C310.912 297.793 313.178 295.406 317.311 293.13L320.111 291.587C322.817 290.096 325.676 289.05 328.689 288.447C331.715 287.853 334.662 287.742 337.528 288.117C340.407 288.484 343.014 289.31 345.347 290.596C348.439 292.3 350.053 294.143 350.186 296.126C350.333 298.102 349.033 300.015 346.286 301.866L342.427 299.739C344.413 298.278 345.367 296.952 345.287 295.762C345.22 294.58 344.187 293.438 342.187 292.336C339.734 290.985 336.901 290.423 333.689 290.651C330.489 290.886 327.216 291.925 323.87 293.768L321.051 295.322C317.891 297.062 316.038 298.81 315.491 300.566C314.945 302.321 315.858 303.852 318.231 305.16C320.364 306.335 322.477 306.97 324.57 307.065C326.69 307.161 329.136 306.651 331.909 305.534L335.768 307.66Z" fill="white"/>
<path d="M359.984 310.998C359.518 310.639 358.958 310.279 358.305 309.919C355.878 308.582 353.199 308.244 350.266 308.905L334.908 317.366L331.209 315.328L352.845 303.408L356.445 305.391L354.005 306.801C357.151 306.404 359.838 306.819 362.064 308.046C362.784 308.443 363.237 308.795 363.424 309.104L359.984 310.998Z" fill="white"/>
<path d="M353.265 327.92C350.333 326.304 348.906 324.461 348.986 322.39C349.079 320.311 350.739 318.383 353.965 316.606L354.645 316.231C356.791 315.049 359.111 314.219 361.604 313.742C364.124 313.264 366.59 313.169 369.003 313.455C371.442 313.742 373.522 314.358 375.242 315.306C378.055 316.856 379.315 318.57 379.021 320.451C378.728 322.331 376.855 324.222 373.402 326.124L371.862 326.972L357.205 318.897C355.125 320.102 354.019 321.394 353.885 322.775C353.779 324.156 354.645 325.353 356.485 326.367C357.791 327.086 359.164 327.549 360.604 327.755C362.044 327.96 363.544 328.008 365.103 327.898L365.603 330.112C361.004 330.648 356.891 329.918 353.265 327.92ZM372.202 316.98C370.709 316.158 368.91 315.769 366.803 315.813C364.71 315.849 362.564 316.341 360.364 317.289L371.203 323.26L371.482 323.106C373.256 322.011 374.202 320.932 374.322 319.867C374.455 318.794 373.749 317.832 372.202 316.98Z" fill="white"/>
<path d="M379.761 342.076C379.974 341.724 380.561 341.21 381.521 340.534C378.015 340.571 375.069 339.932 372.682 338.617C370.549 337.442 369.396 336.146 369.223 334.728C369.076 333.311 369.929 332.091 371.782 331.071C374.035 329.829 376.635 329.337 379.581 329.594C382.554 329.851 385.594 330.836 388.7 332.547L392.299 334.53L393.999 333.593C395.292 332.881 395.932 332.102 395.919 331.258C395.919 330.406 395.165 329.565 393.659 328.735C392.339 328.008 390.899 327.582 389.34 327.457C387.78 327.332 386.527 327.531 385.58 328.052L381.861 326.003C382.941 325.408 384.36 325.045 386.12 324.912C387.906 324.78 389.746 324.912 391.639 325.309C393.546 325.713 395.285 326.348 396.858 327.215C399.351 328.588 400.678 330.009 400.838 331.478C401.011 332.94 400.031 334.287 397.898 335.521L387.94 341.008C385.953 342.102 384.627 343.112 383.96 344.037L383.641 344.213L379.761 342.076ZM376.442 337.141C377.601 337.78 379.001 338.22 380.641 338.463C382.281 338.705 383.814 338.69 385.24 338.419L389.68 335.973L386.78 334.376C382.247 331.878 378.655 331.361 376.002 332.822C374.842 333.461 374.322 334.174 374.442 334.959C374.562 335.745 375.229 336.472 376.442 337.141Z" fill="white"/>
<path d="M420.575 334.948L415.335 337.835L419.375 340.06L416.515 341.636L412.476 339.41L399.058 346.802C398.192 347.28 397.718 347.739 397.638 348.179C397.572 348.613 397.972 349.068 398.838 349.545C399.265 349.78 399.931 350.06 400.838 350.383L397.838 352.035C396.598 351.646 395.519 351.198 394.599 350.691C392.946 349.78 392.199 348.818 392.359 347.805C392.519 346.791 393.519 345.778 395.359 344.764L408.776 337.372L404.837 335.202L407.697 333.626L411.636 335.797L416.875 332.91L420.575 334.948Z" fill="white"/>
<path d="M410.656 359.537C407.723 357.922 406.297 356.078 406.377 354.007C406.47 351.929 408.13 350.001 411.356 348.223L412.036 347.849C414.182 346.666 416.502 345.836 418.995 345.359C421.514 344.882 423.981 344.786 426.394 345.073C428.833 345.359 430.913 345.976 432.633 346.923C435.446 348.473 436.705 350.188 436.412 352.068C436.119 353.948 434.246 355.84 430.793 357.742L429.253 358.59L414.596 350.515C412.516 351.719 411.409 353.012 411.276 354.393C411.169 355.773 412.036 356.971 413.876 357.984C415.182 358.704 416.555 359.167 417.995 359.372C419.435 359.578 420.935 359.626 422.494 359.515L422.994 361.73C418.395 362.266 414.282 361.535 410.656 359.537ZM429.593 348.598C428.1 347.775 426.3 347.386 424.194 347.43C422.101 347.467 419.955 347.959 417.755 348.906L428.593 354.877L428.873 354.723C430.646 353.629 431.593 352.549 431.713 351.484C431.846 350.412 431.14 349.45 429.593 348.598Z" fill="white"/>
<path d="M513.001 90.8237C517.688 88.2586 525.286 88.2586 529.972 90.8237C534.658 93.3888 534.658 97.5476 529.972 100.113L476.939 129.141C472.253 131.706 464.655 131.706 459.968 129.141C455.282 126.576 455.282 122.417 459.968 119.852L513.001 90.8237Z" fill="#93D383"/>
<path d="M513.001 118.691C517.688 116.126 525.286 116.126 529.972 118.691C534.658 121.256 534.658 125.415 529.972 127.98L502.395 143.074C497.708 145.639 490.11 145.639 485.424 143.074C480.738 140.509 480.738 136.35 485.424 133.785L513.001 118.691Z" fill="#93D383"/>
<path d="M583.005 108.241C587.691 105.676 595.289 105.676 599.975 108.241C604.662 110.806 604.662 114.965 599.975 117.53L527.851 157.008C523.164 159.573 515.566 159.573 510.88 157.008C506.194 154.443 506.194 150.284 510.88 147.719L583.005 108.241Z" fill="#93D383"/>
<path d="M577.348 139.204C582.034 136.639 589.632 136.639 594.319 139.204C599.005 141.769 599.005 145.928 594.319 148.493L553.306 170.941C548.62 173.506 541.022 173.506 536.336 170.941C531.65 168.376 531.65 164.217 536.336 161.652L577.348 139.204Z" fill="#93D383"/>
<path d="M575.227 168.232C579.913 165.667 587.511 165.667 592.197 168.232C596.884 170.797 596.884 174.956 592.197 177.521L578.762 184.875C574.076 187.44 566.478 187.44 561.792 184.875C557.105 182.31 557.105 178.151 561.792 175.586L575.227 168.232Z" fill="#93D383"/>
<path d="M637.452 162.039C642.138 159.474 649.736 159.474 654.423 162.039C659.109 164.605 659.109 168.763 654.423 171.328L604.218 198.808C599.532 201.374 591.934 201.374 587.248 198.808C582.561 196.243 582.561 192.085 587.248 189.519L637.452 162.039Z" fill="#93D383"/>
<path fill-rule="evenodd" clip-rule="evenodd" d="M688.163 355.635L552.116 431.904C543.233 436.884 543.233 444.958 552.116 449.938L600.954 477.317L766.454 381.491L720.332 355.635C711.449 350.655 697.047 350.655 688.163 355.635Z" fill="#454545" fill-opacity="0.16"/>
<path d="M720.332 290.635C711.449 285.655 697.047 285.655 688.163 290.635L552.116 366.904C543.233 371.884 543.233 379.958 552.116 384.938L766.575 505.165C775.458 510.145 789.861 510.145 798.744 505.165L934.791 428.896C943.674 423.916 943.674 415.842 934.791 410.862L720.332 290.635Z" fill="white"/>
<path fill-rule="evenodd" clip-rule="evenodd" d="M692.161 400.894C693.05 400.902 693.94 400.902 694.831 400.893C713.051 400.706 731.168 396.803 745.072 389.184C773.562 373.573 773.581 348.269 745.127 332.646C745.087 332.624 745.047 332.602 745.007 332.58C731.101 324.979 712.993 321.088 694.786 320.907C693.882 320.898 692.977 320.898 692.072 320.907C673.882 321.095 655.795 324.985 641.901 332.579C641.849 332.608 641.798 332.636 641.746 332.665C627.234 340.643 620.14 351.142 620.464 361.585C620.775 371.592 627.898 381.548 641.835 389.184C655.76 396.814 673.912 400.718 692.161 400.894ZM703.522 396.146C714.529 395.202 724.865 392.731 733.572 388.998L688.361 364.225C684.296 361.998 685.433 358.241 690.592 356.852L747.979 341.403C745.524 339.342 742.692 337.43 739.532 335.696C739.519 335.688 739.505 335.681 739.492 335.673C739.475 335.664 739.457 335.655 739.44 335.645C734.846 333.134 729.565 330.997 723.75 329.322C714.717 326.72 704.74 325.331 694.635 325.23C693.831 325.222 693.028 325.222 692.224 325.231C689.473 325.259 686.717 325.383 683.972 325.605C670.329 326.705 657.676 330.15 647.837 335.445C647.715 335.51 647.595 335.575 647.474 335.641C647.455 335.652 647.435 335.663 647.415 335.673C635.026 342.462 628.673 351.307 628.358 360.203C628.342 360.648 628.341 361.092 628.356 361.537C628.529 366.858 630.875 372.119 635.281 376.922C638.404 380.326 642.48 383.412 647.327 386.078C647.356 386.094 647.386 386.11 647.415 386.126C647.444 386.142 647.473 386.158 647.502 386.174C652.228 388.754 657.678 390.936 663.684 392.628C672.578 395.134 682.359 396.47 692.26 396.57C696.01 396.607 699.778 396.467 703.522 396.146ZM751.906 345.164C763.854 358.487 759.716 375.045 739.492 386.126L693.941 361.167C693.702 361.036 693.769 360.815 694.072 360.733L751.906 345.164Z" fill="#93D383"/>
<path d="M799.001 395.824C803.688 393.259 811.286 393.259 815.972 395.824C820.658 398.389 820.658 402.548 815.972 405.114L762.939 434.144C758.253 436.709 750.655 436.709 745.968 434.144C741.282 431.579 741.282 427.419 745.968 424.854L799.001 395.824Z" fill="#93D383"/>
<path d="M799.001 423.693C803.688 421.128 811.286 421.128 815.972 423.693C820.658 426.258 820.658 430.417 815.972 432.983L788.395 448.078C783.708 450.644 776.11 450.644 771.424 448.078C766.738 445.513 766.738 441.354 771.424 438.789L799.001 423.693Z" fill="#93D383"/>
<path d="M869.005 413.242C873.692 410.677 881.29 410.677 885.976 413.242C890.662 415.807 890.662 419.966 885.976 422.532L813.851 462.013C809.165 464.578 801.567 464.578 796.88 462.013C792.194 459.448 792.194 455.288 796.88 452.723L869.005 413.242Z" fill="#93D383"/>
<path d="M306.454 465.9C306.454 479.707 286.306 490.9 261.454 490.9C236.601 490.9 216.454 479.707 216.454 465.9C216.454 452.093 236.601 440.9 261.454 440.9C286.306 440.9 306.454 452.093 306.454 465.9Z" fill="#6D6D6D"/>
<path d="M305.454 468.344C305.454 481.845 285.754 492.789 261.454 492.789C237.153 492.789 217.454 481.845 217.454 468.344C217.454 454.844 237.153 443.9 261.454 443.9C285.754 443.9 305.454 454.844 305.454 468.344Z" fill="#3D3D3D"/>
<defs>
<filter id="filter0_d" x="0" y="31.9897" width="1131.62" height="689.358" filterUnits="userSpaceOnUse" color-interpolation-filters="sRGB">
<feFlood flood-opacity="0" result="BackgroundImageFix"/>
<feColorMatrix in="SourceAlpha" type="matrix" values="0 0 0 0 0 0 0 0 0 0 0 0 0 0 0 0 0 0 127 0"/>
<feOffset dy="48"/>
<feGaussianBlur stdDeviation="23"/>
<feColorMatrix type="matrix" values="0 0 0 0 0 0 0 0 0 0 0 0 0 0 0 0 0 0 0.25 0"/>
<feBlend mode="normal" in2="BackgroundImageFix" result="effect1_dropShadow"/>
<feBlend mode="normal" in="SourceGraphic" in2="effect1_dropShadow" result="shape"/>
</filter>
<filter id="filter1_d" x="750.157" y="107.771" width="129.932" height="83.5389" filterUnits="userSpaceOnUse" color-interpolation-filters="sRGB">
<feFlood flood-opacity="0" result="BackgroundImageFix"/>
<feColorMatrix in="SourceAlpha" type="matrix" values="0 0 0 0 0 0 0 0 0 0 0 0 0 0 0 0 0 0 127 0"/>
<feOffset dy="4"/>
<feGaussianBlur stdDeviation="6"/>
<feColorMatrix type="matrix" values="0 0 0 0 0.411765 0 0 0 0 0.847059 0 0 0 0 0.4 0 0 0 1 0"/>
<feBlend mode="normal" in2="BackgroundImageFix" result="effect1_dropShadow"/>
<feBlend mode="normal" in="SourceGraphic" in2="effect1_dropShadow" result="shape"/>
</filter>
<linearGradient id="paint0_linear" x1="449.454" y1="118.4" x2="773.954" y2="497.4" gradientUnits="userSpaceOnUse">
<stop stop-color="#E4E4E4"/>
<stop offset="1" stop-color="#B4B4B4"/>
</linearGradient>
<linearGradient id="paint1_linear" x1="598.954" y1="31.8999" x2="598.954" y2="520.9" gradientUnits="userSpaceOnUse">
<stop stop-color="#65A6BB"/>
<stop offset="1" stop-color="#5EB0CA"/>
</linearGradient>
<linearGradient id="paint2_linear" x1="666.954" y1="-28.1001" x2="477.954" y2="545.9" gradientUnits="userSpaceOnUse">
<stop stop-color="white"/>
<stop offset="1" stop-color="white" stop-opacity="0"/>
</linearGradient>
<linearGradient id="paint3_linear" x1="666.954" y1="-28.1001" x2="477.954" y2="545.9" gradientUnits="userSpaceOnUse">
<stop stop-color="white"/>
<stop offset="1" stop-color="white" stop-opacity="0"/>
</linearGradient>
<linearGradient id="paint4_linear" x1="666.954" y1="-28.1001" x2="477.954" y2="545.9" gradientUnits="userSpaceOnUse">
<stop stop-color="white"/>
<stop offset="1" stop-color="white" stop-opacity="0"/>
</linearGradient>
<linearGradient id="paint5_linear" x1="666.954" y1="-28.1001" x2="477.954" y2="545.9" gradientUnits="userSpaceOnUse">
<stop stop-color="white"/>
<stop offset="1" stop-color="white" stop-opacity="0"/>
</linearGradient>
<linearGradient id="paint6_linear" x1="666.954" y1="-28.1001" x2="477.954" y2="545.9" gradientUnits="userSpaceOnUse">
<stop stop-color="white"/>
<stop offset="1" stop-color="white" stop-opacity="0"/>
</linearGradient>
<linearGradient id="paint7_linear" x1="666.954" y1="-28.1001" x2="477.954" y2="545.9" gradientUnits="userSpaceOnUse">
<stop stop-color="white"/>
<stop offset="1" stop-color="white" stop-opacity="0"/>
</linearGradient>
<linearGradient id="paint8_linear" x1="666.954" y1="-28.1001" x2="477.954" y2="545.9" gradientUnits="userSpaceOnUse">
<stop stop-color="white"/>
<stop offset="1" stop-color="white" stop-opacity="0"/>
</linearGradient>
<linearGradient id="paint9_linear" x1="377.954" y1="26.8999" x2="377.954" y2="386.9" gradientUnits="userSpaceOnUse">
<stop stop-color="#ABE1AA" stop-opacity="0"/>
<stop offset="1" stop-color="#A1CEA0"/>
</linearGradient>
<linearGradient id="paint10_linear" x1="271.454" y1="270.9" x2="484.454" y2="386.9" gradientUnits="userSpaceOnUse">
<stop stop-color="#5AD77D"/>
<stop offset="1" stop-color="#57EFE6"/>
</linearGradient>
</defs>
</svg>
