<svg width="1626" height="1905" viewBox="0 0 1626 1905" fill="none" xmlns="http://www.w3.org/2000/svg">
<g filter="url(#filter0_d)">
<path d="M499.984 1755L224 1604.06L875.016 1248L1151 1398.94L499.984 1755Z" fill="white" fill-opacity="0.01"/>
</g>
<path d="M962.401 1131L1367 1352.2L412.599 1874L8 1652.8L962.401 1131Z" stroke="#9B9B9B" stroke-width="7" stroke-miterlimit="10" stroke-dasharray="30 40"/>
<path d="M425.583 1410.53L529.816 1130.29L905.858 907.538L776.948 1205.36C756.941 1251.58 778.286 1305.27 824.572 1325.13L981 1392.27V1415.03L639.955 1613.48L475.418 1534.24C429.356 1512.05 407.76 1458.45 425.583 1410.53Z" fill="#ABABAB" stroke="#9C9C9C" stroke-width="2"/>
<path d="M982 1415.61L640 1614.61V1590.5L982 1391.61V1415.61Z" fill="#C8C8C8"/>
<path d="M452.143 1411.01L559.215 1123.13L926.806 909.199L797.282 1208.44C777.647 1253.8 797.589 1306.56 842.32 1327.59L978.775 1391.75L639.926 1588.92L497.45 1521.96C455.796 1502.38 436.099 1454.15 452.143 1411.01Z" fill="url(#paint0_linear)" stroke="#D9D9D9" stroke-width="3"/>
<path d="M1015.67 982.338L1015.65 982.352L1015.62 982.367L187.188 1503.52C187.182 1503.52 187.176 1503.52 187.171 1503.53C165.595 1516.28 142.11 1516.66 124.059 1509.17C105.987 1501.68 93.5015 1486.39 93.5 1467.81C93.5 1467.81 93.5 1467.81 93.5 1467.8L93.9959 1356.53L1075.5 789.207V878.616C1075.5 897.623 1068.82 918.786 1057.96 937.623C1047.09 956.46 1032.12 972.83 1015.67 982.338Z" fill="#C1C1C1" stroke="#B5BABC" stroke-width="3"/>
<path d="M93.5 642.716C93.5 642.716 93.5 642.715 93.5 642.714C93.5006 623.927 100.112 602.936 110.919 584.212C121.727 565.488 136.595 549.265 152.86 539.871L1015.8 41.494C1027.61 35.7088 1036.51 32.5796 1044.17 31.7356C1051.74 30.9016 1058.26 32.284 1065.38 35.8435C1070.1 38.2034 1074.69 40.2111 1078.93 42.0711C1081.02 42.9861 1083.03 43.8653 1084.93 44.7331C1090.79 47.4085 1095.79 50.0301 1099.9 53.4609C1107.88 60.1297 1113 70.2825 1113 91.5863V824.148L130.497 1395.7L94.9971 1375.14L93.5 642.716Z" fill="#414141" stroke="#3A3A3A" stroke-width="5"/>
<path d="M1076.16 62.1752L1075.41 60.8763L1076.16 62.1751C1086.91 55.9659 1096.33 55.5858 1102.97 59.4204C1109.62 63.2551 1114 71.6075 1114 84.0163V828.851L132 1396.12V676.716C132 657.793 138.715 636.611 149.605 617.742C160.496 598.874 175.478 582.467 191.86 573.005L1076.16 62.1752Z" fill="#565656" stroke="#606060" stroke-width="3"/>
<path d="M176.56 695.896C176.56 663.706 199.16 624.556 227.03 608.456L1033.98 142.336C1061.85 126.236 1084.45 139.276 1084.45 171.466V794.576L176.56 1319.58V695.896Z" fill="url(#paint1_linear)"/>
<path d="M1084.45 219.723V171.466C1084.45 139.276 1061.85 126.236 1033.98 142.336L995.484 164.573L404.864 1187.56L586.218 1082.69L1084.45 219.723Z" fill="white" fill-opacity="0.1"/>
<path d="M982.455 853.557L776.716 972.528L1084.45 439.517V676.895L982.455 853.557Z" fill="white" fill-opacity="0.1"/>
<path d="M1084.45 743.713V794.576L1040.37 820.068L1084.45 743.713Z" fill="white" fill-opacity="0.1"/>
<path d="M261.609 1270.4L852.308 247.276L780.719 288.628L189.982 1311.81L261.609 1270.4Z" fill="white" fill-opacity="0.1"/>
<path d="M176.56 1176.81L643.636 367.812L386.223 516.501L176.56 879.648V1176.81Z" fill="white" fill-opacity="0.1"/>
<path d="M176.56 767.114L288.741 572.81L227.03 608.456C223.216 610.66 219.5 613.295 215.927 616.286L177.79 682.341C176.985 686.939 176.56 691.483 176.56 695.896V767.114Z" fill="white" fill-opacity="0.1"/>
<path d="M132 1470.44V1468.94H131.99V1399.31L1113.99 832.045V901.446C1113.99 920.451 1107.31 941.612 1096.44 960.446C1085.57 979.281 1070.59 995.65 1054.13 1005.16L190.36 1504.13C173.898 1513.63 159.345 1514.35 149.004 1508.38C138.663 1502.41 132 1489.45 132 1470.44Z" fill="#E4E4E4" stroke="#CECECE" stroke-width="3"/>
<path d="M1084.45 794.576L1086.95 798.905L1089.45 797.461V794.576H1084.45ZM1077.84 138.731C1075.84 136.818 1072.68 136.881 1070.77 138.872C1068.85 140.863 1068.92 144.028 1070.91 145.941L1077.84 138.731ZM1079.45 171.466V794.576H1089.45V171.466H1079.45ZM1081.95 790.248L174.057 1315.25L179.063 1323.9L1086.95 798.905L1081.95 790.248ZM1070.91 145.941C1075.95 150.791 1079.45 159.229 1079.45 171.466H1089.45C1089.45 157.478 1085.45 146.046 1077.84 138.731L1070.91 145.941Z" fill="#3F3E3E"/>
<path d="M689.289 1173.79C701.299 1151.91 700.832 1128.66 688.246 1121.87C675.66 1115.08 655.721 1127.32 643.711 1149.21C631.701 1171.09 632.168 1194.34 644.754 1201.13C657.34 1207.92 677.279 1195.68 689.289 1173.79Z" fill="#ADADAD"/>
<path d="M686.704 1171.85C698.142 1150.76 697.697 1128.35 685.711 1121.81C673.724 1115.26 654.734 1127.06 643.296 1148.15C631.858 1169.24 632.303 1191.65 644.289 1198.19C656.276 1204.74 675.266 1192.94 686.704 1171.85Z" fill="#BEBEBE"/>
<path d="M1353.08 779.821C1366.95 772.06 1389.42 772.06 1403.29 779.821L1615.6 898.691C1629.47 906.452 1629.47 919.036 1615.6 926.798L1280.92 1114.18C1267.05 1121.94 1244.58 1121.94 1230.71 1114.18L1018.4 995.309C1004.53 987.548 1004.53 974.964 1018.4 967.202L1353.08 779.821Z" fill="white"/>
<path d="M1511.64 886.515C1521.02 891.645 1521.02 899.963 1511.64 905.093C1502.27 910.223 1487.08 910.223 1477.7 905.093L1350.42 835.426C1341.05 830.295 1341.05 821.978 1350.42 816.848C1359.8 811.717 1374.99 811.717 1384.36 816.848L1511.64 886.515Z" fill="#93D383"/>
<path d="M1387.19 890.386C1396.57 895.516 1396.57 903.833 1387.19 908.964C1377.82 914.094 1362.62 914.094 1353.25 908.964L1284.66 871.421C1275.29 866.29 1275.29 857.973 1284.66 852.843C1294.04 847.712 1309.23 847.712 1318.6 852.843L1387.19 890.386Z" fill="#93D383"/>
<path d="M1425.38 982.502C1434.75 987.632 1434.75 995.949 1425.38 1001.08C1416 1006.21 1400.81 1006.21 1391.44 1001.08L1219.61 907.028C1210.24 901.898 1210.24 893.581 1219.61 888.45C1228.98 883.32 1244.18 883.32 1253.55 888.45L1425.38 982.502Z" fill="#93D383"/>
<path d="M1287.49 979.018C1296.86 984.148 1296.86 992.466 1287.49 997.596C1278.12 1002.73 1262.92 1002.73 1253.55 997.596L1153.85 943.023C1144.48 937.893 1144.48 929.575 1153.85 924.445C1163.22 919.315 1178.42 919.315 1187.79 924.445L1287.49 979.018Z" fill="#93D383"/>
<path d="M1157.74 979.212C1167.3 984.449 1167.3 992.94 1157.74 998.177C1148.17 1003.41 1132.66 1003.41 1123.09 998.177L1088.44 979.212C1078.87 973.975 1078.87 965.484 1088.44 960.247C1098.01 955.01 1113.52 955.01 1123.09 960.247L1157.74 979.212Z" fill="#93D383"/>
<path d="M807.23 364.469L1422.69 6.98913C1446.57 -6.92087 1466 4.22913 1466.05 31.8391L1466.83 452.589C1466.9 480.199 1447.55 513.739 1423.6 527.489L807.36 881.489C783.41 895.259 764 883.989 764 856.409V439.589C764 411.989 783.36 378.339 807.23 364.469Z" fill="white"/>
<path d="M1419.14 528.936L1368.5 557.435V40.3335L1418.62 8.28542C1431.66 1.47727 1443.17 0.558925 1451.31 4.54212C1459.37 8.49009 1464.63 17.5209 1464.63 31.8247V31.8278L1465.5 452.381L1465.5 452.382C1465.54 465.843 1460.53 481.609 1452.17 495.742C1443.82 509.873 1432.2 522.202 1419.19 528.91L1419.16 528.922L1419.14 528.936Z" fill="#F0F0F2" stroke="#D0D0D0" stroke-width="3"/>
<path d="M1195.57 357.717L1166.02 368.626C1164.21 369.295 1163.28 371.308 1163.95 373.121C1164.62 374.935 1166.63 375.862 1168.45 375.193L1190.07 367.21L1115.68 528.68L960.102 494.817C958.537 494.476 956.941 495.241 956.226 496.674L829.868 749.937C829.005 751.667 829.708 753.769 831.437 754.632C833.167 755.495 835.269 754.792 836.132 753.062L961.274 502.236L1117.2 536.176C1119.09 536.587 1120.95 535.389 1121.36 533.5C1121.41 533.297 1121.36 533.701 1121.36 533.5L1196.43 370.139L1204.41 391.763C1205.08 393.576 1207.09 394.503 1208.91 393.834C1210.72 393.165 1211.65 391.152 1210.98 389.338L1200.07 359.788C1199.4 357.974 1197.39 357.047 1195.57 357.717Z" fill="#93D383"/>
<path d="M1317 534.222L834 812V421" stroke="#7FBD6F" stroke-width="15" stroke-linecap="round" stroke-linejoin="round"/>
<path d="M1439.09 96.7753C1448.62 79.3729 1448.25 60.889 1438.26 55.4903C1428.27 50.0915 1412.45 59.8224 1402.91 77.2247C1393.38 94.6271 1393.75 113.111 1403.74 118.51C1413.73 123.908 1429.55 114.178 1439.09 96.7753Z" fill="#93D383"/>
<path d="M1429.68 187.74C1434.26 179.302 1434.08 170.34 1429.28 167.723C1424.49 165.105 1416.89 169.823 1412.32 178.26C1407.74 186.698 1407.92 195.66 1412.72 198.277C1417.51 200.895 1425.11 196.177 1429.68 187.74Z" fill="#93D383"/>
<path d="M1429.68 254.74C1434.26 246.302 1434.08 237.34 1429.28 234.723C1424.49 232.105 1416.89 236.823 1412.32 245.26C1407.74 253.698 1407.92 262.66 1412.72 265.277C1417.51 267.895 1425.11 263.177 1429.68 254.74Z" fill="#93D383"/>
<path d="M1429.68 321.74C1434.26 313.302 1434.08 304.34 1429.28 301.723C1424.49 299.105 1416.89 303.823 1412.32 312.26C1407.74 320.698 1407.92 329.66 1412.72 332.277C1417.51 334.895 1425.11 330.177 1429.68 321.74Z" fill="#93D383"/>
<path d="M65.0459 860.414L521.279 595.439C538.981 585.129 553.385 593.394 553.422 613.859L554 925.731C554.052 946.197 539.708 971.058 521.954 981.25L65.1423 1243.65C47.3884 1253.85 33 1245.5 33 1225.05V916.095C33 895.638 47.3513 870.695 65.0459 860.414Z" fill="url(#paint2_linear)" fill-opacity="0.64"/>
<path d="M220.993 825.621C229.335 820.525 236.57 826.814 237.154 839.668C237.738 852.521 231.449 867.071 223.107 872.166L128.998 929.651C120.656 934.746 113.42 928.457 112.836 915.604C112.253 902.751 118.542 888.201 126.883 883.105L220.993 825.621Z" fill="white"/>
<path d="M327.883 760.33C336.225 755.234 343.46 761.523 344.044 774.376C344.628 787.23 338.339 801.78 329.997 806.875L281.2 836.682C272.858 841.777 265.622 835.488 265.038 822.635C264.455 809.782 270.744 795.232 279.085 790.136L327.883 760.33Z" fill="white"/>
<path d="M410.385 789.05C418.727 783.955 425.962 790.244 426.546 803.097C427.13 815.95 420.841 830.501 412.499 835.596L284.696 913.661C276.354 918.757 269.119 912.468 268.535 899.615C267.951 886.761 274.24 872.211 282.582 867.116L410.385 789.05Z" fill="white"/>
<path d="M465.387 685.538C473.729 680.442 480.965 686.731 481.549 699.585C482.132 712.438 475.843 726.988 467.502 732.083L394.305 776.794C385.964 781.889 378.728 775.6 378.144 762.747C377.56 749.894 383.849 735.343 392.191 730.248L465.387 685.538Z" fill="white"/>
<path d="M216.856 905.423C224.877 900.524 231.834 906.571 232.396 918.93C232.957 931.288 226.91 945.279 218.889 950.178L193.329 965.791C185.308 970.691 178.35 964.644 177.789 952.285C177.228 939.926 183.275 925.935 191.296 921.036L216.856 905.423Z" fill="white"/>
<path d="M386.042 1015.16C377.7 1020.26 370.464 1013.97 369.881 1001.12C369.297 988.262 375.586 973.712 383.927 968.616L478.037 911.132C486.379 906.036 493.614 912.325 494.198 925.179C494.782 938.032 488.493 952.582 480.151 957.677L386.042 1015.16Z" fill="white"/>
<path d="M279.152 1080.45C270.81 1085.55 263.574 1079.26 262.991 1066.41C262.407 1053.55 268.696 1039 277.038 1033.91L325.835 1004.1C334.177 999.005 341.412 1005.29 341.996 1018.15C342.58 1031 336.291 1045.55 327.949 1050.65L279.152 1080.45Z" fill="white"/>
<path d="M196.65 1051.73C188.308 1056.83 181.072 1050.54 180.488 1037.69C179.905 1024.83 186.194 1010.28 194.535 1005.19L322.339 927.121C330.68 922.026 337.916 928.315 338.5 941.168C339.083 954.021 332.794 968.572 324.453 973.667L196.65 1051.73Z" fill="white"/>
<path d="M141.647 1155.24C133.306 1160.34 126.07 1154.05 125.486 1141.2C124.902 1128.34 131.191 1113.79 139.533 1108.7L212.729 1063.99C221.071 1058.89 228.307 1065.18 228.891 1078.04C229.474 1090.89 223.185 1105.44 214.844 1110.53L141.647 1155.24Z" fill="white"/>
<path d="M390.178 935.36C382.158 940.259 375.2 934.212 374.639 921.853C374.077 909.494 380.125 895.504 388.146 890.604L413.706 874.991C421.727 870.092 428.684 876.139 429.246 888.498C429.807 900.857 423.76 914.847 415.739 919.747L390.178 935.36Z" fill="white"/>
<defs>
<filter id="filter0_d" x="78" y="1106" width="1219" height="799" filterUnits="userSpaceOnUse" color-interpolation-filters="sRGB">
<feFlood flood-opacity="0" result="BackgroundImageFix"/>
<feColorMatrix in="SourceAlpha" type="matrix" values="0 0 0 0 0 0 0 0 0 0 0 0 0 0 0 0 0 0 127 0"/>
<feOffset dy="4"/>
<feGaussianBlur stdDeviation="73"/>
<feColorMatrix type="matrix" values="0 0 0 0 0.566667 0 0 0 0 0.554861 0 0 0 0 0.554861 0 0 0 0.21 0"/>
<feBlend mode="normal" in2="BackgroundImageFix" result="effect1_dropShadow"/>
<feBlend mode="normal" in="SourceGraphic" in2="effect1_dropShadow" result="shape"/>
</filter>
<linearGradient id="paint0_linear" x1="637" y1="1222.11" x2="826.5" y2="1472.61" gradientUnits="userSpaceOnUse">
<stop stop-color="#BCBCBC"/>
<stop offset="1" stop-color="white"/>
</linearGradient>
<linearGradient id="paint1_linear" x1="1084" y1="135.607" x2="177" y2="1319.61" gradientUnits="userSpaceOnUse">
<stop stop-color="#7BACBB"/>
<stop offset="1" stop-color="#3F9EBC"/>
</linearGradient>
<linearGradient id="paint2_linear" x1="137" y1="732.5" x2="554" y2="1125.5" gradientUnits="userSpaceOnUse">
<stop offset="0.0208333" stop-color="#69D866"/>
<stop offset="0.515625" stop-color="#63D260" stop-opacity="0.47"/>
<stop offset="1" stop-color="#69D866"/>
</linearGradient>
</defs>
</svg>
