<svg width="1032" height="1817" viewBox="0 0 1032 1817" fill="none" xmlns="http://www.w3.org/2000/svg">
<g filter="url(#filter0_d)">
<path d="M557.231 1267.28C534.46 1254.91 497.54 1254.91 474.769 1267.28L83.0783 1480.1C60.3072 1492.47 60.3073 1512.53 83.0783 1524.9L474.769 1737.72C486.021 1743.83 500.726 1746.93 515.472 1747C530.57 1747.07 545.711 1743.98 557.231 1737.72L948.922 1524.9C971.693 1512.53 971.693 1492.47 948.922 1480.1L557.231 1267.28Z" fill="white" fill-opacity="0.01"/>
</g>
<g filter="url(#filter1_d)">
<path d="M52.5901 1331.29L465.171 1107.15C479.997 1099.1 498.422 1095.5 516 1095.5C533.578 1095.5 552.003 1099.1 566.829 1107.15L979.41 1331.29C993.993 1339.21 1005.5 1351.99 1005.5 1368.5C1005.5 1385.01 993.993 1397.79 979.41 1405.71L566.829 1629.85C551.833 1637.99 533.149 1641.59 515.369 1641.5C497.994 1641.41 479.826 1637.81 465.171 1629.85L52.5901 1405.71C38.0067 1397.79 26.5001 1385.01 26.5 1368.5C26.5 1351.99 38.0066 1339.21 52.5901 1331.29Z" stroke="#96FB9B" stroke-width="31"/>
</g>
<path d="M470.672 988.191C495.666 974.603 536.188 974.603 561.182 988.191L991.103 1221.93C1016.1 1235.52 1016.1 1257.55 991.103 1271.14L561.182 1504.88C548.832 1511.59 532.691 1514.99 516.506 1515.07C499.934 1515.15 483.316 1511.75 470.672 1504.88L40.751 1271.14C15.7575 1257.55 15.7575 1235.52 40.751 1221.93L470.672 988.191Z" fill="#A0A0A0"/>
<path d="M48.7056 327.581L44.5 1246L485.501 1486L499.001 561.5L48.7056 327.581Z" fill="#2C3541"/>
<path d="M88 356C88 347.163 80.8366 340 72 340C63.1634 340 56 347.163 56 356V943.593V994.814V1205.36C56 1227.52 68.2143 1247.88 87.7678 1258.3L462.471 1458.12C479.271 1467.25 499.097 1470.25 518.396 1470.16V1436C504.552 1436.07 486.017 1434.5 477.529 1429.88L102.825 1230.07C93.7 1225.2 88 1215.7 88 1205.36V1012.21L461.925 1215.51C478.724 1224.64 499.317 1228.52 518.616 1228.43L518.396 1183.43C504.552 1183.5 491.908 1180.59 483.419 1175.97L88 960.991V356Z" fill="#8F8F8F"/>
<path d="M470.672 10.1914C495.666 -3.39713 536.188 -3.39712 561.182 10.1914L991.103 243.931C1016.1 257.519 1016.1 279.551 991.103 293.139L561.182 526.879C548.832 533.593 532.691 536.989 516.506 537.068C499.934 537.149 483.316 533.753 470.672 526.878L40.751 293.139C15.7575 279.551 15.7575 257.519 40.751 243.931L470.672 10.1914Z" fill="url(#paint0_linear)"/>
<path d="M470.666 10.1914C495.66 -3.39713 536.182 -3.39712 561.176 10.1914L991.097 243.931C1016.09 257.519 1016.09 279.551 991.097 293.139L561.176 526.879C548.826 533.593 532.685 536.989 516.5 537.068C499.928 537.149 483.31 533.753 470.666 526.878L40.7452 293.139C15.7516 279.551 15.7516 257.519 40.7452 243.931L470.666 10.1914Z" fill="url(#paint1_linear)"/>
<path fill-rule="evenodd" clip-rule="evenodd" d="M40.7509 1272.14C25.3471 1263.45 21.8359 1253.09 22.0058 1249V266C22.0058 273 26.0059 286 40.7509 293.139L470.672 526.878C483.021 533.593 499.741 536.99 515.927 537.069L515.926 1516.07C501.368 1516 486.266 1513.24 474.506 1507.8C473.192 1507.19 471.913 1506.55 470.672 1505.88L40.7509 1272.14ZM474.506 599.266C474.506 583.976 464.043 571.081 450.611 563.778L90.6035 368.049C78.6093 361.528 64.0058 370.211 64.0058 383.863V974.576L474.506 1197.76V599.266ZM474.506 1247.2C469.073 1245.4 463.837 1243.18 458.925 1240.51L64.0058 1025.8V1225.68C64.0058 1232.64 67.8137 1239.05 73.9304 1242.37L456.774 1450.52C464.77 1454.86 474.506 1449.08 474.506 1439.97V1247.2Z" fill="#C1C1C1"/>
<path d="M515.927 1516.07C515.54 1516.07 516.313 1516.07 515.927 1516.07ZM515.927 1516.07L515.927 537.069M515.927 537.069C516.1 537.069 515.754 537.07 515.927 537.069ZM515.927 537.069C516.14 537.07 515.714 537.069 515.927 537.069ZM515.927 537.069C499.741 536.99 483.022 533.593 470.672 526.878L40.751 293.139C26.0059 286 22.0059 273 22.0059 266" stroke="#CFCFCF" stroke-width="3" stroke-linecap="round" stroke-linejoin="round"/>
<path d="M1010.51 266V1249C1010.68 1253.09 1007.16 1263.45 991.761 1272.14L561.84 1505.88C549.196 1512.75 532.577 1516.15 516.006 1516.07V537.068C532.577 537.149 549.196 533.753 561.84 526.878L991.761 293.139C1006.51 286 1010.51 273 1010.51 266Z" fill="#D2D2D2"/>
<path d="M488.702 110.167C503.782 101.944 528.23 101.944 543.31 110.167L802.696 251.611C817.776 259.834 817.776 273.166 802.696 281.389L543.31 422.833C535.859 426.896 526.12 428.951 516.355 428.999C506.357 429.048 496.331 426.993 488.702 422.833L229.315 281.389C214.236 273.166 214.236 259.834 229.315 251.611L488.702 110.167Z" fill="#E6E6E6"/>
<path d="M642.263 257.81L529.113 196.109C525.367 194.066 520.618 193.114 516.006 193.114C511.394 193.114 506.645 194.066 502.898 196.109L389.748 257.81C386.039 259.833 383.512 262.868 383.512 266.5C383.512 270.132 386.039 273.167 389.748 275.19L502.898 336.891C506.689 338.958 511.505 339.909 516.171 339.886C520.729 339.863 525.41 338.91 529.113 336.891L642.263 275.19C645.973 273.167 648.5 270.132 648.5 266.5C648.5 262.868 645.973 259.833 642.263 257.81Z" stroke="#96FB9B" stroke-width="5"/>
<path d="M218.017 266C218.243 260.779 222.009 255.595 229.315 251.611L488.702 110.167C503.781 101.944 528.23 101.944 543.31 110.167L802.696 251.611C810.236 255.723 814.006 261.111 814.006 266.5" stroke="#EFEFEF" stroke-width="4" stroke-linecap="round"/>
<rect width="301.914" height="177.919" transform="matrix(-0.866025 0.5 0 1 907.465 464)" fill="#2C3541"/>
<path d="M899.715 471.709V612.984C899.715 626.792 890.022 643.581 878.065 650.484L646.001 784.467" stroke="#8F8F8F" stroke-width="16"/>
<rect x="12.9904" y="-22.5" width="328.06" height="205.099" rx="43" transform="matrix(-0.866025 0.5 0 1 928.368 459.559)" stroke="#CCCCCC" stroke-width="30" stroke-linecap="round"/>
<rect width="342.571" height="106.712" transform="matrix(0.878817 0.477159 0 1 128.344 1099)" fill="#3A4755"/>
<path d="M128.344 1100.94V1175.67C128.344 1189.48 138.18 1206.01 150.314 1212.6L429.4 1364.13" stroke="#21272F" stroke-width="16"/>
<rect x="-13.1823" y="-22.1574" width="378.053" height="130.636" rx="36" transform="matrix(0.878817 0.477159 0 1 122.403 1108.76)" stroke="#2C3541" stroke-width="30" stroke-linecap="round"/>
<path d="M831.681 620.383C831.681 613.677 836.353 605.462 842.116 602.033C847.879 598.604 852.551 601.261 852.551 607.967V627.753C852.551 634.459 847.879 642.675 842.116 646.103C836.353 649.532 831.681 646.875 831.681 640.17V620.383Z" fill="#93D383"/>
<path d="M831.681 536.558C831.681 529.852 836.353 521.637 842.116 518.208C847.879 514.779 852.551 517.436 852.551 524.142V573.208C852.551 579.914 847.879 588.129 842.116 591.558C836.353 594.987 831.681 592.33 831.681 585.624V536.558Z" fill="white" fill-opacity="0.73"/>
<path d="M799.99 584.374C799.99 577.668 804.662 569.452 810.425 566.024C816.188 562.595 820.86 565.252 820.86 571.958V643.909C820.86 650.615 816.188 658.831 810.425 662.259C804.662 665.688 799.99 663.031 799.99 656.325V584.374Z" fill="#93D383"/>
<path d="M768.299 656.292C768.299 649.586 772.971 641.371 778.734 637.942C784.497 634.513 789.169 637.17 789.169 643.876V662.763C789.169 669.469 784.497 677.685 778.734 681.113C772.971 684.542 768.299 681.885 768.299 675.179V656.292Z" fill="white" fill-opacity="0.73"/>
<path d="M736.608 635.123C736.608 628.169 741.453 619.649 747.43 616.093C753.406 612.538 758.251 615.293 758.251 622.247V680.708C758.251 687.662 753.406 696.182 747.43 699.737C741.453 703.293 736.608 700.538 736.608 693.584V635.123Z" fill="#93D383"/>
<path d="M705.691 608.098C705.691 601.392 710.363 593.176 716.126 589.748C721.889 586.319 726.56 588.976 726.56 595.682V700.011C726.56 706.717 721.889 714.933 716.126 718.361C710.363 721.79 705.691 719.133 705.691 712.428V608.098Z" fill="white" fill-opacity="0.73"/>
<path d="M674 691.708C674 685.002 678.672 676.787 684.435 673.358C690.198 669.93 694.87 672.586 694.87 679.292V718.865C694.87 725.571 690.198 733.787 684.435 737.215C678.672 740.644 674 737.987 674 731.282V691.708Z" fill="white" fill-opacity="0.73"/>
<path d="M674.309 636.766C674.309 630.06 678.981 621.845 684.744 618.416C690.507 614.987 695.179 617.644 695.179 624.35V643.237C695.179 649.943 690.507 658.158 684.744 661.587C678.981 665.016 674.309 662.359 674.309 655.653V636.766Z" fill="#93D383"/>
<rect width="188.89" height="36.2226" rx="18.1113" transform="matrix(0.878817 0.477159 0 1 150 1144)" fill="#7EFA84"/>
<rect width="47.9283" height="47.9283" rx="23.9642" transform="matrix(0.878817 0.477159 0 1 331 1237)" fill="#EDEDED"/>
<rect width="31.7634" height="31.7634" rx="15.8817" transform="matrix(0.878817 0.477159 0 1 391.103 1278.94)" fill="#EDEDED"/>
<g filter="url(#filter2_d)">
<path d="M686.376 1195.45C705.362 1184.16 720.753 1157.09 720.753 1135C720.753 1112.91 705.362 1104.16 686.376 1115.45C667.391 1126.75 652 1153.81 652 1175.9C652 1197.99 667.391 1206.75 686.376 1195.45ZM686.376 1195.45V1370.41M887.376 1187.45C906.362 1176.16 921.753 1149.09 921.753 1127C921.753 1104.91 906.362 1096.16 887.376 1107.45C868.391 1118.75 853 1145.81 853 1167.9C853 1189.99 868.391 1198.75 887.376 1187.45ZM887.376 1187.45V1250.83M797.376 1012.45C816.362 1001.16 831.753 974.091 831.753 952C831.753 929.909 816.362 921.157 797.376 932.452C778.391 943.747 763 970.812 763 992.903C763 1014.99 778.391 1023.75 797.376 1012.45ZM797.376 1012.45V1304.37M611.069 1415.21L942.396 1218.09C955.686 1210.19 966.459 1191.24 966.459 1175.78V380C966.459 364.536 955.686 358.41 942.396 366.316L611.069 563.435C597.779 571.341 587.006 590.287 587.006 605.751V1401.53C587.006 1416.99 597.779 1423.12 611.069 1415.21Z" stroke="#A3E9A2" stroke-width="12"/>
</g>
<path d="M122.685 447L215.547 497.42" stroke="#A7E7A6" stroke-width="12"/>
<path d="M270.255 600.328L177.393 549.908" stroke="#A7E7A6" stroke-width="12"/>
<path d="M431.851 652.131L338.989 601.711" stroke="#A7E7A6" stroke-width="12"/>
<path d="M357.786 574.65L450.648 625.07" stroke="#A7E7A6" stroke-width="12"/>
<path d="M215.547 534.688L122.685 484.268" stroke="#A7E7A6" stroke-width="12"/>
<path d="M215.547 641.167L122.685 590.747" stroke="#A7E7A6" stroke-width="12"/>
<path d="M182.723 663.275L122.685 630.677" stroke="#A7E7A6" stroke-width="12"/>
<path d="M225.927 503.056L270.254 527.124" stroke="#A7E7A6" stroke-width="12"/>
<path d="M156.91 574.725L270.252 636.265" stroke="#A7E7A6" stroke-width="12"/>
<path d="M247.811 658.684L361.153 720.224" stroke="#A7E7A6" stroke-width="12"/>
<path d="M190.579 667.539L264.083 707.449" stroke="#A7E7A6" stroke-width="12"/>
<path d="M167.012 544.272L122.685 520.205" stroke="#A7E7A6" stroke-width="12"/>
<path d="M328.608 596.075L284.281 572.008" stroke="#A7E7A6" stroke-width="12"/>
<path d="M280.354 532.607L296.064 541.138" stroke="#A7E7A6" stroke-width="12"/>
<path d="M306.164 546.622L321.875 555.152" stroke="#A7E7A6" stroke-width="12"/>
<path d="M267.168 562.716L251.457 554.186" stroke="#A7E7A6" stroke-width="12"/>
<path d="M331.975 560.635L347.686 569.166" stroke="#A7E7A6" stroke-width="12"/>
<path d="M241.357 548.702L225.646 540.172" stroke="#A7E7A6" stroke-width="12"/>
<path d="M239.393 654.115L223.682 645.585" stroke="#A7E7A6" stroke-width="12"/>
<path d="M122.685 740.019L215.547 790.439" stroke="#A7E7A6" stroke-width="12"/>
<path d="M270.255 893.347L177.393 842.927" stroke="#A7E7A6" stroke-width="12"/>
<path d="M431.851 945.151L338.989 894.731" stroke="#A7E7A6" stroke-width="12"/>
<path d="M357.786 867.669L450.648 918.089" stroke="#A7E7A6" stroke-width="12"/>
<path d="M215.547 827.707L122.685 777.287" stroke="#A7E7A6" stroke-width="12"/>
<path d="M215.547 739.729L122.685 689.309" stroke="#A7E7A6" stroke-width="12"/>
<path d="M215.547 934.186L122.685 883.766" stroke="#A7E7A6" stroke-width="12"/>
<path d="M182.723 956.294L122.685 923.696" stroke="#A7E7A6" stroke-width="12"/>
<path d="M225.927 796.075L270.254 820.143" stroke="#A7E7A6" stroke-width="12"/>
<path d="M156.911 867.745L270.253 929.284" stroke="#A7E7A6" stroke-width="12"/>
<path d="M247.811 951.703L361.153 1013.24" stroke="#A7E7A6" stroke-width="12"/>
<path d="M190.579 960.558L264.083 1000.47" stroke="#A7E7A6" stroke-width="12"/>
<path d="M167.012 837.291L122.685 813.224" stroke="#A7E7A6" stroke-width="12"/>
<path d="M328.608 889.095L284.281 865.027" stroke="#A7E7A6" stroke-width="12"/>
<path d="M280.354 825.627L296.064 834.157" stroke="#A7E7A6" stroke-width="12"/>
<path d="M227.354 745.831L243.065 754.361" stroke="#A7E7A6" stroke-width="12"/>
<path d="M306.165 839.641L321.875 848.171" stroke="#A7E7A6" stroke-width="12"/>
<path d="M267.168 855.735L251.457 847.205" stroke="#A7E7A6" stroke-width="12"/>
<path d="M331.975 853.655L347.686 862.185" stroke="#A7E7A6" stroke-width="12"/>
<path d="M241.357 841.721L225.646 833.191" stroke="#A7E7A6" stroke-width="12"/>
<path d="M239.393 947.134L223.682 938.604" stroke="#A7E7A6" stroke-width="12"/>
<defs>
<filter id="filter0_d" x="0" y="1196" width="1032" height="621" filterUnits="userSpaceOnUse" color-interpolation-filters="sRGB">
<feFlood flood-opacity="0" result="BackgroundImageFix"/>
<feColorMatrix in="SourceAlpha" type="matrix" values="0 0 0 0 0 0 0 0 0 0 0 0 0 0 0 0 0 0 127 0"/>
<feOffset dy="4"/>
<feGaussianBlur stdDeviation="33"/>
<feColorMatrix type="matrix" values="0 0 0 0 0 0 0 0 0 0 0 0 0 0 0 0 0 0 0.13 0"/>
<feBlend mode="normal" in2="BackgroundImageFix" result="effect1_dropShadow"/>
<feBlend mode="normal" in="SourceGraphic" in2="effect1_dropShadow" result="shape"/>
</filter>
<filter id="filter1_d" x="11" y="1080" width="1010" height="581" filterUnits="userSpaceOnUse" color-interpolation-filters="sRGB">
<feFlood flood-opacity="0" result="BackgroundImageFix"/>
<feColorMatrix in="SourceAlpha" type="matrix" values="0 0 0 0 0 0 0 0 0 0 0 0 0 0 0 0 0 0 127 0"/>
<feOffset dy="4"/>
<feColorMatrix type="matrix" values="0 0 0 0 0.400156 0 0 0 0 0.820833 0 0 0 0 0.420982 0 0 0 1 0"/>
<feBlend mode="normal" in2="BackgroundImageFix" result="effect1_dropShadow"/>
<feBlend mode="normal" in="SourceGraphic" in2="effect1_dropShadow" result="shape"/>
</filter>
<filter id="filter2_d" x="577.006" y="356.857" width="395.453" height="1067.81" filterUnits="userSpaceOnUse" color-interpolation-filters="sRGB">
<feFlood flood-opacity="0" result="BackgroundImageFix"/>
<feColorMatrix in="SourceAlpha" type="matrix" values="0 0 0 0 0 0 0 0 0 0 0 0 0 0 0 0 0 0 127 0"/>
<feOffset dx="-4"/>
<feColorMatrix type="matrix" values="0 0 0 0 0.463667 0 0 0 0 0.891667 0 0 0 0 0.456979 0 0 0 1 0"/>
<feBlend mode="normal" in2="BackgroundImageFix" result="effect1_dropShadow"/>
<feBlend mode="normal" in="SourceGraphic" in2="effect1_dropShadow" result="shape"/>
</filter>
<linearGradient id="paint0_linear" x1="-4.5" y1="269" x2="1027.5" y2="269" gradientUnits="userSpaceOnUse">
<stop stop-color="#CFCFCF"/>
<stop offset="1" stop-color="#FAFAFA"/>
</linearGradient>
<linearGradient id="paint1_linear" x1="-4.50586" y1="269" x2="1027.49" y2="269" gradientUnits="userSpaceOnUse">
<stop stop-color="#CFCFCF"/>
<stop offset="1" stop-color="#FAFAFA"/>
</linearGradient>
</defs>
</svg>
