<svg width="1270" height="1752" viewBox="0 0 1270 1752" fill="none" xmlns="http://www.w3.org/2000/svg">
<g filter="url(#filter0_d)">
<path d="M686.034 1076.48C657.849 1061.17 612.151 1061.17 583.966 1076.48L99.1391 1339.78C70.9536 1355.09 70.9537 1379.91 99.1392 1395.22L583.966 1658.52C597.892 1666.08 616.094 1669.91 634.347 1670C653.035 1670.09 671.776 1666.26 686.034 1658.52L1170.86 1395.22C1199.05 1379.91 1199.05 1355.09 1170.86 1339.78L686.034 1076.48Z" fill="white" fill-opacity="0.01"/>
</g>
<path d="M589.672 988.191C614.666 974.603 655.188 974.603 680.182 988.191L1110.1 1221.93C1135.1 1235.52 1135.1 1257.55 1110.1 1271.14L680.182 1504.88C667.832 1511.59 651.691 1514.99 635.506 1515.07C618.934 1515.15 602.316 1511.75 589.672 1504.88L159.751 1271.14C134.757 1257.55 134.757 1235.52 159.751 1221.93L589.672 988.191Z" fill="#A0A0A0"/>
<path d="M167.706 327.581L163.5 1246L604.501 1486L618.001 561.5L167.706 327.581Z" fill="#2C3541"/>
<path d="M207 356C207 347.163 199.837 340 191 340C182.163 340 175 347.163 175 356V943.593V994.814V1205.36C175 1227.52 187.214 1247.88 206.768 1258.3L581.471 1458.12C598.271 1467.25 618.097 1470.25 637.396 1470.16V1436C623.552 1436.07 605.017 1434.5 596.529 1429.88L221.825 1230.07C212.7 1225.2 207 1215.7 207 1205.36V1012.21L580.925 1215.51C597.724 1224.64 618.317 1228.52 637.616 1228.43L637.396 1183.43C623.552 1183.5 610.908 1180.59 602.419 1175.97L207 960.991V356Z" fill="#8F8F8F"/>
<path d="M589.672 10.1914C614.666 -3.39713 655.188 -3.39712 680.182 10.1914L1110.1 243.931C1135.1 257.519 1135.1 279.551 1110.1 293.139L680.182 526.879C667.832 533.593 651.691 536.989 635.506 537.068C618.934 537.149 602.316 533.753 589.672 526.878L159.751 293.139C134.757 279.551 134.757 257.519 159.751 243.931L589.672 10.1914Z" fill="url(#paint0_linear)"/>
<path d="M589.666 10.1914C614.66 -3.39713 655.182 -3.39712 680.176 10.1914L1110.1 243.931C1135.09 257.519 1135.09 279.551 1110.1 293.139L680.176 526.879C667.826 533.593 651.685 536.989 635.5 537.068C618.928 537.149 602.31 533.753 589.666 526.878L159.745 293.139C134.752 279.551 134.752 257.519 159.745 243.931L589.666 10.1914Z" fill="url(#paint1_linear)"/>
<path fill-rule="evenodd" clip-rule="evenodd" d="M159.751 1272.14C144.347 1263.45 140.836 1253.09 141.006 1249V266C141.006 273 145.006 286 159.751 293.139L589.672 526.878C602.021 533.593 618.741 536.99 634.927 537.069L634.926 1516.07C620.368 1516 605.266 1513.24 593.506 1507.8C592.192 1507.19 590.913 1506.55 589.672 1505.88L159.751 1272.14ZM593.506 599.266C593.506 583.976 583.043 571.081 569.611 563.778L209.603 368.049C197.609 361.528 183.006 370.211 183.006 383.863V974.576L593.506 1197.76V599.266ZM593.506 1247.2C588.073 1245.4 582.837 1243.18 577.925 1240.51L183.006 1025.8V1225.68C183.006 1232.64 186.814 1239.05 192.93 1242.37L575.774 1450.52C583.77 1454.86 593.506 1449.08 593.506 1439.97V1247.2Z" fill="url(#paint2_linear)"/>
<path d="M634.927 1516.07C634.54 1516.07 635.313 1516.07 634.927 1516.07ZM634.927 1516.07L634.927 537.069M634.927 537.069C635.1 537.069 634.754 537.07 634.927 537.069ZM634.927 537.069C635.14 537.07 634.714 537.069 634.927 537.069ZM634.927 537.069C618.741 536.99 602.022 533.593 589.672 526.878L159.751 293.139C145.006 286 141.006 273 141.006 266" stroke="#CFCFCF" stroke-width="3" stroke-linecap="round" stroke-linejoin="round"/>
<path d="M1129.51 266V1249C1129.68 1253.09 1126.16 1263.45 1110.76 1272.14L680.84 1505.88C668.196 1512.75 651.577 1516.15 635.006 1516.07V537.068C651.577 537.149 668.196 533.753 680.84 526.878L1110.76 293.139C1125.51 286 1129.51 273 1129.51 266Z" fill="url(#paint3_linear)"/>
<path d="M607.702 110.167C622.782 101.944 647.23 101.944 662.31 110.167L921.696 251.611C936.776 259.834 936.776 273.166 921.696 281.389L662.31 422.833C654.859 426.896 645.12 428.951 635.355 428.999C625.357 429.048 615.331 426.993 607.702 422.833L348.315 281.389C333.236 273.166 333.236 259.834 348.315 251.611L607.702 110.167Z" fill="#E6E6E6"/>
<path d="M648.113 196.109C644.367 194.066 639.618 193.114 635.006 193.114C630.394 193.114 625.645 194.066 621.898 196.109L508.748 257.81C505.039 259.833 502.512 262.868 502.512 266.5C502.512 270.132 505.039 273.167 508.748 275.19L621.898 336.891C625.689 338.958 630.505 339.909 635.171 339.886C639.729 339.863 644.41 338.91 648.113 336.891L761.263 275.19C764.973 273.167 767.5 270.132 767.5 266.5C767.5 262.868 764.973 259.833 761.263 257.81L648.113 196.109Z" stroke="#96FB9B" stroke-width="5"/>
<path d="M337.017 266C337.243 260.779 341.009 255.595 348.315 251.611L607.702 110.167C622.781 101.944 647.23 101.944 662.31 110.167L921.696 251.611C929.236 255.723 933.006 261.111 933.006 266.5" stroke="#EFEFEF" stroke-width="4" stroke-linecap="round"/>
<rect width="301.914" height="177.919" transform="matrix(-0.866025 0.5 0 1 1026.47 464)" fill="#2C3541"/>
<path d="M1018.72 471.709V612.984C1018.72 626.792 1009.02 643.581 997.065 650.484L765.001 784.467" stroke="#8F8F8F" stroke-width="16"/>
<rect x="10.3923" y="-18" width="322.06" height="199.099" rx="40" transform="matrix(-0.866025 0.5 0 1 1042.52 460.858)" stroke="#D2D2D2" stroke-width="24" stroke-linecap="round"/>
<rect width="342.571" height="106.712" transform="matrix(0.878817 0.477159 0 1 247.344 1099)" fill="#3A4755"/>
<path d="M247.344 1100.94V1175.67C247.344 1189.48 257.18 1206.01 269.314 1212.6L548.4 1364.13" stroke="#21272F" stroke-width="16"/>
<rect x="-13.1823" y="-22.1574" width="378.053" height="130.636" rx="36" transform="matrix(0.878817 0.477159 0 1 241.403 1108.76)" stroke="#2C3541" stroke-width="30" stroke-linecap="round"/>
<path d="M950.681 620.383C950.681 613.677 955.353 605.462 961.116 602.033C966.879 598.604 971.551 601.261 971.551 607.967V627.753C971.551 634.459 966.879 642.675 961.116 646.103C955.353 649.532 950.681 646.875 950.681 640.17V620.383Z" fill="#93D383"/>
<path d="M950.681 536.558C950.681 529.852 955.353 521.637 961.116 518.208C966.879 514.779 971.551 517.436 971.551 524.142V573.208C971.551 579.914 966.879 588.129 961.116 591.558C955.353 594.987 950.681 592.33 950.681 585.624V536.558Z" fill="#578BDA" fill-opacity="0.73"/>
<path d="M918.99 584.374C918.99 577.668 923.662 569.452 929.425 566.024C935.188 562.595 939.86 565.252 939.86 571.958V643.909C939.86 650.615 935.188 658.831 929.425 662.259C923.662 665.688 918.99 663.031 918.99 656.325V584.374Z" fill="#93D383"/>
<path d="M887.299 656.292C887.299 649.586 891.971 641.371 897.734 637.942C903.497 634.513 908.169 637.17 908.169 643.876V662.763C908.169 669.469 903.497 677.685 897.734 681.113C891.971 684.542 887.299 681.885 887.299 675.179V656.292Z" fill="#578BDA" fill-opacity="0.73"/>
<path d="M855.608 635.123C855.608 628.169 860.453 619.649 866.43 616.093C872.406 612.538 877.251 615.293 877.251 622.247V680.708C877.251 687.662 872.406 696.182 866.43 699.737C860.453 703.293 855.608 700.538 855.608 693.584V635.123Z" fill="#93D383"/>
<path d="M824.691 608.098C824.691 601.392 829.363 593.176 835.126 589.748C840.889 586.319 845.56 588.976 845.56 595.682V700.011C845.56 706.717 840.889 714.933 835.126 718.361C829.363 721.79 824.691 719.133 824.691 712.428V608.098Z" fill="#578BDA" fill-opacity="0.73"/>
<path d="M793 691.708C793 685.002 797.672 676.787 803.435 673.358C809.198 669.93 813.87 672.586 813.87 679.292V718.865C813.87 725.571 809.198 733.787 803.435 737.215C797.672 740.644 793 737.987 793 731.282V691.708Z" fill="#578BDA" fill-opacity="0.73"/>
<path d="M793.309 636.766C793.309 630.06 797.981 621.845 803.744 618.416C809.507 614.987 814.179 617.644 814.179 624.35V643.237C814.179 649.943 809.507 658.158 803.744 661.587C797.981 665.016 793.309 662.359 793.309 655.653V636.766Z" fill="#93D383"/>
<rect width="188.89" height="36.2226" rx="18.1113" transform="matrix(0.878817 0.477159 0 1 269 1144)" fill="#7EFA84"/>
<rect width="47.9283" height="47.9283" rx="23.9642" transform="matrix(0.878817 0.477159 0 1 450 1237)" fill="#EDEDED"/>
<rect width="31.7634" height="31.7634" rx="15.8817" transform="matrix(0.878817 0.477159 0 1 510.103 1278.94)" fill="#EDEDED"/>
<g filter="url(#filter1_d)">
<path d="M805.376 1195.45C824.362 1184.16 839.753 1157.09 839.753 1135C839.753 1112.91 824.362 1104.16 805.376 1115.45C786.391 1126.75 771 1153.81 771 1175.9C771 1197.99 786.391 1206.75 805.376 1195.45ZM805.376 1195.45V1370.41M1006.38 1187.45C1025.36 1176.16 1040.75 1149.09 1040.75 1127C1040.75 1104.91 1025.36 1096.16 1006.38 1107.45C987.391 1118.75 972 1145.81 972 1167.9C972 1189.99 987.391 1198.75 1006.38 1187.45ZM1006.38 1187.45V1250.83M916.376 1012.45C935.362 1001.16 950.753 974.091 950.753 952C950.753 929.909 935.362 921.157 916.376 932.452C897.391 943.747 882 970.812 882 992.903C882 1014.99 897.391 1023.75 916.376 1012.45ZM916.376 1012.45V1304.37M730.069 1415.21L1061.4 1218.09C1074.69 1210.19 1085.46 1191.24 1085.46 1175.78V380C1085.46 364.536 1074.69 358.41 1061.4 366.316L730.069 563.435C716.779 571.341 706.006 590.287 706.006 605.751V1401.53C706.006 1416.99 716.779 1423.12 730.069 1415.21Z" stroke="#A3E9A2" stroke-width="12"/>
</g>
<path d="M241.685 447L334.547 497.42" stroke="#A7E7A6" stroke-width="12"/>
<path d="M389.255 600.328L296.393 549.908" stroke="#A7E7A6" stroke-width="12"/>
<path d="M550.851 652.131L457.989 601.711" stroke="#A7E7A6" stroke-width="12"/>
<path d="M476.786 574.65L569.648 625.07" stroke="#A7E7A6" stroke-width="12"/>
<path d="M334.547 534.688L241.685 484.268" stroke="#A7E7A6" stroke-width="12"/>
<path d="M334.547 641.167L241.685 590.747" stroke="#A7E7A6" stroke-width="12"/>
<path d="M301.723 663.275L241.685 630.677" stroke="#A7E7A6" stroke-width="12"/>
<path d="M344.927 503.056L389.254 527.124" stroke="#A7E7A6" stroke-width="12"/>
<path d="M275.91 574.725L389.252 636.265" stroke="#A7E7A6" stroke-width="12"/>
<path d="M366.811 658.684L480.153 720.224" stroke="#A7E7A6" stroke-width="12"/>
<path d="M309.579 667.539L383.083 707.449" stroke="#A7E7A6" stroke-width="12"/>
<path d="M286.012 544.272L241.685 520.205" stroke="#A7E7A6" stroke-width="12"/>
<path d="M447.608 596.075L403.281 572.008" stroke="#A7E7A6" stroke-width="12"/>
<path d="M399.354 532.607L415.064 541.138" stroke="#A7E7A6" stroke-width="12"/>
<path d="M425.164 546.622L440.875 555.152" stroke="#A7E7A6" stroke-width="12"/>
<path d="M386.168 562.716L370.457 554.186" stroke="#A7E7A6" stroke-width="12"/>
<path d="M450.975 560.635L466.686 569.166" stroke="#A7E7A6" stroke-width="12"/>
<path d="M360.357 548.702L344.646 540.172" stroke="#A7E7A6" stroke-width="12"/>
<path d="M358.393 654.115L342.682 645.585" stroke="#A7E7A6" stroke-width="12"/>
<path d="M241.685 740.019L334.547 790.439" stroke="#A7E7A6" stroke-width="12"/>
<path d="M389.255 893.347L296.393 842.927" stroke="#A7E7A6" stroke-width="12"/>
<path d="M550.851 945.151L457.989 894.731" stroke="#A7E7A6" stroke-width="12"/>
<path d="M476.786 867.669L569.648 918.089" stroke="#A7E7A6" stroke-width="12"/>
<path d="M334.547 827.707L241.685 777.287" stroke="#A7E7A6" stroke-width="12"/>
<path d="M334.547 739.729L241.685 689.309" stroke="#A7E7A6" stroke-width="12"/>
<path d="M334.547 934.186L241.685 883.766" stroke="#A7E7A6" stroke-width="12"/>
<path d="M301.723 956.294L241.685 923.696" stroke="#A7E7A6" stroke-width="12"/>
<path d="M344.927 796.075L389.254 820.143" stroke="#A7E7A6" stroke-width="12"/>
<path d="M275.911 867.745L389.253 929.284" stroke="#A7E7A6" stroke-width="12"/>
<path d="M366.811 951.703L480.153 1013.24" stroke="#A7E7A6" stroke-width="12"/>
<path d="M309.579 960.558L383.083 1000.47" stroke="#A7E7A6" stroke-width="12"/>
<path d="M286.012 837.291L241.685 813.224" stroke="#A7E7A6" stroke-width="12"/>
<path d="M447.608 889.095L403.281 865.027" stroke="#A7E7A6" stroke-width="12"/>
<path d="M399.354 825.627L415.064 834.157" stroke="#A7E7A6" stroke-width="12"/>
<path d="M346.354 745.831L362.065 754.361" stroke="#A7E7A6" stroke-width="12"/>
<path d="M425.165 839.641L440.875 848.171" stroke="#A7E7A6" stroke-width="12"/>
<path d="M386.168 855.735L370.457 847.205" stroke="#A7E7A6" stroke-width="12"/>
<path d="M450.975 853.655L466.686 862.185" stroke="#A7E7A6" stroke-width="12"/>
<path d="M360.357 841.721L344.646 833.191" stroke="#A7E7A6" stroke-width="12"/>
<path d="M358.393 947.134L342.682 938.604" stroke="#A7E7A6" stroke-width="12"/>
<defs>
<filter id="filter0_d" x="0" y="991" width="1270" height="761" filterUnits="userSpaceOnUse" color-interpolation-filters="sRGB">
<feFlood flood-opacity="0" result="BackgroundImageFix"/>
<feColorMatrix in="SourceAlpha" type="matrix" values="0 0 0 0 0 0 0 0 0 0 0 0 0 0 0 0 0 0 127 0"/>
<feOffset dy="4"/>
<feGaussianBlur stdDeviation="39"/>
<feColorMatrix type="matrix" values="0 0 0 0 0 0 0 0 0 0 0 0 0 0 0 0 0 0 0.12 0"/>
<feBlend mode="normal" in2="BackgroundImageFix" result="effect1_dropShadow"/>
<feBlend mode="normal" in="SourceGraphic" in2="effect1_dropShadow" result="shape"/>
</filter>
<filter id="filter1_d" x="696.006" y="356.857" width="395.453" height="1067.81" filterUnits="userSpaceOnUse" color-interpolation-filters="sRGB">
<feFlood flood-opacity="0" result="BackgroundImageFix"/>
<feColorMatrix in="SourceAlpha" type="matrix" values="0 0 0 0 0 0 0 0 0 0 0 0 0 0 0 0 0 0 127 0"/>
<feOffset dx="-4"/>
<feColorMatrix type="matrix" values="0 0 0 0 0.463667 0 0 0 0 0.891667 0 0 0 0 0.456979 0 0 0 1 0"/>
<feBlend mode="normal" in2="BackgroundImageFix" result="effect1_dropShadow"/>
<feBlend mode="normal" in="SourceGraphic" in2="effect1_dropShadow" result="shape"/>
</filter>
<linearGradient id="paint0_linear" x1="114.5" y1="269" x2="1146.5" y2="269" gradientUnits="userSpaceOnUse">
<stop stop-color="#CFCFCF"/>
<stop offset="1" stop-color="#FAFAFA"/>
</linearGradient>
<linearGradient id="paint1_linear" x1="114.494" y1="269" x2="1146.49" y2="269" gradientUnits="userSpaceOnUse">
<stop stop-color="#CFCFCF"/>
<stop offset="1" stop-color="#FAFAFA"/>
</linearGradient>
<linearGradient id="paint2_linear" x1="590" y1="441.5" x2="111" y2="1209.5" gradientUnits="userSpaceOnUse">
<stop stop-color="#C1C1C1"/>
<stop offset="1" stop-color="#E0E0E0"/>
</linearGradient>
<linearGradient id="paint3_linear" x1="1150.5" y1="266" x2="671.5" y2="1536" gradientUnits="userSpaceOnUse">
<stop stop-color="#D2D2D2"/>
<stop offset="1" stop-color="#EBEBEB"/>
</linearGradient>
</defs>
</svg>
