<svg width="1526" height="1585" viewBox="0 0 1526 1585" fill="none" xmlns="http://www.w3.org/2000/svg">
<g filter="url(#filter0_d)">
<path fill-rule="evenodd" clip-rule="evenodd" d="M76.2201 1019.31C104.532 1003.94 150.436 1003.94 178.748 1019.31L381.832 1129.57L580.972 1021.45L377.888 911.193C349.576 895.821 349.576 870.9 377.888 855.528C406.201 840.157 452.104 840.157 480.416 855.528L683.5 965.787L886.584 855.528C914.896 840.157 960.799 840.157 989.112 855.528C1017.42 870.9 1017.42 895.822 989.112 911.193L786.028 1021.45L985.168 1129.57L1188.25 1019.31C1216.56 1003.94 1262.47 1003.94 1290.78 1019.31C1319.09 1034.68 1319.09 1059.6 1290.78 1074.97L1087.7 1185.23L1291.77 1296.03C1320.08 1311.4 1320.08 1336.32 1291.77 1351.69C1263.45 1367.06 1217.55 1367.06 1189.24 1351.69L985.168 1240.9L786.028 1349.01L990.098 1459.81C1018.41 1475.18 1018.41 1500.1 990.098 1515.47C961.785 1530.84 915.882 1530.84 887.57 1515.47L683.5 1404.68L479.43 1515.47C451.118 1530.84 405.215 1530.84 376.902 1515.47C348.59 1500.1 348.59 1475.18 376.902 1459.81L580.972 1349.01L381.832 1240.9L177.762 1351.69C149.45 1367.06 103.546 1367.06 75.2342 1351.69C46.9219 1336.32 46.9219 1311.4 75.2342 1296.03L279.304 1185.23L76.2201 1074.97C47.9078 1059.6 47.9078 1034.68 76.2201 1019.31ZM484.36 1185.23L683.5 1293.35L882.641 1185.23L683.5 1077.12L484.36 1185.23Z" fill="white" fill-opacity="0.01"/>
</g>
<path fill-rule="evenodd" clip-rule="evenodd" d="M76.2201 799.31C104.532 783.939 150.436 783.939 178.748 799.31L381.832 909.568L580.972 801.451L377.888 691.193C349.576 675.821 349.576 650.9 377.888 635.528C406.201 620.157 452.104 620.157 480.416 635.528L683.5 745.787L886.584 635.528C914.896 620.157 960.799 620.157 989.112 635.528C1017.42 650.9 1017.42 675.822 989.112 691.193L786.028 801.451L985.168 909.568L1188.25 799.31C1216.56 783.939 1262.47 783.939 1290.78 799.31C1319.09 814.681 1319.09 839.603 1290.78 854.974L1087.7 965.232L1291.77 1076.03C1320.08 1091.4 1320.08 1116.32 1291.77 1131.69C1263.45 1147.06 1217.55 1147.06 1189.24 1131.69L985.168 1020.9L786.028 1129.01L990.098 1239.81C1018.41 1255.18 1018.41 1280.1 990.098 1295.47C961.785 1310.84 915.882 1310.84 887.57 1295.47L683.5 1184.68L479.43 1295.47C451.118 1310.84 405.215 1310.84 376.902 1295.47C348.59 1280.1 348.59 1255.18 376.902 1239.81L580.972 1129.01L381.832 1020.9L177.762 1131.69C149.45 1147.06 103.546 1147.06 75.2342 1131.69C46.9219 1116.32 46.9219 1091.4 75.2342 1076.03L279.304 965.232L76.2201 854.974C47.9078 839.603 47.9078 814.681 76.2201 799.31ZM484.36 965.232L683.5 1073.35L882.641 965.232L683.5 857.115L484.36 965.232Z" fill="#B4B4B4"/>
<path fill-rule="evenodd" clip-rule="evenodd" d="M76.2201 809.31C104.532 793.939 150.436 793.939 178.748 809.31L381.832 919.568L580.972 811.451L377.888 701.193C349.576 685.821 349.576 660.9 377.888 645.528C406.201 630.157 452.104 630.157 480.416 645.528L683.5 755.787L886.584 645.528C914.896 630.157 960.799 630.157 989.112 645.528C1017.42 660.9 1017.42 685.822 989.112 701.193L786.028 811.451L985.168 919.568L1188.25 809.31C1216.56 793.939 1262.47 793.939 1290.78 809.31C1319.09 824.681 1319.09 849.603 1290.78 864.974L1087.7 975.232L1291.77 1086.03C1320.08 1101.4 1320.08 1126.32 1291.77 1141.69C1263.45 1157.06 1217.55 1157.06 1189.24 1141.69L985.168 1030.9L786.028 1139.01L990.098 1249.81C1018.41 1265.18 1018.41 1290.1 990.098 1305.47C961.785 1320.84 915.882 1320.84 887.57 1305.47L683.5 1194.68L479.43 1305.47C451.118 1320.84 405.215 1320.84 376.902 1305.47C348.59 1290.1 348.59 1265.18 376.902 1249.81L580.972 1139.01L381.832 1030.9L177.762 1141.69C149.45 1157.06 103.546 1157.06 75.2342 1141.69C46.9219 1126.32 46.9219 1101.4 75.2342 1086.03L279.304 975.232L76.2201 864.974C47.9078 849.603 47.9078 824.681 76.2201 809.31ZM484.36 975.232L683.5 1083.35L882.641 975.232L683.5 867.115L484.36 975.232Z" fill="#B4B4B4"/>
<path fill-rule="evenodd" clip-rule="evenodd" d="M76.2201 819.31C104.532 803.939 150.436 803.939 178.748 819.31L381.832 929.568L580.972 821.451L377.888 711.193C349.576 695.821 349.576 670.9 377.888 655.528C406.201 640.157 452.104 640.157 480.416 655.528L683.5 765.787L886.584 655.528C914.896 640.157 960.799 640.157 989.112 655.528C1017.42 670.9 1017.42 695.822 989.112 711.193L786.028 821.451L985.168 929.568L1188.25 819.31C1216.56 803.939 1262.47 803.939 1290.78 819.31C1319.09 834.681 1319.09 859.603 1290.78 874.974L1087.7 985.232L1291.77 1096.03C1320.08 1111.4 1320.08 1136.32 1291.77 1151.69C1263.45 1167.06 1217.55 1167.06 1189.24 1151.69L985.168 1040.9L786.028 1149.01L990.098 1259.81C1018.41 1275.18 1018.41 1300.1 990.098 1315.47C961.785 1330.84 915.882 1330.84 887.57 1315.47L683.5 1204.68L479.43 1315.47C451.118 1330.84 405.215 1330.84 376.902 1315.47C348.59 1300.1 348.59 1275.18 376.902 1259.81L580.972 1149.01L381.832 1040.9L177.762 1151.69C149.45 1167.06 103.546 1167.06 75.2342 1151.69C46.9219 1136.32 46.9219 1111.4 75.2342 1096.03L279.304 985.232L76.2201 874.974C47.9078 859.603 47.9078 834.681 76.2201 819.31ZM484.36 985.232L683.5 1093.35L882.641 985.232L683.5 877.115L484.36 985.232Z" fill="#B4B4B4"/>
<path fill-rule="evenodd" clip-rule="evenodd" d="M76.2201 829.31C104.532 813.939 150.436 813.939 178.748 829.31L381.832 939.568L580.972 831.451L377.888 721.193C349.576 705.821 349.576 680.9 377.888 665.528C406.201 650.157 452.104 650.157 480.416 665.528L683.5 775.787L886.584 665.528C914.896 650.157 960.799 650.157 989.112 665.528C1017.42 680.9 1017.42 705.822 989.112 721.193L786.028 831.451L985.168 939.568L1188.25 829.31C1216.56 813.939 1262.47 813.939 1290.78 829.31C1319.09 844.681 1319.09 869.603 1290.78 884.974L1087.7 995.232L1291.77 1106.03C1320.08 1121.4 1320.08 1146.32 1291.77 1161.69C1263.45 1177.06 1217.55 1177.06 1189.24 1161.69L985.168 1050.9L786.028 1159.01L990.098 1269.81C1018.41 1285.18 1018.41 1310.1 990.098 1325.47C961.785 1340.84 915.882 1340.84 887.57 1325.47L683.5 1214.68L479.43 1325.47C451.118 1340.84 405.215 1340.84 376.902 1325.47C348.59 1310.1 348.59 1285.18 376.902 1269.81L580.972 1159.01L381.832 1050.9L177.762 1161.69C149.45 1177.06 103.546 1177.06 75.2342 1161.69C46.9219 1146.32 46.9219 1121.4 75.2342 1106.03L279.304 995.232L76.2201 884.974C47.9078 869.603 47.9078 844.681 76.2201 829.31ZM484.36 995.232L683.5 1103.35L882.641 995.232L683.5 887.115L484.36 995.232Z" fill="#B4B4B4"/>
<path fill-rule="evenodd" clip-rule="evenodd" d="M76.2201 839.31C104.532 823.939 150.436 823.939 178.748 839.31L381.832 949.568L580.972 841.451L377.888 731.193C349.576 715.821 349.576 690.9 377.888 675.528C406.201 660.157 452.104 660.157 480.416 675.528L683.5 785.787L886.584 675.528C914.896 660.157 960.799 660.157 989.112 675.528C1017.42 690.9 1017.42 715.822 989.112 731.193L786.028 841.451L985.168 949.568L1188.25 839.31C1216.56 823.939 1262.47 823.939 1290.78 839.31C1319.09 854.681 1319.09 879.603 1290.78 894.974L1087.7 1005.23L1291.77 1116.03C1320.08 1131.4 1320.08 1156.32 1291.77 1171.69C1263.45 1187.06 1217.55 1187.06 1189.24 1171.69L985.168 1060.9L786.028 1169.01L990.098 1279.81C1018.41 1295.18 1018.41 1320.1 990.098 1335.47C961.785 1350.84 915.882 1350.84 887.57 1335.47L683.5 1224.68L479.43 1335.47C451.118 1350.84 405.215 1350.84 376.902 1335.47C348.59 1320.1 348.59 1295.18 376.902 1279.81L580.972 1169.01L381.832 1060.9L177.762 1171.69C149.45 1187.06 103.546 1187.06 75.2342 1171.69C46.9219 1156.32 46.9219 1131.4 75.2342 1116.03L279.304 1005.23L76.2201 894.974C47.9078 879.603 47.9078 854.681 76.2201 839.31ZM484.36 1005.23L683.5 1113.35L882.641 1005.23L683.5 897.115L484.36 1005.23Z" fill="#B4B4B4"/>
<path fill-rule="evenodd" clip-rule="evenodd" d="M76.2201 849.31C104.532 833.939 150.436 833.939 178.748 849.31L381.832 959.568L580.972 851.451L377.888 741.193C349.576 725.821 349.576 700.9 377.888 685.528C406.201 670.157 452.104 670.157 480.416 685.528L683.5 795.787L886.584 685.528C914.896 670.157 960.799 670.157 989.112 685.528C1017.42 700.9 1017.42 725.822 989.112 741.193L786.028 851.451L985.168 959.568L1188.25 849.31C1216.56 833.939 1262.47 833.939 1290.78 849.31C1319.09 864.681 1319.09 889.603 1290.78 904.974L1087.7 1015.23L1291.77 1126.03C1320.08 1141.4 1320.08 1166.32 1291.77 1181.69C1263.45 1197.06 1217.55 1197.06 1189.24 1181.69L985.168 1070.9L786.028 1179.01L990.098 1289.81C1018.41 1305.18 1018.41 1330.1 990.098 1345.47C961.785 1360.84 915.882 1360.84 887.57 1345.47L683.5 1234.68L479.43 1345.47C451.118 1360.84 405.215 1360.84 376.902 1345.47C348.59 1330.1 348.59 1305.18 376.902 1289.81L580.972 1179.01L381.832 1070.9L177.762 1181.69C149.45 1197.06 103.546 1197.06 75.2342 1181.69C46.9219 1166.32 46.9219 1141.4 75.2342 1126.03L279.304 1015.23L76.2201 904.974C47.9078 889.603 47.9078 864.681 76.2201 849.31ZM484.36 1015.23L683.5 1123.35L882.641 1015.23L683.5 907.115L484.36 1015.23Z" fill="#B4B4B4"/>
<path fill-rule="evenodd" clip-rule="evenodd" d="M76.2201 859.31C104.532 843.939 150.436 843.939 178.748 859.31L381.832 969.568L580.972 861.451L377.888 751.193C349.576 735.821 349.576 710.9 377.888 695.528C406.201 680.157 452.104 680.157 480.416 695.528L683.5 805.787L886.584 695.528C914.896 680.157 960.799 680.157 989.112 695.528C1017.42 710.9 1017.42 735.822 989.112 751.193L786.028 861.451L985.168 969.568L1188.25 859.31C1216.56 843.939 1262.47 843.939 1290.78 859.31C1319.09 874.681 1319.09 899.603 1290.78 914.974L1087.7 1025.23L1291.77 1136.03C1320.08 1151.4 1320.08 1176.32 1291.77 1191.69C1263.45 1207.06 1217.55 1207.06 1189.24 1191.69L985.168 1080.9L786.028 1189.01L990.098 1299.81C1018.41 1315.18 1018.41 1340.1 990.098 1355.47C961.785 1370.84 915.882 1370.84 887.57 1355.47L683.5 1244.68L479.43 1355.47C451.118 1370.84 405.215 1370.84 376.902 1355.47C348.59 1340.1 348.59 1315.18 376.902 1299.81L580.972 1189.01L381.832 1080.9L177.762 1191.69C149.45 1207.06 103.546 1207.06 75.2342 1191.69C46.9219 1176.32 46.9219 1151.4 75.2342 1136.03L279.304 1025.23L76.2201 914.974C47.9078 899.603 47.9078 874.681 76.2201 859.31ZM484.36 1025.23L683.5 1133.35L882.641 1025.23L683.5 917.115L484.36 1025.23Z" fill="#B4B4B4"/>
<path fill-rule="evenodd" clip-rule="evenodd" d="M76.2201 869.31C104.532 853.939 150.436 853.939 178.748 869.31L381.832 979.568L580.972 871.451L377.888 761.193C349.576 745.821 349.576 720.9 377.888 705.528C406.201 690.157 452.104 690.157 480.416 705.528L683.5 815.787L886.584 705.528C914.896 690.157 960.799 690.157 989.112 705.528C1017.42 720.9 1017.42 745.822 989.112 761.193L786.028 871.451L985.168 979.568L1188.25 869.31C1216.56 853.939 1262.47 853.939 1290.78 869.31C1319.09 884.681 1319.09 909.603 1290.78 924.974L1087.7 1035.23L1291.77 1146.03C1320.08 1161.4 1320.08 1186.32 1291.77 1201.69C1263.45 1217.06 1217.55 1217.06 1189.24 1201.69L985.168 1090.9L786.028 1199.01L990.098 1309.81C1018.41 1325.18 1018.41 1350.1 990.098 1365.47C961.785 1380.84 915.882 1380.84 887.57 1365.47L683.5 1254.68L479.43 1365.47C451.118 1380.84 405.215 1380.84 376.902 1365.47C348.59 1350.1 348.59 1325.18 376.902 1309.81L580.972 1199.01L381.832 1090.9L177.762 1201.69C149.45 1217.06 103.546 1217.06 75.2342 1201.69C46.9219 1186.32 46.9219 1161.4 75.2342 1146.03L279.304 1035.23L76.2201 924.974C47.9078 909.603 47.9078 884.681 76.2201 869.31ZM484.36 1035.23L683.5 1143.35L882.641 1035.23L683.5 927.115L484.36 1035.23Z" fill="#B4B4B4"/>
<path fill-rule="evenodd" clip-rule="evenodd" d="M76.2201 879.31C104.532 863.939 150.436 863.939 178.748 879.31L381.832 989.568L580.972 881.451L377.888 771.193C349.576 755.821 349.576 730.9 377.888 715.528C406.201 700.157 452.104 700.157 480.416 715.528L683.5 825.787L886.584 715.528C914.896 700.157 960.799 700.157 989.112 715.528C1017.42 730.9 1017.42 755.822 989.112 771.193L786.028 881.451L985.168 989.568L1188.25 879.31C1216.56 863.939 1262.47 863.939 1290.78 879.31C1319.09 894.681 1319.09 919.603 1290.78 934.974L1087.7 1045.23L1291.77 1156.03C1320.08 1171.4 1320.08 1196.32 1291.77 1211.69C1263.45 1227.06 1217.55 1227.06 1189.24 1211.69L985.168 1100.9L786.028 1209.01L990.098 1319.81C1018.41 1335.18 1018.41 1360.1 990.098 1375.47C961.785 1390.84 915.882 1390.84 887.57 1375.47L683.5 1264.68L479.43 1375.47C451.118 1390.84 405.215 1390.84 376.902 1375.47C348.59 1360.1 348.59 1335.18 376.902 1319.81L580.972 1209.01L381.832 1100.9L177.762 1211.69C149.45 1227.06 103.546 1227.06 75.2342 1211.69C46.9219 1196.32 46.9219 1171.4 75.2342 1156.03L279.304 1045.23L76.2201 934.974C47.9078 919.603 47.9078 894.681 76.2201 879.31ZM484.36 1045.23L683.5 1153.35L882.641 1045.23L683.5 937.115L484.36 1045.23Z" fill="#B4B4B4"/>
<path fill-rule="evenodd" clip-rule="evenodd" d="M76.2201 889.31C104.532 873.939 150.436 873.939 178.748 889.31L381.832 999.568L580.972 891.451L377.888 781.193C349.576 765.821 349.576 740.9 377.888 725.528C406.201 710.157 452.104 710.157 480.416 725.528L683.5 835.787L886.584 725.528C914.896 710.157 960.799 710.157 989.112 725.528C1017.42 740.9 1017.42 765.822 989.112 781.193L786.028 891.451L985.168 999.568L1188.25 889.31C1216.56 873.939 1262.47 873.939 1290.78 889.31C1319.09 904.681 1319.09 929.603 1290.78 944.974L1087.7 1055.23L1291.77 1166.03C1320.08 1181.4 1320.08 1206.32 1291.77 1221.69C1263.45 1237.06 1217.55 1237.06 1189.24 1221.69L985.168 1110.9L786.028 1219.01L990.098 1329.81C1018.41 1345.18 1018.41 1370.1 990.098 1385.47C961.785 1400.84 915.882 1400.84 887.57 1385.47L683.5 1274.68L479.43 1385.47C451.118 1400.84 405.215 1400.84 376.902 1385.47C348.59 1370.1 348.59 1345.18 376.902 1329.81L580.972 1219.01L381.832 1110.9L177.762 1221.69C149.45 1237.06 103.546 1237.06 75.2342 1221.69C46.9219 1206.32 46.9219 1181.4 75.2342 1166.03L279.304 1055.23L76.2201 944.974C47.9078 929.603 47.9078 904.681 76.2201 889.31ZM484.36 1055.23L683.5 1163.35L882.641 1055.23L683.5 947.115L484.36 1055.23Z" fill="#B4B4B4"/>
<path fill-rule="evenodd" clip-rule="evenodd" d="M76.2201 889.31C104.532 873.939 150.436 873.939 178.748 889.31L381.832 999.568L580.972 891.451L377.888 781.193C349.576 765.821 349.576 740.9 377.888 725.528C406.201 710.157 452.104 710.157 480.416 725.528L683.5 835.787L886.584 725.528C914.896 710.157 960.799 710.157 989.112 725.528C1017.42 740.9 1017.42 765.822 989.112 781.193L786.028 891.451L985.168 999.568L1188.25 889.31C1216.56 873.939 1262.47 873.939 1290.78 889.31C1319.09 904.681 1319.09 929.603 1290.78 944.974L1087.7 1055.23L1291.77 1166.03C1320.08 1181.4 1320.08 1206.32 1291.77 1221.69C1263.45 1237.06 1217.55 1237.06 1189.24 1221.69L985.168 1110.9L786.028 1219.01L990.098 1329.81C1018.41 1345.18 1018.41 1370.1 990.098 1385.47C961.785 1400.84 915.882 1400.84 887.57 1385.47L683.5 1274.68L479.43 1385.47C451.118 1400.84 405.215 1400.84 376.902 1385.47C348.59 1370.1 348.59 1345.18 376.902 1329.81L580.972 1219.01L381.832 1110.9L177.762 1221.69C149.45 1237.06 103.546 1237.06 75.2342 1221.69C46.9219 1206.32 46.9219 1181.4 75.2342 1166.03L279.304 1055.23L76.2201 944.974C47.9078 929.603 47.9078 904.681 76.2201 889.31ZM484.36 1055.23L683.5 1163.35L882.641 1055.23L683.5 947.115L484.36 1055.23Z" fill="#B4B4B4"/>
<path fill-rule="evenodd" clip-rule="evenodd" d="M76.2201 785.31C104.532 769.939 150.436 769.939 178.748 785.31L381.832 895.568L580.972 787.451L377.888 677.193C349.576 661.821 349.576 636.9 377.888 621.528C406.201 606.157 452.104 606.157 480.416 621.528L683.5 731.787L886.584 621.528C914.896 606.157 960.799 606.157 989.112 621.528C1017.42 636.9 1017.42 661.822 989.112 677.193L786.028 787.451L985.168 895.568L1188.25 785.31C1216.56 769.939 1262.47 769.939 1290.78 785.31C1319.09 800.681 1319.09 825.603 1290.78 840.974L1087.7 951.232L1291.77 1062.03C1320.08 1077.4 1320.08 1102.32 1291.77 1117.69C1263.45 1133.06 1217.55 1133.06 1189.24 1117.69L985.168 1006.9L786.028 1115.01L990.098 1225.81C1018.41 1241.18 1018.41 1266.1 990.098 1281.47C961.785 1296.84 915.882 1296.84 887.57 1281.47L683.5 1170.68L479.43 1281.47C451.118 1296.84 405.215 1296.84 376.902 1281.47C348.59 1266.1 348.59 1241.18 376.902 1225.81L580.972 1115.01L381.832 1006.9L177.762 1117.69C149.45 1133.06 103.546 1133.06 75.2342 1117.69C46.9219 1102.32 46.9219 1077.4 75.2342 1062.03L279.304 951.232L76.2201 840.974C47.9078 825.603 47.9078 800.681 76.2201 785.31ZM484.36 951.232L683.5 1059.35L882.641 951.232L683.5 843.115L484.36 951.232Z" fill="white"/>
<path d="M305.646 1154.24C305.646 1161.56 303.468 1169.05 299.113 1176.71C294.838 1184.23 289.554 1189.86 283.263 1193.6C277.052 1197.3 271.768 1197.91 267.413 1195.43C263.138 1192.9 261 1188.03 261 1180.8C261 1173.57 263.138 1166.2 267.413 1158.68C271.768 1151.02 277.052 1145.35 283.263 1141.65C289.474 1137.96 294.757 1137.35 299.113 1139.82C303.468 1142.21 305.646 1147.01 305.646 1154.24Z" fill="#1681C5"/>
<path d="M303.106 1326.4L263.42 1350.01V1219.36L303.106 1195.74V1326.4Z" fill="#1681C5"/>
<path d="M437.315 1246.55L397.629 1270.16V1203.99C397.629 1192.44 396.5 1185.47 394.241 1183.06C390.934 1179.49 385.973 1179.67 379.359 1183.6C373.309 1187.2 368.227 1192.62 364.114 1199.85C360.403 1206.38 358.548 1214.24 358.548 1223.44V1293.41L318.862 1317.02V1186.37L358.548 1162.76V1179.23C363.146 1170.3 367.381 1163.42 371.252 1158.58C377.544 1150.71 385.408 1143.96 394.846 1138.35C406.945 1131.15 416.786 1129.1 424.368 1132.19C432.999 1135.69 437.315 1146.07 437.315 1163.34V1246.55Z" fill="#1681C5"/>
<path d="M1419.57 999.499L1424.47 990.943C1433.92 974.334 1452 957.957 1452 943.5C1452 928.984 1439 917 1424.47 910.899C1404.5 904.5 1381.29 917.167 1362.35 950.415L1357.5 959L1352.6 956.214C1333.71 945.472 1296.08 965.302 1277.19 998.52C1267.7 1015.16 1263 1032.47 1263 1046.99C1263 1061.44 1266.5 1073.66 1276 1079L1284 1083.5L1348.33 1119.02C1349.71 1119.8 1351.95 1118.47 1353.33 1116.05L1419.57 999.499Z" fill="#A45055" stroke="#303030" stroke-width="0.7" stroke-miterlimit="10" stroke-linecap="round" stroke-linejoin="round"/>
<path d="M1433.57 1008.5L1438.47 999.942C1447.92 983.334 1452.61 965.964 1452.61 951.507C1452.61 936.991 1447.92 925.269 1438.47 919.898C1419.58 909.157 1388.62 927.576 1369.68 960.824L1364.83 969.41L1359.93 966.624C1341.04 955.882 1310.08 974.302 1291.19 1007.52C1281.7 1024.16 1277 1041.47 1277 1055.99C1277 1070.44 1281.7 1082.22 1291.19 1087.56L1296.04 1090.32L1362.33 1128.02C1363.71 1128.8 1365.95 1127.47 1367.33 1125.05L1433.57 1008.5Z" fill="#EF4B53"/>
<path d="M1433.57 1008.5L1438.47 999.942C1447.92 983.334 1452.61 965.964 1452.61 951.507C1452.61 936.991 1447.92 925.269 1438.47 919.898C1419.58 909.157 1388.62 927.576 1369.68 960.824L1364.83 969.41L1359.93 966.624C1341.04 955.882 1310.08 974.302 1291.19 1007.52C1281.7 1024.16 1277 1041.47 1277 1055.99C1277 1070.44 1281.7 1082.22 1291.19 1087.56L1296.04 1090.32L1362.33 1128.02C1363.71 1128.8 1365.95 1127.47 1367.33 1125.05L1433.57 1008.5Z" stroke="#303030" stroke-width="0.7" stroke-miterlimit="10" stroke-linecap="round" stroke-linejoin="round"/>
<path d="M1291.26 1052.98C1291.26 1055.96 1291.5 1058.81 1291.98 1061.47" stroke="#303030" stroke-width="0.7" stroke-miterlimit="10" stroke-linecap="round" stroke-linejoin="round"/>
<path d="M1324.15 986.953C1316.44 993.266 1309.09 1001.96 1303.15 1012.39C1298.77 1020.07 1295.6 1027.93 1293.65 1035.47" stroke="#303030" stroke-width="0.7" stroke-miterlimit="10" stroke-linecap="round" stroke-linejoin="round"/>
<path d="M734.635 1187.13C730.983 1185.06 727.262 1183.15 724.996 1182.26C717.269 1179.23 711.3 1178 705.326 1178.2C689.138 1178.75 679.01 1192.7 679 1214.47C678.992 1230.34 686.145 1251.23 695.268 1261.99C696.962 1263.99 697.6 1264.58 697.895 1264.4C698.28 1264.18 700.901 1253.97 700.901 1252.69C700.901 1252.33 700.433 1251.08 699.859 1249.91C698.195 1246.52 695.911 1239.34 694.989 1234.6C693.936 1229.18 693.599 1222.88 694.132 1218.56C696.385 1200.3 708.563 1192.61 725.327 1198.86C729.317 1200.35 736.861 1204.71 740.865 1207.84C752.18 1216.68 761.18 1229.48 765.962 1243.53C768.3 1250.39 769.311 1255.83 769.548 1262.83C770.386 1287.47 760.997 1302.06 747.138 1297.64C743.458 1296.46 738.736 1293.43 736.199 1290.6C731.898 1285.82 728.933 1279.25 728.616 1273.81C728.429 1270.6 728.978 1268.1 732.083 1258C736.108 1244.91 736.71 1240.34 735.244 1233.98C734.286 1229.83 731.884 1225.57 729.024 1222.95C726.178 1220.35 723.061 1218.89 720.31 1218.87C717.85 1218.86 714.749 1220.65 713.306 1222.92C710.024 1228.09 709.59 1238.6 712.238 1248.74L713.036 1251.8L707.84 1274.38C704.982 1286.79 702.458 1298.32 702.231 1300C701.825 1303.01 701.986 1319.24 702.459 1322.96C702.467 1323.03 702.467 1334.49 702.475 1334.55L709.285 1327.05C709.354 1326.95 709.415 1326.86 709.487 1326.76C712.477 1322.58 716.333 1315.34 717.542 1311.62C718.16 1309.71 719.786 1303.81 721.155 1298.49C722.777 1292.2 723.814 1288.85 724.132 1288.89C724.399 1288.93 724.684 1289.25 724.764 1289.6C724.843 1289.95 725.989 1292.1 727.311 1294.38C734.063 1306.01 745.405 1314.4 757.101 1316.41C763.042 1317.43 767.773 1316.62 772.678 1313.73C783.023 1307.64 788.704 1292.65 788.071 1273.11C787.575 1257.77 783.167 1243.47 774.047 1227.62C765.933 1213.51 756.326 1202.48 743.866 1192.95C741.871 1191.42 738.287 1189.2 734.635 1187.13L734.635 1187.13Z" fill="#C81111"/>
<path d="M738.635 1187.13C734.983 1185.06 731.262 1183.15 728.996 1182.26C721.269 1179.23 715.3 1178 709.326 1178.2C693.138 1178.75 683.01 1192.7 683 1214.47C682.992 1230.34 690.145 1251.23 699.268 1261.99C700.962 1263.99 701.6 1264.58 701.895 1264.4C702.28 1264.18 704.901 1253.97 704.901 1252.69C704.901 1252.33 704.433 1251.08 703.859 1249.91C702.195 1246.52 699.911 1239.34 698.989 1234.6C697.936 1229.18 697.599 1222.88 698.132 1218.56C700.385 1200.3 712.563 1192.61 729.327 1198.86C733.317 1200.35 740.861 1204.71 744.865 1207.84C756.18 1216.68 765.18 1229.48 769.962 1243.53C772.3 1250.39 773.311 1255.83 773.548 1262.83C774.386 1287.47 764.997 1302.06 751.138 1297.64C747.458 1296.46 742.736 1293.43 740.199 1290.6C735.898 1285.82 732.933 1279.25 732.616 1273.81C732.429 1270.6 732.978 1268.1 736.083 1258C740.108 1244.91 740.71 1240.34 739.244 1233.98C738.286 1229.83 735.884 1225.57 733.024 1222.95C730.178 1220.35 727.061 1218.89 724.31 1218.87C721.85 1218.86 718.749 1220.65 717.306 1222.92C714.024 1228.09 713.59 1238.6 716.238 1248.74L717.036 1251.8L711.84 1274.38C708.982 1286.79 706.458 1298.32 706.231 1300C705.825 1303.01 705.986 1319.24 706.459 1322.96C706.467 1323.03 706.467 1334.49 706.475 1334.55L713.285 1327.05C713.354 1326.95 713.415 1326.86 713.487 1326.76C716.477 1322.58 720.333 1315.34 721.542 1311.62C722.16 1309.71 723.786 1303.81 725.155 1298.49C726.777 1292.2 727.814 1288.85 728.132 1288.89C728.399 1288.93 728.684 1289.25 728.764 1289.6C728.843 1289.95 729.989 1292.1 731.311 1294.38C738.063 1306.01 749.405 1314.4 761.101 1316.41C767.042 1317.43 771.773 1316.62 776.678 1313.73C787.023 1307.64 792.704 1292.65 792.071 1273.11C791.575 1257.77 787.167 1243.47 778.047 1227.62C769.933 1213.51 760.326 1202.48 747.866 1192.95C745.871 1191.42 742.287 1189.2 738.635 1187.13L738.635 1187.13Z" fill="#C81111"/>
<path d="M742.635 1187.13C738.983 1185.06 735.262 1183.15 732.996 1182.26C725.269 1179.23 719.3 1178 713.326 1178.2C697.138 1178.75 687.01 1192.7 687 1214.47C686.992 1230.34 694.145 1251.23 703.268 1261.99C704.962 1263.99 705.6 1264.58 705.895 1264.4C706.28 1264.18 708.901 1253.97 708.901 1252.69C708.901 1252.33 708.433 1251.08 707.859 1249.91C706.195 1246.52 703.911 1239.34 702.989 1234.6C701.936 1229.18 701.599 1222.88 702.132 1218.56C704.385 1200.3 716.563 1192.61 733.327 1198.86C737.317 1200.35 744.861 1204.71 748.865 1207.84C760.18 1216.68 769.18 1229.48 773.962 1243.53C776.3 1250.39 777.311 1255.83 777.548 1262.83C778.386 1287.47 768.997 1302.06 755.138 1297.64C751.458 1296.46 746.736 1293.43 744.199 1290.6C739.898 1285.82 736.933 1279.25 736.616 1273.81C736.429 1270.6 736.978 1268.1 740.083 1258C744.108 1244.91 744.71 1240.34 743.244 1233.98C742.286 1229.83 739.884 1225.57 737.024 1222.95C734.178 1220.35 731.061 1218.89 728.31 1218.87C725.85 1218.86 722.749 1220.65 721.306 1222.92C718.024 1228.09 717.59 1238.6 720.238 1248.74L721.036 1251.8L715.84 1274.38C712.982 1286.79 710.458 1298.32 710.231 1300C709.825 1303.01 709.986 1319.24 710.459 1322.96C710.467 1323.03 710.467 1334.49 710.475 1334.55L717.285 1327.05C717.354 1326.95 717.415 1326.86 717.487 1326.76C720.477 1322.58 724.333 1315.34 725.542 1311.62C726.16 1309.71 727.786 1303.81 729.155 1298.49C730.777 1292.2 731.814 1288.85 732.132 1288.89C732.399 1288.93 732.684 1289.25 732.764 1289.6C732.843 1289.95 733.989 1292.1 735.311 1294.38C742.063 1306.01 753.405 1314.4 765.101 1316.41C771.042 1317.43 775.773 1316.62 780.678 1313.73C791.023 1307.64 796.704 1292.65 796.071 1273.11C795.575 1257.77 791.167 1243.47 782.047 1227.62C773.933 1213.51 764.326 1202.48 751.866 1192.95C749.871 1191.42 746.287 1189.2 742.635 1187.13L742.635 1187.13Z" fill="#C81111"/>
<path d="M746.635 1187.13C742.983 1185.06 739.262 1183.15 736.996 1182.26C729.269 1179.23 723.3 1178 717.326 1178.2C701.138 1178.75 691.01 1192.7 691 1214.47C690.992 1230.34 698.145 1251.23 707.268 1261.99C708.962 1263.99 709.6 1264.58 709.895 1264.4C710.28 1264.18 712.901 1253.97 712.901 1252.69C712.901 1252.33 712.433 1251.08 711.859 1249.91C710.195 1246.52 707.911 1239.34 706.989 1234.6C705.936 1229.18 705.599 1222.88 706.132 1218.56C708.385 1200.3 720.563 1192.61 737.327 1198.86C741.317 1200.35 748.861 1204.71 752.865 1207.84C764.18 1216.68 773.18 1229.48 777.962 1243.53C780.3 1250.39 781.311 1255.83 781.548 1262.83C782.386 1287.47 772.997 1302.06 759.138 1297.64C755.458 1296.46 750.736 1293.43 748.199 1290.6C743.898 1285.82 740.933 1279.25 740.616 1273.81C740.429 1270.6 740.978 1268.1 744.083 1258C748.108 1244.91 748.71 1240.34 747.244 1233.98C746.286 1229.83 743.884 1225.57 741.024 1222.95C738.178 1220.35 735.061 1218.89 732.31 1218.87C729.85 1218.86 726.749 1220.65 725.306 1222.92C722.024 1228.09 721.59 1238.6 724.238 1248.74L725.036 1251.8L719.84 1274.38C716.982 1286.79 714.458 1298.32 714.231 1300C713.825 1303.01 713.986 1319.24 714.459 1322.96C714.467 1323.03 714.467 1334.49 714.475 1334.55L721.285 1327.05C721.354 1326.95 721.415 1326.86 721.487 1326.76C724.477 1322.58 728.333 1315.34 729.542 1311.62C730.16 1309.71 731.786 1303.81 733.155 1298.49C734.777 1292.2 735.814 1288.85 736.132 1288.89C736.399 1288.93 736.684 1289.25 736.764 1289.6C736.843 1289.95 737.989 1292.1 739.311 1294.38C746.063 1306.01 757.405 1314.4 769.101 1316.41C775.042 1317.43 779.773 1316.62 784.678 1313.73C795.023 1307.64 800.704 1292.65 800.071 1273.11C799.575 1257.77 795.167 1243.47 786.047 1227.62C777.933 1213.51 768.326 1202.48 755.866 1192.95C753.871 1191.42 750.287 1189.2 746.635 1187.13L746.635 1187.13Z" fill="#C81111"/>
<path d="M750.635 1187.13C746.983 1185.06 743.262 1183.15 740.996 1182.26C733.269 1179.23 727.3 1178 721.326 1178.2C705.138 1178.75 695.01 1192.7 695 1214.47C694.992 1230.34 702.145 1251.23 711.268 1261.99C712.962 1263.99 713.6 1264.58 713.895 1264.4C714.28 1264.18 716.901 1253.97 716.901 1252.69C716.901 1252.33 716.433 1251.08 715.859 1249.91C714.195 1246.52 711.911 1239.34 710.989 1234.6C709.936 1229.18 709.599 1222.88 710.132 1218.56C712.385 1200.3 724.563 1192.61 741.327 1198.86C745.317 1200.35 752.861 1204.71 756.865 1207.84C768.18 1216.68 777.18 1229.48 781.962 1243.53C784.3 1250.39 785.311 1255.83 785.548 1262.83C786.386 1287.47 776.997 1302.06 763.138 1297.64C759.458 1296.46 754.736 1293.43 752.199 1290.6C747.898 1285.82 744.933 1279.25 744.616 1273.81C744.429 1270.6 744.978 1268.1 748.083 1258C752.108 1244.91 752.71 1240.34 751.244 1233.98C750.286 1229.83 747.884 1225.57 745.024 1222.95C742.178 1220.35 739.061 1218.89 736.31 1218.87C733.85 1218.86 730.749 1220.65 729.306 1222.92C726.024 1228.09 725.59 1238.6 728.238 1248.74L729.036 1251.8L723.84 1274.38C720.982 1286.79 718.458 1298.32 718.231 1300C717.825 1303.01 717.986 1319.24 718.459 1322.96C718.467 1323.03 718.467 1334.49 718.475 1334.55L725.285 1327.05C725.354 1326.95 725.415 1326.86 725.487 1326.76C728.477 1322.58 732.333 1315.34 733.542 1311.62C734.16 1309.71 735.786 1303.81 737.155 1298.49C738.777 1292.2 739.814 1288.85 740.132 1288.89C740.399 1288.93 740.684 1289.25 740.764 1289.6C740.843 1289.95 741.989 1292.1 743.311 1294.38C750.063 1306.01 761.405 1314.4 773.101 1316.41C779.042 1317.43 783.773 1316.62 788.678 1313.73C799.023 1307.64 804.704 1292.65 804.071 1273.11C803.575 1257.77 799.167 1243.47 790.047 1227.62C781.933 1213.51 772.326 1202.48 759.866 1192.95C757.871 1191.42 754.287 1189.2 750.635 1187.13L750.635 1187.13Z" fill="#C81111"/>
<path d="M754.635 1187.13C750.983 1185.06 747.262 1183.15 744.996 1182.26C737.269 1179.23 731.3 1178 725.326 1178.2C709.138 1178.75 699.01 1192.7 699 1214.47C698.992 1230.34 706.145 1251.23 715.268 1261.99C716.962 1263.99 717.6 1264.58 717.895 1264.4C718.28 1264.18 720.901 1253.97 720.901 1252.69C720.901 1252.33 720.433 1251.08 719.859 1249.91C718.195 1246.52 715.911 1239.34 714.989 1234.6C713.936 1229.18 713.599 1222.88 714.132 1218.56C716.385 1200.3 728.563 1192.61 745.327 1198.86C749.317 1200.35 756.861 1204.71 760.865 1207.84C772.18 1216.68 781.18 1229.48 785.962 1243.53C788.3 1250.39 789.311 1255.83 789.548 1262.83C790.386 1287.47 780.997 1302.06 767.138 1297.64C763.458 1296.46 758.736 1293.43 756.199 1290.6C751.898 1285.82 748.933 1279.25 748.616 1273.81C748.429 1270.6 748.978 1268.1 752.083 1258C756.108 1244.91 756.71 1240.34 755.244 1233.98C754.286 1229.83 751.884 1225.57 749.024 1222.95C746.178 1220.35 743.061 1218.89 740.31 1218.87C737.85 1218.86 734.749 1220.65 733.306 1222.92C730.024 1228.09 729.59 1238.6 732.238 1248.74L733.036 1251.8L727.84 1274.38C724.982 1286.79 722.458 1298.32 722.231 1300C721.825 1303.01 721.986 1319.24 722.459 1322.96C722.467 1323.03 722.467 1334.49 722.475 1334.55L729.285 1327.05C729.354 1326.95 729.415 1326.86 729.487 1326.76C732.477 1322.58 736.333 1315.34 737.542 1311.62C738.16 1309.71 739.786 1303.81 741.155 1298.49C742.777 1292.2 743.814 1288.85 744.132 1288.89C744.399 1288.93 744.684 1289.25 744.764 1289.6C744.843 1289.95 745.989 1292.1 747.311 1294.38C754.063 1306.01 765.405 1314.4 777.101 1316.41C783.042 1317.43 787.773 1316.62 792.678 1313.73C803.023 1307.64 808.704 1292.65 808.071 1273.11C807.575 1257.77 803.167 1243.47 794.047 1227.62C785.933 1213.51 776.326 1202.48 763.866 1192.95C761.871 1191.42 758.287 1189.2 754.635 1187.13L754.635 1187.13Z" fill="#C81111"/>
<path d="M730.635 1187.13C726.983 1185.06 723.262 1183.15 720.996 1182.26C713.269 1179.23 707.3 1178 701.326 1178.2C685.138 1178.75 675.01 1192.7 675 1214.47C674.992 1230.34 682.145 1251.23 691.268 1261.99C692.962 1263.99 693.6 1264.58 693.895 1264.4C694.28 1264.18 696.901 1253.97 696.901 1252.69C696.901 1252.33 696.433 1251.08 695.859 1249.91C694.195 1246.52 691.911 1239.34 690.989 1234.6C689.936 1229.18 689.599 1222.88 690.132 1218.56C692.385 1200.3 704.563 1192.61 721.327 1198.86C725.317 1200.35 732.861 1204.71 736.865 1207.84C748.18 1216.68 757.18 1229.48 761.962 1243.53C764.3 1250.39 765.311 1255.83 765.548 1262.83C766.386 1287.47 756.997 1302.06 743.138 1297.64C739.458 1296.46 734.736 1293.43 732.199 1290.6C727.898 1285.82 724.933 1279.25 724.616 1273.81C724.429 1270.6 724.978 1268.1 728.083 1258C732.108 1244.91 732.71 1240.34 731.244 1233.98C730.286 1229.83 727.884 1225.57 725.024 1222.95C722.178 1220.35 719.061 1218.89 716.31 1218.87C713.85 1218.86 710.749 1220.65 709.306 1222.92C706.024 1228.09 705.59 1238.6 708.238 1248.74L709.036 1251.8L703.84 1274.38C700.982 1286.79 698.458 1298.32 698.231 1300C697.825 1303.01 697.986 1319.24 698.459 1322.96C698.467 1323.03 698.467 1334.49 698.475 1334.55L705.285 1327.05C705.354 1326.95 705.415 1326.86 705.487 1326.76C708.477 1322.58 712.333 1315.34 713.542 1311.62C714.16 1309.71 715.786 1303.81 717.155 1298.49C718.777 1292.2 719.814 1288.85 720.132 1288.89C720.399 1288.93 720.684 1289.25 720.764 1289.6C720.843 1289.95 721.989 1292.1 723.311 1294.38C730.063 1306.01 741.405 1314.4 753.101 1316.41C759.042 1317.43 763.773 1316.62 768.678 1313.73C779.023 1307.64 784.704 1292.65 784.071 1273.11C783.575 1257.77 779.167 1243.47 770.047 1227.62C761.933 1213.51 752.326 1202.48 739.866 1192.95C737.871 1191.42 734.287 1189.2 730.635 1187.13L730.635 1187.13Z" fill="#FF0000"/>
<path d="M885.135 147.116L631 298.31V578.009L658.5 588.81L885.135 426.815L905.5 162.311L885.135 147.116Z" fill="#384B76"/>
<path d="M842.78 295.944L800.424 321.143V280.073C800.424 275.555 803.601 269.969 807.483 267.659L835.721 250.859V209.788L793.365 234.988C773.952 246.537 758.068 274.469 758.068 297.058V346.343L729.831 363.142V404.213L758.068 387.413V502.412L800.424 477.213V362.214L835.721 341.215L842.78 295.944Z" fill="white"/>
<path d="M906.135 161.787L658.626 309.039V589.039L906.135 441.787V161.787Z" fill="#3D5A98"/>
<path d="M864.884 314.329L823.632 338.871V298.871C823.632 294.471 826.726 289.03 830.508 286.781L858.009 270.419V230.419L816.757 254.961C797.85 266.21 782.381 293.413 782.381 315.413V363.413L754.88 379.774V419.774L782.381 403.413V515.413L823.632 490.871V378.871L858.009 358.419L864.884 314.329Z" fill="white"/>
<path d="M1522.48 611.438C1522.48 669.348 1450.65 715.955 1400.5 687L1215.75 539.141C1165.6 510.186 1125 439.861 1125 381.951L1078.5 141.5C1078.5 83.5905 1165.68 51.2564 1215.83 80.2112L1430.33 204.054C1481.26 233.457 1522.48 304.858 1522.48 363.664V611.438Z" fill="url(#paint0_radial)"/>
<g filter="url(#filter1_d)">
<path d="M1511.11 622.816C1511.11 681.38 1444.72 714.282 1394 685L1200.91 549.7C1150.19 520.418 1109.13 449.297 1109.13 390.733L1079 143.5C1079 84.9351 1150.27 56.2975 1200.99 85.5798L1417.91 210.823C1469.42 240.559 1511.11 312.767 1511.11 372.239V622.816Z" fill="white"/>
</g>
<path d="M1476.44 629.437C1476.44 687.347 1435.84 710.789 1385.69 681.834L1169.71 557.14C1119.56 528.185 1078.96 457.86 1078.96 399.95V150.652C1078.96 92.7424 1119.64 69.2559 1169.79 98.2107L1384.29 222.053C1435.22 251.456 1476.44 322.857 1476.44 381.663V629.437Z" fill="url(#paint1_radial)"/>
<g filter="url(#filter2_d)">
<path d="M1332.98 255.714L1222.43 191.888C1173.44 163.606 1133.69 186.554 1133.69 243.119V370.682C1133.69 427.247 1173.36 495.959 1222.43 524.286L1332.9 588.067C1381.89 616.35 1421.56 593.446 1421.56 536.881V409.318C1421.63 352.708 1381.96 283.997 1332.98 255.714ZM1394 508.688C1394 554.406 1361.93 572.917 1322.34 550.058L1233.06 498.513C1193.47 475.654 1161.41 420.12 1161.41 374.402V271.312C1161.41 225.594 1193.47 207.083 1233.06 229.942L1322.34 281.487C1361.93 304.346 1394 359.97 1394 405.598V508.688Z" fill="white"/>
</g>
<g filter="url(#filter3_d)">
<path d="M1281.58 305.287C1239.66 281.083 1205.74 300.671 1205.74 349.078C1205.74 397.396 1239.66 456.247 1281.58 480.45C1323.43 504.609 1357.43 485.067 1357.43 436.66C1357.35 388.207 1323.43 329.446 1281.58 305.287ZM1281.58 445.489C1256.35 430.922 1235.94 395.558 1235.94 366.424C1235.94 337.29 1256.35 325.502 1281.58 340.069C1306.74 354.591 1327.23 390 1327.23 419.134C1327.16 448.224 1306.74 460.012 1281.58 445.489Z" fill="white"/>
</g>
<g filter="url(#filter4_d)">
<path d="M1371.41 355.801C1371.41 368.082 1362.79 373.057 1352.15 366.917C1341.52 360.776 1332.9 345.851 1332.9 333.569C1332.9 321.288 1341.52 316.223 1352.15 322.364C1362.79 328.505 1371.41 343.43 1371.41 355.801Z" fill="white"/>
</g>
<path d="M263.693 635.794C263.693 658.119 248.133 685.446 228.978 696.842L158.5 760.689C139.345 772.085 109 750.116 109 727.827V628.616C109 606.327 124.56 578.964 143.715 567.568L228.978 516.842C248.133 505.446 282.5 520.4 282.5 542.689L263.693 635.794Z" fill="#D14E43"/>
<path d="M174.321 632.363C174.321 632.609 174.291 632.803 174.291 632.979C174.291 637.655 174.291 647.745 174.291 647.745C174.291 647.745 190.969 637.822 191.875 637.283C191.875 638.795 190.334 645.829 185.41 652.626C182.539 656.619 179.276 659.579 175.862 661.892C173.445 663.506 171.058 664.644 168.732 665.185C161.39 666.811 155.921 662.33 155.196 653.374C155.015 651.162 155.136 648.77 155.589 646.215C157.764 633.811 166.828 620.157 177.192 615.785C181.784 613.826 184.443 614.494 186.86 615.447C190.032 609.868 193.174 604.342 196.407 598.622C195.622 598.421 193.809 597.355 190.576 597.134C185.772 596.758 180.545 598.25 174.986 601.487C173.929 602.117 172.901 602.798 171.844 603.462C170.001 604.629 168.218 606.076 166.436 607.664C159.335 613.998 153.444 621.827 148.821 631.222C144.38 640.227 141.993 648.96 141.57 657.368C141.389 660.921 141.6 664.241 142.265 667.255C144.108 675.616 148.368 680.745 155.105 682.467C160.332 683.787 166.194 682.691 172.629 679.284C176.255 677.338 179.85 674.812 183.385 671.654C189.972 665.732 195.441 658.471 199.55 649.663C205.502 636.911 206.952 624.235 205.199 614.063C194.897 620.122 184.624 626.234 174.321 632.363Z" fill="white"/>
<path d="M244.961 590.83L233.842 597.444V584.507V584.12L233.51 584.318L225.201 589.261L224.869 589.459V589.845V602.783L213.72 609.416L213.418 609.596V609.982V619.65V620.037L213.72 619.857L224.869 613.224V626.197V626.549L225.201 626.351L233.51 621.408L233.842 621.21V620.858V607.886L244.961 601.271L245.293 601.073V600.686V591.019V590.632L244.961 590.83Z" fill="white"/>
<path d="M282.693 646.794C282.693 669.119 267.133 696.446 247.978 707.842L162.715 758.568C143.56 769.964 128 761.116 128 738.827V639.616C128 617.327 143.56 589.964 162.715 578.568L247.978 527.842C267.133 516.446 282.693 525.294 282.693 547.583V646.794Z" fill="#F1574A"/>
<path d="M193.321 643.363C193.321 643.609 193.291 643.803 193.291 643.979C193.291 648.655 193.291 658.745 193.291 658.745C193.291 658.745 209.969 648.822 210.875 648.283C210.875 649.795 209.334 656.829 204.41 663.626C201.539 667.619 198.276 670.579 194.862 672.892C192.445 674.506 190.058 675.644 187.732 676.185C180.39 677.811 174.921 673.33 174.196 664.374C174.015 662.162 174.136 659.77 174.589 657.215C176.764 644.811 185.828 631.157 196.192 626.785C200.784 624.826 203.443 625.494 205.86 626.447C209.032 620.868 212.174 615.342 215.407 609.622C214.622 609.421 212.809 608.355 209.576 608.134C204.772 607.758 199.545 609.25 193.986 612.487C192.929 613.117 191.901 613.798 190.844 614.462C189.001 615.629 187.218 617.076 185.436 618.664C178.335 624.998 172.444 632.827 167.821 642.222C163.38 651.227 160.993 659.96 160.57 668.368C160.389 671.921 160.6 675.241 161.265 678.255C163.108 686.616 167.368 691.745 174.105 693.467C179.332 694.787 185.194 693.691 191.629 690.284C195.255 688.338 198.85 685.812 202.385 682.654C208.972 676.732 214.441 669.471 218.55 660.663C224.502 647.911 225.952 635.235 224.199 625.063C213.897 631.122 203.624 637.234 193.321 643.363Z" fill="white"/>
<path d="M263.961 601.83L252.842 608.444V595.507V595.12L252.51 595.318L244.201 600.261L243.869 600.459V600.845V613.783L232.72 620.416L232.418 620.596V620.982V630.65V631.037L232.72 630.857L243.869 624.224V637.197V637.549L244.201 637.351L252.51 632.408L252.842 632.21V631.858V618.886L263.961 612.271L264.293 612.073V611.686V602.019V601.632L263.961 601.83Z" fill="white"/>
<path d="M303 361.204C303 385.168 334.15 390.54 354.924 378.546L415.826 339.458C436.597 327.466 453.43 298.317 453.43 274.353L458.924 194.546C458.924 170.574 436.597 153.89 415.826 165.883L340.613 209.307C319.839 221.301 303 250.446 303 274.417V361.204Z" fill="#1D8BAF"/>
<path d="M320.13 358.492C320.13 380.588 335.656 389.539 354.811 378.48L424.16 338.441C443.313 327.384 458.833 300.507 458.833 278.411V198.39C458.833 176.287 443.313 167.339 424.16 178.397L354.811 218.436C335.656 229.495 320.13 256.368 320.13 278.47V358.492Z" fill="#00ABE3"/>
<path d="M348.525 263.554C351.963 263.888 355.772 263.369 359.824 261.934C363.064 256.137 367.686 251.013 372.805 248.058C382.625 242.388 390.589 246.836 390.589 257.998C390.589 259.581 390.431 261.209 390.132 262.86C404.913 253.486 418.018 237.877 426.791 220.588C428.321 222.688 429.201 225.651 429.201 229.356C429.201 236.363 426.055 244.36 421.286 250.734C424.198 248.949 426.943 246.458 429.342 243.563C429.342 243.641 429.342 243.732 429.342 243.817C429.342 253.598 423.21 265.303 415.072 271.864C416.567 271.463 418.136 270.805 419.762 269.866C420.907 269.205 422.019 268.432 423.109 267.569C420.84 276.902 414.276 286.534 406.493 291.189C412.583 293.092 420.247 291.897 428.586 287.083C430.025 286.252 431.436 285.339 432.83 284.352C424.954 294.63 415.603 303.37 405.562 309.167C372.845 328.056 354.96 307.605 354.96 280.907C354.96 280.034 354.971 279.155 355.005 278.269C351.534 277.427 348.514 275.608 346.133 272.933C349.321 272.7 352.747 271.804 356.348 270.213C352.674 269.834 349.857 267.507 348.525 263.554Z" fill="white"/>
<path d="M348.525 263.554C351.963 263.888 355.772 263.369 359.824 261.934C363.064 256.137 367.686 251.013 372.805 248.058C382.625 242.388 390.589 246.836 390.589 257.998C390.589 259.581 390.431 261.209 390.132 262.86C404.913 253.486 418.018 237.877 426.791 220.588C428.321 222.688 429.201 225.651 429.201 229.356C429.201 236.363 426.055 244.36 421.286 250.734C424.198 248.949 426.943 246.458 429.342 243.563C429.342 243.641 429.342 243.732 429.342 243.817C429.342 253.598 423.21 265.303 415.072 271.864C416.567 271.463 418.136 270.805 419.762 269.866C420.907 269.205 422.019 268.432 423.109 267.569C420.84 276.902 414.276 286.534 406.493 291.189C412.583 293.092 420.247 291.897 428.586 287.083C430.025 286.252 431.436 285.339 432.83 284.352C424.954 294.63 415.603 303.37 405.562 309.167C372.845 328.056 354.96 307.605 354.96 280.907C354.96 280.034 354.971 279.155 355.005 278.269C351.534 277.427 348.514 275.608 346.133 272.933C349.321 272.7 352.747 271.804 356.348 270.213C352.674 269.834 349.857 267.507 348.525 263.554Z" fill="white"/>
<path d="M372.805 248.058C367.686 251.014 363.064 256.137 359.824 261.935C355.772 263.369 351.963 263.888 348.526 263.554C349.857 267.507 352.674 269.834 356.348 270.213C352.747 271.804 349.321 272.7 346.132 272.933C348.514 275.608 351.533 277.427 355.004 278.269C354.971 279.155 354.959 280.034 354.959 280.907C354.959 307.605 372.845 328.056 405.562 309.167C415.602 303.37 424.954 294.63 432.83 284.353C431.436 285.339 430.025 286.252 428.586 287.083C420.247 291.897 412.583 293.092 406.493 291.189C414.276 286.534 420.839 276.902 423.108 267.569C422.019 268.433 420.907 269.205 419.761 269.866C418.136 270.805 416.567 271.463 415.072 271.864C423.21 265.303 429.342 253.598 429.342 243.817C429.342 243.732 429.342 243.641 429.342 243.563C426.943 246.459 424.198 248.949 421.285 250.734C426.054 244.36 429.201 236.363 429.201 229.356C429.201 225.651 428.32 222.688 426.791 220.588C418.017 237.878 404.913 253.486 390.132 262.86C390.431 261.209 390.589 259.581 390.589 257.998C390.589 246.836 382.625 242.389 372.805 248.058ZM348.526 263.554L348.524 263.555L348.526 263.554ZM372.805 244.723C384.204 238.142 393.478 243.349 393.478 256.331C393.478 256.639 393.472 256.949 393.462 257.263C405.587 248.55 416.776 235.098 424.567 219.744C425.118 218.658 425.935 217.747 426.791 217.253C426.866 217.21 426.942 217.169 427.018 217.132C427.955 216.677 428.797 216.797 429.276 217.454C431.117 219.98 432.09 223.519 432.09 227.689C432.09 231.581 431.251 235.82 429.708 240.043C430.093 239.877 430.471 239.806 430.817 239.843C431.693 239.938 432.231 240.718 432.231 241.895V242.149C432.231 249.131 429.505 257.113 425.114 264.011C425.172 264.042 425.227 264.077 425.281 264.117C425.953 264.614 426.171 265.717 425.854 267.019C423.958 274.819 419.59 282.566 414.108 288.328C418.573 288.237 423.481 286.695 428.586 283.748C429.871 283.005 431.19 282.157 432.505 281.226C432.615 281.148 432.724 281.078 432.832 281.016C434.045 280.315 435.146 280.563 435.556 281.675C436.002 282.885 435.51 284.798 434.37 286.286C425.752 297.531 415.791 306.597 405.562 312.503C397.333 317.254 389.626 319.844 382.655 320.202C376.252 320.53 370.595 318.982 365.841 315.601C357.09 309.377 352.071 297.339 352.071 282.575C352.071 282.24 352.073 281.918 352.076 281.606C348.842 280.589 346.043 278.771 343.743 276.186C343.02 275.374 343.089 273.702 343.911 272.085C344.473 270.979 345.294 270.082 346.134 269.597C346.499 269.386 346.868 269.253 347.221 269.215C346.658 268.34 346.185 267.353 345.81 266.262C345.698 265.971 345.637 265.622 345.637 265.222C345.637 263.39 346.915 261.164 348.499 260.234C348.508 260.229 348.517 260.224 348.526 260.219C348.562 260.198 348.597 260.178 348.633 260.159C349.141 259.888 349.616 259.786 350.024 259.837C352.806 260.101 355.795 259.758 358.929 258.816C362.707 252.75 367.677 247.684 372.805 244.723Z" fill="#0080AA"/>
<path d="M357.807 371.553L421.161 334.976C439.424 324.432 454.282 298.692 454.282 277.597V204.452C454.282 183.361 439.424 174.781 421.161 185.326L357.807 221.903C339.541 232.449 324.68 258.187 324.68 279.278V352.423C324.68 373.518 339.541 382.099 357.807 371.553ZM421.161 188.67C437.827 179.047 451.386 186.877 451.386 206.123V279.269C451.386 298.519 437.827 322.009 421.161 331.632L357.807 368.209C341.138 377.833 327.576 370.001 327.576 350.751V277.606C327.576 258.359 341.138 234.871 357.807 225.247L421.161 188.67V188.67Z" fill="#0080AA"/>
<path d="M757.877 771.598C722.046 792.916 693 843.993 693 885.687C693 927.379 722.047 943.897 757.877 922.58C793.708 901.263 822.755 850.182 822.755 808.491C822.755 766.797 793.707 750.282 757.877 771.598Z" fill="#3E4F71"/>
<path d="M755.263 877.316C753.938 878.104 752.998 877.475 752.675 877.435C751.641 877.311 751.892 876.954 750.021 877.418L744.782 880.55C744.129 880.938 743.6 880.643 743.6 879.892V850.876C743.6 850.122 744.129 849.199 744.782 848.811L751.713 844.687C751.877 844.487 752.385 843.68 753.287 841.958C754.879 838.925 756.287 835.249 757.649 831.924C758.751 829.237 759.79 826.696 760.888 824.461C762.389 821.395 763.331 820.039 764.241 818.726C765.177 817.382 764.986 817.315 766.848 813.439C769.832 807.227 770.238 804.164 770.633 801.199C770.703 800.674 770.774 800.132 770.86 799.583C771.196 797.41 772.683 794.484 774.592 793.35C775.279 792.939 775.95 792.804 776.586 792.945C779.024 793.486 780.305 798.521 779.822 802.658C779.325 806.908 777.774 812.942 776.343 815.643C775.1 817.992 774.514 819.936 774.771 822.235C774.893 823.329 776.435 822.458 776.502 822.422L786.154 816.722C788.944 815.089 794.214 812.968 794.216 819.237C794.216 822.097 793.217 824.469 792.054 826.196C793.159 826.683 794.021 827.656 793.712 830.658C793.414 833.572 792.249 835.899 790.893 837.542C791.641 838.26 792.147 839.643 791.817 842.121C791.499 844.507 790.345 846.724 789.159 848.172C789.718 848.833 790.066 850.148 789.773 852.139C789.081 856.811 785.91 858.944 784.557 859.856L784.138 860.137L755.263 877.316Z" fill="#EFEFEF"/>
<path d="M792.054 826.195C793.217 824.468 794.216 822.096 794.216 819.237C794.215 812.967 788.945 815.086 786.154 816.721L776.502 822.42C776.436 822.456 774.893 823.329 774.771 822.233C774.514 819.934 775.101 817.99 776.344 815.641C777.775 812.94 779.325 806.906 779.822 802.656C780.305 798.518 779.024 793.484 776.586 792.943C775.95 792.802 775.28 792.937 774.592 793.348C773.874 793.775 773.215 794.455 772.656 795.254L772.694 795.259C775.132 795.8 776.412 800.834 775.93 804.972C775.433 809.221 773.882 815.256 772.451 817.957C771.208 820.306 770.621 822.249 770.878 824.549C771 825.643 772.543 824.772 772.609 824.736L782.262 819.035C785.051 817.403 790.322 815.282 790.323 821.551C790.323 824.411 789.324 826.782 788.162 828.51C789.267 828.996 790.129 829.97 789.82 832.972C789.522 835.885 788.356 838.212 787 839.855C787.749 840.574 788.255 841.956 787.924 844.435C787.606 846.821 786.453 849.038 785.267 850.486C785.826 851.147 786.174 852.462 785.881 854.453C785.189 859.125 782.018 861.258 780.664 862.17L780.245 862.451L784.138 860.135L784.557 859.854C785.91 858.943 789.08 856.811 789.773 852.137C790.068 850.145 789.719 848.831 789.16 848.17C790.345 846.722 791.499 844.505 791.817 842.119C792.148 839.639 791.642 838.257 790.893 837.54C792.249 835.895 793.413 833.57 793.713 830.656C794.02 827.656 793.159 826.683 792.054 826.195ZM744.739 880.564L744.781 880.55L746.155 879.728L746.128 879.734L744.739 880.564ZM792.054 826.195C793.217 824.468 794.216 822.096 794.216 819.237C794.215 812.967 788.945 815.086 786.154 816.721L776.502 822.42C776.436 822.456 774.893 823.329 774.771 822.233C774.514 819.934 775.101 817.99 776.344 815.641C777.775 812.94 779.325 806.906 779.822 802.656C780.305 798.518 779.024 793.484 776.586 792.943C775.95 792.802 775.28 792.937 774.592 793.348C773.874 793.775 773.215 794.455 772.656 795.254L772.694 795.259C775.132 795.8 776.412 800.834 775.93 804.972C775.433 809.221 773.882 815.256 772.451 817.957C771.208 820.306 770.621 822.249 770.878 824.549C771 825.643 772.543 824.772 772.609 824.736L782.262 819.035C785.051 817.403 790.322 815.282 790.323 821.551C790.323 824.411 789.324 826.782 788.162 828.51C789.267 828.996 790.129 829.97 789.82 832.972C789.522 835.885 788.356 838.212 787 839.855C787.749 840.574 788.255 841.956 787.924 844.435C787.606 846.821 786.453 849.038 785.267 850.486C785.826 851.147 786.174 852.462 785.881 854.453C785.189 859.125 782.018 861.258 780.664 862.17L780.245 862.451L784.138 860.135L784.557 859.854C785.91 858.943 789.08 856.811 789.773 852.137C790.068 850.145 789.719 848.831 789.16 848.17C790.345 846.722 791.499 844.505 791.817 842.119C792.148 839.639 791.642 838.257 790.893 837.54C792.249 835.895 793.413 833.57 793.713 830.656C794.02 827.656 793.159 826.683 792.054 826.195ZM744.739 880.564L744.781 880.55L746.155 879.728L746.128 879.734L744.739 880.564Z" fill="#DCDCDC"/>
<path d="M743.603 849.555L747.519 847.225V878.931L743.603 881.261V849.555Z" fill="#D7D7D7"/>
<path d="M741.892 886.798L727.532 895.341C725.879 896.324 724.532 895.555 724.532 893.627L720.245 863.898C720.245 861.967 721.591 859.598 723.244 858.614L741.892 847.52C743.546 846.535 744.892 847.304 744.892 849.235V881.515C744.891 883.443 743.545 885.814 741.892 886.798Z" fill="#5879BD"/>
<path d="M737.107 876.063C738.541 875.21 739.704 875.869 739.704 877.536C739.704 879.202 738.541 881.243 737.107 882.096C735.674 882.949 734.51 882.29 734.51 880.626C734.51 878.958 735.672 876.917 737.107 876.063Z" fill="white"/>
<path d="M744.487 882.234L730.127 890.777C728.474 891.761 727.127 890.992 727.127 889.064L722.84 859.334L722.878 858.875C721.397 859.969 720.245 862.113 720.245 863.898L724.532 893.627C724.532 895.555 725.878 896.325 727.532 895.341L741.892 886.797C743.418 885.89 744.668 883.804 744.853 881.974L744.487 882.234Z" fill="#5170AE"/>
<g filter="url(#filter5_d)">
<path d="M366.422 894.434L366.568 894.629L381.948 915.867C382.449 916.525 384.11 916.482 384.584 915.769L400.061 894.678L400.256 894.434H457.868C460.993 894.434 463.532 891.895 463.532 888.77V795.664C463.532 792.539 460.993 790 457.868 790H308.664C305.539 790 303 792.539 303 795.664V888.77C303 891.895 305.539 894.434 308.664 894.434H366.422Z" fill="#F4F4F4"/>
<path d="M388.449 848.273L390.087 846.652C393.245 843.494 394.815 839.306 394.815 835.153C394.815 830.982 393.245 826.811 390.087 823.654C383.772 817.339 373.421 817.339 367.089 823.654L365.468 825.292L363.83 823.654C357.515 817.339 347.164 817.339 340.849 823.654C337.675 826.811 336.104 830.982 336.104 835.153C336.104 839.306 337.675 843.494 340.849 846.652L342.47 848.273L364.633 870.436C365.094 870.897 365.842 870.897 366.303 870.435L388.449 848.273Z" fill="#EF4B53"/>
<path d="M388.449 848.273L390.087 846.652C393.245 843.494 394.815 839.306 394.815 835.153C394.815 830.982 393.245 826.811 390.087 823.654C383.772 817.339 373.421 817.339 367.089 823.654L365.468 825.292L363.83 823.654C357.515 817.339 347.164 817.339 340.849 823.654C337.675 826.811 336.104 830.982 336.104 835.153C336.104 839.306 337.675 843.494 340.849 846.652L342.47 848.273L364.633 870.436C365.094 870.897 365.842 870.897 366.303 870.435L388.449 848.273Z" stroke="#303030" stroke-width="0.7" stroke-miterlimit="10" stroke-linecap="round" stroke-linejoin="round"/>
<path d="M347.733 843.324L355.761 851.273" stroke="#303030" stroke-width="0.7" stroke-miterlimit="10" stroke-linecap="round" stroke-linejoin="round"/>
<path d="M359.481 854.974L360.47 855.913" stroke="#303030" stroke-width="0.7" stroke-miterlimit="10" stroke-linecap="round" stroke-linejoin="round"/>
<path d="M425.474 829.926H425.357L418.739 833.498L417.745 829.574L426.058 825.123H430.452V863.185H425.474V829.926Z" fill="#303030"/>
<path d="M366.422 894.434L366.568 894.629L381.948 915.867C382.449 916.525 384.11 916.482 384.584 915.769L400.061 894.678L400.256 894.434H457.868C460.993 894.434 463.532 891.895 463.532 888.77V795.664C463.532 792.539 460.993 790 457.868 790H308.664C305.539 790 303 792.539 303 795.664V888.77C303 891.895 305.539 894.434 308.664 894.434H366.422Z" stroke="#303030" stroke-width="0.7" stroke-miterlimit="10" stroke-linecap="round" stroke-linejoin="round"/>
</g>
<path d="M970 670.428L980.242 796.154L1041.93 831.77V711.958L970 670.428ZM1019.4 799.748C1014.83 797.109 1011.2 790.832 1011.2 785.646C1011.2 780.37 1014.83 778.278 1019.4 780.916C1023.89 783.509 1027.51 789.786 1027.51 795.062C1027.51 800.248 1023.89 802.34 1019.4 799.748Z" fill="#B9D4F8"/>
<path d="M1004.22 719.435C978.934 703.742 974.916 724.984 974.601 726.713C974.601 726.804 974.601 726.804 974.601 726.804L980.273 796.217L1041.96 831.833V739.677C1031.48 734.718 1017.54 727.668 1004.22 719.435ZM1019.43 799.81C1014.86 797.172 1011.24 790.894 1011.24 785.709C1011.24 780.432 1014.86 778.34 1019.43 780.978C1023.92 783.571 1027.54 789.848 1027.54 795.125C1027.54 800.31 1023.92 802.402 1019.43 799.81Z" fill="#659BDB"/>
<path d="M1042.5 804.681C1045.21 806.246 1047.92 807.75 1050.63 809.252C1052.53 810.303 1053.77 812.415 1055.28 814.466C1057.15 817.015 1059.03 819.56 1060.96 822.04C1062.26 823.707 1063.74 825.846 1065.22 827.179L1119.78 858.756L1157.24 880.394C1164.49 884.579 1171.27 883.381 1171.27 875.012C1171.27 866.551 1171.88 858.267 1164.63 854.082L1165.48 854.571C1172.81 858.802 1176.86 854.008 1176.86 845.547C1176.86 837.178 1174.83 829.31 1167.5 825.079L1172.89 828.189C1180.13 832.374 1183.99 827.293 1183.99 818.832C1183.99 810.462 1182.01 802.891 1174.76 798.707L1177.3 800.169C1184.55 804.354 1188.47 798.954 1188.47 790.584C1188.47 782.124 1184.55 773.696 1177.3 769.511L1108.73 730.052C1110.32 728.441 1118.43 698.357 1117.83 691.338C1117.41 686.436 1116.23 681.109 1115.25 676.011C1113.88 668.87 1112.4 661.7 1110.92 654.531C1110.32 651.581 1108.68 649.891 1106.89 647.4C1105.7 645.746 1104.45 644.148 1103.13 642.673C1100.92 640.196 1098.49 638.055 1096.03 636.785C1092.95 635.194 1090.18 635.216 1087.86 636.144C1085.77 636.978 1083.08 638.055 1083.08 641.4C1083.1 647.717 1083.09 654.02 1083.1 660.327C1083.1 663.527 1083.1 666.727 1083.1 669.927C1083.1 672.79 1083.49 675.762 1082.18 677.539C1080.42 680.59 1078.08 683.092 1076.05 685.828C1074.4 688.062 1072.76 690.308 1071.11 692.547C1067.93 696.868 1064.76 701.19 1061.59 705.521C1059.49 708.387 1056.87 710.979 1055.2 714.358C1054.8 715.163 1041.91 716.981 1041.91 716.981" fill="white"/>
<path d="M1178.94 802.676L1175.5 801.921C1182.75 806.106 1184.13 815.646 1184.13 823.583C1184.13 831.605 1180.26 836.276 1173.02 832.092L1167.58 828.953C1174.91 833.183 1176.96 840.749 1176.96 848.685C1176.96 856.707 1172.94 861.116 1165.61 856.885L1164.74 856.385C1171.99 860.57 1171.36 868.4 1171.36 876.422C1171.36 884.358 1164.59 885.277 1157.34 881.092L1119.92 859.486L1065.32 827.877C1063.9 826.627 1062.4 824.555 1061.06 822.92C1059.17 820.534 1057.28 818.062 1055.39 815.591C1053.89 813.605 1052.63 811.497 1050.74 810.491C1048.06 808.945 1045.31 807.439 1042.63 805.893L1041.96 732.671C1043.54 732.804 1062.71 732.62 1066.49 728.334C1070.43 723.966 1092.57 690.903 1094.07 685.902C1095.48 680.769 1094.68 652.062 1097.68 650.081C1100.2 648.259 1102.19 645.797 1113.14 658.417C1114.09 662.844 1114.48 681.673 1115.35 686.055C1116.37 690.959 1117.55 696.041 1117.95 700.667C1118.58 707.414 1110.5 729.404 1108.84 730.779C1107.44 731.952 1123.01 748.805 1124.74 750.205C1139.2 761.916 1142.73 764.245 1154.71 770.872C1175.83 782.544 1183.73 793.423 1177.27 802.374C1177.27 802.374 1177.79 799.043 1182.92 800.102C1181.1 802.592 1183.03 805.042 1178.94 802.676Z" fill="#B9D4F8"/>
<path d="M1041.88 716.979C1041.88 716.979 1041.88 716.979 1041.96 717.025V726.941L1041.88 716.979Z" fill="#B9D4F8"/>
<path d="M1041.91 831.792L980.261 796.202L970.031 670.406L1041.91 711.903V831.792Z" stroke="#1B4A9A" stroke-width="0.7" stroke-miterlimit="10" stroke-linecap="round" stroke-linejoin="round"/>
<path d="M1019.36 799.74C1023.87 802.341 1027.52 800.232 1027.52 795.029C1027.52 789.826 1023.87 783.499 1019.36 780.898C1014.85 778.296 1011.2 780.405 1011.2 785.608C1011.2 790.811 1014.85 797.138 1019.36 799.74Z" stroke="#1B4A9A" stroke-width="0.7" stroke-miterlimit="10" stroke-linecap="round" stroke-linejoin="round"/>
<path d="M1042.5 804.681C1043.28 805.129 1044.06 805.572 1044.83 806.012C1048.67 808.188 1054.46 813.391 1057.66 817.692C1058.23 818.458 1060.28 821.024 1062.1 823.294C1064.13 825.835 1066.44 827.885 1068.79 829.247L1119.78 858.756L1158 880.832C1165.29 885.045 1171.23 881.582 1171.27 873.186C1171.31 865.378 1171.36 857.965 1164.63 854.082L1164.83 854.199C1171.36 857.967 1176.56 854.91 1176.83 847.532C1177.15 838.439 1175.4 829.643 1167.5 825.079L1172.89 828.189C1180.13 832.374 1183.99 827.293 1183.99 818.832C1183.99 810.462 1182.01 802.891 1174.76 798.707L1175.66 799.223C1182.1 802.941 1187.55 800.487 1188.31 793.544C1189.34 784.151 1185.39 774.185 1177.3 769.511L1108.73 730.052C1110.32 728.441 1118.43 698.357 1117.83 691.338C1117.41 686.436 1116.23 681.109 1115.25 676.011C1113.88 668.87 1112.4 661.7 1110.92 654.531C1110.32 651.581 1108.68 649.891 1106.89 647.4C1105.7 645.746 1104.45 644.148 1103.13 642.673C1100.92 640.196 1098.49 638.055 1096.03 636.785C1092.95 635.194 1090.18 635.216 1087.86 636.144C1085.77 636.978 1083.08 638.055 1083.08 641.4C1083.1 647.717 1083.09 654.02 1083.1 660.327C1083.1 663.527 1083.1 666.727 1083.1 669.927C1083.1 672.79 1083.49 675.762 1082.18 677.539C1080.42 680.59 1078.08 683.092 1076.05 685.828C1074.4 688.062 1072.76 690.308 1071.11 692.547C1067.93 696.868 1064.76 701.19 1061.59 705.521C1059.49 708.387 1056.87 710.979 1055.2 714.358C1054.8 715.163 1041.91 716.981 1041.91 716.981" stroke="#1B4A9A" stroke-width="0.7" stroke-miterlimit="10" stroke-linecap="round" stroke-linejoin="round"/>
<path d="M984.896 692.891L1005.97 705.059" stroke="#1B4A9A" stroke-width="0.7" stroke-miterlimit="10" stroke-linecap="round" stroke-linejoin="round"/>
<path d="M1015.2 710.388L1021.7 714.138" stroke="#1B4A9A" stroke-width="0.7" stroke-miterlimit="10" stroke-linecap="round" stroke-linejoin="round"/>
<defs>
<filter id="filter0_d" x="0" y="794" width="1367" height="791" filterUnits="userSpaceOnUse" color-interpolation-filters="sRGB">
<feFlood flood-opacity="0" result="BackgroundImageFix"/>
<feColorMatrix in="SourceAlpha" type="matrix" values="0 0 0 0 0 0 0 0 0 0 0 0 0 0 0 0 0 0 127 0"/>
<feOffset dy="4"/>
<feGaussianBlur stdDeviation="27"/>
<feColorMatrix type="matrix" values="0 0 0 0 0 0 0 0 0 0 0 0 0 0 0 0 0 0 0.17 0"/>
<feBlend mode="normal" in2="BackgroundImageFix" result="effect1_dropShadow"/>
<feBlend mode="normal" in="SourceGraphic" in2="effect1_dropShadow" result="shape"/>
</filter>
<filter id="filter1_d" x="1065" y="59.9773" width="460.107" height="649.899" filterUnits="userSpaceOnUse" color-interpolation-filters="sRGB">
<feFlood flood-opacity="0" result="BackgroundImageFix"/>
<feColorMatrix in="SourceAlpha" type="matrix" values="0 0 0 0 0 0 0 0 0 0 0 0 0 0 0 0 0 0 127 0"/>
<feOffset/>
<feGaussianBlur stdDeviation="7"/>
<feColorMatrix type="matrix" values="0 0 0 0 1 0 0 0 0 1 0 0 0 0 1 0 0 0 0.48 0"/>
<feBlend mode="normal" in2="BackgroundImageFix" result="effect1_dropShadow"/>
<feBlend mode="normal" in="SourceGraphic" in2="effect1_dropShadow" result="shape"/>
</filter>
<filter id="filter2_d" x="1099.69" y="149.778" width="355.865" height="488.408" filterUnits="userSpaceOnUse" color-interpolation-filters="sRGB">
<feFlood flood-opacity="0" result="BackgroundImageFix"/>
<feColorMatrix in="SourceAlpha" type="matrix" values="0 0 0 0 0 0 0 0 0 0 0 0 0 0 0 0 0 0 127 0"/>
<feOffset dy="4"/>
<feGaussianBlur stdDeviation="17"/>
<feColorMatrix type="matrix" values="0 0 0 0 1 0 0 0 0 1 0 0 0 0 1 0 0 0 0.25 0"/>
<feBlend mode="normal" in2="BackgroundImageFix" result="effect1_dropShadow"/>
<feBlend mode="normal" in="SourceGraphic" in2="effect1_dropShadow" result="shape"/>
</filter>
<filter id="filter3_d" x="1171.74" y="264.913" width="219.696" height="263.892" filterUnits="userSpaceOnUse" color-interpolation-filters="sRGB">
<feFlood flood-opacity="0" result="BackgroundImageFix"/>
<feColorMatrix in="SourceAlpha" type="matrix" values="0 0 0 0 0 0 0 0 0 0 0 0 0 0 0 0 0 0 127 0"/>
<feOffset dy="4"/>
<feGaussianBlur stdDeviation="17"/>
<feColorMatrix type="matrix" values="0 0 0 0 1 0 0 0 0 1 0 0 0 0 1 0 0 0 0.25 0"/>
<feBlend mode="normal" in2="BackgroundImageFix" result="effect1_dropShadow"/>
<feBlend mode="normal" in="SourceGraphic" in2="effect1_dropShadow" result="shape"/>
</filter>
<filter id="filter4_d" x="1298.9" y="289.751" width="106.506" height="117.796" filterUnits="userSpaceOnUse" color-interpolation-filters="sRGB">
<feFlood flood-opacity="0" result="BackgroundImageFix"/>
<feColorMatrix in="SourceAlpha" type="matrix" values="0 0 0 0 0 0 0 0 0 0 0 0 0 0 0 0 0 0 127 0"/>
<feOffset dy="4"/>
<feGaussianBlur stdDeviation="17"/>
<feColorMatrix type="matrix" values="0 0 0 0 1 0 0 0 0 1 0 0 0 0 1 0 0 0 0.25 0"/>
<feBlend mode="normal" in2="BackgroundImageFix" result="effect1_dropShadow"/>
<feBlend mode="normal" in="SourceGraphic" in2="effect1_dropShadow" result="shape"/>
</filter>
<filter id="filter5_d" x="240.65" y="769.65" width="285.232" height="251.033" filterUnits="userSpaceOnUse" color-interpolation-filters="sRGB">
<feFlood flood-opacity="0" result="BackgroundImageFix"/>
<feColorMatrix in="SourceAlpha" type="matrix" values="0 0 0 0 0 0 0 0 0 0 0 0 0 0 0 0 0 0 127 0"/>
<feOffset dy="42"/>
<feGaussianBlur stdDeviation="31"/>
<feColorMatrix type="matrix" values="0 0 0 0 0 0 0 0 0 0 0 0 0 0 0 0 0 0 0.26 0"/>
<feBlend mode="normal" in2="BackgroundImageFix" result="effect1_dropShadow"/>
<feBlend mode="normal" in="SourceGraphic" in2="effect1_dropShadow" result="shape"/>
</filter>
<radialGradient id="paint0_radial" cx="0" cy="0" r="1" gradientUnits="userSpaceOnUse" gradientTransform="translate(1241.43 589.497) rotate(30) scale(608.209 526.71)">
<stop offset="0.0969388" stop-color="#FFD87A"/>
<stop offset="0.1426" stop-color="#FCCE78"/>
<stop offset="0.2263" stop-color="#F5B471"/>
<stop offset="0.3378" stop-color="#EB8D65"/>
<stop offset="0.449" stop-color="#E36058"/>
<stop offset="0.6786" stop-color="#CD3694"/>
<stop offset="1" stop-color="#6668B0"/>
</radialGradient>
<radialGradient id="paint1_radial" cx="0" cy="0" r="1" gradientUnits="userSpaceOnUse" gradientTransform="translate(1195.39 607.496) rotate(30) scale(608.209 526.71)">
<stop offset="0.0969388" stop-color="#FFD87A"/>
<stop offset="0.1426" stop-color="#FCCE78"/>
<stop offset="0.2263" stop-color="#F5B471"/>
<stop offset="0.3378" stop-color="#EB8D65"/>
<stop offset="0.449" stop-color="#E36058"/>
<stop offset="0.6786" stop-color="#CD3694"/>
<stop offset="1" stop-color="#6668B0"/>
</radialGradient>
</defs>
</svg>
