<svg width="1780" height="1773" viewBox="0 0 1780 1773" fill="none" xmlns="http://www.w3.org/2000/svg">
<g filter="url(#filter0_d)">
<path d="M589.004 1623L146 1377.98L1191 800L1634 1045.02L589.004 1623Z" fill="white" fill-opacity="0.01"/>
</g>
<path d="M386 845.21V1091.84L179.501 1280.1C178.547 1280.97 177.661 1281.6 176.699 1281.87C172.303 1283.08 164.123 1282.64 157.035 1279.72C149.975 1276.81 144.5 1271.69 144.5 1263.86V676.85C144.5 672.532 146.588 667.452 149.927 663.228C151.587 661.127 153.914 660.234 156.439 660.31C158.999 660.387 161.743 661.47 164.008 663.325L386 845.21Z" fill="#D0D0D0" stroke="#989898" stroke-width="3"/>
<path d="M143 585L174 603.443V712.457L143 694.013V585Z" fill="#363F41"/>
<path d="M1128.85 2.28374C1119.76 -0.335142 1110.46 3.43475 1102.28 8.16163L156.855 554C149.203 558.418 142.999 569.163 142.999 578V692L1128.54 123L1154.93 27.0835C1155.31 25.7008 1155.57 24.2542 1155.16 22.8813C1153.09 16.033 1141.94 6.05857 1128.85 2.28374Z" fill="#363F41"/>
<path d="M171.299 595.25C171.299 587.241 176.921 577.504 183.856 573.5L1141.68 20.4996C1148.62 16.4955 1154.24 19.7415 1154.24 27.7496V704.75C1154.24 712.758 1148.62 722.496 1141.68 726.5L183.856 1279.5C176.921 1283.5 171.299 1280.26 171.299 1272.25V595.25Z" fill="white" stroke="#989898" stroke-width="3"/>
<path d="M1141.68 18.9996L183.856 572C176.204 576.418 170 587.163 170 596V710L1155.54 141V26.9996C1155.54 18.1631 1149.33 14.5814 1141.68 18.9996Z" fill="#445053"/>
<rect width="262" height="262" transform="matrix(0.866025 -0.5 0 1 243.611 717.5)" fill="#E0E0E0"/>
<rect width="262" height="262" transform="matrix(0.866025 -0.5 0 1 549.318 541)" fill="#E0E0E0"/>
<rect width="262" height="472" transform="matrix(0.866025 -0.5 0 1 855.025 364.5)" fill="#E0E0E0"/>
<rect width="262" height="42" transform="matrix(0.866025 -0.5 0 1 243.611 1007.5)" fill="#E0E0E0"/>
<rect width="262" height="42" transform="matrix(0.866025 -0.5 0 1 549.318 831)" fill="#E0E0E0"/>
<rect width="262" height="42" transform="matrix(0.866025 -0.5 0 1 243.611 1077.5)" fill="#E0E0E0"/>
<rect width="155" height="42" transform="matrix(0.866025 -0.5 0 1 243.611 1147.5)" fill="#E0E0E0"/>
<rect width="155" height="42" transform="matrix(0.866025 -0.5 0 1 549.318 901)" fill="#E0E0E0"/>
<path d="M1104.47 133.516L1081.51 120.258M1081.51 120.258L1058.54 107M1081.51 120.258L1058.54 160.033M1081.51 120.258L1104.47 80.4833" stroke="white" stroke-width="6" stroke-linecap="round" stroke-linejoin="round"/>
<rect width="58" height="58" rx="4" transform="matrix(0.866025 -0.5 0 1 972.805 152.5)" stroke="white" stroke-width="6" stroke-linecap="round" stroke-linejoin="round"/>
<path d="M887.502 258.75L937.298 230" stroke="white" stroke-width="6" stroke-linecap="round" stroke-linejoin="round"/>
<path d="M391 721.593C391 708.338 400.234 692.099 411.626 685.322L1155 243.06V706.835L391 1161.37V721.593Z" fill="black" fill-opacity="0.12"/>
<path d="M1511.51 904.686L1511.5 904.711V904.736C1511.5 908.833 1510.07 913.494 1507.67 917.705C1505.28 921.915 1502.01 925.534 1498.49 927.628L547.984 1493.12C544.452 1495.22 541.617 1495.25 539.769 1494.2C537.921 1493.15 536.5 1490.7 536.5 1486.59V738.852C536.5 734.755 537.937 730.094 540.331 725.883C542.726 721.673 545.997 718.054 549.517 715.96L1499.96 150.509C1506.48 147.49 1515.61 149.028 1523.34 152.631C1527.17 154.419 1530.53 156.66 1532.91 158.943C1535.34 161.277 1536.49 163.405 1536.5 164.977C1536.5 164.985 1536.5 164.992 1536.5 165L1511.51 904.686Z" fill="#BEBEBE" stroke="#989898" stroke-width="3"/>
<path d="M1498.49 950.891L1498.47 950.899L1498.46 950.908L570.233 1529.71C570.228 1529.71 570.224 1529.72 570.219 1529.72C568.682 1530.63 565.832 1531.19 562.219 1531.08C558.654 1530.96 554.564 1530.19 550.707 1528.66C542.985 1525.58 536.5 1519.59 536.5 1509.85V846.868C536.5 842.772 537.937 838.111 540.331 833.9C542.726 829.689 545.997 826.071 549.517 823.977L1500.02 258.487C1503.55 256.385 1506.39 256.352 1508.24 257.403C1510.08 258.454 1511.5 260.907 1511.5 265.017V928C1511.5 932.096 1510.07 936.757 1507.67 940.968C1505.28 945.179 1502.01 948.797 1498.49 950.891Z" fill="#D0D0D0" stroke="#989898" stroke-width="3"/>
<path d="M562.711 862.733V755.733L536.294 740.017V847.017L562.711 862.733Z" fill="#BEBEBE" stroke="#989898" stroke-width="3"/>
<path d="M562.289 750.085C562.289 742.077 567.868 732.265 574.751 728.171L1525.25 162.681C1532.14 158.586 1537.72 161.759 1537.72 169.767V940.767C1537.72 948.775 1532.14 958.586 1525.25 962.681L574.751 1528.17C567.868 1532.27 562.289 1529.09 562.289 1521.08V750.085Z" fill="white" stroke="#989898" stroke-width="3"/>
<path d="M574.751 728.171L1525.25 162.681C1532.14 158.586 1537.72 161.759 1537.72 169.767V282.267L562.289 862.585V750.085C562.289 742.076 567.868 732.265 574.751 728.171Z" fill="#E3E3E3" stroke="#989898" stroke-width="3"/>
<path d="M1077.31 555.49L831.947 701.468L855.756 621.971C858.113 614.102 863.565 606.657 869.602 603.066L1040.72 501.259C1046.85 497.615 1052.36 498.658 1054.66 503.896L1077.31 555.49Z" fill="#C8C8C8" stroke="#989898" stroke-width="3"/>
<circle r="23.5" transform="matrix(0.859406 -0.511293 0 1 618.626 774.581)" fill="#FF5E58" stroke="#9B9B9B"/>
<circle r="23.5" transform="matrix(0.859406 -0.511293 0 1 683.94 735.722)" fill="#FDBD30" stroke="#9B9B9B"/>
<circle r="23.5" transform="matrix(0.859406 -0.511293 0 1 749.256 696.864)" fill="#2EC840" stroke="#9B9B9B"/>
<path fill-rule="evenodd" clip-rule="evenodd" d="M954.921 822.047L894.208 858.168V876.036L937.266 850.419C935.139 876.74 914.121 899.93 894.281 911.734C868.898 926.834 846.748 920.205 846.748 892.443C846.748 865.398 867.863 832.008 894.336 816.258C914.762 804.106 926.797 809.859 926.797 809.859L939.411 789.399C939.411 789.399 923.221 781.155 893.691 798.723C856.089 821.093 827 869.875 827 903.872C827 937.185 854.363 953.39 894.65 929.422C930.082 908.342 956.018 868.839 956.018 833.241C956.018 825.731 954.919 822.044 954.919 822.044L954.921 822.048L954.921 822.047Z" fill="#176BEF"/>
<path fill-rule="evenodd" clip-rule="evenodd" d="M1004.9 795.944C1017.15 788.656 1028.76 791.573 1028.76 807.401C1028.76 822.894 1017.2 839.874 1004.85 847.225C991.269 855.302 980.558 850.891 980.558 835.957C980.558 821.342 991.135 804.134 1004.9 795.944L1004.9 795.944ZM1004.65 779.52C979.742 794.341 961.889 824.278 961.889 846.807C961.889 869.667 979.205 879.041 1004.95 863.726C1028.25 849.862 1047.34 820.841 1047.34 796.459C1047.34 768.515 1025.13 767.336 1004.65 779.52L1004.65 779.52Z" fill="#FF3E30"/>
<path fill-rule="evenodd" clip-rule="evenodd" d="M1097.91 740.61C1110.16 733.32 1121.77 736.237 1121.77 752.065C1121.77 767.558 1110.21 784.539 1097.86 791.89C1084.28 799.967 1073.57 795.555 1073.57 780.621C1073.57 766.006 1084.15 748.798 1097.91 740.61ZM1097.66 724.185C1072.75 739.005 1054.9 768.944 1054.9 791.472C1054.9 814.332 1072.22 823.706 1097.96 808.391C1121.26 794.527 1140.35 765.506 1140.35 741.124C1140.35 713.18 1118.14 712.001 1097.66 724.185Z" fill="#F7B529"/>
<path fill-rule="evenodd" clip-rule="evenodd" d="M1190.55 685.508C1201.76 678.839 1213.27 681.484 1213.27 697.698C1213.27 714.177 1201.78 730.094 1190.3 736.925C1178.11 744.177 1166.77 741.109 1166.77 725.52C1166.77 709.322 1178.55 692.648 1190.55 685.508ZM1188.89 669.954C1166.02 683.558 1148.05 714.115 1148.05 736.409C1148.05 761.804 1168.89 766.247 1188.5 754.582C1200.62 747.368 1207.07 738.759 1211.83 730.449L1211.83 738.768C1211.83 753.323 1202.92 767.344 1189.46 775.346C1176.47 783.075 1169.95 777.372 1167.69 773.28L1151.34 789.785C1157.14 798.498 1168.81 804.237 1189.6 791.871C1212.34 778.345 1229.66 753.834 1229.66 724.047V648.234L1211.83 658.844V665.991C1206.34 663.392 1198.84 664.034 1188.89 669.956C1188.89 669.955 1188.89 669.956 1188.89 669.955L1188.89 669.954Z" fill="#176BEF"/>
<path fill-rule="evenodd" clip-rule="evenodd" d="M1309.71 614.201C1317.48 609.578 1323.07 610.348 1325.45 613.847L1287.36 652.301C1285.72 641.054 1297.39 621.528 1309.71 614.201L1309.71 614.201ZM1308.97 598.417C1287.4 611.249 1269.29 639.044 1269.29 664.158C1269.29 690.732 1289.47 694.485 1311.04 681.654C1329.04 670.947 1340.08 654.608 1346.68 641.936L1331.97 640.981C1328.15 649.125 1321.77 658.661 1311.13 664.995C1299.17 672.109 1293.67 668.885 1290.26 664.621L1347.3 607.211L1344.34 602.093C1338.83 591.901 1325.98 588.298 1308.97 598.418L1308.97 598.417L1308.97 598.417Z" fill="#FF3E30"/>
<path fill-rule="evenodd" clip-rule="evenodd" d="M1242.09 720.168L1260.83 709.022V584.662L1242.09 595.809V720.168Z" fill="#179C52"/>
<g filter="url(#filter1_d)">
<rect width="913" height="99" rx="49.5" transform="matrix(0.859406 -0.511293 0 1 674 1191.85)" fill="#E9E9E9"/>
</g>
<defs>
<filter id="filter0_d" x="0" y="658" width="1780" height="1115" filterUnits="userSpaceOnUse" color-interpolation-filters="sRGB">
<feFlood flood-opacity="0" result="BackgroundImageFix"/>
<feColorMatrix in="SourceAlpha" type="matrix" values="0 0 0 0 0 0 0 0 0 0 0 0 0 0 0 0 0 0 127 0"/>
<feOffset dy="4"/>
<feGaussianBlur stdDeviation="73"/>
<feColorMatrix type="matrix" values="0 0 0 0 0.566667 0 0 0 0 0.554861 0 0 0 0 0.554861 0 0 0 0.21 0"/>
<feBlend mode="normal" in2="BackgroundImageFix" result="effect1_dropShadow"/>
<feBlend mode="normal" in="SourceGraphic" in2="effect1_dropShadow" result="shape"/>
</filter>
<filter id="filter1_d" x="658" y="736.243" width="816.638" height="559.406" filterUnits="userSpaceOnUse" color-interpolation-filters="sRGB">
<feFlood flood-opacity="0" result="BackgroundImageFix"/>
<feColorMatrix in="SourceAlpha" type="matrix" values="0 0 0 0 0 0 0 0 0 0 0 0 0 0 0 0 0 0 127 0"/>
<feOffset dy="8"/>
<feGaussianBlur stdDeviation="8"/>
<feColorMatrix type="matrix" values="0 0 0 0 0 0 0 0 0 0 0 0 0 0 0 0 0 0 0.24 0"/>
<feBlend mode="normal" in2="BackgroundImageFix" result="effect1_dropShadow"/>
<feBlend mode="normal" in="SourceGraphic" in2="effect1_dropShadow" result="shape"/>
</filter>
</defs>
</svg>
