<svg id="ArvinTavLogo" xmlns="http://www.w3.org/2000/svg" width="95.24" height="50.189" viewBox="0 0 95.24 50.189">
  <path id="Path_7" data-name="Path 7" d="M30.712,4.245a7.875,7.875,0,0,0-13.978,0L.544,36.291a5.153,5.153,0,0,0,4.681,7.422,5.217,5.217,0,0,0,4.681-2.83l13.818-27.36L37.541,40.788a5.164,5.164,0,0,0,3.014,2.579,5.224,5.224,0,0,0,4.007-.283,5.126,5.126,0,0,0,2.629-2.956,4.864,4.864,0,0,0-.289-3.9Z" transform="translate(0.002)" fill="#48a839"/>
  <path id="Path_8" data-name="Path 8" d="M66.527,76.8A3.516,3.516,0,0,0,63,80.327V99.691a3.527,3.527,0,0,0,7.053,0V80.327A3.537,3.537,0,0,0,66.527,76.8Z" transform="translate(-43.165 -53.028)" fill="#48a839"/>
  <path id="Path_9" data-name="Path 9" d="M199.049,32.634a4.651,4.651,0,0,0-8.368,2.821h0a4.592,4.592,0,0,0,.962,2.789,15.819,15.819,0,0,1,2.949,9.3c0,8.3-6.22,15.068-13.882,15.068s-13.882-6.765-13.882-15.068a15.777,15.777,0,0,1,2.853-9.137,4.721,4.721,0,0,0,.9-2.757h0a4.642,4.642,0,0,0-8.368-2.789A25.067,25.067,0,0,0,157.5,47.541c0,13.433,10.387,24.365,23.179,24.365s23.179-10.932,23.179-24.365A24.808,24.808,0,0,0,199.049,32.634Z" transform="translate(-108.619 -21.75)" fill="#3c3c3b"/>
  <path id="Path_10" data-name="Path 10" d="M222.227,41.3h0a3.516,3.516,0,0,0,3.527-3.527V13.827a3.516,3.516,0,0,0-3.527-3.527h0a3.516,3.516,0,0,0-3.527,3.527V37.775A3.516,3.516,0,0,0,222.227,41.3Z" transform="translate(-149.845 -6.998)" fill="#3c3c3b"/>
</svg>
