<svg width="800" height="712" viewBox="0 0 800 712" fill="none" xmlns="http://www.w3.org/2000/svg">
<rect width="800" height="700" fill="white"/>
<g filter="url(#filter0_d)">
<path d="M201 657C186 661.091 149.5 687.5 149.5 700H664.058C664.058 678.472 582.477 643.914 582.477 643.914C582.477 643.914 466.622 609.922 464.923 559.784C464.923 554.402 462.94 532.081 470.871 494.917C414.244 466.356 384.951 464.036 333.771 498.032C338.304 509.646 332.166 549.209 327.823 566.582C306.295 614.171 216 652.909 201 657Z" fill="url(#paint0_linear)"/>
</g>
<path d="M312.653 617.853C295.468 608.033 254.415 588.224 237.872 581.878C217.194 573.947 194.532 557.518 177.537 493.5L177.233 493.362C170.774 490.419 160.041 485.53 157.141 475.938C153.742 450.161 152.269 423.93 179.236 407.388C179.236 407.062 179.287 406.708 179.344 406.309C179.736 403.586 180.433 398.743 167.339 386.143C156.424 375.641 182.637 339.389 197.328 319.071C202.846 311.441 206.738 306.057 206.429 305.129C207.562 301.503 203.502 293.043 201.33 289.266C200.292 283.79 199.857 271.874 206.429 268.022C209.828 277.766 214.644 281.524 216.627 282.185C217.854 279.824 219.006 273.687 213.794 268.022C208.582 262.356 214.077 245.833 217.193 238.562C245.803 190.124 311.973 122.48 378.37 111.376C391.778 109.96 423.523 111.886 443.238 128.656C457.496 124.595 491.676 122.537 514.337 144.518C518.34 148.064 522.943 153.132 527.829 158.513C535.046 166.46 542.88 175.088 550.312 180.493C562.776 189.557 617.162 275.386 612.913 349.885C614.53 364.807 621.005 375.308 627.162 385.293C635.031 398.053 642.38 409.971 638.407 429.199C638.08 429.642 637.752 430.086 637.424 430.53C624.13 448.515 610.59 466.833 617.446 485.852C611.686 485.946 601.016 488.175 604.415 496.333C611.894 496.333 613.008 501.809 612.63 504.547C608.098 504.642 600.393 506.077 605.832 511.062C612.63 517.294 613.412 524.75 605.832 534.857C601.857 540.156 594.671 545.386 588.831 549.636C587.18 550.838 585.637 551.961 584.304 552.985C569.079 564.687 556.827 574.477 556.827 592.926V617.853C528.784 610.205 474.227 586.241 467.882 552.702C458.534 418.718 323.984 477.92 333.331 490.384C341.223 500.906 337.001 532.021 334.472 550.663C334.005 554.103 333.596 557.118 333.331 559.501C331.632 574.797 316.052 593.209 308.404 594.625C302.286 595.758 308.687 610.583 312.653 617.853Z" fill="url(#paint1_linear)"/>
<path d="M285.616 357.533C292.109 357.533 294.774 372.829 295.813 378.495C295.813 357.533 293.83 322.975 306.577 315.61C323.384 305.224 351.899 287.283 381.359 251.309C396.655 230.499 425.926 214.012 436.029 211.935C442.26 224.21 463.449 249.269 498.347 251.309C495.797 266.322 493.248 327.507 497.497 340.537C501.746 353.567 507.411 351.584 512.227 346.202C517.833 339.937 525.257 341.67 526.39 341.954C527.523 342.237 541.686 349.035 537.437 387.842C533.188 426.65 518.175 415.319 511.66 415.319C506.448 415.319 506.656 427.405 507.411 433.448C511.094 464.607 473.201 482.453 472.003 492.367C467.924 526.132 434.046 546.187 426.964 546.187H386.741C370.425 546.187 355.582 528.058 350.2 518.994L313.942 471.405C301.761 448.461 291.564 451.294 295.53 427.783C289.411 431.182 288.637 426.366 289.014 423.534C291.733 404.045 289.297 392.752 288.164 390.108C281.366 378.778 277.117 357.533 285.616 357.533Z" fill="url(#paint2_linear)"/>
<defs>
<filter id="filter0_d" x="133.5" y="453.015" width="546.558" height="258.985" filterUnits="userSpaceOnUse" color-interpolation-filters="sRGB">
<feFlood flood-opacity="0" result="BackgroundImageFix"/>
<feColorMatrix in="SourceAlpha" type="matrix" values="0 0 0 0 0 0 0 0 0 0 0 0 0 0 0 0 0 0 127 0"/>
<feOffset dy="-4"/>
<feGaussianBlur stdDeviation="8"/>
<feColorMatrix type="matrix" values="0 0 0 0 0 0 0 0 0 0 0 0 0 0 0 0 0 0 0.06 0"/>
<feBlend mode="normal" in2="BackgroundImageFix" result="effect1_dropShadow"/>
<feBlend mode="normal" in="SourceGraphic" in2="effect1_dropShadow" result="shape"/>
</filter>
<linearGradient id="paint0_linear" x1="399.489" y1="461.208" x2="399.772" y2="700" gradientUnits="userSpaceOnUse">
<stop stop-color="#CDCDCD"/>
<stop offset="1" stop-color="#FDFDFD"/>
</linearGradient>
<linearGradient id="paint1_linear" x1="397.418" y1="111" x2="397.418" y2="617.853" gradientUnits="userSpaceOnUse">
<stop stop-color="#A5A5A5"/>
<stop offset="1" stop-color="#A8A8A8"/>
</linearGradient>
<linearGradient id="paint2_linear" x1="515.909" y1="234.03" x2="318.474" y2="506.247" gradientUnits="userSpaceOnUse">
<stop stop-color="#E6E6E6"/>
<stop offset="1" stop-color="#F9F9F9"/>
</linearGradient>
</defs>
</svg>
