<svg width="800" height="712" viewBox="0 0 800 712" fill="none" xmlns="http://www.w3.org/2000/svg">
<rect width="800" height="700" fill="white"/>
<path d="M449.714 544.947C483.647 544.947 499.521 552.354 502.734 555.757C495.408 585.545 464.013 599.198 449.714 602.601V544.947Z" fill="#C4C4C4"/>
<path d="M347.789 550.095C317.15 550.095 302.817 556.841 299.916 559.94C306.531 587.068 334.878 599.502 347.789 602.601V550.095Z" fill="#C4C4C4"/>
<path d="M325.403 520.059C333.033 539.46 326.005 579.568 321.537 597.196C344.219 633.661 392.504 640.634 413.811 639.563C444.483 628.557 502.167 601.17 487.527 579.665C472.887 558.16 473.007 514.508 474.64 493.471C424.121 570.607 357.192 543.434 325.403 520.059Z" fill="url(#paint0_linear)"/>
<path d="M240.941 214.935C233.562 233.295 227.557 267.955 240.941 299.871C247.152 314.683 253.113 326.326 257.536 335.063C256.772 334.28 255.905 333.085 254.833 332.937C241.78 331.135 242.784 363.055 250.566 378.757C259.804 387.2 261.611 412.993 261.36 424.834C261.778 430.669 265.678 439.61 276.924 420.458C290.781 528.366 362.19 551.568 396.163 549.68C414.572 552.598 459.925 541.443 494.065 473.486C499.588 460.615 508.625 438.735 508.625 420.458C508.625 417.028 510.019 414.454 511.44 417.46C518.132 431.616 525.385 420.291 525.385 409.564C525.385 387.684 526.247 369.181 533.477 353.53C534.459 348.064 534.924 338.413 530.553 336.768C533.912 329.663 537.194 323.155 537.96 319.432C537.96 314.542 541.564 297.812 543.88 278.508C547.441 248.836 549.321 226.308 529.209 197.947C484.94 145.184 446.332 124.851 395.628 119.446C333.341 112.806 296.879 153.42 292.675 176.07C264.26 181.217 246.603 204.296 240.941 214.935Z" fill="url(#paint1_linear)"/>
<path d="M238.428 291.994C250.669 320.937 261.944 337.769 262.549 344.456H271.108C265.748 334.512 257.258 303.052 266.18 256.763C275.103 210.474 327.911 216.903 355.663 225.132C361.629 226.161 376.797 224.053 394.05 214.074C431.399 192.473 454.483 223.932 474.455 235.933C480.074 240.562 496.242 252.031 510.766 255.735C510.766 282.222 522.697 273.993 516.473 336.484C515.561 347.182 518.47 356.202 520.752 358.087C521.009 344.704 538.768 328.451 538.768 312.016C538.768 307.13 544.156 289.607 546.49 270.32C550.078 240.673 549.19 218.494 528.922 190.158C484.311 137.44 445.405 117.124 394.309 111.724C331.542 105.089 294.798 145.669 290.561 168.299C261.927 173.442 244.134 196.501 238.428 207.131C230.992 225.475 224.94 260.106 238.428 291.994Z" fill="url(#paint2_linear)"/>
<path fill-rule="evenodd" clip-rule="evenodd" d="M323.99 341.54C328.754 341.398 339.675 341.768 350.053 343.012C355.24 343.633 360.125 344.454 363.962 345.485C365.883 346.001 367.416 346.537 368.542 347.066C368.698 347.139 368.839 347.208 368.967 347.275V347.293V347.326V347.358V347.391V347.424V347.457V347.491V347.524V347.557V347.591V347.624V347.658V347.691V347.725V347.759V347.792V347.826V347.86V347.894V347.928V347.963V347.997V348.031V348.066V348.1V348.135V348.169V348.204V348.239V348.274V348.308V348.343V348.378V348.413V348.449V348.484V348.519V348.554V348.59V348.625V348.661V348.696V348.732V348.768V348.804V348.839V348.875V348.911V348.947V348.983V349.02V349.056V349.092V349.128V349.165V349.201V349.238V349.274V349.311V349.347V349.384V349.421V349.458V349.494V349.531V349.568V349.605V349.642V349.679V349.717V349.754V349.791V349.828V349.866V349.903V349.94V349.978V350.015V350.053V350.091V350.128V350.166V350.204V350.242V350.279V350.317V350.355V350.393V350.431V350.469V350.507V350.545V350.584V350.622V350.66V350.698V350.737V350.775V350.813V350.852V350.89V350.929V350.967V351.006V351.044V351.083V351.122V351.16V351.199V351.238V351.277V351.315V351.354V351.393V351.432V351.471V351.51V351.549V351.588V351.627V351.666V351.705V351.744V351.783V351.822V351.862V351.901V351.94V351.979V352.019V352.058V352.097V352.137V352.176V352.215V352.255V352.294V352.334V352.373V352.412V352.452V352.491V352.531V352.57V352.61V352.65V352.689V352.729V352.768V352.808V352.848V352.887V352.927V352.967V353.006V353.046V353.086V353.125V353.165V353.205V353.244V353.284V353.324V353.364V353.403V353.443V353.483V353.523V353.563V353.602V353.642V353.682V353.722V353.761V353.801V353.841V353.881V353.921V353.96V354V354.04V354.08V354.12V354.159V354.199V354.239V354.279V354.318V354.358V354.398V354.438V354.477V354.517V354.557V354.597V354.636V354.676V354.716V354.755V354.795V354.835V354.874V354.914V354.954V354.993V355.033V355.072V355.112V355.152V355.191V355.231V355.27V355.31V355.349V355.389V355.428V355.467V355.507V355.546V355.586V355.625V355.664V355.704V355.743V355.782V355.821V355.861V355.9V355.939V355.978V356.017V356.056V356.095V356.135V356.174V356.213V356.252V356.291V356.329V356.368V356.407V356.446V356.485V356.524V356.562V356.601V356.64V356.678V356.717V356.756V356.794V356.833V356.871V356.91V356.948V356.986V357.025V357.063V357.101V357.139V357.178V357.216V357.254V357.292V357.33V357.368V357.406V357.444V357.482V357.52V357.557V357.595V357.633V357.67V357.708V357.746V357.783V357.821V357.858V357.895V357.933V357.97V358.007V358.044V358.082V358.119V358.156V358.193V358.23V358.267V358.303V358.34V358.377V358.414V358.45V358.487V358.523V358.56V358.596V358.633V358.669V358.705V358.741V358.777V358.813V358.849V358.885V358.921V358.957V358.993V359.029V359.064V359.1V359.135V359.171V359.206V359.241V359.277V359.312V359.347V359.382V359.417V359.452V359.487V359.522V359.556V359.591V359.626V359.66V359.695V359.729V359.763V359.798V359.832V359.866V359.9V359.934V359.968V360.002V360.035V360.069V360.103V360.136V360.17V360.203V360.236V360.269V360.303V360.336V360.369V360.402V360.434V360.467V360.5V360.532V360.565V360.597V360.63V360.662V360.694V360.726V360.758V360.79V360.822V360.853V360.885V360.917V360.948V360.98V361.011V361.042V361.073V361.104V361.135V361.166V361.197V361.227V361.258V361.289V361.319V361.349V361.379V361.41V361.44V361.469V361.499V361.529V361.559V361.588V361.618V361.647V361.676V361.705V361.735V361.763V361.792V361.821V361.85V361.878V361.907V361.935V361.963V361.991V362.02V362.047V362.075V362.103V362.131V362.158V362.186V362.213V362.24V362.267V362.294V362.321V362.348V362.374V362.401V362.427V362.454V362.48V362.506V362.532V362.558V362.584V362.609V362.635V362.66C368.967 381.689 361.69 384.296 360.91 384.488H360.872H360.805H360.738H360.671H360.604H360.536H360.468H360.399H360.33H360.261H360.191H360.122H360.051H359.981H359.91H359.839H359.768H359.696H359.624H359.551H359.479H359.405H359.332H359.258H359.184H359.11H359.036H358.961H358.885H358.81H358.734H358.658H358.581H358.505H358.428H358.35H358.273H358.195H358.117H358.038H357.959H357.88H357.801H357.721H357.641H357.561H357.48H357.399H357.318H357.237H357.155H357.073H356.991H356.908H356.825H356.742H356.659H356.575H356.491H356.407H356.323H356.238H356.153H356.068H355.982H355.896H355.81H355.724H355.637H355.551H355.463H355.376H355.288H355.201H355.112H355.024H354.935H354.846H354.757H354.668H354.578H354.488H354.398H354.308H354.217H354.126H354.035H353.944H353.852H353.76H353.668H353.576H353.483H353.39H353.297H353.204H353.111H353.017H352.923H352.829H352.734H352.64H352.545H352.45H352.355H352.259H352.163H352.067H351.971H351.875H351.778H351.681H351.584H351.487H351.39H351.292H351.194H351.096H350.998H350.899H350.801H350.702H350.603H350.503H350.404H350.304H350.204H350.104H350.004H349.903H349.803H349.702H349.601H349.499H349.398H349.296H349.195H349.093H348.99H348.888H348.785H348.683H348.58H348.477H348.374H348.27H348.166H348.063H347.959H347.855H347.75H347.646H347.541H347.436H347.331H347.226H347.121H347.016H346.91H346.804H346.698H346.592H346.486H346.38H346.273H346.166H346.059H345.952H345.845H345.738H345.63H345.523H345.415H345.307H345.199H345.091H344.983H344.874H344.766H344.657H344.548H344.439H344.33H344.22H344.111H344.001H343.892H343.782H343.672H343.562H343.452H343.342H343.231H343.121H343.01H342.899H342.788H342.677H342.566H342.455H342.343H342.232H342.12H342.009H341.897H341.785H341.673H341.561H341.448H341.336H341.224H341.111H340.998H340.886H340.773H340.66H340.547H340.434H340.32H340.207H340.094H339.98H339.867H339.753H339.639H339.525H339.411H339.297H339.183H339.069H338.955H338.84H338.726H338.611H338.497H338.382H338.267H338.153H338.038H337.923H337.808H337.693H337.578H337.462H337.347H337.232H337.116H337.001H336.885H336.77H336.654H336.538H336.423H336.307H336.191H336.075H335.959H335.843H335.727H335.611H335.495H335.379H335.262H335.146H335.03H334.913H334.797H334.68H334.564H334.447H334.331H334.214H334.098H333.981H333.864H333.748H333.631H333.514H333.397H333.28H333.164H333.047H332.93H332.813H332.696H332.579H332.462H332.345H332.228H332.111H331.994H331.877H331.76H331.643H331.526H331.409H331.292H331.174H331.057H330.94H330.823H330.706H330.589H330.472H330.355H330.238H330.121H330.004H329.886H329.769H329.652H329.535H329.418H329.301H329.184H329.067H328.95H328.833H328.716H328.599H328.483H328.366H328.249H328.132H328.015H327.898H327.782H327.665H327.548H327.432H327.315H327.198H327.082H326.965H326.849H326.732H326.616H326.5H326.383H326.267H326.151H326.035H325.918H325.802H325.686H325.57H325.454H325.338H325.223H325.107H324.991H324.875H324.76H324.644H324.529H324.413H324.298H324.182H324.067H323.952H323.837H323.722H323.607H323.492H323.377H323.262H323.148H323.033H322.918H322.804H322.689H322.575H322.461H322.347H322.233H322.119H322.005H321.891H321.777H321.663H321.55H321.436H321.323H321.21H321.096H320.983H320.87H320.757H320.644H320.532H320.419H320.306H320.194H320.082H319.97H319.857H319.745H319.633H319.522H319.41H319.298H319.187H319.076H318.964H318.853H318.742H318.631H318.521H318.41H318.299H318.189H318.079H317.969H317.859H317.749H317.639H317.529H317.42H317.31H317.201H317.092H316.983H316.874H316.765H316.657H316.548H316.44H316.332H316.224H316.116H316.008H315.901H315.793H315.686H315.579H315.472H315.365H315.258H315.152H315.045H314.939H314.833H314.727H314.621H314.516H314.41H314.305H314.2H314.095H313.99H313.886H313.781H313.677H313.573H313.469H313.365H313.262H313.158H313.055H312.952H312.849H312.747H312.644H312.542H312.44H312.338H312.236H312.134H312.033H311.932H311.831H311.73H311.629H311.529H311.428H311.328H311.229H311.129H311.029H310.93H310.831H310.732H310.634H310.535H310.437H310.339H310.241H310.143H310.046H309.949H309.852H309.755H309.658H309.562H309.466H309.37H309.274H309.179H309.084H308.989H308.894H308.799H308.705H308.611H308.517H308.423H308.33H308.236C301.08 384.488 294.661 378.747 290 369.696C287.757 365.341 286.139 360.589 285.218 356.214C284.311 351.901 284.152 348.292 284.516 345.935C284.687 345.762 284.964 345.516 285.376 345.223C286.592 344.356 288.436 343.462 290.534 342.937C290.507 342.944 290.513 342.943 290.562 342.936L290.562 342.936C290.661 342.921 290.937 342.879 291.465 342.822C292.15 342.747 293.064 342.667 294.179 342.582C296.405 342.415 299.326 342.243 302.617 342.088C309.203 341.778 317.162 341.542 323.842 341.542H323.916L323.99 341.54ZM284.296 346.191C284.295 346.191 284.303 346.177 284.325 346.149C284.308 346.177 284.297 346.191 284.296 346.191ZM377.864 341.717C376.485 340.002 374.55 338.838 372.789 338.012C370.943 337.146 368.802 336.431 366.557 335.828C362.062 334.62 356.646 333.73 351.243 333.083C340.491 331.794 329.125 331.39 323.768 331.542C316.907 331.544 308.819 331.785 302.147 332.099C298.798 332.256 295.778 332.434 293.428 332.611C291.311 332.77 289.207 332.961 288.108 333.236C284.873 334.045 281.87 335.442 279.573 337.079C278.429 337.894 277.321 338.867 276.447 339.989C275.796 340.826 275.007 342.089 274.73 343.674H263.385C262.41 349.337 262.003 362.051 268.17 367.611C268.17 358.963 270.296 357.144 271.36 357.315H275.24C275.301 357.634 275.365 357.953 275.433 358.273C276.526 363.471 278.433 369.077 281.11 374.275C286.289 384.333 295.295 394.488 308.236 394.488H308.33H308.423H308.517H308.611H308.705H308.799H308.894H308.989H309.084H309.179H309.274H309.37H309.466H309.562H309.658H309.755H309.852H309.949H310.046H310.143H310.241H310.339H310.437H310.535H310.634H310.732H310.831H310.93H311.029H311.129H311.229H311.328H311.428H311.529H311.629H311.73H311.831H311.932H312.033H312.134H312.236H312.338H312.44H312.542H312.644H312.747H312.849H312.952H313.055H313.158H313.262H313.365H313.469H313.573H313.677H313.781H313.886H313.99H314.095H314.2H314.305H314.41H314.516H314.621H314.727H314.833H314.939H315.045H315.152H315.258H315.365H315.472H315.579H315.686H315.793H315.901H316.008H316.116H316.224H316.332H316.44H316.548H316.657H316.765H316.874H316.983H317.092H317.201H317.31H317.42H317.529H317.639H317.749H317.859H317.969H318.079H318.189H318.299H318.41H318.521H318.631H318.742H318.853H318.964H319.076H319.187H319.298H319.41H319.522H319.633H319.745H319.857H319.97H320.082H320.194H320.306H320.419H320.532H320.644H320.757H320.87H320.983H321.096H321.21H321.323H321.436H321.55H321.663H321.777H321.891H322.005H322.119H322.233H322.347H322.461H322.575H322.689H322.804H322.918H323.033H323.148H323.262H323.377H323.492H323.607H323.722H323.837H323.952H324.067H324.182H324.298H324.413H324.529H324.644H324.76H324.875H324.991H325.107H325.223H325.338H325.454H325.57H325.686H325.802H325.918H326.035H326.151H326.267H326.383H326.5H326.616H326.732H326.849H326.965H327.082H327.198H327.315H327.432H327.548H327.665H327.782H327.898H328.015H328.132H328.249H328.366H328.483H328.599H328.716H328.833H328.95H329.067H329.184H329.301H329.418H329.535H329.652H329.769H329.886H330.004H330.121H330.238H330.355H330.472H330.589H330.706H330.823H330.94H331.057H331.174H331.292H331.409H331.526H331.643H331.76H331.877H331.994H332.111H332.228H332.345H332.462H332.579H332.696H332.813H332.93H333.047H333.164H333.28H333.397H333.514H333.631H333.748H333.864H333.981H334.098H334.214H334.331H334.447H334.564H334.68H334.797H334.913H335.03H335.146H335.262H335.379H335.495H335.611H335.727H335.843H335.959H336.075H336.191H336.307H336.423H336.538H336.654H336.77H336.885H337.001H337.116H337.232H337.347H337.462H337.578H337.693H337.808H337.923H338.038H338.153H338.267H338.382H338.497H338.611H338.726H338.84H338.955H339.069H339.183H339.297H339.411H339.525H339.639H339.753H339.867H339.98H340.094H340.207H340.32H340.434H340.547H340.66H340.773H340.886H340.998H341.111H341.224H341.336H341.448H341.561H341.673H341.785H341.897H342.009H342.12H342.232H342.343H342.455H342.566H342.677H342.788H342.899H343.01H343.121H343.231H343.342H343.452H343.562H343.672H343.782H343.892H344.001H344.111H344.22H344.33H344.439H344.548H344.657H344.766H344.874H344.983H345.091H345.199H345.307H345.415H345.523H345.63H345.738H345.845H345.952H346.059H346.166H346.273H346.38H346.486H346.592H346.698H346.804H346.91H347.016H347.121H347.226H347.331H347.436H347.541H347.646H347.75H347.855H347.959H348.063H348.166H348.27H348.374H348.477H348.58H348.683H348.785H348.888H348.99H349.093H349.195H349.296H349.398H349.499H349.601H349.702H349.803H349.903H350.004H350.104H350.204H350.304H350.404H350.503H350.603H350.702H350.801H350.899H350.998H351.096H351.194H351.292H351.39H351.487H351.584H351.681H351.778H351.875H351.971H352.067H352.163H352.259H352.355H352.45H352.545H352.64H352.734H352.829H352.923H353.017H353.111H353.204H353.297H353.39H353.483H353.576H353.668H353.76H353.852H353.944H354.035H354.126H354.217H354.308H354.398H354.488H354.578H354.668H354.757H354.846H354.935H355.024H355.112H355.201H355.288H355.376H355.463H355.551H355.637H355.724H355.81H355.896H355.982H356.068H356.153H356.238H356.323H356.407H356.491H356.575H356.659H356.742H356.825H356.908H356.991H357.073H357.155H357.237H357.318H357.399H357.48H357.561H357.641H357.721H357.801H357.88H357.959H358.038H358.117H358.195H358.273H358.35H358.428H358.505H358.581H358.658H358.734H358.81H358.885H358.961H359.036H359.11H359.184H359.258H359.332H359.405H359.479H359.551H359.624H359.696H359.768H359.839H359.91H359.981H360.051H360.122H360.191H360.261H360.33H360.399H360.468H360.536H360.604H360.671H360.738H360.805H360.872H360.938H361.004H361.069H361.134H361.199H361.376L361.551 394.476C369.53 393.912 378.291 385.019 378.93 365.021C381.295 361.524 385.453 358.345 392.754 358.345C398.211 358.345 401.751 360.121 404.046 362.478V362.506V362.534V362.562V362.59V362.618V362.645V362.673V362.7V362.728V362.755V362.782V362.809V362.836V362.863V362.889V362.916V362.942V362.968V362.995V363.021V363.047V363.073V363.098V363.124V363.15V363.175C404.046 384.836 413.175 394.405 421.462 394.991L421.638 395.003H421.814H421.879H421.944H422.009H422.075H422.142H422.208H422.275H422.342H422.41H422.477H422.546H422.614H422.683H422.752H422.822H422.892H422.962H423.032H423.103H423.174H423.246H423.317H423.39H423.462H423.535H423.608H423.681H423.755H423.829H423.903H423.978H424.053H424.128H424.203H424.279H424.355H424.432H424.508H424.585H424.663H424.74H424.818H424.897H424.975H425.054H425.133H425.213H425.292H425.372H425.452H425.533H425.614H425.695H425.776H425.858H425.94H426.022H426.105H426.188H426.271H426.354H426.438H426.522H426.606H426.69H426.775H426.86H426.945H427.031H427.117H427.203H427.289H427.376H427.463H427.55H427.637H427.725H427.813H427.901H427.989H428.078H428.167H428.256H428.345H428.435H428.525H428.615H428.705H428.796H428.887H428.978H429.07H429.161H429.253H429.345H429.437H429.53H429.623H429.716H429.809H429.903H429.996H430.09H430.184H430.279H430.373H430.468H430.563H430.659H430.754H430.85H430.946H431.042H431.138H431.235H431.332H431.429H431.526H431.624H431.721H431.819H431.917H432.015H432.114H432.213H432.312H432.411H432.51H432.609H432.709H432.809H432.909H433.009H433.11H433.211H433.311H433.413H433.514H433.615H433.717H433.819H433.921H434.023H434.125H434.228H434.33H434.433H434.536H434.64H434.743H434.847H434.951H435.054H435.159H435.263H435.367H435.472H435.577H435.682H435.787H435.892H435.998H436.103H436.209H436.315H436.421H436.527H436.634H436.74H436.847H436.954H437.061H437.168H437.275H437.383H437.49H437.598H437.706H437.814H437.922H438.031H438.139H438.248H438.356H438.465H438.574H438.683H438.793H438.902H439.012H439.121H439.231H439.341H439.451H439.561H439.672H439.782H439.893H440.003H440.114H440.225H440.336H440.447H440.558H440.67H440.781H440.893H441.005H441.116H441.228H441.34H441.453H441.565H441.677H441.79H441.902H442.015H442.128H442.24H442.353H442.466H442.58H442.693H442.806H442.92H443.033H443.147H443.26H443.374H443.488H443.602H443.716H443.83H443.944H444.058H444.173H444.287H444.402H444.516H444.631H444.746H444.861H444.975H445.09H445.205H445.32H445.436H445.551H445.666H445.781H445.897H446.012H446.128H446.243H446.359H446.475H446.591H446.706H446.822H446.938H447.054H447.17H447.286H447.402H447.518H447.635H447.751H447.867H447.983H448.1H448.216H448.333H448.449H448.566H448.682H448.799H448.916H449.032H449.149H449.266H449.382H449.499H449.616H449.733H449.85H449.967H450.083H450.2H450.317H450.434H450.551H450.668H450.785H450.902H451.019H451.136H451.253H451.37H451.487H451.605H451.722H451.839H451.956H452.073H452.19H452.307H452.424H452.541H452.658H452.776H452.893H453.01H453.127H453.244H453.361H453.478H453.595H453.712H453.829H453.946H454.063H454.18H454.297H454.414H454.531H454.647H454.764H454.881H454.998H455.115H455.231H455.348H455.465H455.582H455.698H455.815H455.931H456.048H456.164H456.281H456.397H456.514H456.63H456.746H456.862H456.979H457.095H457.211H457.327H457.443H457.559H457.675H457.791H457.906H458.022H458.138H458.253H458.369H458.485H458.6H458.715H458.831H458.946H459.061H459.176H459.291H459.406H459.521H459.636H459.751H459.866H459.98H460.095H460.209H460.324H460.438H460.552H460.667H460.781H460.895H461.009H461.122H461.236H461.35H461.463H461.577H461.69H461.804H461.917H462.03H462.143H462.256H462.369H462.482H462.594H462.707H462.819H462.931H463.044H463.156H463.268H463.38H463.492H463.603H463.715H463.826H463.938H464.049H464.16H464.271H464.382H464.493H464.603H464.714H464.824H464.934H465.045H465.155H465.265H465.374H465.484H465.594H465.703H465.812H465.921H466.03H466.139H466.248H466.356H466.465H466.573H466.681H466.789H466.897H467.005H467.113H467.22H467.327H467.434H467.541H467.648H467.755H467.861H467.968H468.074H468.18H468.286H468.392H468.497H468.603H468.708H468.813H468.918H469.023H469.127H469.232H469.336H469.44H469.544H469.648H469.751H469.855H469.958H470.061H470.164H470.267H470.369H470.471H470.574H470.676H470.777H470.879H470.98H471.082H471.183H471.283H471.384H471.484H471.585H471.685H471.785H471.884H471.984H472.083H472.182H472.281H472.38H472.478H472.576H472.674H472.772H472.87H472.967H473.064H473.161H473.258H473.355H473.451H473.547H473.643H473.739H473.834H473.93H474.025H474.119H474.214H474.308H474.403H474.496H474.59H474.684H474.777C487.718 395.003 496.724 384.847 501.904 374.79C504.581 369.591 506.487 363.986 507.581 358.787C507.684 358.296 507.781 357.805 507.871 357.315H512.725C513.788 357.144 515.915 358.963 515.915 367.611C522.082 362.051 521.675 349.337 520.7 343.674H508.173C507.833 342.329 507.145 341.248 506.566 340.504C505.693 339.382 504.584 338.409 503.44 337.594C501.143 335.957 498.14 334.56 494.905 333.751C493.806 333.476 491.702 333.285 489.585 333.125C487.236 332.948 484.215 332.771 480.866 332.614C474.194 332.3 466.106 332.059 459.245 332.057C453.888 331.905 442.522 332.309 431.77 333.598C426.367 334.245 420.951 335.135 416.456 336.342C414.212 336.946 412.07 337.661 410.224 338.527C408.463 339.353 406.528 340.517 405.15 342.232L404.046 343.604V345.365V345.389V345.413V345.438V345.463V345.487V345.512V345.537V345.562V345.588V345.613V345.638V345.664V345.69V345.715V345.741V345.767V345.793V345.82V345.846V345.872V345.899V345.926V345.952V345.979V345.985C401.549 346.951 397.922 347.758 392.754 347.792C386.562 347.834 382.028 346.573 378.967 345.231V345.226V345.201V345.175V345.149V345.124V345.098V345.073V345.048V345.022V344.997V344.973V344.948V344.923V344.899V344.874V344.85V343.089L377.864 341.717ZM432.96 343.526C443.338 342.283 454.259 341.913 459.023 342.055L459.097 342.057H459.172C465.851 342.057 473.81 342.293 480.396 342.603C483.687 342.757 486.608 342.929 488.834 343.097C489.949 343.181 490.863 343.262 491.548 343.337C492.077 343.394 492.352 343.436 492.451 343.451C492.5 343.458 492.507 343.459 492.479 343.452C494.577 343.977 496.421 344.871 497.638 345.738C498.049 346.031 498.326 346.277 498.498 346.449C498.861 348.807 498.702 352.416 497.795 356.729C496.874 361.104 495.257 365.855 493.013 370.211C488.352 379.262 481.933 385.003 474.777 385.003H474.684H474.59H474.496H474.403H474.308H474.214H474.119H474.025H473.93H473.834H473.739H473.643H473.547H473.451H473.355H473.258H473.161H473.064H472.967H472.87H472.772H472.674H472.576H472.478H472.38H472.281H472.182H472.083H471.984H471.884H471.785H471.685H471.585H471.484H471.384H471.283H471.183H471.082H470.98H470.879H470.777H470.676H470.574H470.471H470.369H470.267H470.164H470.061H469.958H469.855H469.751H469.648H469.544H469.44H469.336H469.232H469.127H469.023H468.918H468.813H468.708H468.603H468.497H468.392H468.286H468.18H468.074H467.968H467.861H467.755H467.648H467.541H467.434H467.327H467.22H467.113H467.005H466.897H466.789H466.681H466.573H466.465H466.356H466.248H466.139H466.03H465.921H465.812H465.703H465.594H465.484H465.374H465.265H465.155H465.045H464.934H464.824H464.714H464.603H464.493H464.382H464.271H464.16H464.049H463.938H463.826H463.715H463.603H463.492H463.38H463.268H463.156H463.044H462.931H462.819H462.707H462.594H462.482H462.369H462.256H462.143H462.03H461.917H461.804H461.69H461.577H461.463H461.35H461.236H461.122H461.009H460.895H460.781H460.667H460.552H460.438H460.324H460.209H460.095H459.98H459.866H459.751H459.636H459.521H459.406H459.291H459.176H459.061H458.946H458.831H458.715H458.6H458.485H458.369H458.253H458.138H458.022H457.906H457.791H457.675H457.559H457.443H457.327H457.211H457.095H456.979H456.862H456.746H456.63H456.514H456.397H456.281H456.164H456.048H455.931H455.815H455.698H455.582H455.465H455.348H455.231H455.115H454.998H454.881H454.764H454.647H454.531H454.414H454.297H454.18H454.063H453.946H453.829H453.712H453.595H453.478H453.361H453.244H453.127H453.01H452.893H452.776H452.658H452.541H452.424H452.307H452.19H452.073H451.956H451.839H451.722H451.605H451.487H451.37H451.253H451.136H451.019H450.902H450.785H450.668H450.551H450.434H450.317H450.2H450.083H449.967H449.85H449.733H449.616H449.499H449.382H449.266H449.149H449.032H448.916H448.799H448.682H448.566H448.449H448.333H448.216H448.1H447.983H447.867H447.751H447.635H447.518H447.402H447.286H447.17H447.054H446.938H446.822H446.706H446.591H446.475H446.359H446.243H446.128H446.012H445.897H445.781H445.666H445.551H445.436H445.32H445.205H445.09H444.975H444.861H444.746H444.631H444.516H444.402H444.287H444.173H444.058H443.944H443.83H443.716H443.602H443.488H443.374H443.26H443.147H443.033H442.92H442.806H442.693H442.58H442.466H442.353H442.24H442.128H442.015H441.902H441.79H441.677H441.565H441.453H441.34H441.228H441.116H441.005H440.893H440.781H440.67H440.558H440.447H440.336H440.225H440.114H440.003H439.893H439.782H439.672H439.561H439.451H439.341H439.231H439.121H439.012H438.902H438.793H438.683H438.574H438.465H438.356H438.248H438.139H438.031H437.922H437.814H437.706H437.598H437.49H437.383H437.275H437.168H437.061H436.954H436.847H436.74H436.634H436.527H436.421H436.315H436.209H436.103H435.998H435.892H435.787H435.682H435.577H435.472H435.367H435.263H435.159H435.054H434.951H434.847H434.743H434.64H434.536H434.433H434.33H434.228H434.125H434.023H433.921H433.819H433.717H433.615H433.514H433.413H433.311H433.211H433.11H433.009H432.909H432.809H432.709H432.609H432.51H432.411H432.312H432.213H432.114H432.015H431.917H431.819H431.721H431.624H431.526H431.429H431.332H431.235H431.138H431.042H430.946H430.85H430.754H430.659H430.563H430.468H430.373H430.279H430.184H430.09H429.996H429.903H429.809H429.716H429.623H429.53H429.437H429.345H429.253H429.161H429.07H428.978H428.887H428.796H428.705H428.615H428.525H428.435H428.345H428.256H428.167H428.078H427.989H427.901H427.813H427.725H427.637H427.55H427.463H427.376H427.289H427.203H427.117H427.031H426.945H426.86H426.775H426.69H426.606H426.522H426.438H426.354H426.271H426.188H426.105H426.022H425.94H425.858H425.776H425.695H425.614H425.533H425.452H425.372H425.292H425.213H425.133H425.054H424.975H424.897H424.818H424.74H424.663H424.585H424.508H424.432H424.355H424.279H424.203H424.128H424.053H423.978H423.903H423.829H423.755H423.681H423.608H423.535H423.462H423.39H423.317H423.246H423.174H423.103H423.032H422.962H422.892H422.822H422.752H422.683H422.614H422.546H422.477H422.41H422.342H422.275H422.208H422.142H422.104C421.323 384.811 414.046 382.204 414.046 363.175V363.15V363.124V363.098V363.073V363.047V363.021V362.995V362.968V362.942V362.916V362.889V362.863V362.836V362.809V362.782V362.755V362.728V362.7V362.673V362.645V362.618V362.59V362.562V362.534V362.506V362.478V362.45V362.422V362.393V362.365V362.336V362.307V362.278V362.249V362.22V362.191V362.162V362.132V362.103V362.073V362.044V362.014V361.984V361.954V361.924V361.894V361.864V361.834V361.803V361.773V361.742V361.712V361.681V361.65V361.619V361.588V361.557V361.526V361.494V361.463V361.431V361.4V361.368V361.337V361.305V361.273V361.241V361.209V361.177V361.144V361.112V361.08V361.047V361.015V360.982V360.949V360.916V360.883V360.85V360.817V360.784V360.751V360.718V360.684V360.651V360.617V360.584V360.55V360.516V360.483V360.449V360.415V360.381V360.347V360.312V360.278V360.244V360.21V360.175V360.141V360.106V360.071V360.037V360.002V359.967V359.932V359.897V359.862V359.827V359.792V359.756V359.721V359.686V359.65V359.615V359.579V359.543V359.508V359.472V359.436V359.4V359.364V359.328V359.292V359.256V359.22V359.184V359.147V359.111V359.075V359.038V359.002V358.965V358.928V358.892V358.855V358.818V358.781V358.744V358.708V358.671V358.633V358.596V358.559V358.522V358.485V358.448V358.41V358.373V358.335V358.298V358.26V358.223V358.185V358.148V358.11V358.072V358.034V357.997V357.959V357.921V357.883V357.845V357.807V357.769V357.731V357.692V357.654V357.616V357.578V357.539V357.501V357.463V357.424V357.386V357.347V357.309V357.27V357.232V357.193V357.155V357.116V357.077V357.038V357V356.961V356.922V356.883V356.844V356.805V356.766V356.727V356.688V356.649V356.61V356.571V356.532V356.493V356.454V356.415V356.375V356.336V356.297V356.258V356.218V356.179V356.14V356.1V356.061V356.022V355.982V355.943V355.903V355.864V355.824V355.785V355.745V355.706V355.666V355.627V355.587V355.548V355.508V355.468V355.429V355.389V355.349V355.31V355.27V355.23V355.191V355.151V355.111V355.072V355.032V354.992V354.952V354.913V354.873V354.833V354.793V354.754V354.714V354.674V354.634V354.595V354.555V354.515V354.475V354.435V354.396V354.356V354.316V354.276V354.236V354.197V354.157V354.117V354.077V354.038V353.998V353.958V353.918V353.878V353.839V353.799V353.759V353.72V353.68V353.64V353.6V353.561V353.521V353.481V353.442V353.402V353.362V353.323V353.283V353.244V353.204V353.164V353.125V353.085V353.046V353.006V352.967V352.927V352.888V352.848V352.809V352.769V352.73V352.691V352.651V352.612V352.573V352.533V352.494V352.455V352.416V352.376V352.337V352.298V352.259V352.22V352.181V352.142V352.103V352.064V352.025V351.986V351.947V351.908V351.869V351.83V351.791V351.753V351.714V351.675V351.636V351.598V351.559V351.521V351.482V351.443V351.405V351.367V351.328V351.29V351.251V351.213V351.175V351.137V351.098V351.06V351.022V350.984V350.946V350.908V350.87V350.832V350.794V350.756V350.719V350.681V350.643V350.605V350.568V350.53V350.493V350.455V350.418V350.38V350.343V350.306V350.268V350.231V350.194V350.157V350.12V350.083V350.046V350.009V349.972V349.936V349.899V349.862V349.825V349.789V349.752V349.716V349.679V349.643V349.607V349.571V349.534V349.498V349.462V349.426V349.39V349.354V349.318V349.283V349.247V349.211V349.176V349.14V349.105V349.069V349.034V348.999V348.963V348.928V348.893V348.858V348.823V348.788V348.753V348.719V348.684V348.649V348.615V348.58V348.546V348.512V348.477V348.443V348.409V348.375V348.341V348.307V348.273V348.24V348.206V348.172V348.139V348.105V348.072V348.039V348.005V347.972V347.939V347.906V347.873V347.84V347.808V347.789C414.174 347.723 414.315 347.653 414.471 347.58C415.597 347.052 417.13 346.516 419.051 346C422.888 344.969 427.773 344.148 432.96 343.526ZM498.717 346.706C498.718 346.706 498.71 346.692 498.688 346.664C498.705 346.692 498.716 346.706 498.717 346.706Z" fill="url(#paint3_linear)"/>
<g filter="url(#filter0_d)">
<path d="M209.318 649.296C181.727 657.326 153.209 686.444 142.398 700H658.524C647.714 686.444 619.196 657.326 591.605 649.296C582.301 646.588 572.512 645.706 562.882 644.839C543.953 643.134 525.64 641.485 512.846 626.131C417.017 640.056 367.838 639.999 288.077 626.131C275.282 641.485 256.97 643.134 238.041 644.839C228.411 645.706 218.622 646.588 209.318 649.296Z" fill="url(#paint4_linear)"/>
</g>
<g filter="url(#filter1_d)">
<path d="M286.34 626.315L299.916 560.39C303.523 579.396 326.357 601.32 393.604 621.107C467.636 601.32 498.745 574.764 502.715 555.757L517.662 626.315C456.508 664.478 425.063 667.914 402.26 670.406C399.426 670.716 396.211 671.011 393.604 671.356C391.235 671.011 388.267 670.716 385.693 670.406C364.98 667.915 341.888 664.478 286.34 626.315Z" fill="#F9F7F8"/>
</g>
<path d="M394.118 621.133C380.025 633.63 353.327 660.728 359.515 669.143C365.702 677.559 374.296 682.18 377.819 683.439C375.413 688.024 377.819 683.439 363.382 699.892H424.855C410.418 683.439 412.824 688.024 410.418 683.439C413.941 682.18 422.535 677.559 428.722 669.143C434.909 660.728 408.212 633.63 394.118 621.133Z" fill="url(#paint5_linear)"/>
<defs>
<filter id="filter0_d" x="126.398" y="606.131" width="548.126" height="105.869" filterUnits="userSpaceOnUse" color-interpolation-filters="sRGB">
<feFlood flood-opacity="0" result="BackgroundImageFix"/>
<feColorMatrix in="SourceAlpha" type="matrix" values="0 0 0 0 0 0 0 0 0 0 0 0 0 0 0 0 0 0 127 0"/>
<feOffset dy="-4"/>
<feGaussianBlur stdDeviation="8"/>
<feColorMatrix type="matrix" values="0 0 0 0 0 0 0 0 0 0 0 0 0 0 0 0 0 0 0.06 0"/>
<feBlend mode="normal" in2="BackgroundImageFix" result="effect1_dropShadow"/>
<feBlend mode="normal" in="SourceGraphic" in2="effect1_dropShadow" result="shape"/>
</filter>
<filter id="filter1_d" x="273.34" y="546.757" width="257.322" height="141.599" filterUnits="userSpaceOnUse" color-interpolation-filters="sRGB">
<feFlood flood-opacity="0" result="BackgroundImageFix"/>
<feColorMatrix in="SourceAlpha" type="matrix" values="0 0 0 0 0 0 0 0 0 0 0 0 0 0 0 0 0 0 127 0"/>
<feOffset dy="4"/>
<feGaussianBlur stdDeviation="6.5"/>
<feColorMatrix type="matrix" values="0 0 0 0 0 0 0 0 0 0 0 0 0 0 0 0 0 0 0.12 0"/>
<feBlend mode="normal" in2="BackgroundImageFix" result="effect1_dropShadow"/>
<feBlend mode="normal" in="SourceGraphic" in2="effect1_dropShadow" result="shape"/>
</filter>
<linearGradient id="paint0_linear" x1="405.701" y1="493.471" x2="405.701" y2="639.664" gradientUnits="userSpaceOnUse">
<stop stop-color="#CCCCCC"/>
<stop offset="1" stop-color="#EBEBEB"/>
</linearGradient>
<linearGradient id="paint1_linear" x1="434.271" y1="105.08" x2="360.145" y2="543.918" gradientUnits="userSpaceOnUse">
<stop offset="0.16309" stop-color="#E8E8E8"/>
<stop offset="1" stop-color="#F1F1F1"/>
</linearGradient>
<linearGradient id="paint2_linear" x1="475.452" y1="111" x2="230.424" y2="301.206" gradientUnits="userSpaceOnUse">
<stop stop-color="#A7A7A7"/>
<stop offset="1" stop-color="#B5B5B5"/>
</linearGradient>
<linearGradient id="paint3_linear" x1="392.042" y1="331.512" x2="392.042" y2="395.003" gradientUnits="userSpaceOnUse">
<stop stop-color="#A7A7A7"/>
<stop offset="1" stop-color="#838383"/>
</linearGradient>
<linearGradient id="paint4_linear" x1="400.461" y1="626.131" x2="400.461" y2="700" gradientUnits="userSpaceOnUse">
<stop stop-color="#EBEBEB"/>
<stop offset="1" stop-color="#F8F8F8"/>
</linearGradient>
<linearGradient id="paint5_linear" x1="394.118" y1="621.133" x2="394.118" y2="699.892" gradientUnits="userSpaceOnUse">
<stop stop-color="#C6C6C6"/>
<stop offset="1" stop-color="#A9A9A9"/>
</linearGradient>
</defs>
</svg>
