<svg xmlns="http://www.w3.org/2000/svg" width="66.667" height="100" viewBox="0 0 66.667 100">
  <g id="CellPhone" transform="translate(-4)">
    <path id="mobile" d="M70.667,16.667A16.716,16.716,0,0,0,54,0H20.667A16.716,16.716,0,0,0,4,16.667V83.333A16.716,16.716,0,0,0,20.667,100H54A16.716,16.716,0,0,0,70.667,83.333Zm-29.167,75H33.167a4.167,4.167,0,0,1,0-8.333H41.5a4.167,4.167,0,1,1,0,8.333ZM62.333,70.833A3.937,3.937,0,0,1,58.167,75H16.5a3.937,3.937,0,0,1-4.167-4.167v-50A3.937,3.937,0,0,1,16.5,16.667H58.167a3.937,3.937,0,0,1,4.167,4.167Z" fill="#2db9c9"/>
  </g>
</svg>
