<svg width="394" height="394" viewBox="0 0 394 394" fill="none" xmlns="http://www.w3.org/2000/svg">
<circle cx="197" cy="197" r="197" fill="white"/>
<path d="M141.802 130.5C137.602 122.2 129.302 117 120.002 117C110.702 117 102.402 122.2 98.2016 130.5L47.7016 232.4C43.7016 240.4 47.0016 250.3 55.0016 254.3C57.3016 255.5 59.8016 256 62.3016 256C68.3016 256 74.1016 252.7 76.9016 247L120.002 160L163.102 246.7C165.002 250.6 168.402 253.5 172.502 254.9C176.602 256.3 181.102 256 185.002 254C188.902 252.1 191.802 248.7 193.202 244.6C194.602 240.5 194.302 236 192.302 232.2L141.802 130.5Z" fill="#95C11F"/>
<path d="M120.002 193.8C113.902 193.8 109.002 198.7 109.002 204.8V265.2C109.002 271.3 113.902 276.2 120.002 276.2C126.102 276.2 131.002 271.3 131.002 265.2V204.8C131.002 198.7 126.002 193.8 120.002 193.8Z" fill="#95C11F"/>
<path d="M333.102 153.6C324.802 142.4 307.002 148.4 307.002 162.4C307.002 165.6 308.102 168.6 310.002 171.1C315.802 179.1 319.202 189.2 319.202 200.1C319.202 226 299.802 247.1 275.902 247.1C252.002 247.1 232.602 226 232.602 200.1C232.602 189.4 235.902 179.5 241.502 171.6C243.302 169.1 244.302 166.1 244.302 163C244.302 149 226.302 143 218.202 154.3C209.002 167.1 203.502 182.9 203.502 200.1C203.502 242 235.902 276.1 275.802 276.1C315.702 276.1 348.102 242 348.102 200.1C348.202 182.6 342.602 166.5 333.102 153.6Z" fill="#3C3C3B"/>
<path d="M275.701 224C281.801 224 286.701 219.1 286.701 213V138.3C286.701 132.2 281.801 127.3 275.701 127.3C269.601 127.3 264.701 132.2 264.701 138.3V213C264.701 219.1 269.601 224 275.701 224Z" fill="#3C3C3B"/>
</svg>
