<svg xmlns="http://www.w3.org/2000/svg" xmlns:xlink="http://www.w3.org/1999/xlink" width="439.052" height="507.678" viewBox="0 0 439.052 507.678">
  <defs>
    <filter id="Path_14" x="91.278" y="243.596" width="112.906" height="181.449" filterUnits="userSpaceOnUse">
      <feOffset dx="-3" dy="3" input="SourceAlpha"/>
      <feGaussianBlur stdDeviation="3" result="blur"/>
      <feFlood flood-opacity="0.141"/>
      <feComposite operator="in" in2="blur"/>
      <feComposite in="SourceGraphic"/>
    </filter>
    <linearGradient id="linear-gradient" x1="0.5" x2="0.5" y2="1" gradientUnits="objectBoundingBox">
      <stop offset="0" stop-color="#acacac"/>
      <stop offset="1" stop-color="#8d8d8d" stop-opacity="0"/>
    </linearGradient>
  </defs>
  <g id="Icon" transform="translate(2.5)">
    <rect id="Rectangle_1" data-name="Rectangle 1" width="19.772" height="70.694" transform="translate(149.867 66.074) rotate(-138.546)" fill="#81a677"/>
    <path id="Path_44" data-name="Path 44" d="M128.189,0c47.575,0,89.1,41.667,111.267,103.68-.116-.681,21.733,198.986-24.969,254.807-22.709,33.311-53.023,53.694-86.3,53.694C57.392,412.181,0,319.911,0,206.09a329.917,329.917,0,0,1,2.5-40.681C14.2,71.129,66.03,0,128.189,0Z" transform="translate(0 463.267) rotate(-90)" fill="none" stroke="#bbff64" stroke-linecap="round" stroke-width="5" stroke-dasharray="20 25"/>
    <path id="Path_12" data-name="Path 12" d="M110.726,51.6a4.361,4.361,0,0,1,2.075-1.486,2.378,2.378,0,0,1,2.685,2.343,4.15,4.15,0,0,1-1.128,2.178l-.841.953a4.263,4.263,0,0,1-2.055,1.462,2.414,2.414,0,0,1-2.694-2.346,4.084,4.084,0,0,1,1.142-2.179Zm-.148,1.607a3.485,3.485,0,0,0-.912,1.545,1.17,1.17,0,0,0,.439,1.129,1.154,1.154,0,0,0,1.164.293,3.414,3.414,0,0,0,1.38-1.041l1.008-1.142a3.583,3.583,0,0,0,.928-1.579,1.175,1.175,0,0,0-.422-1.141,1.144,1.144,0,0,0-1.144-.283,3.394,3.394,0,0,0-1.409,1.05Zm-1-6.884.718.634-4.2,4.758,1.907.743-.573.648-2.723-1.039-.112-.1Zm9-3.614a4.358,4.358,0,0,1,2.076-1.486,2.378,2.378,0,0,1,2.684,2.343,4.156,4.156,0,0,1-1.127,2.178l-.842.953a4.256,4.256,0,0,1-2.055,1.462,2.414,2.414,0,0,1-2.694-2.346,4.093,4.093,0,0,1,1.142-2.179Zm-.148,1.607a3.468,3.468,0,0,0-.911,1.545,1.312,1.312,0,0,0,1.6,1.422,3.415,3.415,0,0,0,1.38-1.041l1.008-1.142a3.585,3.585,0,0,0,.928-1.579,1.176,1.176,0,0,0-.42-1.141,1.147,1.147,0,0,0-1.145-.283,3.4,3.4,0,0,0-1.409,1.05Zm-1-6.884.717.634-4.2,4.758,1.906.743-.573.648-2.723-1.039-.112-.1Zm9-3.614a4.355,4.355,0,0,1,2.075-1.486,2.378,2.378,0,0,1,2.684,2.344,4.156,4.156,0,0,1-1.127,2.178l-.842.953a4.259,4.259,0,0,1-2.054,1.462,2.414,2.414,0,0,1-2.7-2.346,4.1,4.1,0,0,1,1.142-2.179Zm-.149,1.607a3.467,3.467,0,0,0-.911,1.545,1.312,1.312,0,0,0,1.6,1.422,3.4,3.4,0,0,0,1.38-1.041l1.01-1.142a3.591,3.591,0,0,0,.927-1.579,1.176,1.176,0,0,0-.42-1.141,1.147,1.147,0,0,0-1.145-.283,3.4,3.4,0,0,0-1.408,1.05ZM122,29.9a4.355,4.355,0,0,1,2.075-1.486,2.378,2.378,0,0,1,2.684,2.343,4.146,4.146,0,0,1-1.127,2.178l-.842.953a4.259,4.259,0,0,1-2.054,1.462,2.416,2.416,0,0,1-2.7-2.346,4.1,4.1,0,0,1,1.142-2.179Zm-.149,1.607a3.48,3.48,0,0,0-.911,1.545,1.167,1.167,0,0,0,.439,1.129,1.153,1.153,0,0,0,1.163.293,3.4,3.4,0,0,0,1.38-1.041l1.01-1.142a3.579,3.579,0,0,0,.927-1.579,1.174,1.174,0,0,0-.42-1.141,1.147,1.147,0,0,0-1.145-.283,3.4,3.4,0,0,0-1.408,1.05Zm15.735-7.935.717.634-4.2,4.758L136,29.7l-.572.648-2.725-1.039-.112-.1Zm-7.732-2.563a4.355,4.355,0,0,1,2.075-1.486,2.376,2.376,0,0,1,2.684,2.344,4.137,4.137,0,0,1-1.127,2.178l-.842.953a4.254,4.254,0,0,1-2.054,1.462,2.416,2.416,0,0,1-2.7-2.346,4.1,4.1,0,0,1,1.142-2.179Zm-.149,1.607a3.48,3.48,0,0,0-.911,1.545,1.17,1.17,0,0,0,.439,1.129,1.154,1.154,0,0,0,1.164.293,3.4,3.4,0,0,0,1.379-1.041l1.01-1.142a3.578,3.578,0,0,0,.927-1.579,1.174,1.174,0,0,0-.42-1.141,1.144,1.144,0,0,0-1.144-.283,3.394,3.394,0,0,0-1.409,1.05Zm12.441-6.578a4.355,4.355,0,0,1,2.075-1.486,2.034,2.034,0,0,1,1.878.573,2.051,2.051,0,0,1,.805,1.77,4.137,4.137,0,0,1-1.127,2.178l-.842.953a4.254,4.254,0,0,1-2.054,1.462A2.047,2.047,0,0,1,141,20.9a2.066,2.066,0,0,1-.821-1.762,4.1,4.1,0,0,1,1.141-2.179Zm-.149,1.607a3.481,3.481,0,0,0-.911,1.545,1.17,1.17,0,0,0,.439,1.129,1.154,1.154,0,0,0,1.164.293,3.4,3.4,0,0,0,1.379-1.041l1.01-1.142A3.579,3.579,0,0,0,146,16.845a1.173,1.173,0,0,0-.42-1.141,1.145,1.145,0,0,0-1.144-.283,3.394,3.394,0,0,0-1.409,1.05Zm-1-6.884.718.634-4.2,4.758,1.906.743-.572.648L136.122,16.5l-.112-.1Z" transform="translate(36.511 3.423)" fill="#296028"/>
    <path id="Path_13" data-name="Path 13" d="M61,315.95l128.994,74.475V239.5L61,167Z" transform="translate(22.642 51.956)" fill="#6de341"/>
    <g id="Group_1" data-name="Group 1" transform="translate(100.778 249.596)">
      <g transform="matrix(1, 0, 0, 1, -103.28, -249.6)" filter="url(#Path_14)">
        <path id="Path_14-2" data-name="Path 14" d="M74,298.967l94.906,54.483V243.037L74,190Z" transform="translate(29.28 59.6)" fill="#9cff8c"/>
      </g>
    </g>
    <path id="Path_15" data-name="Path 15" d="M134.089,234.438,84,205v5.615l50.089,28.656Z" transform="translate(29.959 64.551)" fill="#90ca87"/>
    <path id="Path_16" data-name="Path 16" d="M144.089,247.438,94,218v5.615l50.089,28.656Z" transform="translate(33.14 68.644)" fill="#90ca87"/>
    <path id="Path_17" data-name="Path 17" d="M134.089,249.438,84,220v5.615l50.089,28.656Z" transform="translate(29.959 69.274)" fill="#90ca87"/>
    <path id="Path_18" data-name="Path 18" d="M141.089,260.438,91,231v5.615l50.089,28.656Z" transform="translate(32.186 72.737)" fill="#90ca87"/>
    <path id="Path_19" data-name="Path 19" d="M134.089,262.438,84,233v5.615l50.089,28.656Z" transform="translate(29.959 73.367)" fill="#90ca87"/>
    <path id="Path_20" data-name="Path 20" d="M146.089,275.438,96,246v5.615l50.089,28.656Z" transform="translate(33.777 77.461)" fill="#90ca87"/>
    <path id="Path_21" data-name="Path 21" d="M134.089,275.438,84,246v5.615l50.089,28.656Z" transform="translate(29.959 77.461)" fill="#90ca87"/>
    <path id="Path_22" data-name="Path 22" d="M144.089,288.438,94,259v5.615l50.089,28.656Z" transform="translate(33.14 81.554)" fill="#90ca87"/>
    <path id="Path_23" data-name="Path 23" d="M129.089,286.438,79,257v5.615l50.089,28.656Z" transform="translate(28.368 80.924)" fill="#90ca87"/>
    <path id="Path_24" data-name="Path 24" d="M141.089,299.438,91,270v5.615l50.089,28.656Z" transform="translate(32.186 85.018)" fill="#90ca87"/>
    <path id="Path_25" data-name="Path 25" d="M286.994,315.95,158,390.425V239.5L286.994,167Z" transform="translate(53.501 51.956)" fill="#59c231"/>
    <path id="Path_26" data-name="Path 26" d="M256.088,210.447,177,256V242.342L256.088,198Z" transform="translate(59.546 62.312)" fill="#549e38"/>
    <path id="Path_27" data-name="Path 27" d="M256.088,232.164,177,276.68V263.334L256.088,220Z" transform="translate(59.546 69.238)" fill="#549e38"/>
    <path id="Path_28" data-name="Path 28" d="M256.088,253.447,177,299V285.342L256.088,241Z" transform="translate(59.546 75.845)" fill="#549e38"/>
    <path id="Path_29" data-name="Path 29" d="M256.088,275.447,177,321V307.342L256.088,263Z" transform="translate(59.546 82.768)" fill="#549e38"/>
    <path id="Path_30" data-name="Path 30" d="M318.037,185.308,189.519,110.5,61,185.308l128.519,72.823Z" transform="translate(22.642 34.682)" fill="#78ff46"/>
    <path id="Path_43" data-name="Path 43" d="M275.9,179.737,189.519,110.5,61,185.308l103.14,59.886Z" transform="translate(150.641 257.099)" fill="url(#linear-gradient)"/>
    <ellipse id="Ellipse_6" data-name="Ellipse 6" cx="41.5" cy="22.5" rx="41.5" ry="22.5" transform="translate(169.462 200.678)" fill="#2a7128"/>
    <path id="Path_31" data-name="Path 31" d="M129.111,179.181C136.437,171.317,150.449,166,166.532,166s30.094,5.317,37.421,13.181c-4.115,4.417-10.341,8.031-17.857,10.35a65.7,65.7,0,0,1-19.564,2.831c-15.051,0-28.287-4.657-35.929-11.7A18.918,18.918,0,0,1,129.111,179.181Z" transform="translate(44.164 52.936)" fill="#173616"/>
    <rect id="Rectangle_2" data-name="Rectangle 2" width="19.772" height="148.95" transform="translate(182.696 0.001)" fill="#7fcf6b"/>
    <path id="Path_33" data-name="Path 33" d="M144.335,6.637a4.358,4.358,0,0,1-.571,2.487,2.377,2.377,0,0,1-3.563.021,4.14,4.14,0,0,1-.6-2.379V5.494a4.261,4.261,0,0,1,.571-2.456,2.415,2.415,0,0,1,3.573-.026,4.091,4.091,0,0,1,.587,2.389Zm-.952-1.3a3.473,3.473,0,0,0-.34-1.761,1.168,1.168,0,0,0-1.076-.556,1.155,1.155,0,0,0-1.066.551,3.423,3.423,0,0,0-.345,1.694V6.786a3.584,3.584,0,0,0,.351,1.8,1.174,1.174,0,0,0,1.07.577,1.144,1.144,0,0,0,1.045-.546,3.391,3.391,0,0,0,.361-1.72Zm5.3,4.5h-.957V3.486l-1.921.705V3.326L148.537,2.3h.149ZM144.335,18.5a4.357,4.357,0,0,1-.571,2.487,2.377,2.377,0,0,1-3.563.021,4.141,4.141,0,0,1-.6-2.379V17.357a4.26,4.26,0,0,1,.571-2.456,2.415,2.415,0,0,1,3.573-.026,4.091,4.091,0,0,1,.587,2.389Zm-.952-1.3a3.473,3.473,0,0,0-.34-1.761,1.168,1.168,0,0,0-1.076-.556,1.154,1.154,0,0,0-1.066.551,3.423,3.423,0,0,0-.345,1.694v1.524a3.584,3.584,0,0,0,.351,1.8,1.174,1.174,0,0,0,1.07.577,1.144,1.144,0,0,0,1.045-.546,3.391,3.391,0,0,0,.361-1.72Zm5.3,4.5h-.957V15.349l-1.921.705v-.865l2.729-1.025h.149Zm-4.351,8.666a4.357,4.357,0,0,1-.571,2.487,2.377,2.377,0,0,1-3.563.021,4.141,4.141,0,0,1-.6-2.379V29.22a4.26,4.26,0,0,1,.571-2.456,2.415,2.415,0,0,1,3.573-.026,4.091,4.091,0,0,1,.587,2.389Zm-.952-1.3a3.473,3.473,0,0,0-.34-1.761,1.168,1.168,0,0,0-1.076-.556,1.154,1.154,0,0,0-1.066.551,3.423,3.423,0,0,0-.345,1.694v1.524a3.584,3.584,0,0,0,.351,1.8,1.174,1.174,0,0,0,1.07.577,1.144,1.144,0,0,0,1.045-.546,3.391,3.391,0,0,0,.361-1.72Zm6.874,1.3a4.356,4.356,0,0,1-.572,2.487,2.377,2.377,0,0,1-3.563.021,4.141,4.141,0,0,1-.6-2.379V29.22a4.26,4.26,0,0,1,.571-2.456,2.415,2.415,0,0,1,3.573-.026,4.1,4.1,0,0,1,.588,2.389Zm-.953-1.3a3.473,3.473,0,0,0-.34-1.761,1.168,1.168,0,0,0-1.076-.556,1.154,1.154,0,0,0-1.066.551,3.423,3.423,0,0,0-.345,1.694v1.524a3.584,3.584,0,0,0,.351,1.8,1.176,1.176,0,0,0,1.072.577,1.147,1.147,0,0,0,1.045-.546,3.406,3.406,0,0,0,.36-1.72Zm-4.969,13.166a4.357,4.357,0,0,1-.571,2.487,2.377,2.377,0,0,1-3.563.021,4.141,4.141,0,0,1-.6-2.379V41.083a4.26,4.26,0,0,1,.571-2.456,2.415,2.415,0,0,1,3.573-.026,4.091,4.091,0,0,1,.587,2.389Zm-.952-1.3a3.473,3.473,0,0,0-.34-1.761,1.168,1.168,0,0,0-1.076-.556,1.154,1.154,0,0,0-1.066.551,3.423,3.423,0,0,0-.345,1.694v1.524a3.584,3.584,0,0,0,.351,1.8,1.174,1.174,0,0,0,1.07.577,1.144,1.144,0,0,0,1.045-.546,3.391,3.391,0,0,0,.361-1.72Zm5.3,4.5h-.957V39.075l-1.921.705v-.865l2.729-1.025h.149Zm-5.921,11.863h-.957V50.939l-1.922.705v-.865l2.73-1.025h.149Zm7.492-3.2a4.356,4.356,0,0,1-.572,2.487,2.377,2.377,0,0,1-3.563.021,4.141,4.141,0,0,1-.6-2.379V52.947a4.26,4.26,0,0,1,.571-2.456,2.415,2.415,0,0,1,3.573-.026,4.1,4.1,0,0,1,.588,2.389Zm-.953-1.3a3.473,3.473,0,0,0-.34-1.761,1.168,1.168,0,0,0-1.076-.556,1.154,1.154,0,0,0-1.066.551,3.423,3.423,0,0,0-.345,1.694v1.524a3.584,3.584,0,0,0,.351,1.8,1.176,1.176,0,0,0,1.072.577,1.147,1.147,0,0,0,1.045-.546,3.406,3.406,0,0,0,.36-1.72Zm-6.539,16.364h-.957V62.8l-1.922.705v-.865l2.73-1.025h.149Zm7.492-3.2a4.356,4.356,0,0,1-.572,2.487,2.377,2.377,0,0,1-3.563.021,4.141,4.141,0,0,1-.6-2.379V64.81a4.26,4.26,0,0,1,.571-2.456,2.415,2.415,0,0,1,3.573-.026,4.1,4.1,0,0,1,.588,2.389Zm-.953-1.3a3.473,3.473,0,0,0-.34-1.761,1.168,1.168,0,0,0-1.076-.556,1.154,1.154,0,0,0-1.066.551,3.423,3.423,0,0,0-.345,1.694V66.1a3.584,3.584,0,0,0,.351,1.8,1.176,1.176,0,0,0,1.072.577,1.147,1.147,0,0,0,1.045-.546,3.406,3.406,0,0,0,.36-1.72Zm-6.539,16.364h-.957V74.665l-1.922.705v-.865l2.73-1.025h.149Zm7.492-3.2a4.356,4.356,0,0,1-.572,2.487,2.377,2.377,0,0,1-3.563.021,4.141,4.141,0,0,1-.6-2.379V76.673a4.26,4.26,0,0,1,.571-2.456,2.415,2.415,0,0,1,3.573-.026,4.1,4.1,0,0,1,.588,2.389Zm-.953-1.3a3.473,3.473,0,0,0-.34-1.761,1.168,1.168,0,0,0-1.076-.556,1.154,1.154,0,0,0-1.066.551,3.423,3.423,0,0,0-.345,1.694v1.524a3.584,3.584,0,0,0,.351,1.8,1.176,1.176,0,0,0,1.072.577,1.147,1.147,0,0,0,1.045-.546,3.406,3.406,0,0,0,.36-1.72Zm-6.539,16.364h-.957V86.528l-1.922.705v-.865l2.73-1.025h.149Zm7.492-3.2a4.356,4.356,0,0,1-.572,2.487,2.377,2.377,0,0,1-3.563.021,4.141,4.141,0,0,1-.6-2.379V88.536a4.26,4.26,0,0,1,.571-2.456,2.415,2.415,0,0,1,3.573-.026,4.1,4.1,0,0,1,.588,2.389Zm-.953-1.3a3.473,3.473,0,0,0-.34-1.761,1.168,1.168,0,0,0-1.076-.556,1.154,1.154,0,0,0-1.066.551,3.422,3.422,0,0,0-.345,1.694v1.524a3.584,3.584,0,0,0,.351,1.8,1.176,1.176,0,0,0,1.072.577,1.147,1.147,0,0,0,1.045-.546,3.406,3.406,0,0,0,.36-1.72Zm-4.969,13.166a4.357,4.357,0,0,1-.571,2.487,2.377,2.377,0,0,1-3.563.021,4.141,4.141,0,0,1-.6-2.379V100.4a4.26,4.26,0,0,1,.571-2.456,2.415,2.415,0,0,1,3.573-.026,4.091,4.091,0,0,1,.587,2.389Zm-.952-1.3a3.473,3.473,0,0,0-.34-1.761,1.168,1.168,0,0,0-1.076-.556,1.154,1.154,0,0,0-1.066.551,3.423,3.423,0,0,0-.345,1.694v1.524a3.584,3.584,0,0,0,.351,1.8,1.174,1.174,0,0,0,1.07.577,1.144,1.144,0,0,0,1.045-.546,3.391,3.391,0,0,0,.361-1.72Zm5.3,4.5h-.957V98.392l-1.921.705v-.865l2.729-1.025h.149ZM142.765,116.6h-.957v-6.349l-1.922.705V110.1l2.73-1.025h.149Zm7.492-3.2a4.356,4.356,0,0,1-.572,2.487,2.377,2.377,0,0,1-3.563.021,4.141,4.141,0,0,1-.6-2.379v-1.272a4.26,4.26,0,0,1,.571-2.456,2.415,2.415,0,0,1,3.573-.026,4.1,4.1,0,0,1,.588,2.389Zm-.953-1.3a3.473,3.473,0,0,0-.34-1.761,1.168,1.168,0,0,0-1.076-.556,1.154,1.154,0,0,0-1.066.551,3.423,3.423,0,0,0-.345,1.694v1.524a3.584,3.584,0,0,0,.351,1.8,1.176,1.176,0,0,0,1.072.577,1.147,1.147,0,0,0,1.045-.546,3.406,3.406,0,0,0,.36-1.72Zm-6.539,16.364h-.957v-6.349l-1.922.705v-.865l2.73-1.025h.149Zm5.921,0h-.957v-6.349l-1.921.705v-.865l2.729-1.025h.149Zm-5.921,11.863h-.957v-6.348l-1.922.705v-.866l2.73-1.024h.149Zm7.492-3.2a4.358,4.358,0,0,1-.572,2.487,2.378,2.378,0,0,1-3.563.021,4.145,4.145,0,0,1-.6-2.379v-1.272a4.259,4.259,0,0,1,.571-2.456,2.414,2.414,0,0,1,3.573-.026,4.1,4.1,0,0,1,.588,2.39Zm-.953-1.3a3.474,3.474,0,0,0-.34-1.761,1.169,1.169,0,0,0-1.076-.556,1.154,1.154,0,0,0-1.066.551,3.424,3.424,0,0,0-.345,1.694v1.525a3.584,3.584,0,0,0,.351,1.8,1.177,1.177,0,0,0,1.072.576,1.147,1.147,0,0,0,1.045-.546,3.405,3.405,0,0,0,.36-1.719Z" transform="translate(47.649 0.712)" fill="#296028"/>
    <rect id="Rectangle_3" data-name="Rectangle 3" width="19" height="121" transform="translate(217.462 98.678)" fill="#7fcf6b"/>
    <path id="Path_34" data-name="Path 34" d="M170.189,81.3a4.357,4.357,0,0,1-.572,2.487,2.377,2.377,0,0,1-3.563.021,4.14,4.14,0,0,1-.6-2.379V80.16a4.26,4.26,0,0,1,.572-2.456,2.415,2.415,0,0,1,3.573-.026,4.1,4.1,0,0,1,.587,2.389Zm-.953-1.3a3.472,3.472,0,0,0-.34-1.761,1.313,1.313,0,0,0-2.142-.005,3.41,3.41,0,0,0-.344,1.694v1.524a3.585,3.585,0,0,0,.349,1.8,1.176,1.176,0,0,0,1.072.577,1.145,1.145,0,0,0,1.045-.546,3.407,3.407,0,0,0,.36-1.72Zm5.3,4.5h-.958V78.152l-1.921.705v-.865l2.729-1.025h.15Zm-4.351,8.666a4.357,4.357,0,0,1-.572,2.487,2.377,2.377,0,0,1-3.563.021,4.14,4.14,0,0,1-.6-2.379V92.024a4.26,4.26,0,0,1,.572-2.456,2.415,2.415,0,0,1,3.573-.026,4.1,4.1,0,0,1,.587,2.389Zm-.953-1.3a3.472,3.472,0,0,0-.34-1.761,1.313,1.313,0,0,0-2.142-.005,3.41,3.41,0,0,0-.344,1.694v1.524a3.585,3.585,0,0,0,.349,1.8,1.176,1.176,0,0,0,1.072.577,1.145,1.145,0,0,0,1.045-.546,3.407,3.407,0,0,0,.36-1.72Zm5.3,4.5h-.958V90.016l-1.921.705v-.865l2.729-1.025h.15Zm-4.351,8.666a4.36,4.36,0,0,1-.572,2.487,2.377,2.377,0,0,1-3.563.02,4.139,4.139,0,0,1-.6-2.379v-1.272a4.26,4.26,0,0,1,.572-2.456,2.415,2.415,0,0,1,3.573-.026,4.1,4.1,0,0,1,.587,2.389Zm-.953-1.3a3.472,3.472,0,0,0-.34-1.761,1.313,1.313,0,0,0-2.142-.005,3.41,3.41,0,0,0-.344,1.694v1.524a3.585,3.585,0,0,0,.349,1.8,1.176,1.176,0,0,0,1.072.577,1.145,1.145,0,0,0,1.045-.546,3.407,3.407,0,0,0,.36-1.72Zm6.874,1.3a4.349,4.349,0,0,1-.572,2.487,2.377,2.377,0,0,1-3.563.02,4.16,4.16,0,0,1-.6-2.379v-1.272a4.26,4.26,0,0,1,.572-2.456,2.415,2.415,0,0,1,3.573-.026,4.1,4.1,0,0,1,.587,2.389Zm-.953-1.3a3.488,3.488,0,0,0-.339-1.761,1.169,1.169,0,0,0-1.077-.556,1.152,1.152,0,0,0-1.065.551,3.393,3.393,0,0,0-.345,1.694v1.524a3.57,3.57,0,0,0,.351,1.8,1.173,1.173,0,0,0,1.07.577,1.145,1.145,0,0,0,1.045-.546,3.393,3.393,0,0,0,.36-1.72Zm-4.968,13.166a4.361,4.361,0,0,1-.572,2.487,2.377,2.377,0,0,1-3.563.02,4.137,4.137,0,0,1-.6-2.378v-1.272a4.265,4.265,0,0,1,.572-2.457,2.415,2.415,0,0,1,3.573-.025,4.1,4.1,0,0,1,.587,2.388Zm-.953-1.3a3.471,3.471,0,0,0-.34-1.761,1.313,1.313,0,0,0-2.142-.005,3.407,3.407,0,0,0-.344,1.694v1.524a3.582,3.582,0,0,0,.349,1.8,1.176,1.176,0,0,0,1.072.577,1.145,1.145,0,0,0,1.045-.546,3.407,3.407,0,0,0,.36-1.72Zm5.3,4.5h-.958v-6.349l-1.921.705v-.865l2.729-1.024h.15Zm-5.922,11.863h-.957V125.6l-1.921.705v-.865l2.729-1.024h.149Zm7.492-3.2a4.35,4.35,0,0,1-.572,2.487,2.377,2.377,0,0,1-3.563.02,4.158,4.158,0,0,1-.6-2.378v-1.272a4.265,4.265,0,0,1,.572-2.457,2.415,2.415,0,0,1,3.573-.025,4.1,4.1,0,0,1,.587,2.388Zm-.953-1.3a3.487,3.487,0,0,0-.339-1.761,1.167,1.167,0,0,0-1.077-.556,1.151,1.151,0,0,0-1.065.551,3.391,3.391,0,0,0-.345,1.694v1.524a3.566,3.566,0,0,0,.351,1.8,1.172,1.172,0,0,0,1.07.577,1.145,1.145,0,0,0,1.045-.546,3.393,3.393,0,0,0,.36-1.72Zm-6.539,16.363h-.957v-6.349l-1.921.705v-.865l2.729-1.024h.149Zm7.492-3.2a4.35,4.35,0,0,1-.572,2.487,2.377,2.377,0,0,1-3.563.02,4.158,4.158,0,0,1-.6-2.378v-1.272a4.265,4.265,0,0,1,.572-2.457,2.415,2.415,0,0,1,3.573-.025,4.1,4.1,0,0,1,.587,2.388Zm-.953-1.3a3.487,3.487,0,0,0-.339-1.761,1.167,1.167,0,0,0-1.077-.556,1.151,1.151,0,0,0-1.065.551,3.391,3.391,0,0,0-.345,1.694v1.524a3.566,3.566,0,0,0,.351,1.8,1.172,1.172,0,0,0,1.07.577,1.145,1.145,0,0,0,1.045-.546,3.393,3.393,0,0,0,.36-1.72Zm-6.539,16.363h-.957v-6.349l-1.921.705v-.865l2.729-1.024h.149Zm7.492-3.2a4.35,4.35,0,0,1-.572,2.487,2.377,2.377,0,0,1-3.563.02,4.158,4.158,0,0,1-.6-2.378V151.34a4.265,4.265,0,0,1,.572-2.457,2.415,2.415,0,0,1,3.573-.025,4.1,4.1,0,0,1,.587,2.388Zm-.953-1.3a3.487,3.487,0,0,0-.339-1.761,1.167,1.167,0,0,0-1.077-.556,1.152,1.152,0,0,0-1.065.551,3.391,3.391,0,0,0-.345,1.694v1.524a3.566,3.566,0,0,0,.351,1.8,1.172,1.172,0,0,0,1.07.577,1.145,1.145,0,0,0,1.045-.546,3.393,3.393,0,0,0,.36-1.72Zm-6.539,16.363h-.957v-6.349l-1.921.705v-.865l2.729-1.024h.149Zm7.492-3.2a4.35,4.35,0,0,1-.572,2.487,2.377,2.377,0,0,1-3.563.02,4.158,4.158,0,0,1-.6-2.378V163.2a4.265,4.265,0,0,1,.572-2.457,2.415,2.415,0,0,1,3.573-.025,4.1,4.1,0,0,1,.587,2.388Zm-.953-1.3a3.487,3.487,0,0,0-.339-1.761,1.167,1.167,0,0,0-1.077-.556,1.152,1.152,0,0,0-1.065.551,3.391,3.391,0,0,0-.345,1.694V164.5a3.566,3.566,0,0,0,.351,1.8,1.172,1.172,0,0,0,1.07.577,1.145,1.145,0,0,0,1.045-.546,3.393,3.393,0,0,0,.36-1.72Zm-4.968,13.166a4.361,4.361,0,0,1-.572,2.487,2.377,2.377,0,0,1-3.563.02,4.137,4.137,0,0,1-.6-2.378v-1.272a4.265,4.265,0,0,1,.572-2.457,2.415,2.415,0,0,1,3.573-.025,4.1,4.1,0,0,1,.587,2.388Zm-.953-1.3a3.471,3.471,0,0,0-.34-1.761,1.313,1.313,0,0,0-2.142-.005,3.408,3.408,0,0,0-.344,1.694v1.524a3.582,3.582,0,0,0,.349,1.8,1.176,1.176,0,0,0,1.072.577,1.145,1.145,0,0,0,1.045-.546,3.407,3.407,0,0,0,.36-1.72Zm5.3,4.5h-.958v-6.349l-1.921.705V172.9l2.729-1.024h.15Zm-4.351,8.665a4.361,4.361,0,0,1-.572,2.487,2.377,2.377,0,0,1-3.563.02,4.137,4.137,0,0,1-.6-2.378V186.93a4.265,4.265,0,0,1,.572-2.457,2.415,2.415,0,0,1,3.573-.025,4.1,4.1,0,0,1,.587,2.388Zm-.953-1.3a3.471,3.471,0,0,0-.34-1.761,1.313,1.313,0,0,0-2.142-.005,3.407,3.407,0,0,0-.344,1.694v1.524a3.582,3.582,0,0,0,.349,1.8,1.176,1.176,0,0,0,1.072.577,1.145,1.145,0,0,0,1.045-.546,3.407,3.407,0,0,0,.36-1.72Zm5.3,4.5h-.958v-6.349l-1.921.705v-.865l2.729-1.024h.15Z" transform="translate(55.874 24.164)" fill="#296028"/>
    <rect id="Rectangle_4" data-name="Rectangle 4" width="19" height="65" transform="translate(217.462 20.678)" fill="#7fcf6b"/>
    <path id="Path_35" data-name="Path 35" d="M170.189,21.992a4.357,4.357,0,0,1-.572,2.487,2.377,2.377,0,0,1-3.563.021,4.14,4.14,0,0,1-.6-2.379V20.849a4.26,4.26,0,0,1,.572-2.456,2.415,2.415,0,0,1,3.573-.026,4.1,4.1,0,0,1,.587,2.389Zm-.953-1.3a3.472,3.472,0,0,0-.34-1.761,1.313,1.313,0,0,0-2.142-.005,3.41,3.41,0,0,0-.344,1.694v1.524a3.586,3.586,0,0,0,.349,1.8,1.176,1.176,0,0,0,1.072.577,1.146,1.146,0,0,0,1.045-.546,3.406,3.406,0,0,0,.36-1.72Zm5.3,4.5h-.958V18.841l-1.921.705v-.865l2.729-1.025h.15Zm-4.351,8.666a4.357,4.357,0,0,1-.572,2.487,2.377,2.377,0,0,1-3.563.021,4.14,4.14,0,0,1-.6-2.379V32.712a4.26,4.26,0,0,1,.572-2.456,2.415,2.415,0,0,1,3.573-.026,4.1,4.1,0,0,1,.587,2.389Zm-.953-1.3a3.472,3.472,0,0,0-.34-1.761,1.313,1.313,0,0,0-2.142-.005,3.41,3.41,0,0,0-.344,1.694V34a3.586,3.586,0,0,0,.349,1.8,1.176,1.176,0,0,0,1.072.577,1.146,1.146,0,0,0,1.045-.546,3.406,3.406,0,0,0,.36-1.72Zm5.3,4.5h-.958V30.7l-1.921.705v-.865l2.729-1.025h.15Zm-4.351,8.666a4.357,4.357,0,0,1-.572,2.487,2.377,2.377,0,0,1-3.563.021,4.14,4.14,0,0,1-.6-2.379V44.575a4.26,4.26,0,0,1,.572-2.456,2.415,2.415,0,0,1,3.573-.026,4.1,4.1,0,0,1,.587,2.389Zm-.953-1.3a3.472,3.472,0,0,0-.34-1.761,1.313,1.313,0,0,0-2.142-.005,3.41,3.41,0,0,0-.344,1.694v1.524a3.586,3.586,0,0,0,.349,1.8,1.176,1.176,0,0,0,1.072.577,1.146,1.146,0,0,0,1.045-.546,3.406,3.406,0,0,0,.36-1.72Zm6.874,1.3a4.346,4.346,0,0,1-.572,2.487,2.031,2.031,0,0,1-1.786.814,2.051,2.051,0,0,1-1.777-.793,4.161,4.161,0,0,1-.6-2.379V44.575a4.26,4.26,0,0,1,.572-2.456,2.415,2.415,0,0,1,3.573-.026,4.1,4.1,0,0,1,.587,2.389Zm-.953-1.3a3.488,3.488,0,0,0-.339-1.761,1.169,1.169,0,0,0-1.077-.556,1.152,1.152,0,0,0-1.065.551,3.393,3.393,0,0,0-.345,1.694v1.524a3.57,3.57,0,0,0,.351,1.8,1.173,1.173,0,0,0,1.07.577A1.145,1.145,0,0,0,174.8,47.7a3.393,3.393,0,0,0,.36-1.72Zm-4.968,13.166a4.357,4.357,0,0,1-.572,2.487,2.377,2.377,0,0,1-3.563.021,4.14,4.14,0,0,1-.6-2.379V56.439a4.26,4.26,0,0,1,.572-2.456,2.415,2.415,0,0,1,3.573-.026,4.1,4.1,0,0,1,.587,2.389Zm-.953-1.3a3.472,3.472,0,0,0-.34-1.761,1.313,1.313,0,0,0-2.142-.005,3.41,3.41,0,0,0-.344,1.694v1.524a3.586,3.586,0,0,0,.349,1.8,1.176,1.176,0,0,0,1.072.577,1.146,1.146,0,0,0,1.045-.546,3.406,3.406,0,0,0,.36-1.72Zm5.3,4.5h-.958V54.43l-1.921.705v-.865l2.729-1.025h.15Zm-4.351,8.666a4.357,4.357,0,0,1-.572,2.487,2.377,2.377,0,0,1-3.563.021,4.14,4.14,0,0,1-.6-2.379V68.3a4.26,4.26,0,0,1,.572-2.456,2.415,2.415,0,0,1,3.573-.026,4.1,4.1,0,0,1,.587,2.389Zm-.953-1.3a3.472,3.472,0,0,0-.34-1.761,1.313,1.313,0,0,0-2.142-.005,3.41,3.41,0,0,0-.344,1.694v1.524a3.586,3.586,0,0,0,.349,1.8,1.176,1.176,0,0,0,1.072.577,1.146,1.146,0,0,0,1.045-.546,3.406,3.406,0,0,0,.36-1.72Zm5.3,4.5h-.958V66.294L171.661,67v-.865l2.729-1.025h.15Z" transform="translate(55.874 5.597)" fill="#296028"/>
    <rect id="Rectangle_5" data-name="Rectangle 5" width="19" height="37" transform="translate(184.462 164.678)" fill="#7fcf6b"/>
    <path id="Path_36" data-name="Path 36" d="M145.189,130.84a4.361,4.361,0,0,1-.572,2.487,2.377,2.377,0,0,1-3.563.02,4.137,4.137,0,0,1-.6-2.378V129.7a4.258,4.258,0,0,1,.572-2.456,2.046,2.046,0,0,1,1.791-.8,2.068,2.068,0,0,1,1.782.778,4.1,4.1,0,0,1,.587,2.39Zm-.953-1.3a3.474,3.474,0,0,0-.34-1.761,1.167,1.167,0,0,0-1.076-.556,1.155,1.155,0,0,0-1.066.551,3.411,3.411,0,0,0-.344,1.694v1.524a3.591,3.591,0,0,0,.349,1.8,1.177,1.177,0,0,0,1.072.576,1.145,1.145,0,0,0,1.045-.546,3.407,3.407,0,0,0,.36-1.72Zm5.3,4.5h-.958v-6.348l-1.921.705v-.866l2.729-1.024h.15ZM143.618,145.9h-.957v-6.348l-1.921.705v-.866l2.729-1.024h.149Zm5.922,0h-.958v-6.348l-1.921.705v-.866l2.729-1.024h.15Zm-4.351,8.665a4.361,4.361,0,0,1-.572,2.487,2.377,2.377,0,0,1-3.563.02,4.137,4.137,0,0,1-.6-2.378v-1.272a4.258,4.258,0,0,1,.572-2.456,2.046,2.046,0,0,1,1.791-.8,2.068,2.068,0,0,1,1.782.778,4.1,4.1,0,0,1,.587,2.39Zm-.953-1.3a3.474,3.474,0,0,0-.34-1.761,1.167,1.167,0,0,0-1.076-.556,1.155,1.155,0,0,0-1.066.551,3.411,3.411,0,0,0-.344,1.694v1.524a3.591,3.591,0,0,0,.349,1.8,1.177,1.177,0,0,0,1.072.576,1.145,1.145,0,0,0,1.045-.546,3.407,3.407,0,0,0,.36-1.72Zm5.3,4.5h-.958v-6.348l-1.921.705v-.866l2.729-1.024h.15Z" transform="translate(47.92 39.815)" fill="#296028"/>
    <path id="Path_37" data-name="Path 37" d="M93.567,317.818c0,5.824-8.852,10.545-19.772,10.545s-19.772-4.722-19.772-10.545S51.387,302,73.8,302C97.522,302,93.567,311.994,93.567,317.818Z" transform="translate(20.392 95.11)" fill="#d6c530"/>
    <path id="Path_38" data-name="Path 38" d="M93.567,317.818c0,5.824-8.852,10.545-19.772,10.545s-19.772-4.722-19.772-10.545S51.387,302,73.8,302C97.522,302,93.567,311.994,93.567,317.818Z" transform="translate(20.392 95.11)" fill="#d6c530"/>
    <ellipse id="Ellipse_2" data-name="Ellipse 2" cx="20" cy="10.5" rx="20" ry="10.5" transform="translate(74.462 395.678)" fill="#f1de2f"/>
    <path id="Path_39" data-name="Path 39" d="M130.64,336.818c0,5.824-8.853,10.545-19.772,10.545S91.1,342.641,91.1,336.818,88.459,321,110.868,321C134.595,321,130.64,330.994,130.64,336.818Z" transform="translate(32.186 100.949)" fill="#d6c530"/>
    <ellipse id="Ellipse_3" data-name="Ellipse 3" cx="19.772" cy="10.545" rx="19.772" ry="10.545" transform="translate(123.282 420.631)" fill="#f1de2f"/>
    <path id="Path_40" data-name="Path 40" d="M88.64,347.818c0,5.824-8.852,10.545-19.772,10.545S49.1,353.641,49.1,347.818,46.459,332,68.868,332C92.594,332,88.64,341.994,88.64,347.818Z" transform="translate(18.824 104.449)" fill="#d6c530"/>
    <ellipse id="Ellipse_4" data-name="Ellipse 4" cx="19.772" cy="10.545" rx="19.772" ry="10.545" transform="translate(67.92 435.13)" fill="#f1de2f"/>
    <path id="Path_41" data-name="Path 41" d="M90.567,309.818c0,5.824-8.852,10.545-19.772,10.545s-19.772-4.722-19.772-10.545S48.387,294,70.8,294C94.522,294,90.567,303.994,90.567,309.818Z" transform="translate(19.437 92.59)" fill="#d6c530"/>
    <ellipse id="Ellipse_5" data-name="Ellipse 5" cx="20" cy="11" rx="20" ry="11" transform="translate(70.462 384.678)" fill="#f1de2f"/>
    <path id="Path_42" data-name="Path 42" d="M0,47.85s64.92,17.6,80.292-21.04,82.52-24.147,82.52-24.147L161.1,84.809s-76.146,2.666-78.892,30.316S0,136.165,0,136.165Z" transform="translate(355.146 298.251) rotate(60)" fill="#5b8742"/>
  </g>
</svg>
