<svg id="Image" xmlns="http://www.w3.org/2000/svg" width="458" height="441" viewBox="0 0 458 441">
  <rect id="Rectangle_86" data-name="Rectangle 86" width="458" height="441" fill="#fff"/>
  <path id="Path_124" data-name="Path 124" d="M316.923,179.131a32.494,32.494,0,1,0-32.494-32.495A32.5,32.5,0,0,0,316.923,179.131Z" transform="translate(-8.103 16.206)" fill="#ebebeb"/>
  <path id="Path_125" data-name="Path 125" d="M337.323,62.714H71.955A19.011,19.011,0,0,0,53,81.872V303.509a19.011,19.011,0,0,0,18.955,19.158H337.323a19.011,19.011,0,0,0,18.955-19.158V81.872A19.011,19.011,0,0,0,337.323,62.714ZM267.529,196.549a11.626,11.626,0,0,0-8.665-4.2c-3.452,0-5.889,1.625-8.665,3.859l-12.658,10.7c-2.64,1.9-4.739,3.182-7.786,3.182a11.2,11.2,0,0,1-7.446-2.776c-.676-.609-1.9-1.76-2.911-2.776l-36.42-39.4a14.928,14.928,0,0,0-11.306-5.077,15.375,15.375,0,0,0-11.373,5.28l-85.635,103.3V92.3a8.925,8.925,0,0,1,8.868-7.92H325.68a8.593,8.593,0,0,1,8.733,8.124l.2,176.28Z" transform="translate(28.361 24.31)" fill="#ebebeb"/>
</svg>
