<svg id="Instagram" xmlns="http://www.w3.org/2000/svg" xmlns:xlink="http://www.w3.org/1999/xlink" width="220" height="220" viewBox="0 0 220 220">
  <defs>
    <radialGradient id="radial-gradient" cx="0.149" cy="1.003" r="1.278" gradientUnits="objectBoundingBox">
      <stop offset="0" stop-color="#ffb140"/>
      <stop offset="0.256" stop-color="#ff5445"/>
      <stop offset="0.599" stop-color="#fc2b82"/>
      <stop offset="1" stop-color="#8e40b7"/>
    </radialGradient>
  </defs>
  <g id="Instagram_1_" transform="translate(0)">
    <rect id="Rectangle_78" data-name="Rectangle 78" width="219.224" height="219.224" transform="translate(0.388 0.388)" fill="none"/>
    <path id="Instagram-2" data-name="Instagram" d="M181.918,51.282a13.2,13.2,0,1,1-13.2-13.2A13.2,13.2,0,0,1,181.918,51.282ZM110,146.666A36.666,36.666,0,1,1,146.666,110,36.666,36.666,0,0,1,110,146.666Zm0-93.153A56.487,56.487,0,1,0,166.487,110,56.486,56.486,0,0,0,110,53.513Zm0-33.693c29.372,0,32.85.112,44.449.641,10.725.49,16.55,2.281,20.426,3.788a34.086,34.086,0,0,1,12.648,8.229,34.059,34.059,0,0,1,8.229,12.648c1.506,3.876,3.3,9.7,3.788,20.426.529,11.6.641,15.079.641,44.45s-.112,32.85-.641,44.449c-.49,10.725-2.281,16.55-3.788,20.426a36.437,36.437,0,0,1-20.878,20.878c-3.876,1.506-9.7,3.3-20.426,3.788-11.6.529-15.077.641-44.449.641s-32.852-.112-44.45-.641c-10.725-.49-16.55-2.281-20.426-3.788a34.086,34.086,0,0,1-12.648-8.229,34.08,34.08,0,0,1-8.229-12.648c-1.506-3.876-3.3-9.7-3.788-20.426-.529-11.6-.641-15.079-.641-44.449s.112-32.85.641-44.45c.49-10.725,2.281-16.55,3.788-20.426a34.086,34.086,0,0,1,8.229-12.648A34.059,34.059,0,0,1,45.124,24.25c3.876-1.506,9.7-3.3,20.426-3.788C77.15,19.932,80.628,19.821,110,19.821ZM110,0C80.126,0,76.38.127,64.647.662c-11.708.535-19.705,2.394-26.7,5.113A53.9,53.9,0,0,0,18.463,18.463,53.9,53.9,0,0,0,5.775,37.947c-2.719,7-4.579,14.993-5.113,26.7C.127,76.38,0,80.126,0,110s.127,33.62.662,45.353c.535,11.708,2.394,19.7,5.113,26.7a53.9,53.9,0,0,0,12.688,19.484,53.925,53.925,0,0,0,19.484,12.688c7,2.719,14.993,4.579,26.7,5.113C76.38,219.873,80.126,220,110,220s33.62-.127,45.353-.662c11.708-.535,19.7-2.394,26.7-5.113a56.248,56.248,0,0,0,32.172-32.172c2.719-7,4.579-14.993,5.113-26.7.535-11.732.662-15.479.662-45.353s-.127-33.62-.662-45.353c-.535-11.708-2.394-19.7-5.113-26.7a53.925,53.925,0,0,0-12.688-19.484A53.925,53.925,0,0,0,182.053,5.775c-7-2.719-14.993-4.579-26.7-5.113C143.62.127,139.874,0,110,0Z" transform="translate(0 0)" fill-rule="evenodd" fill="url(#radial-gradient)"/>
  </g>
</svg>
