<svg xmlns="http://www.w3.org/2000/svg" width="109.878" height="67.915" viewBox="0 0 109.878 67.915">
  <g id="Mail" transform="translate(-1 -3)">
    <g id="Group" transform="translate(1 3)">
      <path id="Shape" d="M405.533,40.248l38.85,28.814a8.612,8.612,0,0,1-5.408,1.853H344.9a8.626,8.626,0,0,1-5.423-1.84l38.865-28.827L391.939,50.54Zm-13.593,3.5L339.5,4.853A8.614,8.614,0,0,1,344.9,3h94.071A8.628,8.628,0,0,1,444.4,4.84Zm54.939,21.635L408.946,37.493,446.878,8.945V65.384ZM337,65.384V8.964l37.932,28.529L337,65.384Zm0,0" transform="translate(-337 -3)" fill="#2db9c9" fill-rule="evenodd"/>
    </g>
  </g>
</svg>
