<svg xmlns="http://www.w3.org/2000/svg" xmlns:xlink="http://www.w3.org/1999/xlink" width="193.594" height="180" viewBox="0 0 193.594 180"><defs><linearGradient id="a" y1="0.031" x2="1" y2="1" gradientUnits="objectBoundingBox"><stop offset="0" stop-color="#dedefe"/><stop offset="1" stop-color="#272771"/></linearGradient><filter id="b" x="12.594" y="0" width="181" height="180" filterUnits="userSpaceOnUse"><feOffset dy="4" input="SourceAlpha"/><feGaussianBlur stdDeviation="8" result="c"/><feFlood flood-opacity="0.322"/><feComposite operator="in" in2="c"/><feComposite in="SourceGraphic"/></filter><linearGradient id="d" y1="0.031" x2="1" y2="1" gradientUnits="objectBoundingBox"><stop offset="0" stop-color="#fff"/><stop offset="1" stop-color="#b9b9b9"/></linearGradient><filter id="e" x="0" y="0.292" width="179.417" height="179.417" filterUnits="userSpaceOnUse"><feOffset dy="4" input="SourceAlpha"/><feGaussianBlur stdDeviation="8" result="f"/><feFlood flood-opacity="0.42"/><feComposite operator="in" in2="f"/><feComposite in="SourceGraphic"/></filter></defs><g transform="translate(-742.5 -3723.896)"><g transform="translate(766.5 3744.016)"><g transform="matrix(1, 0, 0, 1, -24, -20.12)" filter="url(#b)"><path d="M66,0h1a66,66,0,0,1,66,66v54a12,12,0,0,1-12,12H66A66,66,0,0,1,0,66v0A66,66,0,0,1,66,0Z" transform="translate(36.59 20)" fill="url(#a)"/></g><g transform="matrix(1, 0, 0, 1, -24, -20.12)" filter="url(#e)"><path d="M119.715,131.417H65.708A65.726,65.726,0,0,1,40.131,5.164a65.689,65.689,0,0,1,91.286,60.544v54.007a11.7,11.7,0,0,1-11.7,11.7Zm-54-108.674a42.871,42.871,0,0,0-9.742,84.621,41.828,41.828,0,0,0,9,1.171h1.621a41.828,41.828,0,0,0,9-1.171,42.871,42.871,0,0,0-9.743-84.621h-.14Zm-1.28,64.1h-9V45.068H69.476a14.089,14.089,0,0,1,0,28.177H64.434V86.838Zm0-32.768V64.244h5.042a5.127,5.127,0,0,0,5.041-5.132,5.033,5.033,0,0,0-5.031-5.041H64.434Z" transform="translate(24 20.29)" fill="url(#d)"/></g></g></g></svg>