<svg xmlns="http://www.w3.org/2000/svg" width="100" height="100" viewBox="0 0 100 100">
  <path id="Phone" d="M192,206.977a23.443,23.443,0,0,0,.71,5.007,28.216,28.216,0,0,0,1.491,4.865q1.492,3.551,8.665,7.528a26.329,26.329,0,0,0,16.939,3.374,30.7,30.7,0,0,0,4.084-.888q2.273-.639,3.374-1.03t3.942-1.456q2.841-1.065,3.48-1.278a64.324,64.324,0,0,0,12.429-5.895A105.358,105.358,0,0,0,265.9,201.9,105.357,105.357,0,0,0,281.2,183.114a64.325,64.325,0,0,0,5.895-12.429q.213-.639,1.278-3.48t1.456-3.942q.391-1.1,1.03-3.374a30.7,30.7,0,0,0,.888-4.084,26.328,26.328,0,0,0-3.374-16.939q-3.977-7.173-7.528-8.665a28.215,28.215,0,0,0-4.865-1.492,23.443,23.443,0,0,0-5.007-.71,3.978,3.978,0,0,0-1.491.213q-1.278.426-3.764,5.4-.781,1.349-2.131,3.835t-2.486,4.51q-1.136,2.024-2.2,3.8-.213.284-1.243,1.776a19.84,19.84,0,0,0-1.527,2.521,4.633,4.633,0,0,0-.5,2.024q0,1.42,2.024,3.551a34.624,34.624,0,0,0,4.4,3.906,42.776,42.776,0,0,1,4.4,3.764q2.024,1.989,2.024,3.267a4.8,4.8,0,0,1-.355,1.6,15.49,15.49,0,0,1-.6,1.456q-.249.5-.994,1.7t-.817,1.349a70.392,70.392,0,0,1-29.048,29.048q-.142.071-1.349.817t-1.7.994a15.508,15.508,0,0,1-1.456.6,4.8,4.8,0,0,1-1.6.355q-1.278,0-3.267-2.024a42.774,42.774,0,0,1-3.764-4.4,34.621,34.621,0,0,0-3.906-4.4q-2.131-2.024-3.551-2.024a4.632,4.632,0,0,0-2.024.5,19.835,19.835,0,0,0-2.521,1.527q-1.491,1.03-1.776,1.243-1.776,1.065-3.8,2.2t-4.51,2.486q-2.486,1.349-3.835,2.131-4.972,2.486-5.4,3.764A3.978,3.978,0,0,0,192,206.977Z" transform="translate(-192 -128)" fill="#2db9c9"/>
</svg>
