<svg xmlns="http://www.w3.org/2000/svg" width="79.842" height="154.088" viewBox="0 0 79.842 154.088">
  <g id="Group_79" data-name="Group 79" transform="translate(-165.106 -67.685)">
    <path id="Group_14" data-name="Group 14" d="M60.418,1.938H16.112a13.842,13.842,0,0,0-14.1,13.57.068.068,0,0,0,.125.035A16.571,16.571,0,0,1,8.047,9.832a15.893,15.893,0,0,1,8.065-2.077H60.418a15.894,15.894,0,0,1,8.065,2.078,16.572,16.572,0,0,1,5.907,5.712.068.068,0,0,0,.125-.035A13.841,13.841,0,0,0,60.418,1.938ZM2.014,127.947V23.263a13.841,13.841,0,0,1,14.1-13.57H60.418a13.842,13.842,0,0,1,14.1,13.57V127.947a13.842,13.842,0,0,1-14.1,13.57H16.112A13.842,13.842,0,0,1,2.014,127.947Zm58.4,15.508a15.9,15.9,0,0,0,8.065-2.077,16.574,16.574,0,0,0,5.908-5.712.068.068,0,0,1,.125.035,13.842,13.842,0,0,1-14.1,13.57H16.112a13.842,13.842,0,0,1-14.1-13.57.068.068,0,0,1,.125-.035,16.573,16.573,0,0,0,5.908,5.712,15.9,15.9,0,0,0,8.065,2.077ZM0,23.263V135.7c0,8.564,7.213,15.508,16.112,15.508H60.418c8.9,0,16.112-6.944,16.112-15.508V15.508C76.53,6.944,69.316,0,60.418,0H16.112C7.213,0,0,6.944,0,15.508Z" transform="translate(166.762 69.124)" fill="#fff" fill-rule="evenodd"/>
    <path id="Group_14-2" data-name="Group 14" d="M60.418,1.938H16.112a13.842,13.842,0,0,0-14.1,13.57.068.068,0,0,0,.125.035A16.571,16.571,0,0,1,8.047,9.832a15.893,15.893,0,0,1,8.065-2.077H60.418a15.894,15.894,0,0,1,8.065,2.078,16.572,16.572,0,0,1,5.907,5.712.068.068,0,0,0,.125-.035A13.841,13.841,0,0,0,60.418,1.938ZM2.014,127.947V23.263a13.841,13.841,0,0,1,14.1-13.57H60.418a13.842,13.842,0,0,1,14.1,13.57V127.947a13.842,13.842,0,0,1-14.1,13.57H16.112A13.842,13.842,0,0,1,2.014,127.947Zm58.4,15.508a15.9,15.9,0,0,0,8.065-2.077,16.574,16.574,0,0,0,5.908-5.712.068.068,0,0,1,.125.035,13.842,13.842,0,0,1-14.1,13.57H16.112a13.842,13.842,0,0,1-14.1-13.57.068.068,0,0,1,.125-.035,16.573,16.573,0,0,0,5.908,5.712,15.9,15.9,0,0,0,8.065,2.077ZM0,23.263V135.7c0,8.564,7.213,15.508,16.112,15.508H60.418c8.9,0,16.112-6.944,16.112-15.508V15.508C76.53,6.944,69.316,0,60.418,0H16.112C7.213,0,0,6.944,0,15.508ZM15.429,47.029a6.048,6.048,0,0,0-6.048,6.048v3.7a6.048,6.048,0,0,0,6.048,6.048h3.7a6.048,6.048,0,0,0,6.048-6.048v-3.7a6.048,6.048,0,0,0-6.048-6.048Zm20.984,0a6.048,6.048,0,0,0-6.048,6.048v3.7a6.048,6.048,0,0,0,6.048,6.048h3.7a6.048,6.048,0,0,0,6.048-6.048v-3.7a6.048,6.048,0,0,0-6.048-6.048Zm20.984,0a6.048,6.048,0,0,0-6.048,6.048v3.7A6.048,6.048,0,0,0,57.4,62.829h3.7a6.048,6.048,0,0,0,6.048-6.048v-3.7A6.048,6.048,0,0,0,61.1,47.029ZM15.43,68.013a6.048,6.048,0,0,0-6.048,6.048v3.7a6.048,6.048,0,0,0,6.048,6.048h3.7a6.048,6.048,0,0,0,6.048-6.048v-3.7a6.048,6.048,0,0,0-6.048-6.048Zm20.984,0a6.048,6.048,0,0,0-6.048,6.048v3.7a6.048,6.048,0,0,0,6.048,6.048h3.7a6.048,6.048,0,0,0,6.048-6.048v-3.7a6.048,6.048,0,0,0-6.048-6.048Zm20.984,0a6.048,6.048,0,0,0-6.048,6.048v3.7A6.048,6.048,0,0,0,57.4,83.813h3.7a6.048,6.048,0,0,0,6.048-6.048v-3.7A6.048,6.048,0,0,0,61.1,68.013ZM15.43,89a6.048,6.048,0,0,0-6.048,6.048v3.7A6.048,6.048,0,0,0,15.43,104.8h3.7a6.048,6.048,0,0,0,6.048-6.048v-3.7A6.048,6.048,0,0,0,19.133,89Zm20.984,0a6.048,6.048,0,0,0-6.048,6.048v3.7a6.048,6.048,0,0,0,6.048,6.048h3.7a6.048,6.048,0,0,0,6.048-6.048v-3.7A6.048,6.048,0,0,0,40.117,89ZM57.4,89a6.048,6.048,0,0,0-6.048,6.048v3.7A6.048,6.048,0,0,0,57.4,104.8h3.7a6.048,6.048,0,0,0,6.048-6.048v-3.7A6.048,6.048,0,0,0,61.1,89Z" transform="translate(166.762 69.124)" fill="#fff" fill-rule="evenodd"/>
    <path id="Group_14-3" data-name="Group 14" d="M63.032,1.975H16.809C8.687,1.975,2.1,8.167,2.1,15.8a.071.071,0,0,0,.13.036A17.113,17.113,0,0,1,8.4,10.019,16.891,16.891,0,0,1,16.809,7.9H63.032a16.891,16.891,0,0,1,8.414,2.117,17.114,17.114,0,0,1,6.163,5.82.071.071,0,0,0,.13-.036C77.74,8.167,71.155,1.975,63.032,1.975ZM2.1,130.383V23.706c0-7.637,6.585-13.828,14.708-13.828H63.032c8.123,0,14.708,6.191,14.708,13.828V130.383c0,7.637-6.585,13.828-14.708,13.828H16.809C8.686,144.211,2.1,138.02,2.1,130.383Zm60.931,15.8a16.893,16.893,0,0,0,8.414-2.117,17.116,17.116,0,0,0,6.163-5.821.071.071,0,0,1,.13.036c0,7.637-6.585,13.828-14.708,13.828H16.809c-8.123,0-14.708-6.192-14.708-13.828a.071.071,0,0,1,.13-.036A17.115,17.115,0,0,0,8.4,144.07a16.893,16.893,0,0,0,8.414,2.117ZM0,23.706V138.285c0,8.728,7.526,15.8,16.809,15.8H63.032c9.283,0,16.809-7.076,16.809-15.8V15.8C79.841,7.076,72.315,0,63.032,0H16.809C7.526,0,0,7.076,0,15.8Z" transform="translate(165.106 67.685)" fill="#fff" fill-rule="evenodd"/>
  </g>
</svg>
