<svg xmlns="http://www.w3.org/2000/svg" width="105.094" height="128.424" viewBox="0 0 105.094 128.424">
  <g id="ServiceWeb" transform="translate(2 2)">
    <path id="Path_45" data-name="Path 45" d="M104.726,59.363A45.363,45.363,0,1,1,59.363,14,45.363,45.363,0,0,1,104.726,59.363Z" transform="translate(-3.631 -3.631)" fill="none" stroke="#fff" stroke-width="4"/>
    <path id="Path_46" data-name="Path 46" d="M57.889,113.233A55.617,55.617,0,1,1,57.889,2m0,111.233a55.824,55.824,0,0,0,32.244-10.184M57.889,113.233v13.191m0,0H43.907m13.983,0H72.42" transform="translate(-2 -2)" fill="none" stroke="rgba(255,255,255,0.5)" stroke-linecap="round" stroke-width="4"/>
    <path id="Path_47" data-name="Path 47" d="M47.391,47.4,35.736,59.868a6.912,6.912,0,0,0,0,9.44l11.655,12.47" transform="translate(-6.333 -8.172)" fill="none" stroke="#fff" stroke-linecap="round" stroke-linejoin="round" stroke-width="4"/>
    <path id="Path_48" data-name="Path 48" d="M83.813,47.4l11.655,12.47a6.912,6.912,0,0,1,0,9.44L83.813,81.778" transform="translate(-13.122 -8.172)" fill="none" stroke="#fff" stroke-linecap="round" stroke-linejoin="round" stroke-width="4"/>
    <path id="Path_49" data-name="Path 49" d="M60.13,40.84,71.393,85.756" transform="translate(-9.903 -7.28)" fill="none" stroke="#fff" stroke-linecap="round" stroke-linejoin="round" stroke-width="4"/>
  </g>
</svg>
