<svg xmlns="http://www.w3.org/2000/svg" width="76.58" height="77" viewBox="0 0 76.58 77">
  <g id="ServiceMedia" transform="translate(2 2.404)">
    <rect id="Rectangle_7" data-name="Rectangle 7" width="72" height="73" rx="18" transform="translate(0.193 -0.404)" fill="none" stroke="#fff" stroke-width="4"/>
    <path id="Path_52" data-name="Path 52" d="M72.852,35.7H74.58V17.553A15.553,15.553,0,0,0,59.027,2H17.553A15.553,15.553,0,0,0,2,17.553V35.7H20.932V33.97a17.281,17.281,0,0,1,34.562,0V35.7H72.852Z" transform="translate(-2 -2)" fill="rgba(255,255,255,0.5)" stroke="#fff" stroke-width="4"/>
    <path id="Path_53" data-name="Path 53" d="M58.562,36.281A17.281,17.281,0,1,1,41.281,19,17.281,17.281,0,0,1,58.562,36.281Z" transform="translate(-4.991 -4.311)" fill="rgba(255,255,255,0.25)" stroke="#fff" stroke-width="4"/>
  </g>
</svg>
