<svg xmlns="http://www.w3.org/2000/svg" width="162.792" height="119.671" viewBox="0 0 162.792 119.671">
  <path id="ServicePC" d="M13.825,3.456H148.967a10.369,10.369,0,0,1,10.369,10.369V72.416a10.369,10.369,0,0,1-10.369,10.369H91.533a4.3,4.3,0,0,0-1.86-.42H73.119a4.3,4.3,0,0,0-1.86.42H13.825A10.369,10.369,0,0,1,3.456,72.416V13.825A10.369,10.369,0,0,1,13.825,3.456Zm55,82.785h-55A13.825,13.825,0,0,1,0,72.416V13.825A13.825,13.825,0,0,1,13.825,0H148.967a13.825,13.825,0,0,1,13.825,13.825V72.416a13.825,13.825,0,0,1-13.825,13.825h-55a4.193,4.193,0,0,1,.022.444v14.091h17.443c4.281,0,7.751,6.861,7.751,11.143a7.752,7.752,0,0,1-7.751,7.752H51.357a7.752,7.752,0,0,1-7.752-7.752c0-4.281,3.471-11.143,7.752-11.143H68.8V86.685A4.361,4.361,0,0,1,68.821,86.241Zm3.556,0a.861.861,0,0,0-.123.444v17.547h-20.9c-.279,0-1.315.359-2.548,2.338a11.311,11.311,0,0,0-1.747,5.348,4.3,4.3,0,0,0,4.3,4.3h60.078a4.3,4.3,0,0,0,4.3-4.3,11.311,11.311,0,0,0-1.747-5.348c-1.234-1.98-2.27-2.338-2.548-2.338h-20.9V86.685a.863.863,0,0,0-.123-.444ZM59.62,21.6H78.629V40.61H59.62ZM78.629,44.931H59.62V63.94H78.629ZM82.949,21.6h19.009V40.61H82.949Zm19.009,23.329H82.949V63.94h19.009Z" fill="#fff" fill-rule="evenodd"/>
</svg>
