<svg xmlns="http://www.w3.org/2000/svg" width="87.609" height="56.947" viewBox="0 0 87.609 56.947">
  <g id="ServiceGraphicDesign" transform="translate(2.002 1.973)">
    <path id="Path_54" data-name="Path 54" d="M93.118,10.119c-24.482,1.455-40.052,17.918-46.31,28.473a1.508,1.508,0,0,0,1.7,2.251c11.209-2.781,31.55-11.134,45.918-28.1A1.582,1.582,0,0,0,93.118,10.119Z" transform="translate(-11.264 -6.644)" fill="none" stroke="#fff" stroke-linecap="round" stroke-linejoin="round" stroke-width="4"/>
    <path id="Path_55" data-name="Path 55" d="M11.032,61.884C23.292,41.826,29.383,44.6,36.541,47.549a1.764,1.764,0,0,1,.925,2.41C35.143,54.524,30.528,61.392,12.7,64.39A1.65,1.65,0,0,1,11.032,61.884Z" transform="translate(-6.398 -11.453)" fill="none" stroke="#fff" stroke-linecap="round" stroke-linejoin="round" stroke-width="4"/>
    <path id="Path_56" data-name="Path 56" d="M7.007,31.64h0a3.333,3.333,0,0,1,2.24-.186,32.251,32.251,0,0,1,3.951.891l.341.091a20.038,20.038,0,0,0,4.417.833,4.231,4.231,0,0,0,2.239-.511,3.043,3.043,0,0,0,1.457-2.238,5.708,5.708,0,0,0-1.824-4.949,21.389,21.389,0,0,0-1.852-1.661l-.386-.316c-.516-.422-1.021-.835-1.526-1.285a11.449,11.449,0,0,1-3.031-3.9,11.251,11.251,0,0,1-.652-6.249C14.181,8.688,17.31,7,21.505,6.382c4.366-.647,9.646-.1,15.206.734,9.248,1.38,17.154,5.254,22.473,10.313s7.949,11.186,7.053,17.187S61.042,45.706,54.472,48.994c-6.526,3.266-15.154,4.664-24.34,3.325C19.355,48.476,12.253,43.844,8.595,39.777A10.173,10.173,0,0,1,5.739,34.61,3.012,3.012,0,0,1,7.007,31.64Z" transform="translate(-5.708 -6.098)" fill="none" stroke="rgba(255,255,255,0.6)" stroke-width="4"/>
  </g>
</svg>
