<svg id="ServiceNetwork" xmlns="http://www.w3.org/2000/svg" width="82.604" height="82.604" viewBox="0 0 82.604 82.604">
  <path id="iconfinder_share-link-connection-network_2205226" d="M41.147,11.756a5.878,5.878,0,1,0-5.878-5.878A6.028,6.028,0,0,0,35.4,7.107L10.29,19.666a5.878,5.878,0,1,0,0,7.695L35.4,39.916A5.959,5.959,0,1,0,36.736,37.3L11.624,24.741a5.772,5.772,0,0,0,0-2.457L36.739,9.728A5.84,5.84,0,0,0,41.147,11.756Z" transform="translate(35.578 35.578)" fill="#fff"/>
  <path id="iconfinder_share-link-connection-network_2205226-2" data-name="iconfinder_share-link-connection-network_2205226" d="M41.147,11.756a5.878,5.878,0,1,0-5.878-5.878A6.028,6.028,0,0,0,35.4,7.107L10.29,19.666a5.878,5.878,0,1,0,0,7.695L35.4,39.916A5.959,5.959,0,1,0,36.736,37.3L11.624,24.741a5.772,5.772,0,0,0,0-2.457L36.739,9.728A5.84,5.84,0,0,0,41.147,11.756Z" transform="translate(35.578 0)" fill="#fff"/>
  <path id="iconfinder_share-link-connection-network_2205226-3" data-name="iconfinder_share-link-connection-network_2205226" d="M41.147,11.756a5.878,5.878,0,1,0-5.878-5.878A6.028,6.028,0,0,0,35.4,7.107L10.29,19.666a5.878,5.878,0,1,0,0,7.695L35.4,39.916A5.959,5.959,0,1,0,36.736,37.3L11.624,24.741a5.772,5.772,0,0,0,0-2.457L36.739,9.728A5.84,5.84,0,0,0,41.147,11.756Z" transform="translate(47.026 47.026) rotate(180)" fill="#fff"/>
</svg>
