<svg xmlns="http://www.w3.org/2000/svg" width="482" height="176" viewBox="0 0 482 176">
  <g id="Path_91" data-name="Path 91" fill="none" stroke-linecap="round" stroke-linejoin="round" stroke-dasharray="16 26">
    <path d="M0,0H482V176H0Z" stroke="none"/>
    <path d="M 42 0 L 58 0 C 59.10455322265625 0 60 0.8954315185546875 60 2 C 60 3.104568481445313 59.10455322265625 4 58 4 L 42 4 C 40.89544677734375 4 40 3.104568481445313 40 2 C 40 0.8954315185546875 40.89544677734375 0 42 0 Z M 84 0 L 100 0 C 101.1045532226563 0 102 0.8954315185546875 102 2 C 102 3.104568481445313 101.1045532226563 4 100 4 L 84 4 C 82.89544677734375 4 82 3.104568481445313 82 2 C 82 0.8954315185546875 82.89544677734375 0 84 0 Z M 126 0 L 142 0 C 143.1045532226563 0 144 0.8954315185546875 144 2 C 144 3.104568481445313 143.1045532226563 4 142 4 L 126 4 C 124.8954467773438 4 124 3.104568481445313 124 2 C 124 0.8954315185546875 124.8954467773438 0 126 0 Z M 168 0 L 184 0 C 185.1045532226563 0 186 0.8954315185546875 186 2 C 186 3.104568481445313 185.1045532226563 4 184 4 L 168 4 C 166.8954467773438 4 166 3.104568481445313 166 2 C 166 0.8954315185546875 166.8954467773438 0 168 0 Z M 210 0 L 226 0 C 227.1045684814453 0 228 0.8954315185546875 228 2 C 228 3.104568481445313 227.1045684814453 4 226 4 L 210 4 C 208.8954467773438 4 208 3.104568481445313 208 2 C 208 0.8954315185546875 208.8954467773438 0 210 0 Z M 252 0 L 268 0 C 269.1045532226563 0 270 0.8954315185546875 270 2 C 270 3.104568481445313 269.1045532226563 4 268 4 L 252 4 C 250.8954315185547 4 250 3.104568481445313 250 2 C 250 0.8954315185546875 250.8954315185547 0 252 0 Z M 294 0 L 310 0 C 311.1045532226563 0 312 0.8954315185546875 312 2 C 312 3.104568481445313 311.1045532226563 4 310 4 L 294 4 C 292.8954467773438 4 292 3.104568481445313 292 2 C 292 0.8954315185546875 292.8954467773438 0 294 0 Z M 336 0 L 352 0 C 353.1045532226563 0 354 0.8954315185546875 354 2 C 354 3.104568481445313 353.1045532226563 4 352 4 L 336 4 C 334.8954467773438 4 334 3.104568481445313 334 2 C 334 0.8954315185546875 334.8954467773438 0 336 0 Z M 378 0 L 394 0 C 395.1045532226563 0 396 0.8954315185546875 396 2 C 396 3.104568481445313 395.1045532226563 4 394 4 L 378 4 C 376.8954467773438 4 376 3.104568481445313 376 2 C 376 0.8954315185546875 376.8954467773438 0 378 0 Z M 420 0 L 436 0 C 437.1045532226563 0 438 0.8954315185546875 438 2 C 438 3.104568481445313 437.1045532226563 4 436 4 L 420 4 C 418.8954467773438 4 418 3.104568481445313 418 2 C 418 0.8954315185546875 418.8954467773438 0 420 0 Z M 462 0 L 478 0 C 479.1045532226563 0 480 0.8954315185546875 480 2 C 480 3.104568481445313 479.1045532226563 4 478 4 L 462 4 C 460.8954467773438 4 460 3.104568481445313 460 2 C 460 0.8954315185546875 460.8954467773438 0 462 0 Z M 480 20 C 481.1045532226563 20 482 20.89543151855469 482 22 C 482 22 482 38 482 38 C 482 39.10456848144531 481.1045532226563 40 480 40 C 478.8954467773438 40 478 39.10456848144531 478 38 L 478 22 C 478 20.89543151855469 478.8954467773438 20 480 20 Z M 480 62 C 481.1045532226563 62 482 62.89543914794922 482 64 C 482 64 482 80 482 80 C 482 81.10456085205078 481.1045532226563 82 480 82 C 478.8954467773438 82 478 81.10456085205078 478 80 L 478 64 C 478 62.89543914794922 478.8954467773438 62 480 62 Z M 480 104 C 481.1045532226563 104 482 104.8954391479492 482 106 C 482 106 482 122 482 122 C 482 123.1045608520508 481.1045532226563 124 480 124 C 478.8954467773438 124 478 123.1045608520508 478 122 L 478 106 C 478 104.8954391479492 478.8954467773438 104 480 104 Z M 480 146 C 481.1045532226563 146 482 146.8954315185547 482 148 C 482 148 482 164 482 164 C 482 165.1045684814453 481.1045532226563 166 480 166 C 478.8954467773438 166 478 165.1045684814453 478 164 L 478 148 C 478 146.8954315185547 478.8954467773438 146 480 146 Z M 452 172 L 468 172 C 469.1045532226563 172 470 172.8954315185547 470 174 C 470 175.1045684814453 469.1045532226563 176 468 176 C 468 176 452 176 452 176 C 450.8954467773438 176 450 175.1045684814453 450 174 C 450 172.8954315185547 450.8954467773438 172 452 172 Z M 410 172 L 426 172 C 427.1045532226563 172 428 172.8954315185547 428 174 C 428 175.1045684814453 427.1045532226563 176 426 176 C 426 176 410 176 410 176 C 408.8954467773438 176 408 175.1045684814453 408 174 C 408 172.8954315185547 408.8954467773438 172 410 172 Z M 368 172 L 384 172 C 385.1045532226563 172 386 172.8954315185547 386 174 C 386 175.1045684814453 385.1045532226563 176 384 176 C 384 176 368 176 368 176 C 366.8954467773438 176 366 175.1045684814453 366 174 C 366 172.8954315185547 366.8954467773438 172 368 172 Z M 326 172 L 342 172 C 343.1045532226563 172 344 172.8954315185547 344 174 C 344 175.1045684814453 343.1045532226563 176 342 176 C 342 176 326 176 326 176 C 324.8954467773438 176 324 175.1045684814453 324 174 C 324 172.8954315185547 324.8954467773438 172 326 172 Z M 284 172 L 300 172 C 301.1045532226563 172 302 172.8954315185547 302 174 C 302 175.1045684814453 301.1045532226563 176 300 176 C 300 176 284 176 284 176 C 282.8954467773438 176 282 175.1045684814453 282 174 C 282 172.8954315185547 282.8954467773438 172 284 172 Z M 242 172 L 258 172 C 259.1045532226563 172 260 172.8954315185547 260 174 C 260 175.1045684814453 259.1045532226563 176 258 176 C 258 176 242 176 242 176 C 240.8954315185547 176 240 175.1045684814453 240 174 C 240 172.8954315185547 240.8954315185547 172 242 172 Z M 200 172 L 216 172 C 217.1045532226563 172 218 172.8954315185547 218 174 C 218 175.1045684814453 217.1045532226563 176 216 176 C 216 176 200 176 200 176 C 198.8954467773438 176 198 175.1045684814453 198 174 C 198 172.8954315185547 198.8954467773438 172 200 172 Z M 158 172 L 174 172 C 175.1045532226563 172 176 172.8954315185547 176 174 C 176 175.1045684814453 175.1045532226563 176 174 176 C 174 176 158 176 158 176 C 156.8954467773438 176 156 175.1045684814453 156 174 C 156 172.8954315185547 156.8954467773438 172 158 172 Z M 116 172 L 132 172 C 133.1045532226563 172 134 172.8954315185547 134 174 C 134 175.1045684814453 133.1045532226563 176 132 176 C 132 176 116 176 116 176 C 114.8954467773438 176 114 175.1045684814453 114 174 C 114 172.8954315185547 114.8954467773438 172 116 172 Z M 74 172 L 90 172 C 91.10455322265625 172 92 172.8954315185547 92 174 C 92 175.1045684814453 91.10455322265625 176 90 176 C 90 176 74 176 74 176 C 72.89544677734375 176 72 175.1045684814453 72 174 C 72 172.8954315185547 72.89544677734375 172 74 172 Z M 32 172 L 48 172 C 49.10455322265625 172 50 172.8954315185547 50 174 C 50 175.1045684814453 49.10455322265625 176 48 176 C 48 176 32 176 32 176 C 30.89544677734375 176 30 175.1045684814453 30 174 C 30 172.8954315185547 30.89544677734375 172 32 172 Z M 2 164 C 3.10455322265625 164 4 164.8954315185547 4 166 L 4 172 L 6 172 C 7.10455322265625 172 8 172.8954315185547 8 174 C 8 175.1045684814453 7.10455322265625 176 6 176 C 6 176 0 176 0 176 L 0 166 C 0 164.8954315185547 0.89544677734375 164 2 164 Z M 2 122 C 3.10455322265625 122 4 122.8954391479492 4 124 L 4 140 C 4 141.1045532226563 3.10455322265625 142 2 142 C 0.89544677734375 142 0 141.1045532226563 0 140 L 0 124 C 0 122.8954391479492 0.89544677734375 122 2 122 Z M 2 80 C 3.10455322265625 80 4 80.89543914794922 4 82 L 4 98 C 4 99.10456085205078 3.10455322265625 100 2 100 C 0.89544677734375 100 0 99.10456085205078 0 98 L 0 82 C 0 80.89543914794922 0.89544677734375 80 2 80 Z M 2 38 C 3.10455322265625 38 4 38.89543151855469 4 40 L 4 56 C 4 57.10456085205078 3.10455322265625 58 2 58 C 0.89544677734375 58 0 57.10456085205078 0 56 L 0 40 C 0 38.89543151855469 0.89544677734375 38 2 38 Z M 0 0 L 16 0 C 17.10455322265625 0 18 0.8954315185546875 18 2 C 18 3.104568481445313 17.10455322265625 4 16 4 L 4 4 L 4 14 C 4 15.10456848144531 3.10455322265625 16 2 16 C 0.89544677734375 16 0 15.10456848144531 0 14 L 0 0 Z" stroke="none" fill="#9ee250"/>
  </g>
</svg>
