<svg id="WhatsApp" xmlns="http://www.w3.org/2000/svg" width="220" height="220" viewBox="0 0 220 220">
  <g id="WhatsApp-2" data-name="WhatsApp">
    <rect id="Rectangle_79" data-name="Rectangle 79" width="220" height="220" fill="none"/>
    <path id="WhatsApp_1_" d="M79.258,55.875c-2.133-5.108-3.75-5.3-6.982-5.433-1.1-.064-2.325-.127-3.685-.127-4.2,0-8.6,1.229-11.251,3.945-3.231,3.3-11.249,10.993-11.249,26.771S57.6,112.071,59.151,114.207c1.617,2.131,22.435,34.983,54.759,48.372,25.278,10.476,32.778,9.5,38.531,8.278,8.4-1.81,18.942-8.021,21.594-15.52s2.65-13.9,1.873-15.262-2.91-2.131-6.141-3.75-18.942-9.377-21.916-10.412c-2.91-1.1-5.689-.71-7.886,2.394a134.976,134.976,0,0,1-8.6,11.382c-1.939,2.069-5.108,2.329-7.758,1.229a81.053,81.053,0,0,1-25.795-15.909c-9.5-8.47-15.969-19.009-17.842-22.179-1.875-3.233-.194-5.11,1.292-6.854,1.617-2.006,3.168-3.427,4.783-5.3A19.264,19.264,0,0,0,89.6,85.626c1.1-2.133.323-4.333-.452-5.95S81.91,62.275,79.258,55.875ZM109.967,0A109.925,109.925,0,0,0,20.946,174.472L7.239,215.342l42.281-13.513A109.98,109.98,0,1,0,110.033,0h-.064V0Z" fill="#67c15e" fill-rule="evenodd"/>
  </g>
</svg>
